<?xml version="1.0" encoding="utf-8"?>
<!-- Generator: Adobe Illustrator 18.1.1, SVG Export Plug-In . SVG Version: 6.00 Build 0)  -->
<svg version="1.1" xmlns="http://www.w3.org/2000/svg" xmlns:xlink="http://www.w3.org/1999/xlink" x="0px" y="0px"
	 viewBox="0 0 2096.7 474.9" enable-background="new 0 0 2096.7 474.9" xml:space="preserve">
<g id="Layer_1">
	<path fill="none" stroke="#000000" stroke-width="5" stroke-miterlimit="10" d="M2092.6,60.3c-5.6,0.2-20.1-0.3-34.8-11.8
		c-17.4-13.7-23.7-34.1-25.4-40.2c-658.3,0-1316.6,0-1974.9,0c-1.8,6.3-6.6,20.3-18.2,32C26.2,53.6,12,55.9,6.7,56.4v361.5
		c6.6-0.3,20.1,0.2,34.7,9.6c19.9,12.9,28.5,34,31,41.1c654.4-0.1,1308.9-0.3,1963.3-0.4c1.6-6.1,6.9-24,21.9-37.4
		c14.8-13.3,30-14.2,35.2-14.2C2092.8,297.8,2092.7,179,2092.6,60.3z"/>
	<path fill="none" stroke="#000000" stroke-width="5" stroke-linecap="round" stroke-linejoin="round" stroke-miterlimit="10" d="
		M1948.1,402H153.4c-37.8,0-68.7-30.9-68.7-68.7V139.2c0-37.8,30.9-68.7,68.7-68.7h1794.7c37.8,0,68.7,30.9,68.7,68.7v194.2
		C2016.7,371.1,1985.8,402,1948.1,402z"/>
	
		<line fill="none" stroke="#000000" stroke-width="5" stroke-linecap="round" stroke-linejoin="round" stroke-miterlimit="10" x1="153.7" y1="71" x2="153.7" y2="402"/>
	
		<line fill="none" stroke="#000000" stroke-width="5" stroke-linecap="round" stroke-linejoin="round" stroke-miterlimit="10" x1="1947.7" y1="71" x2="1947.7" y2="402"/>
</g>
<g id="Layer_3">
	<g>
		<path d="M123.9,348.7c-1.5,0-3-0.1-4.6-0.4c-1.6-0.3-3-0.8-4.2-1.5c-1.3-0.7-2.3-1.7-3.1-2.9c-0.8-1.2-1.2-2.8-1.2-4.7
			c0-1.9,0.4-3.5,1.2-4.7c0.8-1.2,1.8-2.2,3.1-2.9c1.3-0.7,2.7-1.2,4.2-1.5c1.6-0.3,3.1-0.4,4.6-0.4c1.5,0,3,0.1,4.6,0.4
			c1.6,0.3,3,0.8,4.2,1.5c1.3,0.7,2.3,1.7,3.1,2.9c0.8,1.2,1.2,2.8,1.2,4.7c0,1.9-0.4,3.5-1.2,4.7c-0.8,1.2-1.8,2.2-3.1,2.9
			c-1.3,0.7-2.7,1.2-4.2,1.5C126.9,348.5,125.4,348.7,123.9,348.7z M123.9,343.3c0.7,0,1.5,0,2.4-0.1c0.9-0.1,1.8-0.2,2.7-0.5
			c0.9-0.3,1.6-0.7,2.2-1.2c0.6-0.5,0.9-1.3,0.9-2.3c0-1-0.3-1.7-0.9-2.3c-0.6-0.6-1.3-1-2.2-1.2c-0.9-0.3-1.8-0.4-2.7-0.5
			c-0.9-0.1-1.7-0.1-2.4-0.1c-0.7,0-1.5,0-2.4,0.1c-0.9,0.1-1.8,0.2-2.7,0.5c-0.9,0.3-1.6,0.7-2.2,1.2c-0.6,0.6-0.9,1.3-0.9,2.3
			c0,1,0.3,1.7,0.9,2.3c0.6,0.5,1.3,0.9,2.2,1.2c0.9,0.3,1.8,0.4,2.7,0.5C122.4,343.2,123.2,343.3,123.9,343.3z"/>
		<path d="M115.9,290.8l0,10.1l3.9,0.1c-0.2-0.6-0.3-1.3-0.3-2.3c0-1.3,0.2-2.5,0.6-3.6c0.4-1.1,0.9-2,1.7-2.8
			c0.7-0.8,1.6-1.4,2.7-1.8c1-0.4,2.2-0.6,3.5-0.6c1.4,0,2.7,0.2,3.9,0.7c1.1,0.5,2.1,1.2,2.9,2c0.8,0.9,1.4,1.9,1.8,3.1
			c0.4,1.2,0.6,2.5,0.6,3.9c0,2.2-0.5,4.1-1.6,5.5c-1.1,1.5-2.7,2.5-4.9,3.1l-1.3-5.7c0.9-0.1,1.7-0.5,2.2-1.2
			c0.6-0.6,0.8-1.4,0.8-2.3c0-1.2-0.4-2.1-1.1-2.8c-0.7-0.7-1.6-1-2.7-1c-0.8,0-1.5,0.2-2.1,0.5c-0.5,0.3-1,0.8-1.3,1.4
			c-0.3,0.6-0.5,1.2-0.7,1.9c-0.1,0.7-0.2,1.4-0.2,2.1c0,0.9,0.1,1.8,0.3,2.7c0.2,0.9,0.4,1.8,0.7,2.6l-14.1-0.3l0-15.4L115.9,290.8
			z"/>
		<path d="M130.9,267.2l-8.9-9.9c-0.5-0.5-1-1-1.5-1.5c-0.6-0.5-1.2-0.8-2-0.8c-0.9,0-1.5,0.3-2,0.9c-0.5,0.6-0.7,1.4-0.7,2.2
			c0,1,0.3,1.8,0.9,2.4c0.6,0.6,1.4,0.9,2.3,1l-0.4,5.4c-1.3-0.1-2.5-0.3-3.4-0.8c-1-0.5-1.8-1.1-2.4-1.9c-0.6-0.8-1.1-1.7-1.5-2.8
			c-0.3-1.1-0.5-2.2-0.5-3.5c0-1.2,0.2-2.2,0.5-3.2c0.3-1,0.8-1.9,1.4-2.6c0.6-0.7,1.4-1.3,2.4-1.7c1-0.4,2.1-0.6,3.3-0.6
			c0.8,0,1.6,0.1,2.2,0.3c0.7,0.2,1.3,0.4,1.8,0.7c0.5,0.3,1,0.7,1.5,1.1c0.5,0.4,0.9,0.9,1.3,1.3l6.7,7.7l0-11.3l4.8,0l0,17.8
			L130.9,267.2z"/>
		<path d="M123.9,227.3c-1.5,0-3-0.1-4.6-0.4c-1.6-0.3-3-0.8-4.2-1.5c-1.3-0.7-2.3-1.7-3.1-2.9c-0.8-1.2-1.2-2.8-1.2-4.7
			c0-1.9,0.4-3.5,1.2-4.7c0.8-1.2,1.8-2.2,3.1-2.9c1.3-0.7,2.7-1.2,4.2-1.5c1.6-0.3,3.1-0.4,4.6-0.4c1.5,0,3,0.1,4.6,0.4
			c1.6,0.3,3,0.8,4.2,1.5c1.3,0.7,2.3,1.7,3.1,2.9c0.8,1.2,1.2,2.8,1.2,4.7c0,1.9-0.4,3.5-1.2,4.7c-0.8,1.2-1.8,2.2-3.1,2.9
			c-1.3,0.7-2.7,1.2-4.2,1.5C126.9,227.1,125.4,227.3,123.9,227.3z M123.9,221.9c0.7,0,1.5,0,2.4-0.1c0.9-0.1,1.8-0.2,2.7-0.5
			c0.9-0.3,1.6-0.7,2.2-1.2c0.6-0.5,0.9-1.3,0.9-2.3c0-1-0.3-1.7-0.9-2.3c-0.6-0.6-1.3-1-2.2-1.2c-0.9-0.3-1.8-0.4-2.7-0.5
			c-0.9-0.1-1.7-0.1-2.4-0.1c-0.7,0-1.5,0-2.4,0.1c-0.9,0.1-1.8,0.2-2.7,0.5c-0.9,0.3-1.6,0.7-2.2,1.2s-0.9,1.3-0.9,2.3
			c0,1,0.3,1.7,0.9,2.3c0.6,0.5,1.3,0.9,2.2,1.2c0.9,0.3,1.8,0.4,2.7,0.5C122.4,221.8,123.2,221.9,123.9,221.9z"/>
		<path d="M123.9,186.8c-1.5,0-3-0.1-4.6-0.4c-1.6-0.3-3-0.8-4.2-1.5c-1.3-0.7-2.3-1.7-3.1-2.9c-0.8-1.2-1.2-2.8-1.2-4.7
			c0-1.9,0.4-3.5,1.2-4.7c0.8-1.2,1.8-2.2,3.1-2.9c1.3-0.7,2.7-1.2,4.2-1.5c1.6-0.3,3.1-0.4,4.6-0.4c1.5,0,3,0.1,4.6,0.4
			c1.6,0.3,3,0.8,4.2,1.5c1.3,0.7,2.3,1.7,3.1,2.9c0.8,1.2,1.2,2.8,1.2,4.7c0,1.9-0.4,3.5-1.2,4.7c-0.8,1.2-1.8,2.2-3.1,2.9
			c-1.3,0.7-2.7,1.2-4.2,1.5C126.9,186.7,125.4,186.8,123.9,186.8z M123.9,181.4c0.7,0,1.5,0,2.4-0.1c0.9-0.1,1.8-0.2,2.7-0.5
			c0.9-0.3,1.6-0.7,2.2-1.2c0.6-0.5,0.9-1.3,0.9-2.3c0-1-0.3-1.7-0.9-2.3c-0.6-0.6-1.3-1-2.2-1.2c-0.9-0.3-1.8-0.4-2.7-0.5
			c-0.9-0.1-1.7-0.1-2.4-0.1c-0.7,0-1.5,0-2.4,0.1c-0.9,0.1-1.8,0.2-2.7,0.5c-0.9,0.3-1.6,0.7-2.2,1.2s-0.9,1.3-0.9,2.3
			c0,1,0.3,1.7,0.9,2.3c0.6,0.5,1.3,0.9,2.2,1.2c0.9,0.3,1.8,0.4,2.7,0.5C122.4,181.4,123.2,181.4,123.9,181.4z"/>
		<path d="M115.9,128.9l0,10.1l3.9,0.1c-0.2-0.6-0.3-1.3-0.3-2.3c0-1.3,0.2-2.5,0.6-3.6c0.4-1.1,0.9-2,1.7-2.8
			c0.7-0.8,1.6-1.4,2.7-1.8c1-0.4,2.2-0.6,3.5-0.6c1.4,0,2.7,0.2,3.9,0.7c1.1,0.5,2.1,1.2,2.9,2c0.8,0.9,1.4,1.9,1.8,3.1
			c0.4,1.2,0.6,2.5,0.6,3.9c0,2.2-0.5,4.1-1.6,5.5c-1.1,1.5-2.7,2.5-4.9,3.1l-1.3-5.7c0.9-0.1,1.7-0.5,2.2-1.2
			c0.6-0.6,0.8-1.4,0.8-2.3c0-1.2-0.4-2.1-1.1-2.8c-0.7-0.7-1.6-1-2.7-1c-0.8,0-1.5,0.2-2.1,0.5c-0.5,0.3-1,0.8-1.3,1.4
			c-0.3,0.6-0.5,1.2-0.7,1.9c-0.1,0.7-0.2,1.4-0.2,2.1c0,0.9,0.1,1.8,0.3,2.7c0.2,0.9,0.4,1.8,0.7,2.6l-14.1-0.3l0-15.4L115.9,128.9
			z"/>
	</g>
	<g>
		<path d="M1980.9,126.1c1.5,0,3,0.1,4.6,0.4c1.6,0.3,3,0.8,4.2,1.5c1.3,0.7,2.3,1.7,3.1,2.9c0.8,1.2,1.2,2.8,1.2,4.7
			c0,1.9-0.4,3.5-1.2,4.7c-0.8,1.2-1.8,2.2-3.1,2.9c-1.3,0.7-2.7,1.2-4.2,1.5c-1.6,0.3-3.1,0.4-4.6,0.4c-1.5,0-3-0.1-4.6-0.4
			c-1.6-0.3-3-0.8-4.2-1.5c-1.3-0.7-2.3-1.7-3.1-2.9c-0.8-1.2-1.2-2.8-1.2-4.7c0-1.9,0.4-3.5,1.2-4.7c0.8-1.2,1.8-2.2,3.1-2.9
			c1.3-0.7,2.7-1.2,4.2-1.5C1977.8,126.2,1979.4,126.1,1980.9,126.1z M1980.9,131.5c-0.7,0-1.5,0-2.4,0.1c-0.9,0.1-1.8,0.2-2.7,0.5
			c-0.9,0.3-1.6,0.7-2.2,1.2c-0.6,0.5-0.9,1.3-0.9,2.3c0,1,0.3,1.7,0.9,2.3c0.6,0.6,1.3,1,2.2,1.2c0.9,0.3,1.8,0.4,2.7,0.5
			c0.9,0.1,1.7,0.1,2.4,0.1c0.7,0,1.5,0,2.4-0.1c0.9-0.1,1.8-0.2,2.7-0.5c0.9-0.3,1.6-0.7,2.2-1.2c0.6-0.6,0.9-1.3,0.9-2.3
			c0-1-0.3-1.7-0.9-2.3c-0.6-0.5-1.3-0.9-2.2-1.2c-0.9-0.3-1.8-0.4-2.7-0.5C1982.3,131.5,1981.5,131.5,1980.9,131.5z"/>
		<path d="M1988.9,183.9l0-10.1l-3.9-0.1c0.2,0.6,0.3,1.3,0.3,2.3c0,1.3-0.2,2.5-0.6,3.6c-0.4,1.1-0.9,2-1.7,2.8
			c-0.7,0.8-1.6,1.4-2.7,1.8c-1,0.4-2.2,0.6-3.5,0.6c-1.4,0-2.7-0.2-3.9-0.7c-1.1-0.5-2.1-1.2-2.9-2c-0.8-0.9-1.4-1.9-1.8-3.1
			c-0.4-1.2-0.6-2.5-0.6-3.9c0-2.2,0.5-4.1,1.6-5.5c1.1-1.5,2.7-2.5,4.9-3.1l1.3,5.7c-0.9,0.1-1.7,0.5-2.2,1.2
			c-0.6,0.6-0.8,1.4-0.8,2.3c0,1.2,0.4,2.1,1.1,2.8c0.7,0.7,1.6,1,2.7,1c0.8,0,1.5-0.2,2.1-0.5s1-0.8,1.3-1.4
			c0.3-0.6,0.5-1.2,0.7-1.9c0.1-0.7,0.2-1.4,0.2-2.1c0-0.9-0.1-1.8-0.3-2.7c-0.2-0.9-0.4-1.8-0.7-2.6l14.1,0.3l0,15.4L1988.9,183.9z
			"/>
		<path d="M1973.9,207.6l8.9,9.9c0.5,0.5,1,1,1.5,1.5c0.6,0.5,1.2,0.8,2,0.8c0.9,0,1.5-0.3,2-0.9c0.5-0.6,0.7-1.4,0.7-2.2
			c0-1-0.3-1.8-0.9-2.4c-0.6-0.6-1.4-0.9-2.3-1l0.4-5.4c1.3,0.1,2.5,0.3,3.4,0.8c1,0.5,1.8,1.1,2.4,1.9s1.1,1.7,1.5,2.8
			c0.3,1.1,0.5,2.2,0.5,3.5c0,1.2-0.2,2.2-0.5,3.2c-0.3,1-0.8,1.9-1.4,2.6c-0.6,0.7-1.4,1.3-2.4,1.7c-1,0.4-2.1,0.6-3.3,0.6
			c-0.8,0-1.6-0.1-2.2-0.3c-0.7-0.2-1.3-0.4-1.8-0.7c-0.5-0.3-1-0.7-1.5-1.1c-0.5-0.4-0.9-0.9-1.3-1.3l-6.7-7.7l0,11.3l-4.8,0
			l0-17.8L1973.9,207.6z"/>
		<path d="M1980.9,247.5c1.5,0,3,0.1,4.6,0.4c1.6,0.3,3,0.8,4.2,1.5c1.3,0.7,2.3,1.7,3.1,2.9c0.8,1.2,1.2,2.8,1.2,4.7
			c0,1.9-0.4,3.5-1.2,4.7c-0.8,1.2-1.8,2.2-3.1,2.9c-1.3,0.7-2.7,1.2-4.2,1.5c-1.6,0.3-3.1,0.4-4.6,0.4c-1.5,0-3-0.1-4.6-0.4
			c-1.6-0.3-3-0.8-4.2-1.5c-1.3-0.7-2.3-1.7-3.1-2.9c-0.8-1.2-1.2-2.8-1.2-4.7c0-1.9,0.4-3.5,1.2-4.7c0.8-1.2,1.8-2.2,3.1-2.9
			c1.3-0.7,2.7-1.2,4.2-1.5C1977.8,247.6,1979.4,247.5,1980.9,247.5z M1980.9,252.9c-0.7,0-1.5,0-2.4,0.1c-0.9,0.1-1.8,0.2-2.7,0.5
			c-0.9,0.3-1.6,0.7-2.2,1.2c-0.6,0.5-0.9,1.3-0.9,2.3c0,1,0.3,1.7,0.9,2.3c0.6,0.6,1.3,1,2.2,1.2c0.9,0.3,1.8,0.4,2.7,0.5
			c0.9,0.1,1.7,0.1,2.4,0.1c0.7,0,1.5,0,2.4-0.1c0.9-0.1,1.8-0.2,2.7-0.5c0.9-0.3,1.6-0.7,2.2-1.2c0.6-0.6,0.9-1.3,0.9-2.3
			c0-1-0.3-1.7-0.9-2.3s-1.3-0.9-2.2-1.2c-0.9-0.3-1.8-0.4-2.7-0.5C1982.3,252.9,1981.5,252.9,1980.9,252.9z"/>
		<path d="M1980.9,287.9c1.5,0,3,0.1,4.6,0.4c1.6,0.3,3,0.8,4.2,1.5c1.3,0.7,2.3,1.7,3.1,2.9c0.8,1.2,1.2,2.8,1.2,4.7
			c0,1.9-0.4,3.5-1.2,4.7c-0.8,1.2-1.8,2.2-3.1,2.9c-1.3,0.7-2.7,1.2-4.2,1.5c-1.6,0.3-3.1,0.4-4.6,0.4c-1.5,0-3-0.1-4.6-0.4
			c-1.6-0.3-3-0.8-4.2-1.5c-1.3-0.7-2.3-1.7-3.1-2.9c-0.8-1.2-1.2-2.8-1.2-4.7c0-1.9,0.4-3.5,1.2-4.7c0.8-1.2,1.8-2.2,3.1-2.9
			c1.3-0.7,2.7-1.2,4.2-1.5C1977.8,288.1,1979.4,287.9,1980.9,287.9z M1980.9,293.3c-0.7,0-1.5,0-2.4,0.1c-0.9,0.1-1.8,0.2-2.7,0.5
			c-0.9,0.3-1.6,0.7-2.2,1.2c-0.6,0.5-0.9,1.3-0.9,2.3c0,1,0.3,1.7,0.9,2.3c0.6,0.6,1.3,1,2.2,1.2c0.9,0.3,1.8,0.4,2.7,0.5
			c0.9,0.1,1.7,0.1,2.4,0.1c0.7,0,1.5,0,2.4-0.1c0.9-0.1,1.8-0.2,2.7-0.5c0.9-0.3,1.6-0.7,2.2-1.2s0.9-1.3,0.9-2.3
			c0-1-0.3-1.7-0.9-2.3s-1.3-0.9-2.2-1.2c-0.9-0.3-1.8-0.4-2.7-0.5C1982.4,293.3,1981.5,293.3,1980.9,293.3z"/>
		<path d="M1988.9,345.8l0-10.1l-3.9-0.1c0.2,0.6,0.3,1.3,0.3,2.3c0,1.3-0.2,2.5-0.6,3.6c-0.4,1.1-0.9,2-1.7,2.8
			c-0.7,0.8-1.6,1.4-2.7,1.8c-1,0.4-2.2,0.6-3.5,0.6c-1.4,0-2.7-0.2-3.9-0.7c-1.1-0.5-2.1-1.2-2.9-2c-0.8-0.9-1.4-1.9-1.8-3.1
			c-0.4-1.2-0.6-2.5-0.6-3.9c0-2.2,0.5-4.1,1.6-5.5c1.1-1.5,2.7-2.5,4.9-3.1l1.3,5.7c-0.9,0.1-1.7,0.5-2.2,1.2
			c-0.6,0.6-0.8,1.4-0.8,2.3c0,1.2,0.4,2.1,1.1,2.8c0.7,0.7,1.6,1,2.7,1c0.8,0,1.5-0.2,2.1-0.5c0.5-0.3,1-0.8,1.3-1.4
			c0.3-0.6,0.5-1.2,0.7-1.9c0.1-0.7,0.2-1.4,0.2-2.1c0-0.9-0.1-1.8-0.3-2.7c-0.2-0.9-0.4-1.8-0.7-2.6l14.1,0.3l0,15.4L1988.9,345.8z
			"/>
	</g>
</g>
<g id="Layer_2">
	<rect x="223.1" y="285.7" fill="none" width="1608.9" height="63.2"/>
	<text transform="matrix(1 0 0 1 231.4419 346.2195)" font-family="'Avenir-Black'" font-size="80" letter-spacing="42">GIVEAWAY CALENDAR</text>
	<rect x="224.1" y="107.7" fill="none" width="1608.9" height="140.2"/>
	<text transform="matrix(1 0 0 1 225.2733 239.9585)" font-family="'Avenir-Black'" font-size="175" letter-spacing="70">UCLARADIO</text>
</g>
</svg>
