<?xml version="1.0" encoding="utf-8"?>
<!-- Generator: Adobe Illustrator 18.1.1, SVG Export Plug-In . SVG Version: 6.00 Build 0)  -->
<svg version="1.1" id="Layer_1" xmlns="http://www.w3.org/2000/svg" xmlns:xlink="http://www.w3.org/1999/xlink" x="0px" y="0px"
	 viewBox="0 0 1767 345.8" enable-background="new 0 0 1767 345.8" xml:space="preserve">
<g>
	<path d="M112.9,237.1h21c2.9,0,5.7,0.3,8.3,0.8c2.6,0.5,4.9,1.5,6.8,2.8c1.9,1.3,3.5,3.1,4.6,5.3c1.1,2.2,1.7,5,1.7,8.4
		c0,3.3-0.5,6.1-1.6,8.3c-1.1,2.2-2.5,4-4.4,5.4c-1.9,1.3-4.1,2.3-6.6,2.8s-5.3,0.8-8.3,0.8h-9.1v22.1h-12.5V237.1z M125.4,261.1
		h8.3c1.1,0,2.2-0.1,3.2-0.3c1-0.2,2-0.6,2.8-1.1c0.8-0.5,1.5-1.2,2-2.1c0.5-0.9,0.8-2,0.8-3.3c0-1.4-0.3-2.6-1-3.5
		c-0.7-0.9-1.5-1.6-2.6-2s-2.2-0.8-3.5-0.9c-1.3-0.1-2.5-0.2-3.7-0.2h-6.4V261.1z"/>
	<path d="M254.4,237.1h21.9c2.9,0,5.6,0.3,8.2,0.8c2.6,0.6,4.9,1.5,6.8,2.8c1.9,1.3,3.5,3.1,4.6,5.3c1.1,2.2,1.7,5,1.7,8.3
		c0,4-1,7.4-3.1,10.2c-2.1,2.8-5.1,4.6-9.1,5.3l14.4,23.9h-15L273,271.1h-6.2v22.6h-12.5V237.1z M266.9,260.5h7.4
		c1.1,0,2.3,0,3.6-0.1c1.3-0.1,2.4-0.3,3.4-0.7c1-0.4,1.9-1,2.5-1.9c0.7-0.9,1-2.1,1-3.6c0-1.4-0.3-2.6-0.9-3.4
		c-0.6-0.9-1.3-1.5-2.2-2c-0.9-0.5-1.9-0.8-3.1-0.9c-1.2-0.2-2.3-0.2-3.4-0.2h-8.2V260.5z"/>
	<path d="M394.3,265.4c0-4.5,0.8-8.6,2.3-12.3c1.5-3.7,3.6-6.8,6.4-9.4c2.7-2.6,5.9-4.6,9.7-6c3.7-1.4,7.8-2.1,12.2-2.1
		c4.4,0,8.5,0.7,12.2,2.1c3.7,1.4,7,3.4,9.7,6c2.7,2.6,4.8,5.7,6.4,9.4c1.5,3.7,2.3,7.8,2.3,12.3c0,4.5-0.8,8.6-2.3,12.3
		s-3.6,6.8-6.4,9.4c-2.7,2.6-5.9,4.6-9.7,6c-3.7,1.4-7.8,2.1-12.2,2.1c-4.4,0-8.5-0.7-12.2-2.1c-3.7-1.4-7-3.4-9.7-6
		c-2.7-2.6-4.8-5.7-6.4-9.4S394.3,269.9,394.3,265.4z M407.3,265.4c0,2.7,0.4,5.1,1.2,7.3c0.8,2.2,2,4.1,3.6,5.8
		c1.5,1.6,3.4,2.9,5.6,3.8c2.2,0.9,4.6,1.4,7.2,1.4c2.7,0,5.1-0.5,7.2-1.4c2.2-0.9,4-2.2,5.6-3.8c1.5-1.6,2.7-3.5,3.6-5.8
		c0.8-2.2,1.2-4.7,1.2-7.3c0-2.6-0.4-5-1.2-7.3c-0.8-2.2-2-4.2-3.6-5.8c-1.5-1.6-3.4-2.9-5.6-3.8c-2.2-0.9-4.6-1.4-7.2-1.4
		c-2.7,0-5.1,0.5-7.2,1.4c-2.2,0.9-4,2.2-5.6,3.8c-1.5,1.6-2.7,3.6-3.6,5.8C407.7,260.3,407.3,262.8,407.3,265.4z"/>
	<path d="M606.3,289.7c-3.7,1.9-7.5,3.3-11.5,4.2s-8.1,1.3-12.2,1.3c-4.4,0-8.5-0.7-12.2-2.1c-3.7-1.4-7-3.4-9.7-6
		c-2.7-2.6-4.8-5.7-6.4-9.4s-2.3-7.8-2.3-12.3c0-4.5,0.8-8.6,2.3-12.3c1.5-3.7,3.6-6.8,6.4-9.4c2.7-2.6,5.9-4.6,9.7-6
		c3.7-1.4,7.8-2.1,12.2-2.1c4.5,0,8.7,0.5,12.5,1.6c3.8,1.1,7.2,3,10,5.6l-8.8,9.6c-1.7-1.8-3.6-3.1-5.8-4c-2.1-0.9-4.8-1.4-8-1.4
		c-2.7,0-5.1,0.5-7.2,1.4c-2.2,0.9-4,2.2-5.6,3.8c-1.5,1.6-2.7,3.6-3.6,5.8c-0.8,2.2-1.2,4.7-1.2,7.3c0,2.7,0.4,5.1,1.2,7.3
		c0.8,2.2,2,4.1,3.6,5.8c1.5,1.6,3.4,2.9,5.6,3.8c2.2,0.9,4.6,1.4,7.2,1.4c2.7,0,5.1-0.3,7-0.9c2-0.6,3.5-1.2,4.7-1.9v-9.2h-10.2
		v-11.5h22.2V289.7z"/>
	<path d="M708.4,237.1h21.9c2.9,0,5.6,0.3,8.2,0.8c2.6,0.6,4.9,1.5,6.8,2.8c1.9,1.3,3.5,3.1,4.6,5.3c1.1,2.2,1.7,5,1.7,8.3
		c0,4-1,7.4-3.1,10.2c-2.1,2.8-5.1,4.6-9.1,5.3l14.4,23.9h-15L727,271.1h-6.2v22.6h-12.5V237.1z M720.9,260.5h7.4
		c1.1,0,2.3,0,3.6-0.1c1.3-0.1,2.4-0.3,3.4-0.7s1.9-1,2.5-1.9c0.7-0.9,1-2.1,1-3.6c0-1.4-0.3-2.6-0.9-3.4c-0.6-0.9-1.3-1.5-2.2-2
		c-0.9-0.5-1.9-0.8-3.1-0.9c-1.2-0.2-2.3-0.2-3.4-0.2h-8.2V260.5z"/>
	<path d="M870,237.1h10.3l24.6,56.6h-14.1l-4.9-12h-22l-4.7,12h-13.8L870,237.1z M874.8,253.5l-6.9,17.6h13.8L874.8,253.5z"/>
	<path d="M1001.8,237.1h18.9l13,37h0.2l13.1-37h18.8v56.6h-12.5v-43.4h-0.2l-14.9,43.4h-9.5l-14.3-43.4h-0.2v43.4h-12.5V237.1z"/>
	<path d="M1168.4,237.1h18.9l13,37h0.2l13.1-37h18.8v56.6h-12.5v-43.4h-0.2l-14.9,43.4h-9.5l-14.3-43.4h-0.2v43.4h-12.5V237.1z"/>
	<path d="M1334.9,237.1h12.5v56.6h-12.5V237.1z"/>
	<path d="M1449.8,237.1h17l24.1,39.4h0.2v-39.4h12.5v56.6h-16.3l-24.7-40.3h-0.2v40.3h-12.5V237.1z"/>
	<path d="M1657.4,289.7c-3.7,1.9-7.5,3.3-11.5,4.2s-8.1,1.3-12.2,1.3c-4.4,0-8.5-0.7-12.2-2.1c-3.7-1.4-7-3.4-9.7-6
		c-2.7-2.6-4.8-5.7-6.4-9.4s-2.3-7.8-2.3-12.3c0-4.5,0.8-8.6,2.3-12.3c1.5-3.7,3.6-6.8,6.4-9.4c2.7-2.6,5.9-4.6,9.7-6
		c3.7-1.4,7.8-2.1,12.2-2.1c4.5,0,8.7,0.5,12.5,1.6c3.8,1.1,7.2,3,10,5.6l-8.8,9.6c-1.7-1.8-3.6-3.1-5.8-4c-2.1-0.9-4.8-1.4-8-1.4
		c-2.7,0-5.1,0.5-7.2,1.4c-2.2,0.9-4,2.2-5.6,3.8c-1.5,1.6-2.7,3.6-3.6,5.8c-0.8,2.2-1.2,4.7-1.2,7.3c0,2.7,0.4,5.1,1.2,7.3
		c0.8,2.2,2,4.1,3.6,5.8c1.5,1.6,3.4,2.9,5.6,3.8c2.2,0.9,4.6,1.4,7.2,1.4c2.7,0,5.1-0.3,7-0.9c2-0.6,3.5-1.2,4.7-1.9v-9.2h-10.2
		v-11.5h22.2V289.7z"/>
</g>
<g>
	<path d="M198.7,139.7c0,7.4-1.1,14.1-3.3,20.3c-2.2,6.2-5.5,11.6-9.9,16.1s-9.8,8.1-16.4,10.7c-6.5,2.6-14.1,3.9-22.6,3.9
		c-8.6,0-16.2-1.3-22.8-3.9c-6.5-2.6-12-6.1-16.4-10.7s-7.7-9.9-9.9-16.1c-2.2-6.2-3.3-12.9-3.3-20.3V63.5h27.3v75.1
		c0,3.9,0.6,7.4,1.8,10.7c1.2,3.3,2.9,6.1,5.2,8.5c2.2,2.4,4.9,4.3,8,5.6c3.1,1.3,6.4,2,10.1,2c3.6,0,6.9-0.7,10-2
		c3-1.3,5.7-3.2,7.9-5.6c2.2-2.4,3.9-5.2,5.2-8.5c1.2-3.3,1.8-6.8,1.8-10.7V63.5h27.3V139.7z"/>
	<path d="M374.9,95.7c-2.7-3.3-6-5.8-9.9-7.5c-3.9-1.8-8.4-2.6-13.6-2.6c-5.1,0-9.9,1-14.3,3c-4.4,2-8.2,4.8-11.4,8.3
		c-3.2,3.6-5.7,7.8-7.5,12.7c-1.8,4.9-2.7,10.2-2.7,15.9c0,5.8,0.9,11.2,2.7,16c1.8,4.8,4.3,9,7.4,12.6c3.1,3.6,6.9,6.3,11.1,8.3
		c4.3,2,8.8,3,13.7,3c5.6,0,10.6-1.2,14.9-3.5c4.3-2.3,7.9-5.6,10.7-9.8l22.8,17c-5.2,7.4-11.9,12.8-20,16.3
		c-8,3.5-16.3,5.2-24.9,5.2c-9.7,0-18.6-1.5-26.8-4.5c-8.2-3-15.2-7.4-21.2-13c-6-5.7-10.6-12.5-13.9-20.6s-5-17-5-27
		c0-9.9,1.7-18.9,5-26.9c3.3-8.1,8-14.9,13.9-20.6c5.9-5.7,13-10,21.2-13c8.2-3,17.1-4.5,26.8-4.5c3.5,0,7.1,0.3,10.9,1
		c3.8,0.6,7.5,1.7,11.2,3.1c3.7,1.4,7.2,3.3,10.6,5.6c3.4,2.3,6.4,5.2,9.1,8.6L374.9,95.7z"/>
	<path d="M484.8,63.5h27.3v98.7h50.6v25.2h-77.9V63.5z"/>
	<path d="M688.5,63.5h22.6L765,187.4h-30.8l-10.7-26.2h-48.1l-10.3,26.2H635L688.5,63.5z M699,99.6l-15,38.5h30.3L699,99.6z"/>
	<path d="M847.4,63.5h48c6.3,0,12.3,0.6,17.9,1.8c5.7,1.2,10.6,3.3,14.9,6.1c4.3,2.9,7.6,6.7,10.2,11.5c2.5,4.8,3.8,10.9,3.8,18.1
		c0,8.8-2.3,16.2-6.8,22.3c-4.6,6.1-11.2,10-20,11.6l31.5,52.3h-32.7l-25.9-49.5h-13.5v49.5h-27.3V63.5z M874.7,114.8h16.1
		c2.5,0,5-0.1,7.8-0.3c2.7-0.2,5.2-0.7,7.4-1.6c2.2-0.9,4.1-2.2,5.5-4.1c1.5-1.9,2.2-4.5,2.2-7.9c0-3.1-0.6-5.7-1.9-7.5
		c-1.3-1.9-2.9-3.3-4.9-4.3c-2-1-4.3-1.7-6.8-2c-2.6-0.4-5.1-0.5-7.5-0.5h-17.8V114.8z"/>
	<path d="M1071.6,63.5h22.6l53.9,123.9h-30.8l-10.7-26.2h-48.1l-10.3,26.2h-30.1L1071.6,63.5z M1082.1,99.6l-15,38.5h30.3
		L1082.1,99.6z"/>
	<path d="M1230.5,63.5h41c9.9,0,19.3,1.1,28.3,3.3c8.9,2.2,16.7,5.8,23.4,10.8c6.7,5,11.9,11.4,15.8,19.3c3.9,7.9,5.9,17.6,5.9,28.9
		c0,10-1.9,18.9-5.7,26.5c-3.8,7.6-8.9,14.1-15.3,19.2c-6.4,5.2-13.8,9.1-22.2,11.8c-8.4,2.7-17.2,4-26.4,4h-44.6V63.5z
		 M1257.8,162.2h14.2c6.3,0,12.2-0.6,17.6-1.9c5.4-1.3,10.1-3.4,14.1-6.4c4-3,7.1-6.9,9.4-11.7c2.3-4.8,3.4-10.8,3.4-17.8
		c0-6.1-1.1-11.3-3.4-15.8c-2.3-4.5-5.3-8.2-9.2-11.1c-3.8-2.9-8.4-5.1-13.6-6.6c-5.2-1.5-10.6-2.2-16.4-2.2h-16.1V162.2z"/>
	<path d="M1433,63.5h27.3v123.9H1433V63.5z"/>
	<path d="M1548.5,125.5c0-9.9,1.7-18.9,5-26.9c3.3-8.1,8-14.9,13.9-20.6c6-5.7,13-10,21.2-13c8.2-3,17.1-4.5,26.8-4.5
		c9.7,0,18.6,1.5,26.8,4.5c8.2,3,15.2,7.4,21.2,13c6,5.7,10.6,12.5,13.9,20.6c3.3,8,5,17,5,26.9c0,9.9-1.7,18.9-5,27
		c-3.3,8-8,14.9-13.9,20.6c-6,5.7-13,10-21.2,13c-8.2,3-17.1,4.5-26.8,4.5c-9.7,0-18.6-1.5-26.8-4.5c-8.2-3-15.2-7.4-21.2-13
		c-5.9-5.7-10.6-12.5-13.9-20.6S1548.5,135.4,1548.5,125.5z M1576.8,125.5c0,5.8,0.9,11.2,2.7,16c1.8,4.8,4.4,9,7.8,12.6
		c3.4,3.6,7.4,6.3,12.2,8.3c4.7,2,10,3,15.8,3c5.8,0,11.1-1,15.8-3c4.7-2,8.8-4.8,12.2-8.3c3.4-3.6,6-7.8,7.8-12.6
		c1.8-4.8,2.7-10.2,2.7-16c0-5.7-0.9-11-2.7-15.9c-1.8-4.9-4.4-9.1-7.8-12.7c-3.4-3.6-7.4-6.3-12.2-8.3c-4.7-2-10-3-15.8-3
		c-5.8,0-11.1,1-15.8,3c-4.7,2-8.8,4.8-12.2,8.3c-3.4,3.6-6,7.8-7.8,12.7C1577.7,114.5,1576.8,119.8,1576.8,125.5z"/>
</g>
<rect x="24.2" y="20.7" fill="none" stroke="#000000" stroke-width="3" stroke-miterlimit="10" width="1723.4" height="305.6"/>
</svg>
