<?xml version="1.0" encoding="utf-8"?>
<!-- Generator: Adobe Illustrator 18.1.1, SVG Export Plug-In . SVG Version: 6.00 Build 0)  -->
<svg version="1.1" xmlns="http://www.w3.org/2000/svg" xmlns:xlink="http://www.w3.org/1999/xlink" x="0px" y="0px"
	 viewBox="0 0 259.8 38" enable-background="new 0 0 259.8 38" xml:space="preserve">
<g id="Layer_4">
	<g>
		<path d="M255.6,22.1c0,7.1-5.9,13-13,13H17.4c-7.2,0-13-5.8-13-13v-2.9c0-7.2,5.8-13,13-13h225.2c7.1,0,13,5.9,13,13V22.1z"/>
	</g>
</g>
<g id="Layer_3">
	<g>
		<path fill="#FFFFFF" d="M255.6,19.1c0,7.1-5.9,13-13,13H17.4c-7.2,0-13-5.8-13-13v-2.9c0-7.2,5.8-13,13-13h225.2
			c7.1,0,13,5.9,13,13V19.1z"/>
		<path fill="none" stroke="#000000" stroke-miterlimit="10" d="M255.6,19.1c0,7.1-5.9,13-13,13H17.4c-7.2,0-13-5.8-13-13v-2.9
			c0-7.2,5.8-13,13-13h225.2c7.1,0,13,5.9,13,13V19.1z"/>
	</g>
</g>
<g id="Layer_2">
	<g>
		<g>
			<g>
				<path d="M16.8,22.1c-0.6,0.3-1.2,0.4-1.9,0.4c-0.7,0-1.3-0.1-1.8-0.3c-0.6-0.2-1-0.5-1.4-0.9c-0.4-0.4-0.7-0.9-1-1.4
					c-0.2-0.6-0.3-1.2-0.3-1.8c0-0.7,0.1-1.3,0.4-1.8c0.2-0.6,0.6-1,1-1.4c0.4-0.4,0.9-0.7,1.5-0.9s1.2-0.3,1.8-0.3
					c0.6,0,1.2,0.1,1.8,0.3s0.7,0.3,0.7,0.3c0.4,0.4,0.4,1,0.1,1.4c-0.4,0.4-0.9,0.5-1.1,0.2c0,0,0,0-0.3-0.1
					c-0.3-0.1-0.6-0.2-1-0.2c-0.4,0-0.7,0.1-1,0.2c-0.3,0.1-0.6,0.3-0.8,0.5c-0.2,0.2-0.4,0.5-0.5,0.8s-0.2,0.7-0.2,1
					c0,0.4,0.1,0.7,0.2,1.1c0.1,0.3,0.3,0.6,0.5,0.8c0.2,0.2,0.5,0.4,0.8,0.5c0.3,0.1,0.6,0.2,1,0.2c0.4,0,0.8-0.1,1.1-0.2
					c0.3-0.2,0.3-0.2,0.3-0.2c0.2-0.3,0.7-0.2,1.1,0.2c0.4,0.4,0.4,1,0,1.3C17.5,21.8,17.4,21.8,16.8,22.1z"/>
			</g>
			<g>
				<path d="M29.8,18c0,0.7-0.1,1.3-0.3,1.8s-0.6,1-1,1.4s-0.9,0.7-1.5,0.9c-0.6,0.2-1.2,0.3-1.8,0.3s-1.3-0.1-1.8-0.3
					c-0.6-0.2-1.1-0.5-1.5-0.9s-0.7-0.9-1-1.4c-0.2-0.6-0.3-1.2-0.3-1.8c0-0.7,0.1-1.3,0.3-1.8c0.2-0.5,0.6-1,1-1.4
					c0.4-0.4,0.9-0.7,1.5-0.9s1.2-0.3,1.8-0.3s1.3,0.1,1.8,0.3c0.6,0.2,1.1,0.5,1.5,0.9c0.4,0.4,0.7,0.9,1,1.4
					C29.7,16.7,29.8,17.3,29.8,18z M27.6,18c0-0.4-0.1-0.7-0.2-1s-0.3-0.6-0.5-0.8c-0.2-0.2-0.5-0.4-0.8-0.5c-0.3-0.1-0.6-0.2-1-0.2
					s-0.7,0.1-1,0.2c-0.3,0.1-0.6,0.3-0.8,0.5c-0.2,0.2-0.4,0.5-0.5,0.8c-0.1,0.3-0.2,0.7-0.2,1c0,0.4,0.1,0.7,0.2,1.1
					c0.1,0.3,0.3,0.6,0.5,0.8c0.2,0.2,0.5,0.4,0.8,0.5c0.3,0.1,0.6,0.2,1,0.2s0.7-0.1,1-0.2c0.3-0.1,0.6-0.3,0.8-0.5
					c0.2-0.2,0.4-0.5,0.5-0.8C27.6,18.7,27.6,18.3,27.6,18z"/>
			</g>
			<g>
				<path d="M39.6,22.2c-0.5,0-1.2-0.4-1.5-0.9l-2.4-3.9c-0.3-0.5-0.5-0.9-0.5-0.9s0,0.4,0,1l0,3.6c0,0.5-0.4,1-1,1s-1-0.4-1-1v-6.5
					c0-0.6,0.5-1,1-1h0.3c0.5,0,1.2,0.4,1.5,0.9l2.4,3.8c0.3,0.5,0.5,0.9,0.5,0.9s0-0.4,0-1l0-3.5c0-0.5,0.4-1,1-1s1,0.4,1,1v6.5
					c0,0.6-0.5,1-1,1H39.6z"/>
			</g>
			<g>
				<path d="M49.4,15.5c-0.5,0-1,0.4-1,1v4.7c0,0.6-0.5,1-1,1h-0.1c-0.5,0-1-0.4-1-1v-4.7c0-0.5-0.5-1-1-1h-0.4c-0.5,0-1-0.4-1-0.9
					c0-0.5,0.5-0.9,1-0.9h4.9c0.5,0,1,0.4,1,0.9c0,0.5-0.5,0.9-1,0.9H49.4z"/>
			</g>
			<g>
				<path d="M54.7,22.2c-0.5,0-1-0.4-1-1v-6.5c0-0.6,0.5-1,1-1h0.1c0.5,0,1,0.4,1,1v6.5C55.8,21.8,55.3,22.2,54.7,22.2L54.7,22.2z"
					/>
			</g>
			<g>
				<path d="M66,22.2c-0.5,0-1.2-0.4-1.5-0.9l-2.4-3.9c-0.3-0.5-0.5-0.9-0.5-0.9s0,0.4,0,1l0,3.6c0,0.5-0.4,1-1,1s-1-0.4-1-1v-6.5
					c0-0.6,0.5-1,1-1h0.3c0.5,0,1.2,0.4,1.5,0.9l2.4,3.8c0.3,0.5,0.5,0.9,0.5,0.9c0,0,0-0.4,0-1l0-3.5c0-0.5,0.4-1,1-1s1,0.4,1,1
					v6.5c0,0.6-0.4,1-1,1H66z"/>
			</g>
			<g>
				<path d="M78,20.4c-0.2,0.4-0.4,0.8-0.7,1.1c-0.3,0.3-0.7,0.5-1.2,0.7c-0.5,0.2-1,0.3-1.5,0.3c-0.6,0-1.1-0.1-1.5-0.3
					c-0.4-0.2-0.8-0.4-1.1-0.7c-0.3-0.3-0.6-0.7-0.7-1.1S71.1,20,71.1,20c0-0.5-0.1-1.4-0.1-2v-3.3c0-0.6,0.5-1,1-1h0
					c0.6,0,1,0.4,1,1v3.1c0,0.6,0,1.2,0,1.5c0,0,0,0,0.1,0.2c0.1,0.2,0.2,0.4,0.3,0.6c0.1,0.2,0.3,0.3,0.5,0.4
					c0.2,0.1,0.4,0.1,0.7,0.1c0.3,0,0.5,0,0.7-0.1c0.2-0.1,0.4-0.2,0.5-0.4c0.1-0.2,0.2-0.4,0.3-0.6s0.1-0.2,0.1-0.2
					c0-0.2,0-0.9,0-1.5v-3.1c0-0.6,0.5-1,1-1h0.1c0.6,0,1,0.4,1,1V18c0,0.6,0,1.4-0.1,2C78.2,20,78.2,20,78,20.4z"/>
			</g>
			<g>
				<path d="M83,22.2c-0.5,0-1-0.4-1-1v-6.5c0-0.6,0.5-1,1-1h3.7c0.6,0,1,0.4,1,0.9s-0.4,0.9-1,0.9h-1.7c-0.5,0-1,0.4-1,0.8
					c0,0.4,0.5,0.8,1,0.8h1.5c0.6,0,1,0.4,1,0.8c0,0.5-0.4,0.8-1,0.8h-1.5c-0.5,0-1,0.4-1,0.9c0,0.5,0.5,0.9,1,0.9h1.9
					c0.6,0,1,0.4,1,0.9c0,0.5-0.4,0.9-1,0.9H83z"/>
			</g>
			<g>
				<path d="M100.7,15.5c-0.5,0-1,0.4-1,1v4.7c0,0.6-0.4,1-1,1h-0.1c-0.5,0-1-0.4-1-1v-4.7c0-0.5-0.4-1-1-1h-0.4c-0.5,0-1-0.4-1-0.9
					c0-0.5,0.5-0.9,1-0.9h4.9c0.6,0,1,0.4,1,0.9c0,0.5-0.4,0.9-1,0.9H100.7z"/>
			</g>
			<g>
				<path d="M113.5,18c0,0.7-0.1,1.3-0.3,1.8c-0.2,0.6-0.6,1-1,1.4s-0.9,0.7-1.5,0.9c-0.6,0.2-1.2,0.3-1.8,0.3s-1.3-0.1-1.8-0.3
					c-0.6-0.2-1.1-0.5-1.5-0.9s-0.7-0.9-1-1.4c-0.2-0.6-0.3-1.2-0.3-1.8c0-0.7,0.1-1.3,0.3-1.8c0.2-0.5,0.6-1,1-1.4
					c0.4-0.4,0.9-0.7,1.5-0.9c0.6-0.2,1.2-0.3,1.8-0.3s1.3,0.1,1.8,0.3c0.6,0.2,1.1,0.5,1.5,0.9c0.4,0.4,0.7,0.9,1,1.4
					C113.4,16.7,113.5,17.3,113.5,18z M111.3,18c0-0.4-0.1-0.7-0.2-1c-0.1-0.3-0.3-0.6-0.5-0.8c-0.2-0.2-0.5-0.4-0.8-0.5
					c-0.3-0.1-0.6-0.2-1-0.2c-0.4,0-0.7,0.1-1,0.2c-0.3,0.1-0.6,0.3-0.8,0.5c-0.2,0.2-0.4,0.5-0.5,0.8c-0.1,0.3-0.2,0.7-0.2,1
					c0,0.4,0.1,0.7,0.2,1.1c0.1,0.3,0.3,0.6,0.5,0.8c0.2,0.2,0.5,0.4,0.8,0.5c0.3,0.1,0.6,0.2,1,0.2c0.4,0,0.7-0.1,1-0.2
					c0.3-0.1,0.6-0.3,0.8-0.5c0.2-0.2,0.4-0.5,0.5-0.8C111.3,18.7,111.3,18.3,111.3,18z"/>
			</g>
			<g>
				<path d="M128.9,20.4c-0.2,0.4-0.4,0.8-0.7,1.1c-0.3,0.3-0.7,0.5-1.2,0.7s-1,0.3-1.5,0.3c-0.6,0-1.1-0.1-1.5-0.3
					c-0.4-0.2-0.8-0.4-1.1-0.7c-0.3-0.3-0.6-0.7-0.7-1.1s-0.2-0.4-0.2-0.4c0-0.5-0.1-1.4-0.1-2v-3.3c0-0.6,0.5-1,1-1h0
					c0.6,0,1,0.4,1,1v3.1c0,0.6,0,1.2,0,1.5c0,0,0,0,0.1,0.2c0.1,0.2,0.2,0.4,0.3,0.6s0.3,0.3,0.5,0.4c0.2,0.1,0.4,0.1,0.7,0.1
					s0.5,0,0.7-0.1c0.2-0.1,0.4-0.2,0.5-0.4s0.2-0.4,0.3-0.6c0.1-0.2,0.1-0.2,0.1-0.2c0-0.2,0-0.9,0-1.5v-3.1c0-0.6,0.5-1,1-1h0.1
					c0.6,0,1,0.4,1,1V18c0,0.6,0,1.4-0.1,2C129,20,129,20,128.9,20.4z"/>
			</g>
			<g>
				<path d="M138.9,22.1c-0.6,0.3-1.2,0.4-1.9,0.4c-0.7,0-1.3-0.1-1.8-0.3c-0.6-0.2-1-0.5-1.4-0.9s-0.7-0.9-1-1.4
					c-0.2-0.6-0.3-1.2-0.3-1.8c0-0.7,0.1-1.3,0.4-1.8c0.2-0.6,0.6-1,1-1.4c0.4-0.4,0.9-0.7,1.5-0.9c0.6-0.2,1.2-0.3,1.8-0.3
					c0.6,0,1.2,0.1,1.8,0.3c0.6,0.2,0.7,0.3,0.7,0.3c0.4,0.4,0.4,1,0.1,1.4s-0.9,0.5-1.1,0.2c0,0,0,0-0.3-0.1
					c-0.3-0.1-0.6-0.2-1-0.2c-0.4,0-0.7,0.1-1,0.2s-0.6,0.3-0.8,0.5c-0.2,0.2-0.4,0.5-0.5,0.8c-0.1,0.3-0.2,0.7-0.2,1
					c0,0.4,0.1,0.7,0.2,1.1c0.1,0.3,0.3,0.6,0.5,0.8s0.5,0.4,0.8,0.5c0.3,0.1,0.6,0.2,1,0.2c0.4,0,0.8-0.1,1.1-0.2
					c0.3-0.2,0.3-0.2,0.3-0.2c0.2-0.3,0.7-0.2,1.1,0.2c0.4,0.4,0.4,1,0,1.3C139.5,21.8,139.4,21.8,138.9,22.1z"/>
			</g>
			<g>
				<path d="M144.2,22.2c-0.6,0-1-0.4-1-1v-6.5c0-0.6,0.4-1,1-1h0.1c0.6,0,1,0.4,1,1v4.7c0,0.6,0.4,1,1,1h1.3c0.6,0,1,0.4,1,0.9
					c0,0.5-0.4,0.9-1,0.9H144.2z"/>
			</g>
			<g>
				<path d="M158.3,22.2c-0.6,0-1.1-0.4-1.3-0.8c-0.2-0.5-0.8-0.8-1.3-0.8h-1.3c-0.6,0-1.1,0.4-1.3,0.8c-0.2,0.5-0.8,0.8-1.3,0.8
					h-0.2c-0.6,0-0.8-0.4-0.6-0.9l2.8-6.7c0.2-0.5,0.8-0.9,1.4-0.9c0.5,0,1.2,0.4,1.4,0.9l2.8,6.6c0.2,0.5-0.1,0.9-0.6,0.9H158.3z
					 M155.3,17c-0.2-0.5-0.5-0.5-0.7,0l-0.4,1c-0.2,0.5,0.1,0.9,0.7,0.9h0.1c0.6,0,0.8-0.4,0.7-0.9L155.3,17z"/>
			</g>
			<g>
				<path d="M167.9,22.2c-0.6,0-1.2-0.4-1.5-0.9l-0.9-1.6c-0.3-0.5-0.6-0.9-0.8-0.9c-0.2,0-0.3,0.5-0.3,1v1.4c0,0.6-0.4,1-1,1h0
					c-0.6,0-1-0.4-1-1v-6.5c0-0.6,0.4-1,1-1h1.2c0.6,0,1.4,0,1.8,0c0,0,0,0,0.4,0.1c0.4,0.1,0.7,0.2,1,0.4c0.3,0.2,0.6,0.5,0.7,0.8
					c0.2,0.3,0.3,0.7,0.3,1.2c0,0.6-0.2,1.1-0.5,1.5c-0.3,0.4-0.4,0.4-0.4,0.4c-0.5,0.2-0.7,0.8-0.4,1.3l1.2,1.9
					c0.3,0.5,0.1,0.9-0.5,0.9H167.9z M166.8,16.4c0-0.2,0-0.4-0.1-0.5c-0.1-0.1-0.2-0.2-0.3-0.3s-0.3-0.1-0.4-0.1
					c-0.2,0-0.2,0-0.2,0c-0.2,0-0.6,0-0.9,0s-0.5,0.4-0.5,1c0,0.5,0.2,1,0.5,1s0.6,0,0.8,0c0,0,0,0,0.2,0c0.2,0,0.3-0.1,0.5-0.1
					c0.1-0.1,0.3-0.2,0.4-0.3C166.7,16.7,166.8,16.6,166.8,16.4z"/>
			</g>
			<g>
				<path d="M179,22.2c-0.6,0-1.1-0.4-1.3-0.8c-0.2-0.5-0.8-0.8-1.3-0.8h-1.3c-0.6,0-1.1,0.4-1.3,0.8c-0.2,0.5-0.8,0.8-1.3,0.8h-0.2
					c-0.6,0-0.8-0.4-0.6-0.9l2.8-6.7c0.2-0.5,0.8-0.9,1.4-0.9c0.5,0,1.2,0.4,1.4,0.9l2.8,6.6c0.2,0.5-0.1,0.9-0.6,0.9H179z
					 M176.1,17c-0.2-0.5-0.5-0.5-0.7,0l-0.4,1c-0.2,0.5,0.1,0.9,0.7,0.9h0.1c0.6,0,0.8-0.4,0.7-0.9L176.1,17z"/>
			</g>
			<g>
				<path d="M191,18c0,0.7-0.1,1.4-0.4,1.9c-0.3,0.5-0.6,1-1.1,1.3c-0.5,0.3-1,0.6-1.5,0.8c-0.6,0.2-0.7,0.2-0.7,0.2
					c-0.5,0-1.4,0.1-2,0.1h-1.2c-0.6,0-1-0.4-1-1v-6.5c0-0.6,0.4-1,1-1h1.1c0.6,0,1.4,0,2,0.1c0,0,0.2,0,0.8,0.2
					c0.6,0.1,1.1,0.4,1.6,0.7c0.5,0.3,0.8,0.8,1.1,1.3C190.9,16.5,191,17.2,191,18z M188.9,18c0-0.5-0.1-0.9-0.2-1.2
					c-0.2-0.3-0.4-0.6-0.6-0.8c-0.3-0.2-0.6-0.3-0.9-0.4s-0.3-0.1-0.3-0.1c-0.4,0-0.9,0-1.2,0s-0.5,0.4-0.5,1v3c0,0.6,0.2,1,0.5,1
					s0.8,0,1.2,0c0,0,0,0,0.3-0.1s0.6-0.2,0.9-0.4c0.3-0.2,0.5-0.4,0.6-0.8C188.8,18.8,188.9,18.4,188.9,18z"/>
			</g>
			<g>
				<path d="M195.4,22.2c-0.6,0-1-0.4-1-1v-6.5c0-0.6,0.4-1,1-1h0.1c0.6,0,1,0.4,1,1v6.5C196.4,21.8,196,22.2,195.4,22.2L195.4,22.2
					z"/>
			</g>
			<g>
				<path d="M209.1,18c0,0.7-0.1,1.3-0.3,1.8c-0.2,0.6-0.6,1-1,1.4s-0.9,0.7-1.5,0.9c-0.6,0.2-1.2,0.3-1.8,0.3s-1.3-0.1-1.8-0.3
					c-0.6-0.2-1.1-0.5-1.5-0.9s-0.7-0.9-1-1.4c-0.2-0.6-0.3-1.2-0.3-1.8c0-0.7,0.1-1.3,0.3-1.8c0.2-0.5,0.6-1,1-1.4
					c0.4-0.4,0.9-0.7,1.5-0.9c0.6-0.2,1.2-0.3,1.8-0.3s1.3,0.1,1.8,0.3c0.6,0.2,1.1,0.5,1.5,0.9c0.4,0.4,0.7,0.9,1,1.4
					C209,16.7,209.1,17.3,209.1,18z M206.9,18c0-0.4-0.1-0.7-0.2-1c-0.1-0.3-0.3-0.6-0.5-0.8c-0.2-0.2-0.5-0.4-0.8-0.5
					c-0.3-0.1-0.6-0.2-1-0.2c-0.4,0-0.7,0.1-1,0.2c-0.3,0.1-0.6,0.3-0.8,0.5c-0.2,0.2-0.4,0.5-0.5,0.8c-0.1,0.3-0.2,0.7-0.2,1
					c0,0.4,0.1,0.7,0.2,1.1c0.1,0.3,0.3,0.6,0.5,0.8c0.2,0.2,0.5,0.4,0.8,0.5c0.3,0.1,0.6,0.2,1,0.2c0.4,0,0.7-0.1,1-0.2
					c0.3-0.1,0.6-0.3,0.8-0.5c0.2-0.2,0.4-0.5,0.5-0.8C206.8,18.7,206.9,18.3,206.9,18z"/>
			</g>
			<g>
				<path d="M214,21.2c0,0.3-0.1,0.6-0.4,0.8c-0.2,0.2-0.5,0.3-0.8,0.3c-0.2,0-0.3,0-0.5-0.1c-0.1-0.1-0.3-0.1-0.4-0.2
					c-0.1-0.1-0.2-0.2-0.3-0.4c-0.1-0.1-0.1-0.3-0.1-0.5c0-0.2,0-0.3,0.1-0.5c0.1-0.1,0.2-0.3,0.3-0.4c0.1-0.1,0.2-0.2,0.4-0.3
					c0.1-0.1,0.3-0.1,0.5-0.1c0.3,0,0.6,0.1,0.8,0.3C213.9,20.6,214,20.9,214,21.2z"/>
			</g>
			<g>
				<path d="M223.6,22.1c-0.6,0.3-1.2,0.4-1.9,0.4c-0.7,0-1.3-0.1-1.8-0.3c-0.6-0.2-1-0.5-1.4-0.9s-0.7-0.9-1-1.4
					c-0.2-0.6-0.3-1.2-0.3-1.8c0-0.7,0.1-1.3,0.4-1.8c0.2-0.6,0.6-1,1-1.4c0.4-0.4,0.9-0.7,1.5-0.9c0.6-0.2,1.2-0.3,1.8-0.3
					c0.6,0,1.2,0.1,1.8,0.3c0.6,0.2,0.7,0.3,0.7,0.3c0.4,0.4,0.4,1,0.1,1.4s-0.9,0.5-1.1,0.2c0,0,0,0-0.3-0.1
					c-0.3-0.1-0.6-0.2-1-0.2c-0.4,0-0.7,0.1-1,0.2s-0.6,0.3-0.8,0.5c-0.2,0.2-0.4,0.5-0.5,0.8c-0.1,0.3-0.2,0.7-0.2,1
					c0,0.4,0.1,0.7,0.2,1.1c0.1,0.3,0.3,0.6,0.5,0.8s0.5,0.4,0.8,0.5c0.3,0.1,0.6,0.2,1,0.2c0.4,0,0.8-0.1,1.1-0.2
					c0.3-0.2,0.3-0.2,0.3-0.2c0.2-0.3,0.7-0.2,1.1,0.2c0.4,0.4,0.4,1,0,1.3C224.3,21.8,224.2,21.8,223.6,22.1z"/>
			</g>
			<g>
				<path d="M236.6,18c0,0.7-0.1,1.3-0.3,1.8c-0.2,0.6-0.6,1-1,1.4s-0.9,0.7-1.5,0.9c-0.6,0.2-1.2,0.3-1.8,0.3s-1.3-0.1-1.8-0.3
					c-0.6-0.2-1.1-0.5-1.5-0.9s-0.7-0.9-1-1.4c-0.2-0.6-0.3-1.2-0.3-1.8c0-0.7,0.1-1.3,0.3-1.8c0.2-0.5,0.6-1,1-1.4
					c0.4-0.4,0.9-0.7,1.5-0.9c0.6-0.2,1.2-0.3,1.8-0.3s1.3,0.1,1.8,0.3c0.6,0.2,1.1,0.5,1.5,0.9c0.4,0.4,0.7,0.9,1,1.4
					C236.5,16.7,236.6,17.3,236.6,18z M234.4,18c0-0.4-0.1-0.7-0.2-1c-0.1-0.3-0.3-0.6-0.5-0.8c-0.2-0.2-0.5-0.4-0.8-0.5
					c-0.3-0.1-0.6-0.2-1-0.2c-0.4,0-0.7,0.1-1,0.2c-0.3,0.1-0.6,0.3-0.8,0.5c-0.2,0.2-0.4,0.5-0.5,0.8c-0.1,0.3-0.2,0.7-0.2,1
					c0,0.4,0.1,0.7,0.2,1.1c0.1,0.3,0.3,0.6,0.5,0.8c0.2,0.2,0.5,0.4,0.8,0.5c0.3,0.1,0.6,0.2,1,0.2c0.4,0,0.7-0.1,1-0.2
					c0.3-0.1,0.6-0.3,0.8-0.5c0.2-0.2,0.4-0.5,0.5-0.8C234.4,18.7,234.4,18.3,234.4,18z"/>
			</g>
			<g>
				<path d="M248.7,22.2c-0.6,0-1-0.4-1-1l0-4c0-0.5,0-1,0-1s-0.2,0.4-0.4,0.9l-1.5,4.1c-0.2,0.5-0.7,0.9-1.1,0.9
					c-0.4,0-0.9-0.4-1.1-0.9l-1.5-4.1c-0.2-0.5-0.3-0.9-0.4-0.9s0,0.4,0,1l0,4c0,0.5-0.4,1-1,1s-1-0.4-1-1v-6.5c0-0.6,0.4-1,1-1h0.9
					c0.6,0,1.2,0.4,1.3,0.9l1.3,3.6c0.2,0.5,0.3,0.9,0.4,0.9c0,0,0.2-0.4,0.3-0.9l1.2-3.6c0.2-0.5,0.8-0.9,1.3-0.9h1
					c0.6,0,1,0.4,1,1v6.5C249.7,21.8,249.3,22.2,248.7,22.2L248.7,22.2z"/>
			</g>
		</g>
	</g>
</g>
<g id="Layer_1">
	<g>
		<g>
			<g>
				<path fill="#F3BB99" d="M16.8,21.2c-0.6,0.3-1.2,0.4-1.9,0.4c-0.7,0-1.3-0.1-1.8-0.3c-0.6-0.2-1-0.5-1.4-0.9
					c-0.4-0.4-0.7-0.9-1-1.4c-0.2-0.6-0.3-1.2-0.3-1.8c0-0.7,0.1-1.3,0.4-1.8c0.2-0.6,0.6-1,1-1.4c0.4-0.4,0.9-0.7,1.5-0.9
					s1.2-0.3,1.8-0.3c0.6,0,1.2,0.1,1.8,0.3s0.7,0.3,0.7,0.3c0.4,0.4,0.4,1,0.1,1.4c-0.4,0.4-0.9,0.5-1.1,0.2c0,0,0,0-0.3-0.1
					s-0.6-0.2-1-0.2c-0.4,0-0.7,0.1-1,0.2c-0.3,0.1-0.6,0.3-0.8,0.5c-0.2,0.2-0.4,0.5-0.5,0.8s-0.2,0.7-0.2,1c0,0.4,0.1,0.7,0.2,1.1
					c0.1,0.3,0.3,0.6,0.5,0.8c0.2,0.2,0.5,0.4,0.8,0.5c0.3,0.1,0.6,0.2,1,0.2c0.4,0,0.8-0.1,1.1-0.2s0.3-0.2,0.3-0.2
					c0.2-0.3,0.7-0.2,1.1,0.2s0.4,1,0,1.3C17.5,20.8,17.4,20.9,16.8,21.2z"/>
				<path fill="none" stroke="#000000" stroke-width="0.25" stroke-miterlimit="10" d="M16.8,21.2c-0.6,0.3-1.2,0.4-1.9,0.4
					c-0.7,0-1.3-0.1-1.8-0.3c-0.6-0.2-1-0.5-1.4-0.9c-0.4-0.4-0.7-0.9-1-1.4c-0.2-0.6-0.3-1.2-0.3-1.8c0-0.7,0.1-1.3,0.4-1.8
					c0.2-0.6,0.6-1,1-1.4c0.4-0.4,0.9-0.7,1.5-0.9s1.2-0.3,1.8-0.3c0.6,0,1.2,0.1,1.8,0.3s0.7,0.3,0.7,0.3c0.4,0.4,0.4,1,0.1,1.4
					c-0.4,0.4-0.9,0.5-1.1,0.2c0,0,0,0-0.3-0.1s-0.6-0.2-1-0.2c-0.4,0-0.7,0.1-1,0.2c-0.3,0.1-0.6,0.3-0.8,0.5
					c-0.2,0.2-0.4,0.5-0.5,0.8s-0.2,0.7-0.2,1c0,0.4,0.1,0.7,0.2,1.1c0.1,0.3,0.3,0.6,0.5,0.8c0.2,0.2,0.5,0.4,0.8,0.5
					c0.3,0.1,0.6,0.2,1,0.2c0.4,0,0.8-0.1,1.1-0.2s0.3-0.2,0.3-0.2c0.2-0.3,0.7-0.2,1.1,0.2s0.4,1,0,1.3
					C17.5,20.8,17.4,20.9,16.8,21.2z"/>
			</g>
			<g>
				<path fill="#F3BB99" d="M29.8,17c0,0.7-0.1,1.3-0.3,1.8s-0.6,1-1,1.4S27.6,21,27,21.2c-0.6,0.2-1.2,0.3-1.8,0.3
					s-1.3-0.1-1.8-0.3c-0.6-0.2-1.1-0.5-1.5-0.9s-0.7-0.9-1-1.4c-0.2-0.6-0.3-1.2-0.3-1.8c0-0.7,0.1-1.3,0.3-1.8
					c0.2-0.5,0.6-1,1-1.4c0.4-0.4,0.9-0.7,1.5-0.9s1.2-0.3,1.8-0.3s1.3,0.1,1.8,0.3c0.6,0.2,1.1,0.5,1.5,0.9c0.4,0.4,0.7,0.9,1,1.4
					S29.8,16.3,29.8,17z M27.6,17c0-0.4-0.1-0.7-0.2-1s-0.3-0.6-0.5-0.8s-0.5-0.4-0.8-0.5c-0.3-0.1-0.6-0.2-1-0.2s-0.7,0.1-1,0.2
					c-0.3,0.1-0.6,0.3-0.8,0.5c-0.2,0.2-0.4,0.5-0.5,0.8c-0.1,0.3-0.2,0.7-0.2,1c0,0.4,0.1,0.7,0.2,1.1c0.1,0.3,0.3,0.6,0.5,0.8
					c0.2,0.2,0.5,0.4,0.8,0.5c0.3,0.1,0.6,0.2,1,0.2s0.7-0.1,1-0.2c0.3-0.1,0.6-0.3,0.8-0.5c0.2-0.2,0.4-0.5,0.5-0.8
					C27.6,17.8,27.6,17.4,27.6,17z"/>
				<path fill="none" stroke="#000000" stroke-width="0.25" stroke-miterlimit="10" d="M29.8,17c0,0.7-0.1,1.3-0.3,1.8s-0.6,1-1,1.4
					S27.6,21,27,21.2c-0.6,0.2-1.2,0.3-1.8,0.3s-1.3-0.1-1.8-0.3c-0.6-0.2-1.1-0.5-1.5-0.9s-0.7-0.9-1-1.4c-0.2-0.6-0.3-1.2-0.3-1.8
					c0-0.7,0.1-1.3,0.3-1.8c0.2-0.5,0.6-1,1-1.4c0.4-0.4,0.9-0.7,1.5-0.9s1.2-0.3,1.8-0.3s1.3,0.1,1.8,0.3c0.6,0.2,1.1,0.5,1.5,0.9
					c0.4,0.4,0.7,0.9,1,1.4S29.8,16.3,29.8,17z M27.6,17c0-0.4-0.1-0.7-0.2-1s-0.3-0.6-0.5-0.8s-0.5-0.4-0.8-0.5
					c-0.3-0.1-0.6-0.2-1-0.2s-0.7,0.1-1,0.2c-0.3,0.1-0.6,0.3-0.8,0.5c-0.2,0.2-0.4,0.5-0.5,0.8c-0.1,0.3-0.2,0.7-0.2,1
					c0,0.4,0.1,0.7,0.2,1.1c0.1,0.3,0.3,0.6,0.5,0.8c0.2,0.2,0.5,0.4,0.8,0.5c0.3,0.1,0.6,0.2,1,0.2s0.7-0.1,1-0.2
					c0.3-0.1,0.6-0.3,0.8-0.5c0.2-0.2,0.4-0.5,0.5-0.8C27.6,17.8,27.6,17.4,27.6,17z"/>
			</g>
			<g>
				<path fill="#F3BB99" d="M39.6,21.3c-0.5,0-1.2-0.4-1.5-0.9l-2.4-3.9c-0.3-0.5-0.5-0.9-0.5-0.9s0,0.4,0,1l0,3.6c0,0.5-0.4,1-1,1
					s-1-0.5-1-1v-6.5c0-0.6,0.5-1,1-1h0.3c0.5,0,1.2,0.4,1.5,0.9l2.4,3.8c0.3,0.5,0.5,0.9,0.5,0.9s0-0.4,0-1l0-3.5c0-0.5,0.4-1,1-1
					s1,0.4,1,1v6.5c0,0.5-0.5,1-1,1H39.6z"/>
				<path fill="none" stroke="#000000" stroke-width="0.25" stroke-miterlimit="10" d="M39.6,21.3c-0.5,0-1.2-0.4-1.5-0.9l-2.4-3.9
					c-0.3-0.5-0.5-0.9-0.5-0.9s0,0.4,0,1l0,3.6c0,0.5-0.4,1-1,1s-1-0.5-1-1v-6.5c0-0.6,0.5-1,1-1h0.3c0.5,0,1.2,0.4,1.5,0.9l2.4,3.8
					c0.3,0.5,0.5,0.9,0.5,0.9s0-0.4,0-1l0-3.5c0-0.5,0.4-1,1-1s1,0.4,1,1v6.5c0,0.5-0.5,1-1,1H39.6z"/>
			</g>
			<g>
				<path fill="#F3BB99" d="M49.3,14.6c-0.5,0-1,0.4-1,1v4.7c0,0.5-0.5,1-1,1h-0.1c-0.5,0-1-0.5-1-1v-4.7c0-0.6-0.5-1-1-1h-0.4
					c-0.5,0-1-0.4-1-0.9c0-0.5,0.5-0.9,1-0.9h4.9c0.5,0,1,0.4,1,0.9c0,0.5-0.5,0.9-1,0.9H49.3z"/>
				<path fill="none" stroke="#000000" stroke-width="0.25" stroke-miterlimit="10" d="M49.3,14.6c-0.5,0-1,0.4-1,1v4.7
					c0,0.5-0.5,1-1,1h-0.1c-0.5,0-1-0.5-1-1v-4.7c0-0.6-0.5-1-1-1h-0.4c-0.5,0-1-0.4-1-0.9c0-0.5,0.5-0.9,1-0.9h4.9
					c0.5,0,1,0.4,1,0.9c0,0.5-0.5,0.9-1,0.9H49.3z"/>
			</g>
			<g>
				<path fill="#F3BB99" d="M54.7,21.3c-0.5,0-1-0.5-1-1v-6.5c0-0.6,0.5-1,1-1h0.1c0.5,0,1,0.4,1,1v6.5
					C55.8,20.9,55.3,21.3,54.7,21.3L54.7,21.3z"/>
				<path fill="none" stroke="#000000" stroke-width="0.25" stroke-miterlimit="10" d="M54.7,21.3c-0.5,0-1-0.5-1-1v-6.5
					c0-0.6,0.5-1,1-1h0.1c0.5,0,1,0.4,1,1v6.5C55.8,20.9,55.3,21.3,54.7,21.3L54.7,21.3z"/>
			</g>
			<g>
				<path fill="#F3BB99" d="M66,21.3c-0.6,0-1.2-0.4-1.5-0.9l-2.4-3.9c-0.3-0.5-0.5-0.9-0.5-0.9s0,0.4,0,1l0,3.6c0,0.5-0.4,1-1,1
					s-1-0.5-1-1v-6.5c0-0.6,0.5-1,1-1h0.3c0.5,0,1.2,0.4,1.5,0.9l2.4,3.8c0.3,0.5,0.5,0.9,0.5,0.9s0-0.4,0-1l0-3.5c0-0.5,0.4-1,1-1
					s1,0.4,1,1v6.5c0,0.5-0.4,1-1,1H66z"/>
				<path fill="none" stroke="#000000" stroke-width="0.25" stroke-miterlimit="10" d="M66,21.3c-0.6,0-1.2-0.4-1.5-0.9l-2.4-3.9
					c-0.3-0.5-0.5-0.9-0.5-0.9s0,0.4,0,1l0,3.6c0,0.5-0.4,1-1,1s-1-0.5-1-1v-6.5c0-0.6,0.5-1,1-1h0.3c0.5,0,1.2,0.4,1.5,0.9l2.4,3.8
					c0.3,0.5,0.5,0.9,0.5,0.9s0-0.4,0-1l0-3.5c0-0.5,0.4-1,1-1s1,0.4,1,1v6.5c0,0.5-0.4,1-1,1H66z"/>
			</g>
			<g>
				<path fill="#F3BB99" d="M78,19.5c-0.2,0.4-0.4,0.8-0.7,1.1c-0.3,0.3-0.7,0.5-1.2,0.7c-0.5,0.2-1,0.3-1.5,0.3
					c-0.6,0-1.1-0.1-1.5-0.3c-0.4-0.2-0.8-0.4-1.1-0.7c-0.3-0.3-0.6-0.7-0.7-1.1s-0.2-0.4-0.2-0.4c0-0.5-0.1-1.4-0.1-2v-3.3
					c0-0.6,0.4-1,1-1h0c0.6,0,1,0.4,1,1v3.1c0,0.5,0,1.2,0,1.5c0,0,0,0,0.1,0.2c0.1,0.2,0.2,0.4,0.3,0.6c0.1,0.2,0.3,0.3,0.5,0.4
					c0.2,0.1,0.4,0.1,0.7,0.1c0.3,0,0.5,0,0.7-0.1c0.2-0.1,0.4-0.2,0.5-0.4c0.1-0.2,0.2-0.4,0.3-0.6s0.1-0.2,0.1-0.2
					c0-0.2,0-0.9,0-1.5v-3.1c0-0.6,0.4-1,1-1h0.1c0.6,0,1,0.4,1,1v3.3c0,0.5,0,1.4-0.1,2C78.2,19.1,78.2,19.1,78,19.5z"/>
				<path fill="none" stroke="#000000" stroke-width="0.25" stroke-miterlimit="10" d="M78,19.5c-0.2,0.4-0.4,0.8-0.7,1.1
					c-0.3,0.3-0.7,0.5-1.2,0.7c-0.5,0.2-1,0.3-1.5,0.3c-0.6,0-1.1-0.1-1.5-0.3c-0.4-0.2-0.8-0.4-1.1-0.7c-0.3-0.3-0.6-0.7-0.7-1.1
					s-0.2-0.4-0.2-0.4c0-0.5-0.1-1.4-0.1-2v-3.3c0-0.6,0.4-1,1-1h0c0.6,0,1,0.4,1,1v3.1c0,0.5,0,1.2,0,1.5c0,0,0,0,0.1,0.2
					c0.1,0.2,0.2,0.4,0.3,0.6c0.1,0.2,0.3,0.3,0.5,0.4c0.2,0.1,0.4,0.1,0.7,0.1c0.3,0,0.5,0,0.7-0.1c0.2-0.1,0.4-0.2,0.5-0.4
					c0.1-0.2,0.2-0.4,0.3-0.6s0.1-0.2,0.1-0.2c0-0.2,0-0.9,0-1.5v-3.1c0-0.6,0.4-1,1-1h0.1c0.6,0,1,0.4,1,1v3.3c0,0.5,0,1.4-0.1,2
					C78.2,19.1,78.2,19.1,78,19.5z"/>
			</g>
			<g>
				<path fill="#F3BB99" d="M82.9,21.3c-0.6,0-1-0.5-1-1v-6.5c0-0.6,0.4-1,1-1h3.7c0.6,0,1,0.4,1,0.9c0,0.5-0.4,0.9-1,0.9h-1.7
					c-0.6,0-1,0.4-1,0.8c0,0.4,0.4,0.8,1,0.8h1.5c0.6,0,1,0.4,1,0.8s-0.4,0.8-1,0.8h-1.5c-0.6,0-1,0.4-1,0.9s0.4,0.9,1,0.9h1.9
					c0.6,0,1,0.4,1,0.9s-0.4,0.9-1,0.9H82.9z"/>
				<path fill="none" stroke="#000000" stroke-width="0.25" stroke-miterlimit="10" d="M82.9,21.3c-0.6,0-1-0.5-1-1v-6.5
					c0-0.6,0.4-1,1-1h3.7c0.6,0,1,0.4,1,0.9c0,0.5-0.4,0.9-1,0.9h-1.7c-0.6,0-1,0.4-1,0.8c0,0.4,0.4,0.8,1,0.8h1.5
					c0.6,0,1,0.4,1,0.8s-0.4,0.8-1,0.8h-1.5c-0.6,0-1,0.4-1,0.9s0.4,0.9,1,0.9h1.9c0.6,0,1,0.4,1,0.9s-0.4,0.9-1,0.9H82.9z"/>
			</g>
			<g>
				<path fill="#F3BB99" d="M100.6,14.6c-0.6,0-1,0.4-1,1v4.7c0,0.5-0.4,1-1,1h-0.1c-0.6,0-1-0.5-1-1v-4.7c0-0.6-0.4-1-1-1h-0.4
					c-0.6,0-1-0.4-1-0.9c0-0.5,0.4-0.9,1-0.9h4.9c0.6,0,1,0.4,1,0.9c0,0.5-0.4,0.9-1,0.9H100.6z"/>
				<path fill="none" stroke="#000000" stroke-width="0.25" stroke-miterlimit="10" d="M100.6,14.6c-0.6,0-1,0.4-1,1v4.7
					c0,0.5-0.4,1-1,1h-0.1c-0.6,0-1-0.5-1-1v-4.7c0-0.6-0.4-1-1-1h-0.4c-0.6,0-1-0.4-1-0.9c0-0.5,0.4-0.9,1-0.9h4.9
					c0.6,0,1,0.4,1,0.9c0,0.5-0.4,0.9-1,0.9H100.6z"/>
			</g>
			<g>
				<path fill="#F3BB99" d="M113.5,17c0,0.7-0.1,1.3-0.3,1.8c-0.2,0.6-0.6,1-1,1.4s-0.9,0.7-1.5,0.9c-0.6,0.2-1.2,0.3-1.8,0.3
					s-1.3-0.1-1.8-0.3c-0.6-0.2-1.1-0.5-1.5-0.9s-0.7-0.9-1-1.4c-0.2-0.6-0.3-1.2-0.3-1.8c0-0.7,0.1-1.3,0.3-1.8
					c0.2-0.5,0.6-1,1-1.4c0.4-0.4,0.9-0.7,1.5-0.9c0.6-0.2,1.2-0.3,1.8-0.3s1.3,0.1,1.8,0.3c0.6,0.2,1.1,0.5,1.5,0.9
					c0.4,0.4,0.7,0.9,1,1.4C113.4,15.7,113.5,16.3,113.5,17z M111.3,17c0-0.4-0.1-0.7-0.2-1c-0.1-0.3-0.3-0.6-0.5-0.8
					c-0.2-0.2-0.5-0.4-0.8-0.5c-0.3-0.1-0.6-0.2-1-0.2c-0.4,0-0.7,0.1-1,0.2c-0.3,0.1-0.6,0.3-0.8,0.5c-0.2,0.2-0.4,0.5-0.5,0.8
					c-0.1,0.3-0.2,0.7-0.2,1c0,0.4,0.1,0.7,0.2,1.1c0.1,0.3,0.3,0.6,0.5,0.8c0.2,0.2,0.5,0.4,0.8,0.5c0.3,0.1,0.6,0.2,1,0.2
					c0.4,0,0.7-0.1,1-0.2c0.3-0.1,0.6-0.3,0.8-0.5c0.2-0.2,0.4-0.5,0.5-0.8C111.2,17.8,111.3,17.4,111.3,17z"/>
				<path fill="none" stroke="#000000" stroke-width="0.25" stroke-miterlimit="10" d="M113.5,17c0,0.7-0.1,1.3-0.3,1.8
					c-0.2,0.6-0.6,1-1,1.4s-0.9,0.7-1.5,0.9c-0.6,0.2-1.2,0.3-1.8,0.3s-1.3-0.1-1.8-0.3c-0.6-0.2-1.1-0.5-1.5-0.9s-0.7-0.9-1-1.4
					c-0.2-0.6-0.3-1.2-0.3-1.8c0-0.7,0.1-1.3,0.3-1.8c0.2-0.5,0.6-1,1-1.4c0.4-0.4,0.9-0.7,1.5-0.9c0.6-0.2,1.2-0.3,1.8-0.3
					s1.3,0.1,1.8,0.3c0.6,0.2,1.1,0.5,1.5,0.9c0.4,0.4,0.7,0.9,1,1.4C113.4,15.7,113.5,16.3,113.5,17z M111.3,17
					c0-0.4-0.1-0.7-0.2-1c-0.1-0.3-0.3-0.6-0.5-0.8c-0.2-0.2-0.5-0.4-0.8-0.5c-0.3-0.1-0.6-0.2-1-0.2c-0.4,0-0.7,0.1-1,0.2
					c-0.3,0.1-0.6,0.3-0.8,0.5c-0.2,0.2-0.4,0.5-0.5,0.8c-0.1,0.3-0.2,0.7-0.2,1c0,0.4,0.1,0.7,0.2,1.1c0.1,0.3,0.3,0.6,0.5,0.8
					c0.2,0.2,0.5,0.4,0.8,0.5c0.3,0.1,0.6,0.2,1,0.2c0.4,0,0.7-0.1,1-0.2c0.3-0.1,0.6-0.3,0.8-0.5c0.2-0.2,0.4-0.5,0.5-0.8
					C111.2,17.8,111.3,17.4,111.3,17z"/>
			</g>
			<g>
				<path fill="#F3BB99" d="M128.8,19.5c-0.2,0.4-0.4,0.8-0.7,1.1c-0.3,0.3-0.7,0.5-1.2,0.7s-1,0.3-1.5,0.3c-0.6,0-1.1-0.1-1.5-0.3
					c-0.4-0.2-0.8-0.4-1.1-0.7c-0.3-0.3-0.6-0.7-0.7-1.1s-0.2-0.4-0.2-0.4c0-0.5-0.1-1.4-0.1-2v-3.3c0-0.6,0.4-1,1-1h0
					c0.6,0,1,0.4,1,1v3.1c0,0.5,0,1.2,0,1.5c0,0,0,0,0.1,0.2c0.1,0.2,0.2,0.4,0.3,0.6s0.3,0.3,0.5,0.4c0.2,0.1,0.4,0.1,0.7,0.1
					s0.5,0,0.7-0.1c0.2-0.1,0.4-0.2,0.5-0.4s0.2-0.4,0.3-0.6c0.1-0.2,0.1-0.2,0.1-0.2c0-0.2,0-0.9,0-1.5v-3.1c0-0.6,0.4-1,1-1h0.1
					c0.6,0,1,0.4,1,1v3.3c0,0.5,0,1.4-0.1,2C129,19.1,129,19.1,128.8,19.5z"/>
				<path fill="none" stroke="#000000" stroke-width="0.25" stroke-miterlimit="10" d="M128.8,19.5c-0.2,0.4-0.4,0.8-0.7,1.1
					c-0.3,0.3-0.7,0.5-1.2,0.7s-1,0.3-1.5,0.3c-0.6,0-1.1-0.1-1.5-0.3c-0.4-0.2-0.8-0.4-1.1-0.7c-0.3-0.3-0.6-0.7-0.7-1.1
					s-0.2-0.4-0.2-0.4c0-0.5-0.1-1.4-0.1-2v-3.3c0-0.6,0.4-1,1-1h0c0.6,0,1,0.4,1,1v3.1c0,0.5,0,1.2,0,1.5c0,0,0,0,0.1,0.2
					c0.1,0.2,0.2,0.4,0.3,0.6s0.3,0.3,0.5,0.4c0.2,0.1,0.4,0.1,0.7,0.1s0.5,0,0.7-0.1c0.2-0.1,0.4-0.2,0.5-0.4s0.2-0.4,0.3-0.6
					c0.1-0.2,0.1-0.2,0.1-0.2c0-0.2,0-0.9,0-1.5v-3.1c0-0.6,0.4-1,1-1h0.1c0.6,0,1,0.4,1,1v3.3c0,0.5,0,1.4-0.1,2
					C129,19.1,129,19.1,128.8,19.5z"/>
			</g>
			<g>
				<path fill="#F3BB99" d="M138.9,21.2c-0.6,0.3-1.2,0.4-1.9,0.4c-0.7,0-1.3-0.1-1.8-0.3c-0.6-0.2-1-0.5-1.4-0.9s-0.7-0.9-1-1.4
					c-0.2-0.6-0.3-1.2-0.3-1.8c0-0.7,0.1-1.3,0.4-1.8c0.2-0.6,0.6-1,1-1.4c0.4-0.4,0.9-0.7,1.5-0.9c0.6-0.2,1.2-0.3,1.8-0.3
					c0.6,0,1.2,0.1,1.8,0.3c0.6,0.2,0.7,0.3,0.7,0.3c0.4,0.4,0.4,1,0.1,1.4c-0.4,0.4-0.9,0.5-1.1,0.2c0,0,0,0-0.3-0.1
					c-0.3-0.1-0.6-0.2-1-0.2c-0.4,0-0.7,0.1-1,0.2s-0.6,0.3-0.8,0.5c-0.2,0.2-0.4,0.5-0.5,0.8c-0.1,0.3-0.2,0.7-0.2,1
					c0,0.4,0.1,0.7,0.2,1.1c0.1,0.3,0.3,0.6,0.5,0.8s0.5,0.4,0.8,0.5c0.3,0.1,0.6,0.2,1,0.2c0.4,0,0.8-0.1,1.1-0.2
					c0.3-0.2,0.3-0.2,0.3-0.2c0.2-0.3,0.7-0.2,1.1,0.2s0.4,1,0,1.3C139.5,20.8,139.4,20.9,138.9,21.2z"/>
				<path fill="none" stroke="#000000" stroke-width="0.25" stroke-miterlimit="10" d="M138.9,21.2c-0.6,0.3-1.2,0.4-1.9,0.4
					c-0.7,0-1.3-0.1-1.8-0.3c-0.6-0.2-1-0.5-1.4-0.9s-0.7-0.9-1-1.4c-0.2-0.6-0.3-1.2-0.3-1.8c0-0.7,0.1-1.3,0.4-1.8
					c0.2-0.6,0.6-1,1-1.4c0.4-0.4,0.9-0.7,1.5-0.9c0.6-0.2,1.2-0.3,1.8-0.3c0.6,0,1.2,0.1,1.8,0.3c0.6,0.2,0.7,0.3,0.7,0.3
					c0.4,0.4,0.4,1,0.1,1.4c-0.4,0.4-0.9,0.5-1.1,0.2c0,0,0,0-0.3-0.1c-0.3-0.1-0.6-0.2-1-0.2c-0.4,0-0.7,0.1-1,0.2
					s-0.6,0.3-0.8,0.5c-0.2,0.2-0.4,0.5-0.5,0.8c-0.1,0.3-0.2,0.7-0.2,1c0,0.4,0.1,0.7,0.2,1.1c0.1,0.3,0.3,0.6,0.5,0.8
					s0.5,0.4,0.8,0.5c0.3,0.1,0.6,0.2,1,0.2c0.4,0,0.8-0.1,1.1-0.2c0.3-0.2,0.3-0.2,0.3-0.2c0.2-0.3,0.7-0.2,1.1,0.2s0.4,1,0,1.3
					C139.5,20.8,139.4,20.9,138.9,21.2z"/>
			</g>
			<g>
				<path fill="#F3BB99" d="M144.2,21.3c-0.6,0-1-0.5-1-1v-6.5c0-0.6,0.4-1,1-1h0.1c0.6,0,1,0.4,1,1v4.7c0,0.5,0.4,1,1,1h1.3
					c0.6,0,1,0.4,1,0.9s-0.4,0.9-1,0.9H144.2z"/>
				<path fill="none" stroke="#000000" stroke-width="0.25" stroke-miterlimit="10" d="M144.2,21.3c-0.6,0-1-0.5-1-1v-6.5
					c0-0.6,0.4-1,1-1h0.1c0.6,0,1,0.4,1,1v4.7c0,0.5,0.4,1,1,1h1.3c0.6,0,1,0.4,1,0.9s-0.4,0.9-1,0.9H144.2z"/>
			</g>
			<g>
				<path fill="#F3BB99" d="M158.3,21.3c-0.6,0-1.1-0.4-1.3-0.8c-0.2-0.5-0.8-0.8-1.3-0.8h-1.3c-0.6,0-1.1,0.4-1.3,0.8
					c-0.2,0.5-0.8,0.8-1.3,0.8h-0.2c-0.6,0-0.8-0.4-0.6-0.9l2.8-6.7c0.2-0.5,0.8-0.9,1.4-0.9s1.2,0.4,1.4,0.9l2.8,6.6
					c0.2,0.5-0.1,0.9-0.6,0.9H158.3z M155.3,16c-0.2-0.5-0.5-0.5-0.7,0l-0.4,1c-0.2,0.5,0.1,0.9,0.7,0.9h0.1c0.6,0,0.8-0.4,0.7-0.9
					L155.3,16z"/>
				<path fill="none" stroke="#000000" stroke-width="0.25" stroke-miterlimit="10" d="M158.3,21.3c-0.6,0-1.1-0.4-1.3-0.8
					c-0.2-0.5-0.8-0.8-1.3-0.8h-1.3c-0.6,0-1.1,0.4-1.3,0.8c-0.2,0.5-0.8,0.8-1.3,0.8h-0.2c-0.6,0-0.8-0.4-0.6-0.9l2.8-6.7
					c0.2-0.5,0.8-0.9,1.4-0.9s1.2,0.4,1.4,0.9l2.8,6.6c0.2,0.5-0.1,0.9-0.6,0.9H158.3z M155.3,16c-0.2-0.5-0.5-0.5-0.7,0l-0.4,1
					c-0.2,0.5,0.1,0.9,0.7,0.9h0.1c0.6,0,0.8-0.4,0.7-0.9L155.3,16z"/>
			</g>
			<g>
				<path fill="#F3BB99" d="M167.8,21.3c-0.6,0-1.2-0.4-1.5-0.9l-0.9-1.6c-0.3-0.5-0.6-0.9-0.8-0.9s-0.3,0.4-0.3,1v1.4
					c0,0.5-0.4,1-1,1h0c-0.6,0-1-0.5-1-1v-6.5c0-0.6,0.4-1,1-1h1.2c0.6,0,1.4,0,1.8,0c0,0,0,0,0.4,0.1c0.4,0.1,0.7,0.2,1,0.4
					c0.3,0.2,0.6,0.5,0.7,0.8c0.2,0.3,0.3,0.7,0.3,1.2c0,0.6-0.2,1.1-0.5,1.5c-0.3,0.4-0.4,0.4-0.4,0.4c-0.5,0.2-0.7,0.8-0.4,1.3
					l1.2,1.9c0.3,0.5,0.1,0.9-0.5,0.9H167.8z M166.7,15.4c0-0.2,0-0.4-0.1-0.5c-0.1-0.1-0.2-0.2-0.3-0.3s-0.3-0.1-0.4-0.1
					c-0.2,0-0.2,0-0.2,0c-0.2,0-0.6,0-0.9,0s-0.5,0.4-0.5,1s0.2,1,0.5,1s0.6,0,0.8,0c0,0,0,0,0.2,0c0.2,0,0.3-0.1,0.5-0.1
					c0.1-0.1,0.3-0.2,0.4-0.3C166.7,15.8,166.7,15.6,166.7,15.4z"/>
				<path fill="none" stroke="#000000" stroke-width="0.25" stroke-miterlimit="10" d="M167.8,21.3c-0.6,0-1.2-0.4-1.5-0.9l-0.9-1.6
					c-0.3-0.5-0.6-0.9-0.8-0.9s-0.3,0.4-0.3,1v1.4c0,0.5-0.4,1-1,1h0c-0.6,0-1-0.5-1-1v-6.5c0-0.6,0.4-1,1-1h1.2c0.6,0,1.4,0,1.8,0
					c0,0,0,0,0.4,0.1c0.4,0.1,0.7,0.2,1,0.4c0.3,0.2,0.6,0.5,0.7,0.8c0.2,0.3,0.3,0.7,0.3,1.2c0,0.6-0.2,1.1-0.5,1.5
					c-0.3,0.4-0.4,0.4-0.4,0.4c-0.5,0.2-0.7,0.8-0.4,1.3l1.2,1.9c0.3,0.5,0.1,0.9-0.5,0.9H167.8z M166.7,15.4c0-0.2,0-0.4-0.1-0.5
					c-0.1-0.1-0.2-0.2-0.3-0.3s-0.3-0.1-0.4-0.1c-0.2,0-0.2,0-0.2,0c-0.2,0-0.6,0-0.9,0s-0.5,0.4-0.5,1s0.2,1,0.5,1s0.6,0,0.8,0
					c0,0,0,0,0.2,0c0.2,0,0.3-0.1,0.5-0.1c0.1-0.1,0.3-0.2,0.4-0.3C166.7,15.8,166.7,15.6,166.7,15.4z"/>
			</g>
			<g>
				<path fill="#F3BB99" d="M179,21.3c-0.6,0-1.1-0.4-1.3-0.8c-0.2-0.5-0.8-0.8-1.3-0.8h-1.3c-0.6,0-1.1,0.4-1.3,0.8
					c-0.2,0.5-0.8,0.8-1.3,0.8h-0.2c-0.6,0-0.8-0.4-0.6-0.9l2.8-6.7c0.2-0.5,0.8-0.9,1.4-0.9s1.2,0.4,1.4,0.9l2.8,6.6
					c0.2,0.5-0.1,0.9-0.6,0.9H179z M176.1,16c-0.2-0.5-0.5-0.5-0.7,0l-0.4,1c-0.2,0.5,0.1,0.9,0.7,0.9h0.1c0.6,0,0.8-0.4,0.7-0.9
					L176.1,16z"/>
				<path fill="none" stroke="#000000" stroke-width="0.25" stroke-miterlimit="10" d="M179,21.3c-0.6,0-1.1-0.4-1.3-0.8
					c-0.2-0.5-0.8-0.8-1.3-0.8h-1.3c-0.6,0-1.1,0.4-1.3,0.8c-0.2,0.5-0.8,0.8-1.3,0.8h-0.2c-0.6,0-0.8-0.4-0.6-0.9l2.8-6.7
					c0.2-0.5,0.8-0.9,1.4-0.9s1.2,0.4,1.4,0.9l2.8,6.6c0.2,0.5-0.1,0.9-0.6,0.9H179z M176.1,16c-0.2-0.5-0.5-0.5-0.7,0l-0.4,1
					c-0.2,0.5,0.1,0.9,0.7,0.9h0.1c0.6,0,0.8-0.4,0.7-0.9L176.1,16z"/>
			</g>
			<g>
				<path fill="#F3BB99" d="M191,17c0,0.7-0.1,1.4-0.4,1.9c-0.3,0.5-0.6,1-1.1,1.3c-0.5,0.3-1,0.6-1.5,0.8c-0.6,0.2-0.7,0.2-0.7,0.2
					c-0.5,0-1.4,0.1-2,0.1H184c-0.6,0-1-0.5-1-1v-6.5c0-0.6,0.4-1,1-1h1.1c0.6,0,1.4,0,2,0.1c0,0,0.2,0,0.8,0.2
					c0.6,0.1,1.1,0.4,1.6,0.7c0.5,0.3,0.8,0.8,1.1,1.3C190.8,15.6,191,16.2,191,17z M188.8,17c0-0.5-0.1-0.9-0.2-1.2
					c-0.2-0.3-0.4-0.6-0.6-0.8c-0.3-0.2-0.6-0.3-0.9-0.4s-0.3-0.1-0.3-0.1c-0.4,0-0.9,0-1.2,0s-0.5,0.4-0.5,1v3c0,0.5,0.2,1,0.5,1
					s0.8,0,1.2,0c0,0,0,0,0.3-0.1s0.6-0.2,0.9-0.4c0.3-0.2,0.5-0.4,0.6-0.8C188.8,17.9,188.8,17.5,188.8,17z"/>
				<path fill="none" stroke="#000000" stroke-width="0.25" stroke-miterlimit="10" d="M191,17c0,0.7-0.1,1.4-0.4,1.9
					c-0.3,0.5-0.6,1-1.1,1.3c-0.5,0.3-1,0.6-1.5,0.8c-0.6,0.2-0.7,0.2-0.7,0.2c-0.5,0-1.4,0.1-2,0.1H184c-0.6,0-1-0.5-1-1v-6.5
					c0-0.6,0.4-1,1-1h1.1c0.6,0,1.4,0,2,0.1c0,0,0.2,0,0.8,0.2c0.6,0.1,1.1,0.4,1.6,0.7c0.5,0.3,0.8,0.8,1.1,1.3
					C190.8,15.6,191,16.2,191,17z M188.8,17c0-0.5-0.1-0.9-0.2-1.2c-0.2-0.3-0.4-0.6-0.6-0.8c-0.3-0.2-0.6-0.3-0.9-0.4
					s-0.3-0.1-0.3-0.1c-0.4,0-0.9,0-1.2,0s-0.5,0.4-0.5,1v3c0,0.5,0.2,1,0.5,1s0.8,0,1.2,0c0,0,0,0,0.3-0.1s0.6-0.2,0.9-0.4
					c0.3-0.2,0.5-0.4,0.6-0.8C188.8,17.9,188.8,17.5,188.8,17z"/>
			</g>
			<g>
				<path fill="#F3BB99" d="M195.4,21.3c-0.6,0-1-0.5-1-1v-6.5c0-0.6,0.4-1,1-1h0.1c0.6,0,1,0.4,1,1v6.5
					C196.4,20.9,196,21.3,195.4,21.3L195.4,21.3z"/>
				<path fill="none" stroke="#000000" stroke-width="0.25" stroke-miterlimit="10" d="M195.4,21.3c-0.6,0-1-0.5-1-1v-6.5
					c0-0.6,0.4-1,1-1h0.1c0.6,0,1,0.4,1,1v6.5C196.4,20.9,196,21.3,195.4,21.3L195.4,21.3z"/>
			</g>
			<g>
				<path fill="#F3BB99" d="M209.1,17c0,0.7-0.1,1.3-0.3,1.8c-0.2,0.6-0.6,1-1,1.4s-0.9,0.7-1.5,0.9c-0.6,0.2-1.2,0.3-1.8,0.3
					s-1.3-0.1-1.8-0.3c-0.6-0.2-1.1-0.5-1.5-0.9s-0.7-0.9-1-1.4c-0.2-0.6-0.3-1.2-0.3-1.8c0-0.7,0.1-1.3,0.3-1.8
					c0.2-0.5,0.6-1,1-1.4c0.4-0.4,0.9-0.7,1.5-0.9c0.6-0.2,1.2-0.3,1.8-0.3s1.3,0.1,1.8,0.3c0.6,0.2,1.1,0.5,1.5,0.9
					c0.4,0.4,0.7,0.9,1,1.4C208.9,15.7,209.1,16.3,209.1,17z M206.9,17c0-0.4-0.1-0.7-0.2-1c-0.1-0.3-0.3-0.6-0.5-0.8
					c-0.2-0.2-0.5-0.4-0.8-0.5c-0.3-0.1-0.6-0.2-1-0.2c-0.4,0-0.7,0.1-1,0.2c-0.3,0.1-0.6,0.3-0.8,0.5c-0.2,0.2-0.4,0.5-0.5,0.8
					c-0.1,0.3-0.2,0.7-0.2,1c0,0.4,0.1,0.7,0.2,1.1c0.1,0.3,0.3,0.6,0.5,0.8c0.2,0.2,0.5,0.4,0.8,0.5c0.3,0.1,0.6,0.2,1,0.2
					c0.4,0,0.7-0.1,1-0.2c0.3-0.1,0.6-0.3,0.8-0.5c0.2-0.2,0.4-0.5,0.5-0.8C206.8,17.8,206.9,17.4,206.9,17z"/>
				<path fill="none" stroke="#000000" stroke-width="0.25" stroke-miterlimit="10" d="M209.1,17c0,0.7-0.1,1.3-0.3,1.8
					c-0.2,0.6-0.6,1-1,1.4s-0.9,0.7-1.5,0.9c-0.6,0.2-1.2,0.3-1.8,0.3s-1.3-0.1-1.8-0.3c-0.6-0.2-1.1-0.5-1.5-0.9s-0.7-0.9-1-1.4
					c-0.2-0.6-0.3-1.2-0.3-1.8c0-0.7,0.1-1.3,0.3-1.8c0.2-0.5,0.6-1,1-1.4c0.4-0.4,0.9-0.7,1.5-0.9c0.6-0.2,1.2-0.3,1.8-0.3
					s1.3,0.1,1.8,0.3c0.6,0.2,1.1,0.5,1.5,0.9c0.4,0.4,0.7,0.9,1,1.4C208.9,15.7,209.1,16.3,209.1,17z M206.9,17
					c0-0.4-0.1-0.7-0.2-1c-0.1-0.3-0.3-0.6-0.5-0.8c-0.2-0.2-0.5-0.4-0.8-0.5c-0.3-0.1-0.6-0.2-1-0.2c-0.4,0-0.7,0.1-1,0.2
					c-0.3,0.1-0.6,0.3-0.8,0.5c-0.2,0.2-0.4,0.5-0.5,0.8c-0.1,0.3-0.2,0.7-0.2,1c0,0.4,0.1,0.7,0.2,1.1c0.1,0.3,0.3,0.6,0.5,0.8
					c0.2,0.2,0.5,0.4,0.8,0.5c0.3,0.1,0.6,0.2,1,0.2c0.4,0,0.7-0.1,1-0.2c0.3-0.1,0.6-0.3,0.8-0.5c0.2-0.2,0.4-0.5,0.5-0.8
					C206.8,17.8,206.9,17.4,206.9,17z"/>
			</g>
			<g>
				<path fill="#F3BB99" d="M214,20.3c0,0.3-0.1,0.6-0.4,0.8c-0.2,0.2-0.5,0.3-0.8,0.3c-0.2,0-0.3,0-0.5-0.1
					c-0.1-0.1-0.3-0.1-0.4-0.2c-0.1-0.1-0.2-0.2-0.3-0.4c-0.1-0.1-0.1-0.3-0.1-0.5c0-0.2,0-0.3,0.1-0.5c0.1-0.1,0.2-0.3,0.3-0.4
					c0.1-0.1,0.2-0.2,0.4-0.3c0.1-0.1,0.3-0.1,0.5-0.1c0.3,0,0.6,0.1,0.8,0.3C213.9,19.6,214,19.9,214,20.3z"/>
				<path fill="none" stroke="#000000" stroke-width="0.25" stroke-miterlimit="10" d="M214,20.3c0,0.3-0.1,0.6-0.4,0.8
					c-0.2,0.2-0.5,0.3-0.8,0.3c-0.2,0-0.3,0-0.5-0.1c-0.1-0.1-0.3-0.1-0.4-0.2c-0.1-0.1-0.2-0.2-0.3-0.4c-0.1-0.1-0.1-0.3-0.1-0.5
					c0-0.2,0-0.3,0.1-0.5c0.1-0.1,0.2-0.3,0.3-0.4c0.1-0.1,0.2-0.2,0.4-0.3c0.1-0.1,0.3-0.1,0.5-0.1c0.3,0,0.6,0.1,0.8,0.3
					C213.9,19.6,214,19.9,214,20.3z"/>
			</g>
			<g>
				<path fill="#F3BB99" d="M223.6,21.2c-0.6,0.3-1.2,0.4-1.9,0.4c-0.7,0-1.3-0.1-1.8-0.3c-0.6-0.2-1-0.5-1.4-0.9s-0.7-0.9-1-1.4
					c-0.2-0.6-0.3-1.2-0.3-1.8c0-0.7,0.1-1.3,0.4-1.8c0.2-0.6,0.6-1,1-1.4c0.4-0.4,0.9-0.7,1.5-0.9c0.6-0.2,1.2-0.3,1.8-0.3
					c0.6,0,1.2,0.1,1.8,0.3c0.6,0.2,0.7,0.3,0.7,0.3c0.4,0.4,0.4,1,0.1,1.4c-0.4,0.4-0.9,0.5-1.1,0.2c0,0,0,0-0.3-0.1
					c-0.3-0.1-0.6-0.2-1-0.2c-0.4,0-0.7,0.1-1,0.2s-0.6,0.3-0.8,0.5c-0.2,0.2-0.4,0.5-0.5,0.8c-0.1,0.3-0.2,0.7-0.2,1
					c0,0.4,0.1,0.7,0.2,1.1c0.1,0.3,0.3,0.6,0.5,0.8s0.5,0.4,0.8,0.5c0.3,0.1,0.6,0.2,1,0.2c0.4,0,0.8-0.1,1.1-0.2
					c0.3-0.2,0.3-0.2,0.3-0.2c0.2-0.3,0.7-0.2,1.1,0.2s0.4,1,0,1.3C224.2,20.8,224.1,20.9,223.6,21.2z"/>
				<path fill="none" stroke="#000000" stroke-width="0.25" stroke-miterlimit="10" d="M223.6,21.2c-0.6,0.3-1.2,0.4-1.9,0.4
					c-0.7,0-1.3-0.1-1.8-0.3c-0.6-0.2-1-0.5-1.4-0.9s-0.7-0.9-1-1.4c-0.2-0.6-0.3-1.2-0.3-1.8c0-0.7,0.1-1.3,0.4-1.8
					c0.2-0.6,0.6-1,1-1.4c0.4-0.4,0.9-0.7,1.5-0.9c0.6-0.2,1.2-0.3,1.8-0.3c0.6,0,1.2,0.1,1.8,0.3c0.6,0.2,0.7,0.3,0.7,0.3
					c0.4,0.4,0.4,1,0.1,1.4c-0.4,0.4-0.9,0.5-1.1,0.2c0,0,0,0-0.3-0.1c-0.3-0.1-0.6-0.2-1-0.2c-0.4,0-0.7,0.1-1,0.2
					s-0.6,0.3-0.8,0.5c-0.2,0.2-0.4,0.5-0.5,0.8c-0.1,0.3-0.2,0.7-0.2,1c0,0.4,0.1,0.7,0.2,1.1c0.1,0.3,0.3,0.6,0.5,0.8
					s0.5,0.4,0.8,0.5c0.3,0.1,0.6,0.2,1,0.2c0.4,0,0.8-0.1,1.1-0.2c0.3-0.2,0.3-0.2,0.3-0.2c0.2-0.3,0.7-0.2,1.1,0.2s0.4,1,0,1.3
					C224.2,20.8,224.1,20.9,223.6,21.2z"/>
			</g>
			<g>
				<path fill="#F3BB99" d="M236.6,17c0,0.7-0.1,1.3-0.3,1.8c-0.2,0.6-0.6,1-1,1.4s-0.9,0.7-1.5,0.9c-0.6,0.2-1.2,0.3-1.8,0.3
					s-1.3-0.1-1.8-0.3c-0.6-0.2-1.1-0.5-1.5-0.9s-0.7-0.9-1-1.4c-0.2-0.6-0.3-1.2-0.3-1.8c0-0.7,0.1-1.3,0.3-1.8
					c0.2-0.5,0.6-1,1-1.4c0.4-0.4,0.9-0.7,1.5-0.9c0.6-0.2,1.2-0.3,1.8-0.3s1.3,0.1,1.8,0.3c0.6,0.2,1.1,0.5,1.5,0.9
					c0.4,0.4,0.7,0.9,1,1.4C236.5,15.7,236.6,16.3,236.6,17z M234.4,17c0-0.4-0.1-0.7-0.2-1c-0.1-0.3-0.3-0.6-0.5-0.8
					c-0.2-0.2-0.5-0.4-0.8-0.5c-0.3-0.1-0.6-0.2-1-0.2c-0.4,0-0.7,0.1-1,0.2c-0.3,0.1-0.6,0.3-0.8,0.5c-0.2,0.2-0.4,0.5-0.5,0.8
					c-0.1,0.3-0.2,0.7-0.2,1c0,0.4,0.1,0.7,0.2,1.1c0.1,0.3,0.3,0.6,0.5,0.8c0.2,0.2,0.5,0.4,0.8,0.5c0.3,0.1,0.6,0.2,1,0.2
					c0.4,0,0.7-0.1,1-0.2c0.3-0.1,0.6-0.3,0.8-0.5c0.2-0.2,0.4-0.5,0.5-0.8C234.3,17.8,234.4,17.4,234.4,17z"/>
				<path fill="none" stroke="#000000" stroke-width="0.25" stroke-miterlimit="10" d="M236.6,17c0,0.7-0.1,1.3-0.3,1.8
					c-0.2,0.6-0.6,1-1,1.4s-0.9,0.7-1.5,0.9c-0.6,0.2-1.2,0.3-1.8,0.3s-1.3-0.1-1.8-0.3c-0.6-0.2-1.1-0.5-1.5-0.9s-0.7-0.9-1-1.4
					c-0.2-0.6-0.3-1.2-0.3-1.8c0-0.7,0.1-1.3,0.3-1.8c0.2-0.5,0.6-1,1-1.4c0.4-0.4,0.9-0.7,1.5-0.9c0.6-0.2,1.2-0.3,1.8-0.3
					s1.3,0.1,1.8,0.3c0.6,0.2,1.1,0.5,1.5,0.9c0.4,0.4,0.7,0.9,1,1.4C236.5,15.7,236.6,16.3,236.6,17z M234.4,17
					c0-0.4-0.1-0.7-0.2-1c-0.1-0.3-0.3-0.6-0.5-0.8c-0.2-0.2-0.5-0.4-0.8-0.5c-0.3-0.1-0.6-0.2-1-0.2c-0.4,0-0.7,0.1-1,0.2
					c-0.3,0.1-0.6,0.3-0.8,0.5c-0.2,0.2-0.4,0.5-0.5,0.8c-0.1,0.3-0.2,0.7-0.2,1c0,0.4,0.1,0.7,0.2,1.1c0.1,0.3,0.3,0.6,0.5,0.8
					c0.2,0.2,0.5,0.4,0.8,0.5c0.3,0.1,0.6,0.2,1,0.2c0.4,0,0.7-0.1,1-0.2c0.3-0.1,0.6-0.3,0.8-0.5c0.2-0.2,0.4-0.5,0.5-0.8
					C234.3,17.8,234.4,17.4,234.4,17z"/>
			</g>
			<g>
				<path fill="#F3BB99" d="M248.7,21.3c-0.6,0-1-0.4-1-1l0-4c0-0.5,0-1,0-1s-0.2,0.4-0.4,0.9l-1.5,4.1c-0.2,0.5-0.7,0.9-1.1,0.9
					s-0.9-0.4-1.1-0.9l-1.5-4.1c-0.2-0.5-0.3-0.9-0.4-0.9s0,0.4,0,1l0,4c0,0.5-0.4,1-1,1s-1-0.5-1-1v-6.5c0-0.6,0.4-1,1-1h0.9
					c0.6,0,1.2,0.4,1.3,0.9l1.3,3.6c0.2,0.5,0.3,0.9,0.4,0.9s0.2-0.4,0.3-0.9l1.2-3.6c0.2-0.5,0.8-0.9,1.3-0.9h1c0.6,0,1,0.4,1,1
					v6.5C249.7,20.9,249.2,21.3,248.7,21.3L248.7,21.3z"/>
				<path fill="none" stroke="#000000" stroke-width="0.25" stroke-miterlimit="10" d="M248.7,21.3c-0.6,0-1-0.4-1-1l0-4
					c0-0.5,0-1,0-1s-0.2,0.4-0.4,0.9l-1.5,4.1c-0.2,0.5-0.7,0.9-1.1,0.9s-0.9-0.4-1.1-0.9l-1.5-4.1c-0.2-0.5-0.3-0.9-0.4-0.9
					s0,0.4,0,1l0,4c0,0.5-0.4,1-1,1s-1-0.5-1-1v-6.5c0-0.6,0.4-1,1-1h0.9c0.6,0,1.2,0.4,1.3,0.9l1.3,3.6c0.2,0.5,0.3,0.9,0.4,0.9
					s0.2-0.4,0.3-0.9l1.2-3.6c0.2-0.5,0.8-0.9,1.3-0.9h1c0.6,0,1,0.4,1,1v6.5C249.7,20.9,249.2,21.3,248.7,21.3L248.7,21.3z"/>
			</g>
		</g>
	</g>
</g>
</svg>
