<?xml version="1.0" encoding="iso-8859-1"?>
<!-- Generator: Adobe Illustrator 16.0.0, SVG Export Plug-In . SVG Version: 6.00 Build 0)  -->
<!DOCTYPE svg PUBLIC "-//W3C//DTD SVG 1.1//EN" "http://www.w3.org/Graphics/SVG/1.1/DTD/svg11.dtd">
<svg version="1.1" id="Capa_1" xmlns="http://www.w3.org/2000/svg" xmlns:xlink="http://www.w3.org/1999/xlink" x="0px" y="0px"
	 width="192.413px" height="192.414px" viewBox="0 0 192.413 192.414" style="enable-background:new 0 0 192.413 192.414;"
	 xml:space="preserve">
<g>
	<g>
		<path d="M191.641,10.815c-0.043-0.825-0.744-1.606-1.553-1.801c-1.398-1.363-2.876-2.348-5.041-2.461
			c-0.779-0.041-1.197,0.61-1.188,1.273c-28.944,7.662-59.801,0.384-89.141-1.101C82.995,6.131,9.293,2.231,7.373,8.509
			C7.39,8.454,7.353,8.4,7.301,8.383c-0.257-0.085-0.513-0.17-0.769-0.255C5.78,7.138,4.228,6.814,3.591,8.241
			c-5.806,13.007-3.075,29.044-2.034,42.77c2.089,27.55-1.324,54.912-0.586,82.468c0.002,0.09,0.037,0.155,0.052,0.236
			c-0.242,0.854,0.215,1.922,1.391,1.974c6.893,0.305,13.775,0.823,20.674,0.946c-0.234,1.471-1.055,4.111-1.196,5.086
			c-0.734,5.073-1.398,10.154-2.171,15.222c-1.433,9.386-2.964,18.757-4.525,28.121c-0.198,1.19,0.494,2.351,1.801,2.364
			c22.796,0.25,38.422-31.593,46.75-48.841c0.16-0.33,0.194-0.647,0.176-0.952c27.698-0.379,55.273-2.353,83.009-2.058
			c8.205,0.087,32.75,4.023,40.03-2.433c0.603,0.091,1.261-0.229,1.325-1.057C191.385,92.629,193.676,50.332,191.641,10.815z
			 M185.877,129.849c-0.095,0.036-0.188,0.048-0.283,0.104c-10.77,6.31-34.605,1.952-46.647,1.795
			c-25.339-0.331-50.931,0.182-76.118,3.102c-0.634,0.074-1.045,0.468-1.232,0.938c-0.426,0.098-0.817,0.381-1.075,0.916
			c-7.465,15.46-21.528,44.915-41.308,46.81c1.76-10.605,3.479-21.218,5.002-31.86c0.331-2.314,2.801-11.419,1.393-15.261
			c1.285-0.847,0.978-3.337-0.973-3.347c-6.916-0.037-13.819-0.517-20.733-0.398c1.114-22.402,2.921-45.023,2.372-67.451
			C5.86,48.295-0.132,27.146,6.513,10.849c31.216,0.674,62.711-1.682,94-0.101c28.043,1.417,57.926,8.974,85.41,0.214
			c0.108,0.134,0.217,0.255,0.323,0.41c0.162,0.237,0.494,0.035,0.379-0.222c-0.065-0.145-0.114-0.271-0.173-0.405
			c0.111-0.054,0.223-0.105,0.314-0.174c0.16,0.147,0.319,0.303,0.478,0.456c-0.161,0.801,0.224,1.662,1.274,1.648
			C186.725,12.697,185.354,111.582,185.877,129.849z"/>
		<path d="M74.961,36.444c-1.158-0.212-2.331-0.011-3.448,0.374c-2.971-0.52-5.162,1.737-6.36,4.942
			c-1.061,2.835-0.508,5.939,2.065,7.737c4.996,3.49,12.403,0.527,12.712-5.731C80.086,40.572,78.304,37.055,74.961,36.444z"/>
		<path d="M76.583,90.079c-0.792-0.473-1.668-0.819-2.678-0.857c-1.567-0.785-3.384-0.807-5.002,0.337
			c-2.142,1.514-3.095,4.128-3.177,6.669c-0.122,3.742,2.222,6.04,5.112,6.699c-0.391,3.794-0.568,7.589-1.251,11.369
			c-0.266,1.469,1.056,2.461,2.399,1.845c4.915-2.254,7.238-6.421,7.375-10.909C82.331,98.792,83.174,91.83,76.583,90.079z"/>
		<path d="M98.492,32.563c-1.453-0.797-3.138,0.502-2.743,2.109c4.435,18.074,12.954,36.339,10.534,52.939
			c-1.76,8.793-6.161,17.057-14.914,24.408c-1.861,1.564,0.792,4.119,2.641,2.642c0.528-0.423,1.009-0.851,1.507-1.275
			C127.969,105.847,123.658,46.367,98.492,32.563z"/>
	</g>
</g>
<g>
</g>
<g>
</g>
<g>
</g>
<g>
</g>
<g>
</g>
<g>
</g>
<g>
</g>
<g>
</g>
<g>
</g>
<g>
</g>
<g>
</g>
<g>
</g>
<g>
</g>
<g>
</g>
<g>
</g>
</svg>
