<?xml version="1.0" encoding="iso-8859-1"?>
<!-- Generator: Adobe Illustrator 19.0.0, SVG Export Plug-In . SVG Version: 6.00 Build 0)  -->
<svg xmlns="http://www.w3.org/2000/svg" xmlns:xlink="http://www.w3.org/1999/xlink" version="1.1" id="Layer_1" x="0px" y="0px" viewBox="0 0 511.998 511.998" style="enable-background:new 0 0 511.998 511.998;" xml:space="preserve" width="512px" height="512px">
<g>
	<g>
		<path d="M454.837,7.765c-11.584-8.078-26.41-9.984-39.661-5.103L197.309,82.92c-16.915,6.231-28.28,22.53-28.28,40.555v245.242    c-12.431-8.824-28.382-12.304-45.873-9.805c-19.734,2.819-39.255,13.025-54.966,28.737    c-15.712,15.712-25.918,35.233-28.737,54.966c-2.997,20.982,2.579,39.767,15.703,52.89c10.805,10.805,25.445,16.492,41.993,16.492    c3.55,0,7.191-0.262,10.896-0.791c19.734-2.819,39.255-13.025,54.967-28.737c15.711-15.712,25.918-35.233,28.737-54.967    c0.446-3.128,0.68-6.2,0.75-9.221c0.008-0.182,0.027-212.657,0.027-212.657l257.317-94.791v154.435    c-12.43-8.822-28.381-12.303-45.873-9.805c-19.734,2.818-39.255,13.025-54.967,28.737s-25.918,35.233-28.737,54.967    c-2.998,20.982,2.579,39.767,15.702,52.89c10.805,10.805,25.445,16.494,41.994,16.494c3.55,0,7.191-0.262,10.896-0.792    c19.734-2.819,39.255-13.025,54.967-28.737c15.711-15.712,25.918-35.233,28.737-54.967c0.445-3.125,0.775-280.839,0.775-280.839    C473.336,29.095,466.42,15.843,454.837,7.765z M169.029,416.976c-0.012,2.334-0.188,4.739-0.54,7.205    c-2.105,14.735-9.95,29.536-22.092,41.677c-12.141,12.141-26.942,19.987-41.676,22.091c-13.48,1.925-25.186-1.29-32.953-9.056    c-7.766-7.766-10.983-19.47-9.056-32.954c2.105-14.734,9.95-29.535,22.091-41.675c12.141-12.141,26.942-19.987,41.676-22.093    c2.554-0.365,5.041-0.545,7.453-0.545c10.32,0,19.205,3.307,25.5,9.603c6.27,6.27,9.571,15.107,9.598,25.375V416.976z     M449.842,85.798L192.524,180.59v-57.113c0-8.227,5.187-15.664,12.907-18.508l217.867-80.26c6.137-2.26,12.734-1.413,18.101,2.33    c5.365,3.74,8.443,9.639,8.443,16.179V85.798z M449.841,313.51c-0.011,2.34-0.188,4.752-0.54,7.225    c-2.105,14.734-9.951,29.533-22.091,41.675c-12.141,12.142-26.942,19.987-41.676,22.093c-13.485,1.927-25.187-1.291-32.953-9.057    c-7.766-7.766-10.984-19.469-9.057-32.953c2.105-14.734,9.95-29.535,22.093-41.676c12.141-12.141,26.941-19.986,41.675-22.091    c2.554-0.365,5.042-0.545,7.453-0.545c10.32,0,19.205,3.306,25.5,9.602c6.274,6.274,9.575,15.119,9.598,25.396V313.51z" fill="#D80027"/>
	</g>
</g>
<g>
</g>
<g>
</g>
<g>
</g>
<g>
</g>
<g>
</g>
<g>
</g>
<g>
</g>
<g>
</g>
<g>
</g>
<g>
</g>
<g>
</g>
<g>
</g>
<g>
</g>
<g>
</g>
<g>
</g>
</svg>
