<?xml version="1.0" encoding="utf-8"?>
<!-- Generator: Adobe Illustrator 18.1.1, SVG Export Plug-In . SVG Version: 6.00 Build 0)  -->
<svg version="1.1" id="Layer_1" xmlns="http://www.w3.org/2000/svg" xmlns:xlink="http://www.w3.org/1999/xlink" x="0px" y="0px"
	 viewBox="0 0 960 560" enable-background="new 0 0 960 560" xml:space="preserve">
<g>
	<g>
		<g>
			<path fill="none" stroke="#FFFFFF" stroke-width="5" stroke-linejoin="round" stroke-miterlimit="10" d="M306.7,125.8
				c0.3-0.8,0.6-1.8,0.9-2.8c0.5-1.9,0.7-3.6,0.7-5c-0.3,0.9-1,2.3-2.3,3.8c-1.4,1.6-2.8,2.7-3.7,3.2c-5.6-18.3,15-22.4,15.2-22.1
				C326.1,114.2,312.5,122.1,306.7,125.8z M308,129.8c0.6,0.6,1.3,1.2,1.9,2c1.2,1.4,2,2.8,2.6,4c-0.6-0.6-1.7-1.6-3.4-2.3
				c-1.8-0.7-3.4-0.8-4.4-0.7c5.1,17.8,18.8,13,19.1,13.2C328,132.3,315,129.4,308,129.8z"/>
		</g>
		<g>
			<path fill="none" stroke="#FFFFFF" stroke-width="5" stroke-linejoin="round" stroke-miterlimit="10" d="M276.9,138.5
				c0.1-1,0.1-2,0.1-3.2c0-2.1-0.3-3.9-0.6-5.4c-0.1,1-0.4,2.7-1.3,4.6c-0.9,2-2.1,3.4-2.8,4.2c-10.6-18.1,9.2-27,9.5-26.7
				C293.3,122.2,281.7,133.3,276.9,138.5z M279.2,142.5c0.8,0.5,1.6,1,2.5,1.7c1.6,1.2,2.8,2.5,3.7,3.7c-0.8-0.5-2.1-1.3-4-1.7
				c-2-0.4-3.6-0.1-4.6,0.2c10,17.6,22.2,9.8,22.4,10C299.8,141,286.2,140.5,279.2,142.5z"/>
		</g>
		<g>
			<path fill="none" stroke="#FFFFFF" stroke-width="5" stroke-linejoin="round" stroke-miterlimit="10" d="M250.1,159
				c-0.2-1-0.4-2.2-0.8-3.4c-0.6-2.2-1.4-4.1-2.1-5.5c0.2,1.1,0.3,2.9,0,5.1c-0.4,2.4-1.2,4.1-1.7,5.2c-16.1-16.4,2-30.9,2.3-30.5
				C262.3,137.8,253.5,152.2,250.1,159z M253.6,162.5c0.9,0.3,2,0.7,3,1.1c2,0.9,3.5,2,4.8,3c-0.9-0.4-2.5-0.9-4.5-0.8
				c-2.1,0.1-3.7,0.8-4.6,1.3c15.4,15.9,25.2,4.9,25.6,5.1C274,156.1,260.3,158.6,253.6,162.5z"/>
		</g>
		<g>
			<path fill="none" stroke="#FFFFFF" stroke-width="5" stroke-linejoin="round" stroke-miterlimit="10" d="M228.4,187.6
				c-0.5-1-1.1-2.1-1.8-3.3c-1.3-2.1-2.6-3.9-3.8-5.2c0.5,1.1,1.2,3,1.5,5.4c0.3,2.6,0,4.7-0.3,6c-21.6-12.5-6.8-33.3-6.4-32.9
				C234.9,161.9,229.9,179.6,228.4,187.6z M233,190.4c1.1,0,2.2,0.1,3.5,0.3c2.3,0.4,4.3,1.1,5.9,1.8c-1.1-0.1-2.9-0.2-4.9,0.4
				c-2.2,0.7-3.6,1.9-4.4,2.7c20.7,12.1,27.5-1.8,27.9-1.7C252.3,178.1,238.9,184.3,233,190.4z"/>
		</g>
		<g>
			<path fill="none" stroke="#FFFFFF" stroke-width="5" stroke-linejoin="round" stroke-miterlimit="10" d="M214.1,224.5
				c-0.8-0.9-1.8-1.9-2.8-2.9c-2-1.8-3.9-3.2-5.6-4.3c0.9,1,2.1,2.8,3.2,5.2c1.1,2.6,1.4,5,1.5,6.4c-26.4-5.9-17-33.1-16.4-32.8
				C213.3,195.3,213.2,215.6,214.1,224.5z M219.8,225.9c1.1-0.3,2.4-0.6,3.7-0.8c2.5-0.3,4.8-0.2,6.7,0c-1.2,0.2-3.1,0.7-5,2
				c-2.1,1.4-3.2,3.2-3.8,4.3c25.4,5.8,28.3-10.4,28.7-10.4C236.2,207.1,224.1,217.6,219.8,225.9z"/>
		</g>
		<g>
			<path fill="none" stroke="#FFFFFF" stroke-width="5" stroke-linejoin="round" stroke-miterlimit="10" d="M210.5,268.4
				c-1.2-0.7-2.5-1.4-3.9-2c-2.7-1.2-5.1-2-7.2-2.5c1.2,0.8,3.1,2.1,5,4.4c2,2.4,3,4.8,3.6,6.2c-29.6,3.6-28.3-29.2-27.5-29
				C200.6,237.6,206.7,259.3,210.5,268.4z M216.9,267.7c1.1-0.7,2.3-1.5,3.7-2.2c2.5-1.3,4.9-2,7-2.4c-1.2,0.6-3,1.8-4.6,3.9
				c-1.7,2.2-2.3,4.5-2.6,5.9c28.3-3.5,26.2-20.8,26.7-21C228.2,242.3,218.7,257.3,216.9,267.7z"/>
		</g>
		<g>
			<path fill="none" stroke="#FFFFFF" stroke-width="5" stroke-linejoin="round" stroke-miterlimit="10" d="M221.8,316.1
				c-1.4-0.2-3-0.5-4.8-0.6c-3.2-0.2-6-0.1-8.3,0.2c1.5,0.3,4,1,6.7,2.7c2.9,1.8,4.9,3.8,6,5.1c-29.2,16-40-19.8-38.9-19.9
				C200.7,287.4,214.4,308,221.8,316.1z M228.1,312.8c0.8-1.2,1.8-2.5,3-3.8c2.2-2.3,4.4-4,6.3-5.3c-1,1.1-2.4,3.1-3.3,5.9
				c-0.9,3-0.7,5.7-0.5,7.2c27.6-15.4,19.6-32,20.1-32.3C231,281.7,226.1,301,228.1,312.8z"/>
		</g>
		<g>
			<path fill="none" stroke="#FFFFFF" stroke-width="5" stroke-linejoin="round" stroke-miterlimit="10" d="M253.4,361.4
				c-1.6,0.4-3.3,0.9-5.2,1.5c-3.4,1.2-6.2,2.6-8.5,3.9c1.7-0.3,4.6-0.7,8.2-0.1c3.9,0.6,6.9,1.8,8.8,2.7
				c-22.6,30-50.9-3.5-49.4-4.2C219,340.2,241.8,356.3,253.4,361.4z M258.3,355.1c0.3-1.6,0.7-3.4,1.3-5.2c1.1-3.4,2.6-6.1,4-8.3
				c-0.5,1.6-1.1,4.3-0.7,7.6c0.5,3.6,1.9,6.2,2.9,7.7c20.7-28.5,5.8-41.6,6.3-42.1C247.9,321.6,250.6,343.7,258.3,355.1z"/>
		</g>
		<g>
			<path fill="none" stroke="#FFFFFF" stroke-width="5" stroke-linejoin="round" stroke-miterlimit="10" d="M312.2,393.3
				c-1.5,1.2-3.1,2.5-4.8,4.1c-3,2.8-5.2,5.6-6.8,8.1c1.7-1.2,4.6-2.9,9-4.1c4.7-1.3,8.9-1.6,11.6-1.6
				c-2.3,19.9-17.9,26.5-31.5,26.1c-13.8,0-25.7-6.9-25.3-6.8C262.5,387.8,295.8,394,312.2,393.3z M313.6,384.5
				c-0.8-1.8-1.4-3.8-1.9-5.9c-0.9-4-1-7.5-0.8-10.4c0.5,1.9,1.4,4.9,4,8.1c2.8,3.4,6.1,5.4,8.3,6.4c3.6-39-19.1-44.9-18.7-45.8
				C283,355.3,297.4,376.7,313.6,384.5z"/>
		</g>
	</g>
</g>
<g>
	<g>
		<g>
			<path fill="none" stroke="#FFFFFF" stroke-width="5" stroke-linejoin="round" stroke-miterlimit="10" d="M637.7,129.3
				c-0.6,0.5-1.3,1.1-2,1.7c-1.2,1.2-2,2.5-2.6,3.6c0.6-0.6,1.7-1.4,3.4-1.9c1.8-0.6,3.4-0.6,4.4-0.5c-5.2,16.1-18.9,11-19.2,11.2
				C617.6,130.8,630.7,128.7,637.7,129.3z M638.4,125.6c-0.3-0.8-0.6-1.7-0.9-2.6c-0.5-1.7-0.6-3.3-0.7-4.6c0.3,0.8,1,2.2,2.2,3.6
				c1.3,1.5,2.8,2.5,3.6,3.1c5.7-16.6-14.6-20.9-14.8-20.6C619.2,114.4,632.7,121.9,638.4,125.6z"/>
		</g>
		<g>
			<path fill="none" stroke="#FFFFFF" stroke-width="5" stroke-linejoin="round" stroke-miterlimit="10" d="M666.4,142
				c-0.8,0.4-1.6,0.8-2.5,1.4c-1.6,1.1-2.8,2.2-3.7,3.2c0.8-0.5,2.1-1.1,3.9-1.3c2-0.2,3.6,0.1,4.5,0.4c-10,15.9-22,7.8-22.3,8
				C645.9,139.5,659.5,139.8,666.4,142z M668.2,138.2c-0.1-0.9-0.1-1.9-0.1-2.9c0-2,0.3-3.6,0.6-5c0.1,1,0.4,2.5,1.2,4.3
				c0.9,1.9,2.1,3.3,2.8,4.1c10.6-16.4-8.9-25.5-9.2-25.1C652,122.3,663.5,133,668.2,138.2z"/>
		</g>
		<g>
			<path fill="none" stroke="#FFFFFF" stroke-width="5" stroke-linejoin="round" stroke-miterlimit="10" d="M691.9,162.1
				c-0.9,0.2-1.9,0.5-3,0.9c-1.9,0.7-3.5,1.7-4.8,2.5c0.9-0.3,2.5-0.7,4.4-0.4c2.1,0.2,3.7,1,4.6,1.6c-15.3,14.2-24.9,3-25.2,3.1
				C671.7,154.7,685.4,158,691.9,162.1z M694.9,158.6c0.2-1,0.4-2,0.8-3.1c0.6-2.1,1.4-3.8,2.1-5.1c-0.2,1-0.4,2.7,0,4.9
				c0.4,2.3,1.1,4,1.7,5c16-14.6-1.7-29.3-2.1-28.9C682.9,137.8,691.7,151.9,694.9,158.6z"/>
		</g>
		<g>
			<path fill="none" stroke="#FFFFFF" stroke-width="5" stroke-linejoin="round" stroke-miterlimit="10" d="M712.3,190
				c-1-0.1-2.2,0-3.4,0.1c-2.3,0.2-4.2,0.8-5.8,1.3c1.1-0.1,2.8,0,4.8,0.8c2.1,0.8,3.6,2.1,4.3,3c-20.6,10.4-27-3.6-27.4-3.6
				C693.5,176.7,706.7,183.8,712.3,190z M716.7,187.1c0.5-1,1.1-2,1.8-3.1c1.3-2,2.6-3.6,3.8-4.8c-0.5,1-1.2,2.8-1.5,5.1
				c-0.3,2.5,0,4.6,0.2,5.8c21.5-10.7,7.1-31.6,6.6-31.2C710.4,161.8,715.3,179.2,716.7,187.1z"/>
		</g>
		<g>
			<path fill="none" stroke="#FFFFFF" stroke-width="5" stroke-linejoin="round" stroke-miterlimit="10" d="M725.5,225.5
				c-1.1-0.4-2.3-0.8-3.7-1c-2.5-0.5-4.7-0.5-6.6-0.5c1.2,0.3,3,0.9,4.9,2.3c2,1.6,3.1,3.4,3.7,4.5c-25.4,4-27.7-12.2-28.1-12.2
				C709.5,205.8,721.3,217,725.5,225.5z M731,223.9c0.8-0.9,1.8-1.8,2.9-2.7c2-1.7,3.9-2.9,5.6-3.8c-0.9,0.9-2.2,2.6-3.2,4.9
				c-1.1,2.5-1.4,4.8-1.6,6.2c26.4-4.1,17.3-31.3,16.7-31C732.1,195.2,732,215.1,731,223.9z"/>
		</g>
		<g>
			<path fill="none" stroke="#FFFFFF" stroke-width="5" stroke-linejoin="round" stroke-miterlimit="10" d="M728.2,267.3
				c-1.1-0.8-2.3-1.7-3.6-2.4c-2.5-1.4-4.9-2.3-6.9-2.9c1.2,0.7,2.9,2,4.5,4.2c1.6,2.4,2.2,4.7,2.5,6.1
				c-28.4-5.4-25.7-22.5-26.1-22.7C717.5,241.1,726.6,256.8,728.2,267.3z M734.7,267.6c1.2-0.6,2.5-1.2,3.9-1.8c2.7-1,5.1-1.7,7.2-2
				c-1.2,0.7-3.1,1.9-5,4.1c-2,2.3-3.1,4.6-3.7,6c29.6,5.7,28.7-27.1,27.9-26.9C745,237.6,738.6,258.8,734.7,267.6z"/>
		</g>
		<g>
			<path fill="none" stroke="#FFFFFF" stroke-width="5" stroke-linejoin="round" stroke-miterlimit="10" d="M716.8,312.1
				c-0.8-1.3-1.8-2.7-2.9-4c-2.1-2.5-4.4-4.4-6.3-5.9c1,1.2,2.4,3.3,3.2,6.3c0.9,3.1,0.7,5.8,0.4,7.4c-27.8-17.7-19.2-33.6-19.6-34
				C714.6,280.5,719,300.3,716.8,312.1z M723.5,315.2c1.5-0.1,3.1-0.3,4.8-0.3c3.2,0,6,0.3,8.4,0.8c-1.5,0.2-4,0.8-6.8,2.3
				c-3,1.6-5,3.6-6.1,4.8c29.3,18.5,40.4-17.3,39.3-17.5C745.1,287.4,731,307.5,723.5,315.2z"/>
		</g>
		<g>
			<path fill="none" stroke="#FFFFFF" stroke-width="5" stroke-linejoin="round" stroke-miterlimit="10" d="M686.5,354.2
				c-0.3-1.7-0.7-3.6-1.3-5.6c-1.1-3.6-2.6-6.6-4-9c0.5,1.7,1.1,4.5,0.6,8c-0.5,3.7-2,6.4-3,7.9c-20.8-31.5-5.6-43.4-6-44
				C697.5,320.2,694.4,342.7,686.5,354.2z M692.2,360.4c1.6,0.5,3.4,1.1,5.2,1.9c3.4,1.5,6.3,3.1,8.5,4.6c-1.7-0.5-4.6-1-8.3-0.7
				c-3.9,0.3-7,1.5-8.8,2.3c22.5,33.1,51.1-0.4,49.7-1.1C727,340.6,703.8,355.9,692.2,360.4z"/>
		</g>
		<g>
			<path fill="none" stroke="#FFFFFF" stroke-width="5" stroke-linejoin="round" stroke-miterlimit="10" d="M631.2,383.2
				c0.8-1.9,1.5-4.1,2-6.4c0.9-4.3,1-8.2,0.9-11.3c-0.5,2-1.5,5.2-4.1,8.6c-2.8,3.5-6.2,5.6-8.3,6.6c-3.1-43.4,19-47.3,18.8-48.3
				C662.3,353.5,647.4,375.3,631.2,383.2z M633.8,392.5c1.5,1.3,3.1,2.9,4.7,4.6c3,3.2,5.2,6.4,6.7,9.1c-1.7-1.4-4.6-3.4-9-4.9
				c-4.6-1.6-8.9-2-11.5-2.2c1.9,22.1,17.4,29.7,31,29.8c13.8,0.4,25.9-6.6,25.5-6.5C683.6,388.8,649.9,393.9,633.8,392.5z"/>
		</g>
	</g>
</g>
<rect x="315" y="187" fill="none" width="157.5" height="202.9"/>
<text transform="matrix(1.0178 0 0 1 314.9946 316.3572)" fill="#FFFFFF" font-family="'DKLiquidEmbrace'" font-size="163.3464">K</text>
<text transform="matrix(-1.0175 2.544960e-02 -2.590353e-02 -0.9997 519.3789 179.7478)" fill="#FFFFFF" font-family="'DKLiquidEmbrace'" font-size="163.3489">V</text>
<text transform="matrix(1.0178 0 0 1 533.6866 325.9811)" fill="#FFFFFF" font-family="'DKLiquidEmbrace'" font-size="163.3464">A</text>
<path fill="none" stroke="#FFFFFF" stroke-width="5" stroke-linejoin="round" stroke-miterlimit="10" d="M336.2,396.6
	c0,0,14.2,10.5,36.5,0l3.7,17C376.4,413.7,342.8,415,336.2,396.6z"/>
<path fill="#FFFFFF" stroke="#FFFFFF" stroke-width="5" stroke-linejoin="round" stroke-miterlimit="10" d="M605.9,395.6
	c0,0-13.8,10.5-35.5,0l-3.6,17C566.8,412.7,599.5,414,605.9,395.6z"/>
</svg>
