<?xml version="1.0" encoding="utf-8"?>
<!-- Generator: Adobe Illustrator 18.1.1, SVG Export Plug-In . SVG Version: 6.00 Build 0)  -->
<svg version="1.1" id="Layer_1" xmlns="http://www.w3.org/2000/svg" xmlns:xlink="http://www.w3.org/1999/xlink" x="0px" y="0px"
	 viewBox="0 0 728.5 96.1" enable-background="new 0 0 728.5 96.1" xml:space="preserve">
<g>
	<path fill="#FFFFFF" d="M31.4,9.6c2.4,0.1,4.4,0.4,6.2,0.9c1.8,0.6,3.3,1.2,4.6,1.9c1.3,0.7,2.2,1.3,2.9,1.9c0.7,0.6,1,1,1.2,1.2
		c0.9,1.2,1.7,2.5,2.5,3.7c0.7,1.3,1.1,2.7,1.1,4.3c0,0.3,0,0.6,0,0.9c0,0.3-0.1,0.6-0.1,0.9c0,0.1,0,0.3,0,0.4
		c0,0.2-0.1,0.3-0.2,0.4l0.2,0.4c0,0.6-0.2,1.4-0.5,2.2c-0.3,0.8-0.7,1.5-1.1,1.9c-0.1,0.2-0.2,0.3-0.4,0.4
		c-0.1,0.1-0.3,0.2-0.4,0.3c-0.2,0.2-0.3,0.4-0.3,0.6c-0.1,0.2-0.1,0.4-0.3,0.7V33c-0.5,2.2-1.1,4.2-2,5.9c-0.9,1.8-1.8,3.4-2.9,4.8
		c-1.1,1.4-2.2,2.7-3.3,3.8c-1.1,1.1-2.2,2.1-3.3,3c0.5,0.4,0.9,0.7,1.3,1c0.2,0.2,0.5,0.5,0.9,0.7c0.2,0.1,0.3,0.2,0.4,0.3
		c0.3,0.4,0.8,0.9,1.4,1.4c0.7,0.5,1.2,0.9,1.7,1.1l7,6.5c0.3,0.2,0.6,0.4,0.9,0.6c0.2,0.3,0.5,0.5,0.8,0.8c0.6,0.6,1.2,1.1,1.8,1.6
		c0.6,0.5,1.2,1,1.8,1.5l0.3,0.3l0.3,0.9c0.4,0.4,0.8,0.8,1.2,1.2c0.4,0.4,0.8,0.9,1.1,1.5c0,0.2,0,0.4-0.1,0.6
		c-0.1,0.1-0.1,0.3-0.1,0.4c0,0.3,0.1,0.6,0.3,0.7c0.2,0.1,0.3,0.4,0.3,0.6c-0.3,0-0.6-0.2-0.8-0.6c-0.3-0.4-0.5-0.6-0.8-0.6
		c-0.1,0-0.2,0.1-0.3,0.4c-0.1,0.3-0.1,0.5-0.1,0.5c-0.1,0.2-0.3,0.3-0.5,0.4c-0.2,0.1-0.3,0.3-0.3,0.6h-1c-0.3,0-0.4,0.3-0.5,0.8
		c0,0.5-0.2,0.8-0.5,0.8c-0.1,0-0.2,0-0.3-0.1c-0.1-0.1-0.2-0.1-0.3-0.1c-0.2,0-0.4,0-0.6,0.1c-0.2,0.1-0.4,0.1-0.6,0.1
		c-0.5,0-0.9-0.1-1.3-0.4c-0.4-0.3-0.8-0.5-1.1-0.8h-0.3c-0.3,0-0.5,0.2-0.5,0.6c0,0.3,0.2,0.5,0.5,0.6c0.3,0.1,0.5,0.3,0.5,0.6
		c-1,0-1.8-0.2-2.6-0.6c-0.7-0.4-1.4-0.8-2.1-1.4c-0.6-0.6-1.2-1.2-1.8-1.8s-1.2-1.2-1.9-1.7c-0.3-0.2-0.4-0.5-0.5-0.7
		c0-0.2-0.2-0.4-0.6-0.4l-2.6-2.6c-0.2-0.1-0.5-0.3-0.9-0.6c-0.3-0.3-0.6-0.6-0.9-0.8L27,59.5c-0.4-0.3-0.7-0.5-0.9-0.7
		c-0.2-0.2-0.5-0.3-1-0.3c0,0.7,0.1,1.3,0.2,1.9c0.1,0.6,0.3,1.2,0.5,1.9c0.5,2.1,0.9,4.3,1.3,6.6c0.1,0.3,0.3,0.7,0.4,1.1
		c0.2,0.4,0.3,0.8,0.3,1.2c0,0.2-0.1,0.5-0.2,0.7c-0.1,0.2-0.2,0.5-0.2,0.7c0,0.1,0,0.1,0.1,0.1c0.1,0,0.1,0.1,0.1,0.2
		c-0.3,0-0.5-0.1-0.5-0.3c-0.1-0.2-0.1-0.4-0.3-0.6c-0.1-0.1-0.2-0.3-0.4-0.6c-0.1-0.3-0.2-0.5-0.3-0.6c0-0.2-0.1-0.3-0.3-0.3
		c-0.3,0-0.4,0.1-0.4,0.3c0,0.2-0.1,0.4-0.2,0.5c-0.2,0.2-0.3,0.3-0.5,0.3c-0.1,0.1-0.3,0.1-0.5,0.2s-0.3,0.2-0.5,0.4
		c-0.1,0.2-0.3,0.5-0.4,0.9c0,0.1,0,0.2,0,0.4c0,0.2,0,0.4,0,0.5c0,0.2,0,0.3-0.1,0.3c-0.1,0-0.1,0-0.1,0c0,0-0.1,0-0.2,0v1H22v1.7
		c-0.2-0.7-0.3-1.1-0.3-1.1l-0.1-0.2c-0.2,0-0.4,0.3-0.6,0.9c-0.1,0.6-0.2,0.9-0.2,1c-0.1,0-0.2-0.1-0.3-0.2
		c-0.1-0.1-0.2-0.2-0.3-0.2c-0.2,0-0.4,0.1-0.4,0.4c0,0.3-0.1,0.4-0.2,0.4c-0.2,0-0.3-0.1-0.4-0.3c-0.1-0.2-0.2-0.3-0.5-0.3
		c-0.1,0-0.1,0.1-0.2,0.2c-0.1,0.1-0.1,0.2-0.1,0.3l0.4,1.1c-0.2,0-0.4-0.4-0.7-1.2c-0.3-0.8-0.6-1.7-1-2.7c-0.3-1-0.7-1.9-0.9-2.8
		c-0.3-0.9-0.5-1.5-0.5-1.8c-0.1-0.2-0.1-0.6-0.3-1.1c-0.1-0.5-0.3-1-0.4-1.6c-0.2-0.6-0.3-1.1-0.5-1.6c-0.1-0.5-0.2-0.9-0.3-1.1
		c0-0.1-0.1-0.4-0.2-0.9c-0.1-0.5-0.2-0.8-0.3-0.9c0.1-0.1,0.2-0.4,0.2-0.8c-0.2-1.1-0.3-2.3-0.5-3.4c-0.2-1.1-0.3-2.2-0.4-3.4
		c0-0.1,0-0.5-0.1-1.1c-0.1-0.6-0.1-1-0.1-1.3c-0.2-2.4-0.5-4.6-0.7-6.8c-0.2-2.2-0.4-4.5-0.5-6.8c-0.1-1.2-0.3-2.4-0.4-3.6
		c-0.2-1.2-0.3-2.4-0.3-3.6c0-0.8,0-1.6,0.1-2.4c0.1-0.8,0.1-1.6,0.1-2.4c0-0.1-0.1-0.3-0.3-0.4c-0.2-0.2-0.3-0.3-0.3-0.4
		c0-0.1,0.1-0.3,0.2-0.6c0.1-0.3,0.2-0.4,0.3-0.4V24c0-0.7,0.1-1.2,0.3-1.5l0.1-0.1c0.1,0,0.1,0,0.2-0.1c0.3-0.3,0.4-0.5,0.3-0.5
		c-0.1-0.1,0-0.3,0.1-0.6c0.1-0.2,0.2-0.4,0.6-0.8c0.3-0.4,0.6-0.8,1-1.2c0.3-0.4,0.7-0.8,0.9-1.1c0.3-0.3,0.5-0.4,0.6-0.4l0.2-0.1
		c0.1,0,0.1,0,0.1-0.1c0.1-0.1,0.2-0.1,0.3-0.3c0.1-0.1,0.2-0.2,0.3-0.3l0.3-0.3v-0.3c0.3,0,0.5-0.1,0.6-0.3
		c0.1-0.2,0.3-0.3,0.6-0.3c0.7-0.6,1.4-1.2,2.1-1.8c0.7-0.5,1.5-1,2.3-1.4c0,0.1,0,0.2,0,0.2c0,0,0,0.1,0,0.2l0.2,0.1h0.2l0.9-0.4
		c0.1-0.1,0.2-0.2,0.3-0.3c0.1-0.1,0.2-0.2,0.3-0.2c0.2-0.2,0.6-0.3,1.2-0.5c0.6-0.2,0.9-0.4,0.9-0.7c-0.5,0-1,0.2-1.7,0.6
		c-0.7,0.4-1.3,0.6-1.7,0.6c0.1-0.1,0.3-0.2,0.6-0.4c0.3-0.1,0.4-0.2,0.5-0.3l3.2-1.2c0.5-0.2,1-0.3,1.3-0.4
		c0.4-0.1,0.9-0.2,1.5-0.3c0,0.1,0.1,0.2,0.3,0.2c0.2,0,0.3-0.1,0.4-0.2H31.4z M25.2,42.5c0,0.1,0.1,0.2,0.3,0.2
		c0.4,0,0.9-0.2,1.5-0.6c0.6-0.4,1.3-0.9,2-1.4c0.7-0.5,1.3-1.1,1.9-1.6c0.6-0.5,1-1,1.2-1.2c0.2-0.2,0.3-0.4,0.4-0.6
		c0.1-0.2,0.2-0.4,0.3-0.6l0.3-0.3c0.5-0.6,1-1.3,1.6-2.1c0.5-0.8,0.9-1.5,1.2-2.3c0.4-0.7,0.7-1.3,0.9-1.9c0.2-0.6,0.3-1.3,0.3-2.1
		c0-0.2,0-0.4-0.1-0.7c-0.1-0.3-0.1-0.5-0.3-0.6l-2.1-3.2c-0.1-0.1-0.3-0.2-0.4-0.3c-0.3-0.2-0.5-0.4-0.5-0.5
		c-0.5-0.9-1.4-1.6-2.8-2c-1.4-0.4-2.8-0.6-4.3-0.6c-1.6,0-3,0.2-4.3,0.7c-1.2,0.5-1.8,1.2-1.8,2.3c0,0.1,0,0.2,0,0.3
		c0,0.1,0,0.1,0,0.3l4.2,18.6C24.9,42.1,25,42.3,25.2,42.5z M22.1,13.5c-0.1,0.1-0.2,0.2-0.2,0.3v0.3c0.2,0,0.3,0,0.4-0.1L22.1,13.5
		z M31.7,11c0.9,0,1.9,0.2,3.1,0.5c1.2,0.3,2.2,0.6,3,0.9c0.2,0.1,0.4,0.2,0.4,0.3c0.1,0.1,0.2,0.1,0.4,0.1c0-0.1-0.2-0.3-0.5-0.5
		c-0.3-0.2-0.7-0.4-1.2-0.6c-0.4-0.2-0.8-0.4-1.2-0.6c-0.4-0.2-0.7-0.3-0.9-0.3c-0.3-0.1-0.6-0.2-0.9-0.1c-0.3,0-0.6,0-0.9-0.1h-3.4
		c-0.1,0-0.3,0-0.7,0.1c-0.4,0.1-0.7,0.2-0.9,0.2c-0.4,0.1-0.8,0.3-1.2,0.5c-0.4,0.2-0.8,0.5-1.1,0.8l0.3,0.1c0.3,0,0.5,0,0.7-0.1
		c0.2-0.1,0.4-0.2,0.6-0.3c0.4-0.1,0.8-0.2,1.1-0.2c0.3,0,0.7-0.1,1.2-0.2c0.5-0.2,0.8-0.3,1-0.3C30.8,11.1,31.1,11,31.7,11z"/>
	<path fill="#FFFFFF" d="M125.2,62c-0.1,0.3-0.3,0.5-0.5,0.7c-0.2,0.2-0.4,0.4-0.5,0.6c-0.1,0.2-0.3,0.4-0.6,0.7
		c-0.3,0.3-0.5,0.6-0.8,1c-0.3,0.3-0.5,0.7-0.7,1c-0.2,0.3-0.3,0.6-0.3,0.8c0,0.2-0.2,0.4-0.5,0.6c-0.3,0.2-0.5,0.4-0.6,0.6
		c-0.3,0.3-0.6,0.6-0.9,0.9c-0.3,0.3-0.6,0.6-0.9,0.9c-0.3,0.5-0.6,0.8-1.1,1.1c-0.4,0.3-0.8,0.6-1.2,1l-2.5,2.1
		c-0.5,0.2-0.7,0.4-0.8,0.4c-0.1,0-0.2,0-0.3,0l-0.3,0.3c-0.1,0.1-0.1,0.2-0.3,0.3c-0.1,0.1-0.2,0.1-0.6,0.2
		c-0.3,0.1-0.5,0.1-0.6,0.1c-0.3,0.1-0.5,0.3-0.7,0.4c-0.2,0.2-0.4,0.3-0.6,0.4c-1.8,0.8-3.6,1.5-5.3,2.1c-1.8,0.6-3.7,0.9-5.7,0.9
		c-1.2,0-2.4-0.2-3.7-0.6c-1.2-0.4-2.4-0.9-3.6-1.5c-1.1-0.6-2.2-1.4-3.1-2.2c-0.9-0.9-1.8-1.8-2.5-2.8c-0.9-1.3-1.7-2.6-2.3-3.8
		c-0.6-1.2-1.2-2.5-1.6-3.7c-0.4-1.3-0.7-2.6-0.9-4c-0.2-1.4-0.3-2.9-0.3-4.5v-2.1c0-0.1,0-0.4,0-1c0-0.5,0.1-1.1,0.1-1.7
		c0.1-0.6,0.1-1.2,0.2-1.7c0.1-0.5,0.1-0.9,0.1-1V48c0-0.1,0-0.4,0-0.9c0-0.5,0.1-0.9,0.1-1.4c0-0.5,0.1-0.9,0.1-1.4
		c0-0.4,0-0.7,0-0.8c0.1-0.4,0.1-0.8,0.2-1.1c0.1-0.3,0.1-0.7,0.1-1v-0.3l3.8-13.8c0.1-0.2,0.2-0.5,0.4-1.1c0.2-0.6,0.4-0.9,0.5-1.1
		c0-0.1,0.1-0.2,0.3-0.4c0.2-0.2,0.3-0.3,0.4-0.4l0.8-1.5c0.1-0.1,0.2-0.2,0.4-0.4c0.2-0.2,0.4-0.4,0.4-0.5c0.1-0.1,0.1-0.4,0.1-0.9
		c0.3-0.1,0.5-0.2,0.8-0.1c0.2,0,0.4-0.1,0.5-0.4c0.5,0.2,0.8,0.4,1.1,0.8c0.3,0.4,0.6,0.7,0.9,1.1c0.2,0.2,0.6,0.7,1.2,1.3
		c0.7,0.7,1.1,1.1,1.3,1.3c0.1,0.4,0.3,0.7,0.5,0.9c0.2,0.2,0.4,0.5,0.6,0.9c0.2,0.3,0.3,0.7,0.4,1.1c0.1,0.4,0.2,0.7,0.3,1.1
		c0.1,0.4,0.3,0.8,0.4,1.1c0.2,0.3,0.3,0.7,0.4,1.1v1.5c0,1-0.2,2-0.5,2.9c-0.3,0.9-0.6,1.9-0.9,2.8c-0.3,1-0.5,1.9-0.6,2.8
		c-0.1,0.9-0.3,1.8-0.4,2.8c-0.1,0.8-0.2,1.5-0.3,2c-0.1,0.5-0.2,1.2-0.2,2c0,0.1,0,0.2,0,0.4c0,0.2,0,0.4,0,0.6
		c0,0.2,0.1,0.5,0.1,0.7c0,0.2,0,0.4,0,0.4c0,0.2,0,0.4-0.1,0.6c-0.1,0.2-0.1,0.4-0.3,0.6c-0.1,0.5-0.1,0.9-0.1,1.3
		c0,0.4,0,0.8,0,1.3c0,0.3,0,0.7,0,0.9c0,0.3,0,0.6,0,0.9c0,0.2,0,0.3-0.1,0.4c-0.1,0.1-0.1,0.3-0.1,0.4c0,0.4,0,0.7,0.1,0.8
		c0.1,0.1,0.2,0.3,0.3,0.7c0.1,0.2,0.1,0.4,0,0.6c0,0.2,0,0.4,0.1,0.6c0.1,0.2,0.2,0.5,0.5,0.9c0.3,0.3,0.5,0.7,0.8,1
		c0.3,0.3,0.6,0.7,0.9,0.9c0.3,0.3,0.6,0.5,0.8,0.6c0.2,0.2,0.4,0.3,0.5,0.3c0.1,0,0.2,0.1,0.3,0.3c0.2,0.1,0.6,0.2,1.2,0.4
		c0.6,0.2,1.1,0.3,1.3,0.4c0,0.1,0.1,0.2,0.3,0.2c0.1,0.1,0.3,0.1,0.7,0.3l0.5,0.2c0.1,0,0.3,0,0.6-0.1c0.3-0.1,0.5-0.1,0.6-0.1
		c1-0.1,1.9-0.2,2.7-0.6c0.7-0.3,1.6-0.6,2.5-0.9c0.3-0.1,0.6-0.3,1.1-0.6c0.4-0.3,0.8-0.4,1.1-0.6l3.2-2.9c0.8-0.7,1.4-1.4,1.9-2.1
		c0.5-0.7,0.8-1.6,0.8-2.7c0.1-0.3,0.1-1.1,0.1-2.5c0-1.3,0-3.7,0.1-7c0-1.9-0.2-3.8-0.6-5.6c-0.4-1.8-0.9-3.6-1.6-5.3l-1.5-3.8
		c-0.2-0.3-0.4-0.7-0.7-1.1c-0.3-0.4-0.5-0.8-0.6-1.3c0-0.2,0-0.5,0.1-0.7c0.1-0.3,0.1-0.5,0.2-0.8c0-0.1,0-0.3,0-0.6
		c0-0.3,0-0.4,0-0.6c0-0.6,0.2-1.1,0.7-1.4c0.5-0.3,0.8-0.6,0.9-0.9c0-0.1,0-0.2,0-0.4c0-0.2,0.1-0.4,0.1-0.4
		c0.1-0.1,0.1-0.2,0.2-0.4c0.1-0.1,0.2-0.3,0.3-0.4c0.2-0.3,0.3-0.7,0.5-1.2c0.2-0.5,0.4-1,0.6-1.2c0-0.1,0.1-0.2,0.2-0.2
		c0.1,0,0.2-0.1,0.3-0.2h0.7c1.8,0,3.3,0.5,4.6,1.5c1.3,1,2.3,2.2,3,3.7c0.1,0.2,0.2,0.3,0.4,0.5c0.1,0.1,0.2,0.4,0.3,0.7
		c0,0.2,0.1,0.3,0.3,0.3c0.2,0.3,0.4,0.9,0.6,1.6c0.3,0.7,0.5,1.5,0.9,2.3c0.3,0.8,0.6,1.5,1,2.2c0.3,0.7,0.7,1,0.9,1.2l0.9,2.7
		l0.8,5.3v1.3c0,0.1,0,0.2,0.1,0.3c0.1,0.1,0.1,0.3,0.1,0.4c0,0.2-0.1,0.3-0.2,0.4l-0.3,9.5c0,0.1,0,0.3-0.1,0.6
		c-0.1,0.3-0.1,0.5-0.1,0.6c0,0.1,0,0.3-0.1,0.7c-0.1,0.3-0.1,0.7-0.2,1.1c-0.1,0.4-0.1,0.7-0.3,0.9c-0.1,0.3-0.2,0.4-0.3,0.4
		L125.2,62z"/>
	<path fill="#FFFFFF" d="M173.7,81.8c-1.3-0.2-2.7-0.5-4-0.9c-1.3-0.3-2.6-0.8-3.9-1.3c-1.2-0.5-2.4-1.2-3.4-1.9
		c-1-0.8-1.9-1.7-2.5-2.9c-0.4-0.7-0.8-1.4-1.2-2.1c-0.4-0.7-0.6-1.4-0.6-2.2l0.1-0.1c0-0.1,0-0.1,0-0.1c0,0,0,0,0-0.1
		c-0.1-0.1-0.1-0.2-0.3-0.3c-0.1-0.1-0.2-0.2-0.2-0.3c0-0.1,0-0.2,0.1-0.2c0.1,0,0.1-0.1,0.1-0.2c0-0.1,0-0.2-0.1-0.4
		c-0.1-0.2-0.1-0.3-0.1-0.4c0,0.1,0.1-0.1,0.2-0.6c0-0.4,0-0.9,0.1-1.6c0.1-0.7,0.2-1.3,0.4-2c0.2-0.7,0.4-1.3,0.7-1.8
		c0.3-0.5,0.6-0.9,1-1.2c-0.1-0.1,0.1-0.5,0.4-1c0.3-0.6,0.6-0.9,0.7-1c0.1-0.2,0.3-0.3,0.5-0.3c0.2,0,0.4-0.2,0.5-0.4
		c0.3-0.5,0.6-0.9,0.8-1.4c0.3-0.5,0.8-0.7,1.5-0.7h0.3l0.3,0.3c0,0.1,0,0.1,0.1,0.1c0,0.3,0.2,0.6,0.5,1c0.3,0.4,0.7,0.8,1.1,1.2
		c0.4,0.4,0.9,0.8,1.3,1.2c0.5,0.4,0.8,0.7,1.1,0.9c0.3,0.6,0.6,1.1,1,1.6c0.4,0.5,0.6,1,0.6,1.7c0,0.3,0,0.6-0.1,0.9
		c-0.1,0.3-0.1,0.6-0.1,0.9c0.3,0.5,0.6,0.9,1,1.4c0.4,0.5,0.9,0.8,1.5,1c0.2,0.1,0.4,0.1,0.7,0.3c0.3,0.1,0.6,0.2,1,0.3
		c0.3,0.1,0.7,0.2,0.9,0.3c0.3,0.1,0.5,0.1,0.5,0.1c0.2,0.1,0.4,0.1,0.7,0.1c0.3,0,0.6,0,0.9,0h1.5c1.1,0,2.2-0.1,3.2-0.3
		c1.1-0.2,2.1-0.5,3.2-0.9l1.9-0.8v-0.2c0-0.1,0-0.1,0-0.1c0,0,0-0.1,0-0.1c0-0.4-0.2-0.9-0.6-1.4c-0.4-0.5-0.9-1.1-1.5-1.6
		c-0.6-0.5-1.2-1.1-1.8-1.5c-0.6-0.5-1-0.9-1.2-1.2l-13.8-9.2l-0.3-0.1c-0.1,0-0.2-0.1-0.5-0.3c-0.3-0.2-0.5-0.4-0.9-0.6
		c-0.3-0.2-0.6-0.5-1-0.7c-0.3-0.2-0.6-0.4-0.8-0.6c-1.8-1.3-3.2-2.8-4.2-4.5c-1-1.7-1.5-3.6-1.5-5.6c0-1.3,0.3-2.8,0.9-4.4
		c0.6-1.6,1.3-3.3,2.1-4.9c0.8-1.6,1.6-3.1,2.5-4.5c0.9-1.4,1.6-2.5,2.3-3.3c0.5-0.6,1-1.1,1.5-1.5c0.6-0.5,1.1-0.9,1.7-1.3
		c1.8-1.1,3.5-2.1,5.2-2.9c1.7-0.8,3.6-1.2,5.8-1.2c1.4,0,2.9,0.2,4.4,0.5c1.5,0.3,2.8,0.9,4,1.7c0.2,0.1,0.4,0.3,0.6,0.7
		c0.2,0.3,0.4,0.7,0.6,1c0.2,0.3,0.3,0.7,0.5,0.9c0.1,0.3,0.3,0.4,0.4,0.4c0.7,0.5,1.4,1.1,2.1,1.7c0.7,0.6,1.4,1.3,1.9,2
		c0.6,0.7,1,1.5,1.4,2.3c0.4,0.8,0.6,1.7,0.6,2.6c0,0.9,0,1.9-0.1,3c-0.1,1.1-0.3,2.1-0.6,3.1c-0.4,1.1-1.1,2-2.2,2.5
		c-1.1,0.5-2.2,0.9-3.4,1.2l-0.4,0.2c-0.9,0.1-1.7,0.3-2.5,0.7c-0.8,0.3-1.5,0.7-2.3,1.1c0,0.2-0.1,0.5-0.2,0.7
		c-0.1,0.2-0.1,0.3-0.2,0.3c-0.6,0-1.1-0.3-1.4-0.9c-0.3-0.6-0.4-1.2-0.4-1.7c0-0.1,0-0.1,0.1-0.2c0-0.1,0-0.1,0-0.1
		c0,0,0-0.1,0-0.1c0-0.3,0-0.6-0.1-1c-0.1-0.4-0.1-0.7-0.1-1c-0.1-0.9-0.2-1.7-0.2-2.6s-0.1-1.7-0.2-2.6V31c0-0.1,0-0.2-0.1-0.5
		c-0.1-0.3-0.1-0.4-0.1-0.6c-0.1-0.3-0.2-0.7-0.2-0.9c0-0.3-0.3-0.5-0.7-0.6c-0.1-0.1-0.4-0.1-0.8-0.3c-0.4-0.1-0.7-0.2-1-0.2
		c-0.2,0-0.5,0.1-0.9,0.3c-0.3,0.2-0.7,0.4-1.1,0.6c-0.4,0.2-0.7,0.5-1.1,0.7c-0.4,0.2-0.7,0.4-0.9,0.4c-0.5,0.2-0.9,0.4-1.4,0.6
		c-0.5,0.2-1,0.5-1.4,0.8c-0.1,0-0.1,0-0.1,0c0,0-0.1,0-0.1,0H174c-1.4,0.6-2.1,1.5-2.1,2.8c0,0.3,0,0.7,0,0.9c0,0.3,0.1,0.6,0.2,1
		c0.1,0,0.2,0.3,0.6,0.8c0.3,0.5,0.5,0.9,0.6,1c0.2,0.4,0.8,1,1.9,1.8c1.1,0.8,2.3,1.5,3.6,2.3s2.5,1.4,3.5,2c1,0.5,1.6,0.8,1.6,0.8
		c0.5,0.3,0.8,0.5,1.1,0.8c0.3,0.2,0.6,0.5,1,0.8c0.4,0.3,0.8,0.5,1.3,0.6c0.5,0.1,0.9,0.4,1.2,0.6c0.1,0,0.1,0.1,0.2,0.2
		c0.1,0.1,0.1,0.2,0.2,0.3c0.3,0.4,0.7,0.7,1.1,0.9c0.4,0.2,0.8,0.5,1.3,0.9c0.1,0.1,0.3,0.1,0.5,0.3c0.2,0.1,0.4,0.3,0.6,0.4
		c0.2,0.2,0.5,0.4,0.8,0.6l2.8,2.5c0.3,0.5,0.8,0.9,1.4,1.3c0.6,0.4,1,0.8,1.4,1.3c0.7,0.7,1.1,1.5,1.3,2.3c0.2,0.8,0.4,1.6,0.7,2.5
		c0.2,0.6,0.4,1.2,0.6,1.8c0.2,0.6,0.3,1.2,0.3,1.8c0,0.3-0.2,0.9-0.5,1.8c-0.3,0.9-0.8,1.9-1.5,3c-0.7,1.1-1.6,2.4-2.8,3.6
		c-1.1,1.3-2.6,2.4-4.2,3.5c-0.5,0.5-1.1,0.8-1.7,1c-0.6,0.2-1.2,0.4-1.8,0.7c-0.2,0.1-0.4,0.2-0.6,0.4c-0.2,0.1-0.4,0.3-0.6,0.4
		c0,0.1,0,0.1-0.1,0.1c-0.1,0-0.1,0-0.2,0.1c-0.5,0.2-0.9,0.4-1.4,0.6c-0.5,0.3-0.9,0.5-1.4,0.6c-0.5,0.2-0.8,0.3-1.2,0.3
		c-0.3,0-0.7,0.1-1.2,0.2c-0.2,0.1-0.4,0.2-0.7,0.3c-0.3,0.1-0.6,0.2-0.9,0.3c-0.2,0.1-0.6,0.1-1,0.2c-0.4,0.1-0.7,0.1-0.8,0.1h-0.4
		c-0.4,0-0.9,0-1.5,0c-0.6,0-1.1,0-1.3,0c-0.1-0.1-0.4-0.1-1-0.2C174.3,81.9,174,81.8,173.7,81.8z"/>
	<path fill="#FFFFFF" d="M232,78.2c0-0.1,0-0.2,0-0.4c0-0.1,0-0.2,0-0.3c0-0.1,0-0.5,0-1c0-0.6,0.1-1.2,0.1-1.8
		c0.1-0.7,0.1-1.3,0.1-1.8c0-0.6,0-0.9,0-1.1c0-0.5,0-0.9-0.1-1.4c-0.1-0.5-0.1-0.9-0.1-1.4c0-0.3,0-0.5,0-0.7
		c0-0.2,0.1-0.4,0.2-0.7v-5.8c0-0.2,0-0.6,0-1.2c0-0.7-0.1-1.3-0.1-2.1c-0.1-0.7-0.1-1.4-0.1-2c0-0.6,0-1,0-1.2v-1.5
		c0-0.5-0.1-0.9-0.3-1.5V42.1c-0.1-0.1-0.1-0.1-0.1-0.3c-0.1-0.1-0.1-0.2-0.1-0.3l0.1-0.3c0-1.7-0.1-3.3-0.2-4.9
		c-0.1-1.6-0.2-3.2-0.2-4.9V28c0.1-0.2,0.2-0.5,0.2-0.7V27c0-0.1,0-0.2,0-0.5c0-0.3,0.1-0.6,0.1-0.9c0.1-0.3,0.1-0.6,0.2-0.9
		c0.1-0.3,0.1-0.4,0.1-0.6c0.1-0.9,0.3-1.7,0.6-2.6c0.3-0.9,0.5-1.8,0.5-2.8c0.2-0.3,0.5-0.5,0.7-0.7c0.3-0.2,0.5-0.4,0.8-0.7
		c0.5-0.3,0.9-0.6,1.3-0.9c0.3-0.2,0.6-0.4,0.8-0.6c0.3-0.2,0.4-0.3,0.5-0.3h0.9c0.5,0,1-0.1,1.5-0.4c0.6-0.3,1.1-0.4,1.5-0.4
		c0.4,0,0.7,0.2,0.9,0.7c0.1,0.5,0.1,1,0.1,1.6c0,0.5,0,1.1,0,1.7c0,0.3,0,0.7,0,1.1c0,0.4,0,0.8,0,1.2c0.1,0.1,0.2,0.3,0.2,0.5
		c0.1,0.2,0.1,0.6,0.2,1.2c0.1,0.6,0.1,1,0.1,1.1c0.1,0.3,0.1,1,0.1,2.2c0,1.2,0,2.9,0,5.1c0.1,0.1,0.2,0.3,0.2,0.5
		c0,0.2,0,0.4,0,0.6v1c0.1,0.2,0.1,0.8,0.2,1.6c0.1,0.9,0.2,1.8,0.3,2.8c0.1,1,0.2,1.9,0.3,2.7c0.1,0.8,0.3,1.3,0.4,1.3
		c0.1,0,0.8,0,2-0.1s2.5-0.2,3.9-0.3c1.4-0.1,3.2-0.2,5.5-0.5c0.1,0,0.2-0.1,0.2-0.3c0-1.1,0-2.2-0.1-3.4c-0.1-1.2-0.2-2.5-0.3-3.8
		h0.1c0.1,0,0.1,0,0.2,0.1c0.1,0.2,0.2,0.6,0.3,1.2c0.1,0.6,0.2,1.3,0.3,2.1c0.1,0.7,0.2,1.4,0.2,2.1c0.1,0.7,0.1,1.1,0.1,1.2
		c0,0.3,0,0.4-0.1,0.5c-0.1,0-0.2,0.2-0.3,0.4h0.4c0.2,0,0.5,0,0.9,0c0.4,0,0.6-0.2,0.6-0.5c0-0.1-0.1-0.3-0.2-0.5
		c-0.1-0.2-0.2-0.4-0.2-0.6c0-0.2,0-0.4,0.1-0.4c0.1-0.1,0.1-0.3,0.1-0.6c0-0.2-0.1-0.3-0.2-0.4l-0.4-3.5c-0.1-0.5-0.1-0.9-0.3-1.4
		c-0.1-0.5-0.2-1-0.2-1.4c0-0.2,0-0.3,0.1-0.5c0.1-0.2,0.1-0.4,0.1-0.7c0-0.1-0.1-0.1-0.2-0.1c-0.1,0-0.2-0.1-0.2-0.1v-0.4
		c0-0.1,0-0.3,0-0.8c0-0.5,0-0.7,0-0.9c-0.2-0.2-0.3-0.7-0.3-1.5c0-0.6,0.1-1.2,0.2-2c0.1-0.7,0.2-1.5,0.3-2.2
		c0.1-0.7,0.2-1.4,0.3-2c0.1-0.6,0.2-1.1,0.2-1.4c0-0.1,0-0.1,0-0.2c0-0.1,0-0.2,0-0.2l-0.2-0.3v-1c0.1,0,0.2-0.1,0.2-0.2l-0.2-0.3
		c0-0.1,0.1-0.2,0.4-0.3c0.3-0.1,0.7-0.3,1.3-0.5c0.6-0.2,1.4-0.5,2.5-0.9c1-0.4,2.4-0.9,4-1.5c0.5,0,0.9,0.2,1.3,0.5
		c0.3,0.3,0.6,0.7,0.8,1.2c0.2,0.5,0.3,0.9,0.4,1.4c0.1,0.5,0.1,0.9,0.1,1.2c0,2.8,0.3,5.4,0.9,8c0.6,2.6,0.9,5.2,0.9,7.9
		c0,0.1-0.1,0.2-0.4,0.3c-0.3,0.1-0.4,0.3-0.4,0.6c0,0.3,0.1,0.6,0.2,0.9c0.1,0.3,0.2,0.6,0.2,0.9v0.6c-0.2,0.1-0.3,0.4-0.3,0.8
		c0,0.3,0.1,0.5,0.3,0.7c0.2,0.2,0.3,0.4,0.3,0.7c0,0.2,0,0.3-0.1,0.4c-0.1,0.1-0.1,0.3-0.1,0.5c0,0.1,0,0.1,0.1,0.2
		c0.1,0.1,0.1,0.1,0.1,0.3c0,0.1-0.1,0.2-0.2,0.3c0,0.1,0,0.2,0.1,0.3c0.1,0.2,0.2,0.3,0.2,0.3l0.2,3.9c0,0.1,0,0.1-0.1,0.2
		c-0.1,0.1-0.1,0.1-0.1,0.2v2.8c0,0.1,0,0.4,0.1,0.8c0.1,0.4,0.1,0.7,0.1,0.8c0,2.6-0.2,5.2-0.5,7.9c-0.3,2.7-0.5,5.3-0.5,7.9v1.2
		c0,0.1,0,0.2-0.1,0.6c-0.1,0.3-0.1,0.6-0.1,0.7c-0.1,0.1-0.1,0.3-0.1,0.5c0,0.1,0,0.2-0.1,0.3h-0.4v2.1l-0.3-0.1
		c-0.1,0.2-0.1,0.5-0.2,0.7c-0.1,0.2-0.2,0.5-0.4,0.9c-0.2,0.4-0.5,0.8-0.9,1.4c-0.4,0.6-0.9,1.3-1.6,2.2c-0.7,0-1.7-0.2-2.9-0.7
		c-1.2-0.5-2.7-1.3-4.6-2.5c-0.2-0.2-0.4-0.6-0.5-1.2c-0.1-0.6-0.1-1.4-0.1-2.4c0-1.1,0-2.3,0.1-3.6s0.2-2.6,0.3-3.8
		c0.1-1.3,0.2-2.4,0.3-3.4c0.1-1,0.2-1.8,0.3-2.3c0-0.1,0-0.2,0-0.3c0-0.1,0-0.2,0-0.3v-0.3c0-0.1,0-0.1,0-0.1c0,0,0-0.1,0-0.1
		l0.1-0.1c0-0.1,0-0.1,0-0.1c0,0,0,0,0-0.1c0-0.2,0-0.4-0.1-0.6c-0.1-0.2-0.2-0.3-0.5-0.4c-0.3,0.5-0.5,1-0.6,1.6
		c-0.1,0.6-0.1,1.3-0.1,1.9c0,0.6,0,1.2-0.1,1.8c-0.1,0.6-0.2,1.2-0.2,1.8l-0.7,8.9l-0.1-1.3c0-2.2,0-4.5,0-6.8
		c0-2.3,0.1-4.6,0.2-6.8c0-0.1,0-0.2,0.1-0.5c0.1-0.3,0.1-0.4,0.1-0.5c0-0.2,0-0.5,0.1-0.9c0.1-0.4,0.1-0.7,0.1-0.7
		c0-0.1,0-0.2-0.1-0.3c-0.1-0.1-0.1-0.2-0.1-0.3h-0.4c-1.4,0.2-2.8,0.3-4.1,0.3s-2.8,0-4.2,0.1c-0.1,0-0.3,0-0.7,0
		c-0.4,0-0.7,0-0.8,0l-1.2,0.2l0.2,1.5v3.4c0,1.2,0,2.4,0,3.7c0,1.2,0,2.4,0,3.6c0,0.3,0,0.5,0.1,0.7c0.1,0.2,0.1,0.3,0.1,0.5v0.5
		l-0.2,0.6c0,0.1,0,0.3,0.1,0.6c0.1,0.4,0.1,0.6,0.1,0.6c0,1.1,0,1.7,0,1.9c0,0.2,0,0.3,0,0.3c-0.3,2.2-0.6,3.8-0.8,4.6
		c-0.3,0.9-0.8,1.4-1.5,1.7c-0.8,0.3-1.9,0.5-3.5,0.6c-1.5,0.1-3.7,0.5-6.5,1.3c-0.1-0.1-0.2-0.2-0.2-0.4
		C232,78.5,232,78.3,232,78.2z M255.3,33.2c-0.2-2.1-0.3-4.5-0.3-7.2c0-0.6,0-1.3,0-2c0-0.7,0-1.4,0.1-2.2v-1c0-0.1,0-0.3,0.1-0.6
		c0.1-0.4,0.1-0.6,0.1-0.7c0.1-0.2,0.1-0.6,0.2-1c0.1-0.4,0.3-0.6,0.7-0.6h0.2c0,0.1,0,0.2-0.1,0.3c-0.1,0.2-0.1,0.3-0.1,0.3l-1,9.8
		c0,0.1,0,0.4,0,0.7c0,0.4,0,0.6,0,0.7c0.1,0.3,0.2,0.6,0.2,1c0,0.4,0,0.7,0,1v0.5l-0.2,0.3l0.2,0.3L255.3,33.2z"/>
	<path fill="#FFFFFF" d="M372.8,9.6c2.4,0.1,4.4,0.4,6.2,0.9c1.8,0.6,3.3,1.2,4.6,1.9c1.3,0.7,2.2,1.3,2.9,1.9c0.7,0.6,1,1,1.2,1.2
		c0.9,1.2,1.7,2.5,2.5,3.7c0.7,1.3,1.1,2.7,1.1,4.3c0,0.3,0,0.6,0,0.9c0,0.3-0.1,0.6-0.1,0.9c0,0.1,0,0.3,0,0.4
		c0,0.2-0.1,0.3-0.2,0.4l0.2,0.4c0,0.6-0.2,1.4-0.5,2.2c-0.3,0.8-0.7,1.5-1.1,1.9c-0.1,0.2-0.2,0.3-0.4,0.4
		c-0.1,0.1-0.3,0.2-0.4,0.3c-0.2,0.2-0.3,0.4-0.3,0.6c-0.1,0.2-0.1,0.4-0.3,0.7V33c-0.5,2.2-1.1,4.2-2,5.9c-0.9,1.8-1.8,3.4-2.9,4.8
		c-1.1,1.4-2.2,2.7-3.3,3.8c-1.1,1.1-2.2,2.1-3.3,3c0.5,0.4,0.9,0.7,1.3,1c0.2,0.2,0.5,0.5,0.9,0.7c0.2,0.1,0.3,0.2,0.4,0.3
		c0.3,0.4,0.8,0.9,1.4,1.4c0.7,0.5,1.2,0.9,1.7,1.1l7,6.5c0.3,0.2,0.6,0.4,0.9,0.6c0.2,0.3,0.5,0.5,0.8,0.8c0.6,0.6,1.2,1.1,1.8,1.6
		c0.6,0.5,1.2,1,1.8,1.5l0.3,0.3l0.3,0.9c0.4,0.4,0.8,0.8,1.2,1.2c0.4,0.4,0.8,0.9,1.1,1.5c0,0.2,0,0.4-0.1,0.6
		c-0.1,0.1-0.1,0.3-0.1,0.4c0,0.3,0.1,0.6,0.3,0.7c0.2,0.1,0.3,0.4,0.3,0.6c-0.3,0-0.6-0.2-0.8-0.6c-0.3-0.4-0.5-0.6-0.8-0.6
		c-0.1,0-0.2,0.1-0.3,0.4c-0.1,0.3-0.1,0.5-0.1,0.5c-0.1,0.2-0.3,0.3-0.5,0.4c-0.2,0.1-0.3,0.3-0.3,0.6h-1c-0.3,0-0.4,0.3-0.5,0.8
		c0,0.5-0.2,0.8-0.5,0.8c-0.1,0-0.2,0-0.3-0.1c-0.1-0.1-0.2-0.1-0.3-0.1c-0.2,0-0.4,0-0.6,0.1c-0.2,0.1-0.4,0.1-0.6,0.1
		c-0.5,0-0.9-0.1-1.3-0.4c-0.4-0.3-0.8-0.5-1.1-0.8h-0.3c-0.3,0-0.5,0.2-0.5,0.6c0,0.3,0.2,0.5,0.5,0.6c0.3,0.1,0.5,0.3,0.5,0.6
		c-1,0-1.8-0.2-2.6-0.6s-1.4-0.8-2.1-1.4c-0.6-0.6-1.2-1.2-1.8-1.8c-0.6-0.6-1.2-1.2-1.9-1.7c-0.3-0.2-0.4-0.5-0.5-0.7
		c0-0.2-0.2-0.4-0.6-0.4l-2.6-2.6c-0.2-0.1-0.5-0.3-0.9-0.6c-0.3-0.3-0.6-0.6-0.9-0.8l-6.5-5.5c-0.4-0.3-0.7-0.5-0.9-0.7
		c-0.2-0.2-0.5-0.3-1-0.3c0,0.7,0.1,1.3,0.2,1.9c0.1,0.6,0.3,1.2,0.5,1.9c0.5,2.1,0.9,4.3,1.3,6.6c0.1,0.3,0.3,0.7,0.4,1.1
		c0.2,0.4,0.3,0.8,0.3,1.2c0,0.2-0.1,0.5-0.2,0.7c-0.1,0.2-0.2,0.5-0.2,0.7c0,0.1,0,0.1,0.1,0.1c0.1,0,0.1,0.1,0.1,0.2
		c-0.3,0-0.5-0.1-0.5-0.3c-0.1-0.2-0.1-0.4-0.3-0.6c-0.1-0.1-0.2-0.3-0.4-0.6c-0.1-0.3-0.2-0.5-0.3-0.6c0-0.2-0.1-0.3-0.3-0.3
		c-0.3,0-0.4,0.1-0.4,0.3c0,0.2-0.1,0.4-0.2,0.5c-0.2,0.2-0.3,0.3-0.5,0.3c-0.1,0.1-0.3,0.1-0.5,0.2c-0.2,0.1-0.3,0.2-0.5,0.4
		c-0.1,0.2-0.3,0.5-0.4,0.9c0,0.1,0,0.2,0,0.4c0,0.2,0,0.4,0,0.5c0,0.2,0,0.3-0.1,0.3c-0.1,0-0.1,0-0.1,0c0,0-0.1,0-0.2,0v1h-0.8
		v1.7c-0.2-0.7-0.3-1.1-0.3-1.1l-0.1-0.2c-0.2,0-0.4,0.3-0.6,0.9c-0.1,0.6-0.2,0.9-0.2,1c-0.1,0-0.2-0.1-0.3-0.2
		c-0.1-0.1-0.2-0.2-0.3-0.2c-0.2,0-0.4,0.1-0.4,0.4c0,0.3-0.1,0.4-0.2,0.4c-0.2,0-0.3-0.1-0.4-0.3c-0.1-0.2-0.2-0.3-0.5-0.3
		c-0.1,0-0.1,0.1-0.2,0.2c-0.1,0.1-0.1,0.2-0.1,0.3l0.4,1.1c-0.2,0-0.4-0.4-0.7-1.2c-0.3-0.8-0.6-1.7-1-2.7c-0.3-1-0.7-1.9-0.9-2.8
		c-0.3-0.9-0.5-1.5-0.5-1.8c-0.1-0.2-0.1-0.6-0.3-1.1c-0.1-0.5-0.3-1-0.4-1.6c-0.2-0.6-0.3-1.1-0.5-1.6c-0.1-0.5-0.2-0.9-0.3-1.1
		c0-0.1-0.1-0.4-0.2-0.9c-0.1-0.5-0.2-0.8-0.3-0.9c0.1-0.1,0.2-0.4,0.2-0.8c-0.2-1.1-0.3-2.3-0.5-3.4c-0.2-1.1-0.3-2.2-0.4-3.4
		c0-0.1,0-0.5-0.1-1.1s-0.1-1-0.1-1.3c-0.2-2.4-0.5-4.6-0.7-6.8c-0.2-2.2-0.4-4.5-0.5-6.8c-0.1-1.2-0.3-2.4-0.4-3.6
		c-0.2-1.2-0.3-2.4-0.3-3.6c0-0.8,0-1.6,0.1-2.4c0.1-0.8,0.1-1.6,0.1-2.4c0-0.1-0.1-0.3-0.3-0.4c-0.2-0.2-0.3-0.3-0.3-0.4
		c0-0.1,0.1-0.3,0.2-0.6c0.1-0.3,0.2-0.4,0.3-0.4V24c0-0.7,0.1-1.2,0.3-1.5l0.1-0.1c0.1,0,0.1,0,0.2-0.1c0.3-0.3,0.4-0.5,0.3-0.5
		c-0.1-0.1,0-0.3,0.1-0.6c0.1-0.2,0.2-0.4,0.6-0.8c0.3-0.4,0.6-0.8,1-1.2c0.3-0.4,0.7-0.8,0.9-1.1c0.3-0.3,0.5-0.4,0.6-0.4l0.2-0.1
		c0.1,0,0.1,0,0.1-0.1c0.1-0.1,0.2-0.1,0.3-0.3c0.1-0.1,0.2-0.2,0.3-0.3l0.3-0.3v-0.3c0.3,0,0.5-0.1,0.6-0.3
		c0.1-0.2,0.3-0.3,0.6-0.3c0.7-0.6,1.4-1.2,2.1-1.8c0.7-0.5,1.5-1,2.3-1.4c0,0.1,0,0.2,0,0.2c0,0,0,0.1,0,0.2l0.2,0.1h0.2l0.9-0.4
		c0.1-0.1,0.2-0.2,0.3-0.3c0.1-0.1,0.2-0.2,0.3-0.2c0.2-0.2,0.6-0.3,1.2-0.5c0.6-0.2,0.9-0.4,0.9-0.7c-0.5,0-1,0.2-1.7,0.6
		c-0.7,0.4-1.3,0.6-1.7,0.6c0.1-0.1,0.3-0.2,0.6-0.4c0.3-0.1,0.4-0.2,0.5-0.3l3.2-1.2c0.5-0.2,1-0.3,1.3-0.4
		c0.4-0.1,0.9-0.2,1.5-0.3c0,0.1,0.1,0.2,0.3,0.2c0.2,0,0.3-0.1,0.4-0.2H372.8z M366.6,42.5c0,0.1,0.1,0.2,0.3,0.2
		c0.4,0,0.9-0.2,1.5-0.6c0.6-0.4,1.3-0.9,2-1.4c0.7-0.5,1.3-1.1,1.9-1.6c0.6-0.5,1-1,1.2-1.2c0.2-0.2,0.3-0.4,0.4-0.6
		c0.1-0.2,0.2-0.4,0.3-0.6l0.3-0.3c0.5-0.6,1-1.3,1.6-2.1c0.5-0.8,0.9-1.5,1.2-2.3c0.4-0.7,0.7-1.3,0.9-1.9c0.2-0.6,0.3-1.3,0.3-2.1
		c0-0.2,0-0.4-0.1-0.7c-0.1-0.3-0.1-0.5-0.3-0.6l-2.1-3.2c-0.1-0.1-0.3-0.2-0.4-0.3c-0.3-0.2-0.5-0.4-0.5-0.5
		c-0.5-0.9-1.4-1.6-2.8-2c-1.4-0.4-2.8-0.6-4.3-0.6c-1.6,0-3,0.2-4.3,0.7c-1.2,0.5-1.8,1.2-1.8,2.3c0,0.1,0,0.2,0,0.3
		c0,0.1,0,0.1,0,0.3l4.2,18.6C366.3,42.1,366.4,42.3,366.6,42.5z M363.5,13.5c-0.1,0.1-0.2,0.2-0.2,0.3v0.3c0.2,0,0.3,0,0.4-0.1
		L363.5,13.5z M373.1,11c0.9,0,1.9,0.2,3.1,0.5c1.2,0.3,2.2,0.6,3,0.9c0.2,0.1,0.4,0.2,0.4,0.3c0.1,0.1,0.2,0.1,0.4,0.1
		c0-0.1-0.2-0.3-0.5-0.5c-0.3-0.2-0.7-0.4-1.2-0.6c-0.4-0.2-0.8-0.4-1.2-0.6c-0.4-0.2-0.7-0.3-0.9-0.3c-0.3-0.1-0.6-0.2-0.9-0.1
		c-0.3,0-0.6,0-0.9-0.1H371c-0.1,0-0.3,0-0.7,0.1c-0.4,0.1-0.7,0.2-0.9,0.2c-0.4,0.1-0.8,0.3-1.2,0.5c-0.4,0.2-0.8,0.5-1.1,0.8
		l0.3,0.1c0.3,0,0.5,0,0.7-0.1c0.2-0.1,0.4-0.2,0.6-0.3c0.4-0.1,0.8-0.2,1.1-0.2s0.7-0.1,1.2-0.2c0.5-0.2,0.8-0.3,1-0.3
		C372.2,11.1,372.6,11,373.1,11z"/>
	<path fill="#FFFFFF" d="M461.7,75.5c-0.1-0.1-0.4-0.3-0.7-0.4c-0.4-0.2-0.7-0.3-1-0.4h-0.3l-0.1-0.3c-0.1-0.3-0.3-0.5-0.5-0.6
		c-0.2-0.1-0.3-0.4-0.4-0.6l-0.8-2.7c0-0.3-0.1-0.4-0.2-0.4c-0.3-1.6-0.5-3.2-0.6-4.8c-0.1-1.6-0.3-3.2-0.5-4.7c0-0.1,0-0.3,0-0.7
		c0-0.3-0.1-0.7-0.1-1.1c-0.1-0.4-0.1-0.8-0.1-1.1c0-0.3,0-0.5,0-0.6v-0.5c-0.1,0-0.2,0-0.3,0c-0.1,0-0.2,0-0.3,0l-0.3,0.2
		c-0.1,0-0.5,0-1,0c-0.6,0-0.9,0-1.1,0h-0.3c-0.5,0-0.8,0.1-0.9,0.4c-0.1,0.3-0.4,0.4-0.9,0.5c-0.3,0.1-0.7,0.1-1,0.1
		c-0.3,0-0.6,0-1,0h-2c-1.4,0-2.7,0.1-3.9,0.3c-0.5,1.1-0.9,2.2-1.4,3.2c-0.5,1-0.9,2.1-1.4,3.1c-0.3,1.7-0.7,3.1-1.4,4.1
		c-0.6,1-1.4,1.8-2.2,2.3c-0.8,0.5-1.7,0.9-2.6,1c-0.9,0.2-1.7,0.3-2.5,0.3c-0.3,0-0.5,0-0.8,0c-0.2,0-0.4,0-0.6,0h-1
		c-0.7,0-1.1,0.1-1.1,0.3c0-0.2-0.1-0.3-0.4-0.3c0-0.2-0.1-0.3-0.3-0.3c-0.2,0-0.4,0.1-0.4,0.3c-0.1-0.2-0.3-0.3-0.6-0.4
		s-0.5-0.2-0.7-0.2l-0.1-0.3c0-0.3-0.1-0.7-0.3-1.1l-0.3,0.3c0-1.2,0.1-2.4,0.4-3.7c0.3-1.2,0.6-2.4,1.1-3.6l9.9-25.2l0.1-0.3
		l1.2-3.4c0.2-0.3,0.4-0.6,0.4-0.9c0.1-0.3,0.1-0.7,0.3-0.9l2.1-5c0.3-0.3,0.5-0.6,0.5-0.9c0.1-0.3,0.2-0.7,0.4-1
		c0.2-0.2,0.4-0.5,0.6-0.8c0.2-0.3,0.6-0.7,1.1-1.1c0.5-0.5,1.1-1,1.9-1.7c0.8-0.7,1.8-1.6,3.1-2.7c0.2-0.3,0.6-0.5,1.2-0.6
		c0.5-0.1,1.1-0.2,1.8-0.2c0.2,0,0.6,0,1,0c0.5,0,0.9,0.1,1.4,0.2c0.5,0.1,0.9,0.2,1.2,0.3c0.4,0.1,0.6,0.4,0.6,0.6
		c0.2,0,0.3,0,0.3,0.1c0,0.1,0.2,0.2,0.5,0.2c1.5,0.4,2.7,1.2,3.5,2.5c0.2,0.1,0.5,0.5,0.8,1.5c0.3,0.9,0.6,1.9,0.9,3.1
		c0.3,1.1,0.6,2.1,0.9,3.1c0.3,0.9,0.5,1.5,0.7,1.6v0.4c0,0.1,0,0.3,0,0.5c0,0.2,0.1,0.3,0.1,0.3c0.1,0.7,0.2,1.5,0.5,2.2
		c0.3,0.7,0.6,1.5,0.9,2.2c0.3,0.7,0.6,1.5,0.9,2.2c0.3,0.7,0.4,1.4,0.4,2.2c0,0.1,0,0.2,0.1,0.3c0.1,0.1,0.1,0.2,0.2,0.3
		c0.1,0.3,0.2,0.6,0.3,1.1c0.1,0.4,0.3,0.9,0.4,1.4c0.1,0.5,0.2,1,0.3,1.5c0.1,0.5,0.2,0.9,0.2,1.2l1.4,7.6v0.4
		c0,0.8,0.1,1.6,0.3,2.5c0.2,0.9,0.3,1.7,0.4,2.5l0.2,4.7c0,0.1,0,0.6-0.1,1.5c-0.1,0.9-0.4,2-0.9,3.2c-0.5,1.2-1.3,2.4-2.4,3.6
		C465.1,74.1,463.6,74.9,461.7,75.5z M451,35.2c-0.2,0.8-0.5,1.6-0.7,2.3c-0.2,0.7-0.5,1.4-0.7,2.2c-0.3,1-0.6,2.1-0.9,3.1
		c-0.3,1.1-0.6,2.1-0.9,3.1c-0.2,0.6-0.5,1.1-0.8,1.7c-0.3,0.6-0.4,1.2-0.4,1.8c1,0,1.9-0.1,2.9-0.2c1-0.1,1.9-0.2,2.9-0.2h0.4
		c0.1,0.1,0.4,0.1,0.8,0.1c0.4,0,0.7,0,0.8,0c0.1,0,0.2,0,0.4,0c0.1,0,0.2-0.1,0.2-0.2c-0.3-1-0.5-1.8-0.7-2.4
		c-0.2-0.6-0.4-1.3-0.6-2c-0.2-0.7-0.4-1.3-0.5-1.7l-0.5-1.1c-0.3-1-0.5-2-0.8-3c-0.2-1-0.5-2-0.7-3.1c0-0.1,0-0.2-0.1-0.3
		C451.3,35.3,451.2,35.2,451,35.2z"/>
	<path fill="#FFFFFF" d="M501.9,75.5V72c0.1-0.3,0.2-0.7,0.1-1.2c0-0.5,0-0.9,0.1-1.3c0-0.1,0-0.3,0.1-0.6c0.1-0.3,0.1-0.4,0.1-0.6
		l-0.2-0.3v-0.3c0-0.6,0-1.2,0.1-1.8c0.1-0.5,0.2-1.1,0.2-1.7c0.1-1.1,0.1-2.3,0.1-3.4c0-1.1,0.1-2.2,0.2-3.4
		c0.1-0.7,0.2-1.4,0.2-2.1c0-0.7,0.2-1.4,0.5-2.2c-0.1,0-0.1,0-0.1-0.1V53c0.1-0.5,0.2-1.1,0.2-1.8c0-0.7,0.1-1.3,0.3-1.7
		c0.6-1.7,0.9-3.5,0.9-5.3c0.1-1.8,0.2-3.6,0.5-5.5l-0.1-0.2v-0.1v-2.1c0-0.1,0-0.2,0-0.3c0-0.1,0-0.1,0-0.3l-0.1-0.2v-0.1v-8.3
		c0-0.6,0.1-1.5,0.3-2.5c0.2-1,0.3-1.9,0.5-2.5c0.7-0.6,1.6-1.3,2.5-2c0.9-0.7,1.8-1.4,2.8-2.1c0.9-0.7,1.8-1.3,2.7-1.8
		c0.9-0.6,1.6-1,2.2-1.4c0.5,0,0.9,0.1,1.4,0.3c0.5,0.2,1,0.3,1.4,0.3c0.3,0.1,0.6,0.2,0.9,0.2c0.3,0,0.7,0.1,0.9,0.2
		c0.5,0.1,1,0.3,1.6,0.6c0.5,0.3,1.1,0.5,1.6,0.6c3,1.1,5.7,2.5,8.2,4.3c2.5,1.8,4.5,4.1,6.2,6.8c0.7,1.1,1.1,2.3,1.4,3.4
		c0.2,1.1,0.5,2.3,0.8,3.7c0.2,0.9,0.4,1.8,0.6,2.6c0.3,0.8,0.5,1.7,0.7,2.6c0.3,1.3,0.4,2.7,0.4,4.1c0,1.4,0,2.8,0.1,4.1
		c-0.2,0-0.3,0.3-0.3,0.9c-0.1,0.6-0.1,1.3-0.1,2.2c-0.2,1.1-0.5,2.4-0.9,3.9c-0.3,1.5-0.8,2.8-1.3,3.9l-0.4,0.9
		c-0.5,0.9-1,1.8-1.5,2.9c-0.6,1.1-1.1,1.8-1.5,2.2c-0.6,0.6-1.1,1.3-1.5,2c-0.4,0.7-0.9,1.4-1.5,2l-5.2,4.4c-2.2,2-4.5,3.9-6.9,5.8
		c-2.4,1.9-4.8,3.3-7.2,4.1c-1,0.6-1.9,1-2.9,1.2c-0.9,0.2-1.9,0.3-2.9,0.3c-0.9,0-1.8-0.1-2.7-0.2c-0.9-0.1-1.6-0.3-2.3-0.6
		c-0.7-0.2-1.2-0.5-1.7-0.7c-0.4-0.2-0.7-0.4-0.8-0.5c0-0.2,0-0.5,0-0.7c0-0.2,0-0.4,0-0.5h-0.5c0.1-0.2,0.3-0.3,0.4-0.3
		c0.2-0.1,0.3-0.2,0.3-0.5c-0.1,0-0.1,0-0.2,0c-0.1,0-0.2,0-0.5,0L501.9,75.5z M503.2,73.6c0.2,1.8,0.4,2.8,0.6,2.8
		c0.1,0,0.1-0.2,0.2-0.6c0.1-0.4,0.1-0.9,0.2-1.4c0.1-0.5,0.1-1.1,0.1-1.6c0-0.5,0-0.9,0-1.2c0-0.2,0-0.4-0.1-0.6
		c-0.1-0.2-0.1-0.4-0.1-0.6c0-0.4,0.1-0.8,0.2-1.2c0.1-0.4,0.2-0.8,0.3-1.2c0.1-0.8,0.2-1.6,0.1-2.4c0-0.8,0-1.6,0-2.4
		c0.1-0.8,0.1-1.6,0.2-2.5c0.1-0.8,0.1-1.6,0.1-2.5v-0.9c0.2-0.1,0.3-0.4,0.3-0.9V56c-0.1-0.1-0.2-0.2-0.4-0.2
		c-0.2,0-0.3,0.1-0.3,0.4c-0.1,0.1-0.1,0.3-0.2,0.6c-0.1,0.3-0.1,0.5-0.1,0.6v2c-0.1,0.1-0.1,0.5-0.2,1.1c-0.1,0.6-0.1,1-0.2,1.1
		v2.1l-0.3,0.5v4.5c-0.1,0.4-0.2,0.9-0.3,1.5c-0.1,0.6-0.2,1.1-0.2,1.5c0,0.1,0,0.2,0.1,0.4c0.1,0.1,0.1,0.3,0.2,0.4L503.2,73.6z
		 M515.1,67.2c0,0.7-0.1,1.4-0.2,2.1c-0.1,0.6-0.2,1.3-0.2,2v0.9c0.4-0.3,0.8-0.5,1.2-0.7c0.4-0.2,0.8-0.4,1.1-0.7
		c0.3-0.1,0.6-0.4,0.8-0.9c0.3-0.5,0.6-0.7,0.9-0.7c0.1,0,0.3-0.1,0.4-0.4c0.2-0.3,0.3-0.4,0.4-0.6c0.3-0.6,0.7-1,1.2-1.4
		c0.5-0.3,0.9-0.7,1.2-1.2c1-1.4,2-2.8,3-4.3c1-1.5,1.8-3.1,2.4-4.7l1.6-5.7c0.2-1.1,0.4-2.2,0.5-3.1c0.1-0.9,0.2-2,0.2-3.3
		c0-1-0.1-2.1-0.2-3.3c-0.1-1.2-0.4-2.2-0.8-3.1c-0.7-1.5-1.6-2.9-2.8-4.1c-1.2-1.3-2.4-2.4-3.7-3.4c-0.8-0.6-1.6-1.1-2.5-1.5
		c-0.9-0.5-1.8-0.8-2.8-1c0.2,0.9,0.4,1.9,0.5,3.1c0.1,1.1,0.1,2.4,0.1,3.7c0,2.5-0.1,5.3-0.4,8.3c-0.3,3-0.5,5.9-0.9,8.9
		c-0.3,2.9-0.6,5.7-0.9,8.3c-0.3,2.6-0.4,4.8-0.4,6.6V67.2z M539.1,33.6c0.2,0,0.4,0.3,0.6,0.9c0.2,0.6,0.4,0.9,0.6,0.9
		c0-0.2-0.1-0.7-0.2-1.3c-0.1-0.6-0.3-1.3-0.5-2c-0.2-0.7-0.5-1.3-0.8-1.8c-0.3-0.5-0.6-0.8-1-0.8c-0.1,0-0.1,0.1-0.2,0.2
		c-0.1,0.1-0.1,0.2-0.1,0.3c-0.3-0.2-0.5-0.5-0.6-0.9c-0.1-0.4-0.3-0.7-0.5-0.9c-0.6-0.9-1.5-2-2.5-3.1c-1.1-1.2-2-2-2.9-2.6
		c-0.5-0.3-0.9-0.6-1.4-0.8c-0.5-0.3-1-0.5-1.4-0.8l-0.3-0.4c-0.3-0.2-0.6-0.3-1.1-0.3c-0.4-0.1-0.8-0.2-1.1-0.3
		c-0.3-0.2-0.6-0.3-0.8-0.5c-0.2-0.1-0.5-0.3-0.8-0.5c-0.6-0.2-1.3-0.4-2.1-0.6c-0.8-0.2-2.1-0.4-3.7-0.7c-0.2,0.1-0.3,0.2-0.4,0.3
		l-0.1,0.1c0,0.2,0.2,0.4,0.5,0.5c0.3,0.1,0.5,0.1,0.6,0.1c0.5,0,0.9,0,1.5,0.1c0.5,0.1,1,0.1,1.5,0.1c0,0.1-0.1,0.2-0.2,0.3
		c0,0.5,0.3,0.8,1,1c0.7,0.1,1.2,0.3,1.5,0.5c0.7,0.3,1.4,0.7,2.1,1c0.7,0.3,1.4,0.7,2.1,1.1c1.5,0.8,2.9,1.8,4.2,3.1
		c1.2,1.3,2.4,2.6,3.4,4l0.2,0.3c0.3,0.2,0.5,0.4,0.7,0.6c0.2,0.1,0.4,0.4,0.6,0.6L539.1,33.6z"/>
	<path fill="#FFFFFF" d="M573.6,68.8c0-0.6,0-1.1,0-1.7c0-0.5,0-1.1,0-1.6l-0.1-31.3v-0.3c0-0.1,0-0.2,0-0.3c0-0.1,0-0.2,0-0.3v-0.1
		c0-0.1,0-0.2,0.1-0.3c0-0.1,0-0.2,0.1-0.3c0.1-1.4,0.2-2.7,0.3-4.1c0.1-1.3,0.3-2.7,0.6-4.1c0.1-0.4,0.2-0.6,0.4-0.6h0.3
		c0.1,0,0.2-0.1,0.3-0.2c0.1-0.1,0.1-0.3,0.1-0.7c0-0.3,0.1-0.7,0.2-1c0.1-0.3,0.2-0.6,0.3-0.9c0.1-0.3,0.2-0.4,0.4-0.4
		c0.3,0,0.5,0.1,0.8,0.3c0.2,0.2,0.5,0.3,0.8,0.3c0.6,0,0.9-0.2,0.9-0.6c0-0.2-0.1-0.3-0.3-0.3c0.1-0.1,0.1-0.1,0.3-0.2
		c0.1-0.1,0.4-0.1,0.8-0.3c0.4-0.1,1.1-0.3,1.9-0.6s2-0.6,3.5-1.2h0.4c0.1,0.1,0.3,0.5,0.5,1.1c0.2,0.6,0.4,1,0.6,1.2
		c0.1,0.1,0.1,0.5,0.1,1c0,0.6,0,0.9,0,1.1v0.9c0.1,0.5,0.2,1.1,0.4,1.7c0.2,0.6,0.3,1.2,0.3,1.8c0,1-0.1,2-0.3,3
		c-0.2,1-0.4,2.1-0.4,3.1c-0.1,0.4-0.1,1.4-0.3,3.1c-0.1,1.7-0.3,3.7-0.5,6c-0.2,2.3-0.4,4.8-0.6,7.5c-0.2,2.7-0.5,5.1-0.7,7.4
		c-0.3,2.3-0.5,4.3-0.8,5.9c-0.3,1.7-0.5,2.7-0.6,3l-3.1,5.3l-0.5,0.2c0-0.2-0.2-0.4-0.6-0.4c-0.4-0.1-0.9-0.1-1.5-0.1
		c-0.5,0-1-0.1-1.5-0.1c-0.4-0.1-0.6-0.2-0.6-0.4c-0.1,0-0.2-0.1-0.4-0.3c-0.2-0.2-0.4-0.4-0.7-0.7c-0.3-0.3-0.5-0.5-0.7-0.7
		C573.7,68.9,573.6,68.8,573.6,68.8z"/>
	<path fill="#FFFFFF" d="M626.9,74.5c-0.5,0-0.9-0.2-1.3-0.6c-0.4-0.4-0.8-0.7-1.1-1c-0.8-0.7-1.6-1.4-2.4-2.3
		c-0.8-0.8-1.4-1.7-2-2.6c-1.3-2.2-2.4-4.5-3.3-6.8c-0.9-2.3-1.3-4.8-1.3-7.5c0-2.6,0.4-5.1,1.2-7.5c0.8-2.4,1.9-4.6,3.2-6.9
		c0.6-1.1,1.3-2.3,1.9-3.6c0.6-1.2,1.4-2.3,2.3-3.3c0.1-0.1,0.2-0.3,0.5-0.6c0.3-0.3,0.5-0.5,0.9-0.8c0.3-0.3,0.6-0.6,0.9-0.8
		c0.3-0.3,0.4-0.4,0.6-0.6l1.9-1.5c0.2-0.2,0.4-0.3,0.6-0.3c0.6-0.3,1.3-0.6,1.9-1.1c0.7-0.4,1.3-0.9,1.8-1.3l1.4-1.1
		c0.1-0.1,0.1-0.1,0.2-0.2s0.2-0.1,0.2-0.1l0.3,0.2c0.3,0,0.5-0.1,0.6-0.2c0.1-0.1,0.2-0.3,0.4-0.4c0.7-0.4,1.4-0.7,2.2-1
		s1.5-0.6,2.2-1c0.2-0.1,0.4-0.2,0.8-0.3c0.4-0.1,0.8-0.3,1.2-0.4c0.4-0.1,0.8-0.3,1.2-0.4c0.4-0.1,0.6-0.2,0.8-0.3
		c0.6,0,1.3-0.1,1.9-0.2c0.7-0.1,1.3-0.3,2-0.4c0.1,0,0.4,0,0.8,0c0.4,0,0.8,0.1,1.3,0.1c0.5,0,0.9,0,1.3,0c0.4,0,0.7,0,0.8,0h0.4
		c0.2,0,0.4,0,0.5-0.1c0.1-0.1,0.3-0.1,0.5-0.1c0.5,0,1.1,0.2,1.9,0.5c0.7,0.3,1.3,0.6,1.7,0.8c1.3,0.6,2.7,1.5,4.1,2.7
		c1.4,1.1,2.5,2.4,3.2,3.6c0.5,0.9,1,2,1.5,3.1c0.5,1.2,1,2.4,1.4,3.7c0.4,1.3,0.8,2.5,1.2,3.8c0.4,1.3,0.7,2.4,0.9,3.4
		c0.1,0.1,0.1,0.2,0.1,0.6c0,0.3,0,0.5,0,0.6c0.1,0.3,0.1,0.6,0.2,1c0.1,0.4,0.1,0.8,0.1,1.1c0,1.3-0.1,2.5-0.3,3.6
		c-0.2,1.1-0.3,2.3-0.5,3.5c-0.1,0.8-0.2,1.6-0.2,2.3c0,0.7-0.2,1.5-0.4,2.3c-0.2,0.7-0.6,1.6-1.2,2.8c-0.6,1.2-1.4,2.3-2.3,3.2
		c-0.1,0.1-0.2,0.2-0.4,0.4c-0.2,0.2-0.4,0.5-0.6,0.8c-0.2,0.3-0.4,0.6-0.6,0.9c-0.2,0.3-0.3,0.4-0.4,0.5c-0.6,0.7-1.2,1.1-1.8,1.1
		c-0.6,0.1-1.3,0.3-1.9,0.8c-0.8,0.6-1.6,1.3-2.4,2c-0.8,0.7-1.6,1.3-2.5,2c-0.5,0.3-1.1,0.7-1.6,0.9c-0.6,0.3-1.1,0.6-1.6,0.9
		c-0.5,0.3-0.9,0.7-1.3,1.1c-0.4,0.4-0.9,0.7-1.5,0.9c-0.2,0.1-0.4,0.2-0.4,0.3c-0.1,0.1-0.1,0.2-0.3,0.3c-0.5,0.3-1.1,0.6-1.7,0.8
		c-0.6,0.2-1.2,0.4-1.8,0.6c-1.3,0.6-2.7,1.1-4.3,1.5c-1.5,0.4-3,0.6-4.5,0.6c-1.5,0-3-0.2-4.4-0.7c-1.4-0.5-2.7-1.3-3.9-2.5
		c-0.2-0.1-0.4-0.2-0.7-0.4C627,75,626.9,74.8,626.9,74.5z M628,50.3c0.1,0.1,0.3,0.9,0.7,2.5c0.4,1.5,1.2,3.3,2.4,5.2
		c1.2,1.9,2.9,3.7,5.2,5.3c2.3,1.6,5.3,2.6,9.2,3c0,0.1,0.1,0.2,0.2,0.2c0.1,0,0.2,0.1,0.3,0.1l2.8-0.9c0.1-0.1,0.2-0.1,0.4-0.1
		c0.2,0,0.4,0,0.5,0c0.8-0.8,1.5-1.6,2.1-2.5c0.6-0.9,1.1-1.8,1.7-2.8c0.3-0.5,0.6-0.9,0.9-1.4c0.3-0.5,0.5-0.9,0.8-1.4
		c0.8-1.8,1.4-3.8,1.8-5.8c0.4-2,0.6-4,0.6-6c0-0.7-0.1-1.5-0.2-2.4c-0.1-0.9-0.3-2.4-0.4-4.4v-0.3c0-0.5-0.2-1.2-0.6-2.1
		c-0.4-0.9-1-1.9-1.9-2.8c-0.9-0.9-2-1.8-3.4-2.5c-1.3-0.7-3-1.1-4.9-1.1c-1.1,0-2.2,0-3.2,0.1c-1.1,0.1-2.2,0.2-3.3,0.5l-4.2,1.6
		c-0.6,0.2-1.1,0.6-1.5,1c-0.4,0.4-0.7,0.9-1,1.4c-0.2,0.3-0.3,0.6-0.4,0.9c-0.1,0.3-0.2,0.7-0.4,0.9c-1.2,2.2-2.2,4.4-3,6.5
		C628.4,45.4,628,47.7,628,50.3z"/>
	<path fill="#FFFFFF" d="M711,87.2c-0.3,0-0.6,0-0.6,0c-0.1,0-0.2,0.1-0.2,0.3c-0.8-0.2-1.6-0.6-2.4-1.1c-0.8-0.5-1.6-1-2.4-1.5
		c-0.1,0-0.1,0.1-0.1,0.2c0,0.1-0.1,0.2-0.1,0.3c-0.1-0.3-0.3-0.6-0.5-0.8c-0.6,0-1,0.1-1,0.2c-0.3,0-0.6-0.2-0.9-0.6
		c-0.2-0.4-0.4-0.9-0.6-1.4c-0.2-0.5-0.3-1.1-0.4-1.8c-0.1-0.7-0.1-1.2-0.1-1.8c0-0.5,0.1-0.9,0.3-1c0.2-0.2,0.3-0.6,0.3-1.3
		c0.1,0,0.2,0,0.2,0c0,0,0.1,0,0.2,0c0.6-0.6,1.4-0.9,2.2-0.9c0.3,0,0.5-0.1,0.7-0.4s0.4-0.4,0.7-0.4c0.2,0,0.4,0.1,0.6,0.2
		c0.1,0.1,0.2,0.2,0.3,0.2c0.1,0,0.2,0,0.6-0.1c0.3-0.1,0.7-0.2,1-0.3c0.4-0.1,0.7-0.2,1.1-0.3c0.3-0.1,0.6-0.2,0.8-0.3
		c0.1,0.1,0.2,0.1,0.3,0.2c0.2,0.1,0.3,0.1,0.3,0.1c0.2,0.1,0.4,0.4,0.6,0.8c0.2,0.4,0.3,0.9,0.4,1.4c0.1,0.5,0.2,1,0.3,1.5
		c0.1,0.5,0.1,0.9,0.1,1.2c0,0.3,0,0.7-0.1,0.9c-0.1,0.3-0.1,0.6-0.1,0.9c0,0.2,0,0.3,0.1,0.5c0.1,0.2,0.1,0.3,0.1,0.4
		c0,1.1-0.3,2.1-0.8,3C711.4,86.1,711.1,86.8,711,87.2z M709.8,68.1c-0.1,0-0.1,0-0.2-0.1c-0.1-0.1-0.1-0.1-0.2-0.1
		c-0.4,0-0.7,0.2-0.8,0.5c-0.2-0.2-0.3-0.3-0.3-0.3c-0.2,0-0.4,0.1-0.6,0.2c-0.2,0.1-0.4,0.3-0.5,0.4l-0.2-0.3
		c-0.1,0.2-0.2,0.3-0.4,0.3c-0.2,0-0.3,0.1-0.3,0.3c-0.2-0.4-0.3-0.8-0.3-1.2h-0.7c0-0.2-0.1-0.3-0.4-0.3l-0.9-9.9
		c0-0.5,0-1.5,0-2.9c0-1.4,0-3,0-4.7c0-1.7,0-3.4,0-5c0-1.6,0-2.9,0-3.8c0-3.6-0.3-7.3-0.9-11c-0.6-3.7-0.9-7.2-0.9-10.4
		c0-0.7,0.3-1.3,0.9-1.9c0.6-0.6,1.3-1.1,2.2-1.5c0.9-0.4,1.8-0.7,2.8-0.9c1-0.2,1.9-0.3,2.7-0.3c0.3,0,0.6,0.2,0.8,0.5
		c0.3,0.3,0.5,0.7,0.7,1.2c0.2,0.5,0.4,0.9,0.5,1.4c0.1,0.5,0.2,0.9,0.3,1.2c0.2,2.1,0.4,4,0.6,5.7c0.2,1.7,0.4,3.4,0.6,5.1
		c0.2,1.6,0.4,3.2,0.6,4.8c0.1,1.5,0.2,3.2,0.2,4.8v3.1c0,0.3,0,0.9,0,1.9c0,1,0,2.1,0,3.3c0,1.2,0,2.5,0,3.7c0,1.2,0,2.2,0,3v1
		c0,1,0,1.9,0.1,2.9c0.1,0.9,0.1,1.9,0.1,2.8c0,0.4,0,0.9-0.1,1.5c-0.1,0.6-0.1,1.2-0.2,1.8c-0.1,0.6-0.2,1.1-0.3,1.5
		c-0.1,0.5-0.2,0.8-0.3,0.9L709.8,68.1z"/>
</g>
</svg>
