<?xml version="1.0" encoding="utf-8"?>
<!-- Generator: Adobe Illustrator 18.1.1, SVG Export Plug-In . SVG Version: 6.00 Build 0)  -->
<svg version="1.1" id="Layer_1" xmlns="http://www.w3.org/2000/svg" xmlns:xlink="http://www.w3.org/1999/xlink" x="0px" y="0px"
	 viewBox="0 0 864 162" enable-background="new 0 0 864 162" xml:space="preserve">
<g>
	<path fill="#FFFFFF" d="M38.8,56.5c-0.1-0.1-0.3-0.2-0.6-0.4c-0.3-0.1-0.6-0.3-0.8-0.4h-0.3L37,55.5c-0.1-0.2-0.2-0.4-0.4-0.5
		c-0.2-0.1-0.3-0.3-0.3-0.5l-0.6-2.2c0-0.2,0-0.4-0.1-0.4c-0.2-1.3-0.4-2.7-0.5-4c-0.1-1.3-0.2-2.7-0.4-4c0-0.1,0-0.3,0-0.6
		c0-0.3-0.1-0.6-0.1-0.9c0-0.3-0.1-0.6-0.1-0.9c0-0.3,0-0.4,0-0.5v-0.4c-0.1,0-0.2,0-0.3,0c-0.1,0-0.2,0-0.3,0l-0.3,0.1
		c-0.1,0-0.4,0-0.9,0c-0.5,0-0.8,0-0.9,0h-0.3c-0.4,0-0.6,0.1-0.8,0.3c-0.1,0.2-0.4,0.3-0.8,0.4c-0.3,0-0.6,0.1-0.8,0.1
		c-0.3,0-0.5,0-0.8,0h-1.7c-1.2,0-2.2,0.1-3.2,0.2c-0.4,1-0.8,1.9-1.2,2.7c-0.4,0.8-0.8,1.7-1.2,2.6c-0.2,1.4-0.6,2.6-1.2,3.4
		c-0.5,0.8-1.1,1.5-1.8,1.9c-0.7,0.4-1.4,0.7-2.2,0.9c-0.7,0.1-1.5,0.2-2.1,0.2c-0.2,0-0.5,0-0.6,0c-0.2,0-0.4,0-0.5,0h-0.9
		c-0.6,0-0.9,0.1-0.9,0.3c0-0.1-0.1-0.2-0.4-0.3c0-0.2-0.1-0.3-0.3-0.3c-0.2,0-0.3,0.1-0.4,0.3c-0.1-0.1-0.3-0.3-0.5-0.3
		c-0.2-0.1-0.4-0.1-0.6-0.2l-0.1-0.2c0-0.2-0.1-0.6-0.2-0.9l-0.3,0.3c0-1,0.1-2,0.3-3.1c0.2-1,0.5-2,0.9-3l8.3-21.1l0.1-0.2l1-2.8
		c0.2-0.2,0.3-0.5,0.4-0.8c0-0.3,0.1-0.6,0.2-0.8l1.7-4.2c0.2-0.2,0.4-0.5,0.4-0.8c0-0.3,0.2-0.6,0.4-0.9c0.1-0.2,0.3-0.4,0.5-0.6
		c0.2-0.2,0.5-0.6,0.9-0.9c0.4-0.4,0.9-0.9,1.6-1.4c0.6-0.6,1.5-1.3,2.6-2.2c0.2-0.2,0.5-0.4,1-0.5c0.5-0.1,0.9-0.2,1.5-0.2
		c0.2,0,0.5,0,0.9,0c0.4,0,0.8,0.1,1.2,0.1c0.4,0.1,0.7,0.2,1,0.3c0.3,0.1,0.5,0.3,0.5,0.5c0.1,0,0.2,0,0.2,0.1
		c0,0.1,0.1,0.1,0.4,0.1c1.2,0.3,2.2,1,3,2.1c0.2,0,0.4,0.5,0.7,1.2c0.3,0.8,0.5,1.6,0.8,2.6c0.3,0.9,0.5,1.8,0.8,2.6
		c0.2,0.8,0.4,1.2,0.6,1.3v0.4c0,0.1,0,0.2,0,0.4c0,0.2,0.1,0.3,0.1,0.3c0,0.6,0.2,1.2,0.4,1.9c0.2,0.6,0.5,1.2,0.8,1.9
		c0.3,0.6,0.5,1.2,0.7,1.8c0.2,0.6,0.3,1.2,0.3,1.8c0,0.1,0,0.2,0.1,0.3c0,0.1,0.1,0.2,0.1,0.3c0,0.2,0.1,0.5,0.3,0.9
		c0.1,0.4,0.2,0.8,0.3,1.2c0.1,0.4,0.2,0.9,0.3,1.3c0.1,0.4,0.1,0.7,0.1,1l1.2,6.3v0.4c0,0.7,0.1,1.4,0.2,2.1
		c0.1,0.7,0.3,1.4,0.4,2.1l0.1,4c0,0.1,0,0.5-0.1,1.3c-0.1,0.8-0.3,1.7-0.8,2.7c-0.4,1-1.1,2-2,3C41.7,55.4,40.4,56.1,38.8,56.5z
		 M29.8,22.8c-0.2,0.7-0.4,1.3-0.6,1.9c-0.2,0.6-0.4,1.2-0.6,1.8c-0.2,0.9-0.5,1.7-0.7,2.6c-0.2,0.9-0.5,1.8-0.8,2.6
		c-0.2,0.5-0.4,1-0.6,1.4c-0.2,0.5-0.4,1-0.4,1.5c0.8,0,1.6-0.1,2.4-0.2c0.8-0.1,1.6-0.2,2.4-0.2h0.4c0.1,0,0.3,0.1,0.7,0.1
		c0.4,0,0.6,0,0.7,0c0.1,0,0.2,0,0.3,0c0.1,0,0.2-0.1,0.2-0.2c-0.2-0.8-0.4-1.5-0.6-2c-0.1-0.5-0.3-1.1-0.5-1.7
		c-0.2-0.6-0.3-1.1-0.4-1.4l-0.4-0.9c-0.2-0.8-0.5-1.6-0.6-2.5c-0.2-0.8-0.4-1.7-0.6-2.6c0,0,0-0.1-0.1-0.3
		C30.1,22.9,30,22.8,29.8,22.8z"/>
	<path fill="#FFFFFF" d="M89.3,66.8c-0.1-0.1-0.2-0.2-0.3-0.4c0-0.2,0-0.3,0-0.5v-0.3c-0.1-0.8-0.3-1.4-0.3-1.8
		c-0.1-0.5-0.1-0.9-0.2-1.3c-0.1-0.4-0.1-0.7-0.1-0.8c0-0.1,0-0.3-0.1-0.5c0-0.2-0.1-0.5-0.1-0.7c0-0.2-0.1-0.5-0.1-0.7
		c0-0.2,0-0.3,0-0.4c0-0.2-0.1-0.6-0.3-1.2c-0.1-0.6-0.2-1.1-0.4-1.8c-0.1-0.6-0.2-1.2-0.4-1.8c-0.1-0.6-0.2-1-0.2-1.3
		c0-0.4-0.1-0.8,0-1.2c0-0.4,0-0.7-0.1-1.1c0-0.4-0.1-0.8-0.3-1.2c-0.1-0.3-0.2-0.8-0.2-1.3v-0.4c0-0.4,0-0.7-0.1-1.1
		c0-0.3-0.1-0.7-0.1-1c0-0.3-0.1-0.9-0.1-1.7c0-0.9-0.1-1.8-0.2-2.7c-0.1-0.9-0.1-1.8-0.2-2.5c-0.1-0.7-0.1-1.1-0.2-1.2
		c-0.2-3.3-0.6-6.6-1.1-9.9c-0.2-1.3-0.4-2.7-0.6-4c-0.2-1.3-0.4-2.7-0.4-4.1v-0.8c0.1,0,0.2-0.2,0.2-0.4c0-0.2,0.1-0.4,0.2-0.5
		v-1.9c0-0.3,0-0.7,0-1c0-0.3-0.1-0.6-0.2-0.8c-0.1-0.2-0.2-0.4-0.3-0.6c-0.1-0.2-0.2-0.4-0.2-0.6c0.1-0.4,0.3-0.7,0.4-0.9
		c0.1-0.2,0.2-0.5,0.3-0.7c0.1-0.2,0.1-0.4,0.1-0.5c0-0.1,0.1-0.4,0.1-0.8c0-0.4,0.1-0.7,0.1-0.8c0-0.2,0.2-0.4,0.4-0.6
		c0.2-0.2,0.4-0.4,0.4-0.7l0.7-0.9c0.1,0,0.2,0,0.2-0.1c0.1-0.1,0.2-0.1,0.2-0.1c0.2-0.1,0.4-0.4,0.5-0.8c0.1-0.4,0.3-0.5,0.7-0.5
		c0.1,0,0.3,0.1,0.6,0.4c0.7-0.5,1.4-1,2.3-1.4c0.9-0.4,1.8-0.7,2.7-0.9c1.3-0.3,2.6-0.5,3.9-0.5c2.2,0,4.2,0.4,6,1.2
		c1.9,0.8,3.6,2,5,3.5c0.4,0.4,0.7,0.7,0.8,1c0.2,0.3,0.4,0.6,0.8,1.1c0.2,0.2,0.4,0.5,0.8,0.6c0.3,0.2,0.5,0.4,0.6,0.7
		c1.2,1.1,2.2,2.4,2.9,3.9c0.7,1.5,1.1,3,1.1,4.6c0,1.3-0.2,2.6-0.6,3.9c-0.4,1.3-0.9,2.5-1.5,3.6l-0.8,1.5l-1.5,2.3
		c-0.2,0.2-0.4,0.4-0.5,0.6c-0.1,0.2-0.3,0.4-0.5,0.7l-2.7,2.9c-0.1,0.7-0.7,1.4-1.7,1.9c-1,0.6-2,1.1-3.1,1.5
		c-1.1,0.5-2.2,0.9-3.1,1.2c-1,0.4-1.5,0.7-1.5,1c0,0,0,0.1,0.1,0.3c0,0.1,0.1,0.2,0.1,0.3c0,0.1,0,0.3-0.1,0.4
		c0,0.1-0.1,0.3-0.1,0.4c0,0.9,0.1,1.7,0.2,2.6c0.1,0.9,0.2,1.7,0.3,2.6l0.6,10.2c0,0.3,0.1,0.7,0.3,1c0.1,0.3,0.2,0.7,0.2,1.1
		c0,0.2,0,0.6,0,1c0,0.4-0.1,0.7-0.3,1v1.5c-0.1,0.1-0.2,0.3-0.2,0.5c0,0.2-0.1,0.4-0.2,0.6c0,0,0-0.1-0.1-0.1c0,0-0.1-0.1-0.1-0.2
		c0-0.1-0.1-0.2-0.1-0.2c-0.2,0-0.3,0.1-0.3,0.2c0,0.1-0.1,0.2-0.3,0.2c-0.1,0-0.3,0-0.4-0.1c-0.1,0-0.3-0.1-0.4-0.1
		c-0.2,0-0.5,0.1-0.8,0.3c-0.3,0.2-0.5,0.4-0.8,0.6c-0.3,0.2-0.6,0.4-0.8,0.6c-0.3,0.2-0.5,0.3-0.8,0.3c-0.2,0-0.3,0-0.4-0.1
		c0,0.1-0.2,0.3-0.6,0.5c-0.3,0.2-0.5,0.4-0.6,0.4c-0.2,0.3-0.5,0.7-0.8,1.2c-0.3,0.5-0.6,0.9-0.9,1.1c-0.2,0-0.3-0.2-0.3-0.4
		c0-0.2,0-0.4,0-0.7c0-0.1-0.1-0.3-0.1-0.5C89.3,67.1,89.3,66.9,89.3,66.8z M94.1,16.5c0,0.1,0.1,0.4,0.3,0.8
		c0.2,0.4,0.3,0.7,0.3,0.8c0.2,0.7,0.3,1.3,0.3,1.9c0,0.6,0.1,1.3,0.1,1.9c0,0.5,0.2,1,0.3,1.5c0.2,0.5,0.3,1,0.4,1.5
		c0,0,0,0.2,0,0.4c0,0.2,0,0.4,0,0.7c0,0.2,0,0.5,0,0.6c0,0.2,0,0.3,0,0.4c0,0.1,0,0.5,0.1,1c0.1,0.5,0.2,1.1,0.3,1.6
		c0.1,0.6,0.2,1.1,0.3,1.5c0.1,0.5,0.2,0.7,0.2,0.7c0.1,0,0.4-0.1,0.8-0.3c0.4-0.2,0.8-0.5,1.2-0.8c0.4-0.3,0.8-0.6,1.1-0.8
		c0.3-0.3,0.6-0.4,0.6-0.5c0.1-0.2,0.3-0.4,0.4-0.6c0.1-0.2,0.3-0.4,0.4-0.5c0.2-0.2,0.6-0.5,1-0.8c0.4-0.3,0.7-0.7,0.8-1
		c0.2-0.7,0.4-1.2,0.5-1.7c0.1-0.5,0.1-1.1,0.1-1.9c0-1.2-0.3-2.3-0.9-3.4c-0.6-1.1-1.3-2-2.2-2.8c-0.9-0.8-1.9-1.4-3.1-1.9
		c-1.2-0.5-2.3-0.7-3.5-0.7V16.5z"/>
	<path fill="#FFFFFF" d="M161.4,66.8c-0.1-0.1-0.2-0.2-0.3-0.4c0-0.2,0-0.3,0-0.5v-0.3c-0.1-0.8-0.3-1.4-0.3-1.8
		c-0.1-0.5-0.1-0.9-0.2-1.3c-0.1-0.4-0.1-0.7-0.1-0.8c0-0.1,0-0.3-0.1-0.5c0-0.2-0.1-0.5-0.1-0.7c0-0.2-0.1-0.5-0.1-0.7
		c0-0.2,0-0.3,0-0.4c0-0.2-0.1-0.6-0.3-1.2c-0.1-0.6-0.2-1.1-0.4-1.8c-0.1-0.6-0.2-1.2-0.4-1.8c-0.1-0.6-0.2-1-0.2-1.3
		c0-0.4-0.1-0.8,0-1.2c0-0.4,0-0.7-0.1-1.1c0-0.4-0.1-0.8-0.3-1.2c-0.1-0.3-0.2-0.8-0.2-1.3v-0.4c0-0.4,0-0.7-0.1-1.1
		c0-0.3-0.1-0.7-0.1-1c0-0.3-0.1-0.9-0.1-1.7c0-0.9-0.1-1.8-0.2-2.7c-0.1-0.9-0.1-1.8-0.2-2.5c-0.1-0.7-0.1-1.1-0.2-1.2
		c-0.2-3.3-0.6-6.6-1.1-9.9c-0.2-1.3-0.4-2.7-0.6-4c-0.2-1.3-0.4-2.7-0.4-4.1v-0.8c0.1,0,0.2-0.2,0.2-0.4c0-0.2,0.1-0.4,0.2-0.5
		v-1.9c0-0.3,0-0.7,0-1c0-0.3-0.1-0.6-0.2-0.8c-0.1-0.2-0.2-0.4-0.3-0.6c-0.1-0.2-0.2-0.4-0.2-0.6c0.1-0.4,0.3-0.7,0.4-0.9
		c0.1-0.2,0.2-0.5,0.3-0.7c0.1-0.2,0.1-0.4,0.1-0.5c0-0.1,0.1-0.4,0.1-0.8c0-0.4,0.1-0.7,0.1-0.8c0-0.2,0.2-0.4,0.4-0.6
		c0.2-0.2,0.4-0.4,0.4-0.7l0.7-0.9c0.1,0,0.2,0,0.2-0.1c0.1-0.1,0.2-0.1,0.2-0.1c0.2-0.1,0.4-0.4,0.5-0.8c0.1-0.4,0.3-0.5,0.7-0.5
		c0.1,0,0.3,0.1,0.6,0.4c0.7-0.5,1.4-1,2.3-1.4c0.9-0.4,1.8-0.7,2.7-0.9c1.3-0.3,2.6-0.5,3.9-0.5c2.2,0,4.2,0.4,6,1.2
		c1.9,0.8,3.6,2,5,3.5c0.4,0.4,0.7,0.7,0.8,1c0.2,0.3,0.4,0.6,0.8,1.1c0.2,0.2,0.4,0.5,0.8,0.6c0.3,0.2,0.5,0.4,0.6,0.7
		c1.2,1.1,2.2,2.4,2.9,3.9c0.7,1.5,1.1,3,1.1,4.6c0,1.3-0.2,2.6-0.6,3.9c-0.4,1.3-0.9,2.5-1.5,3.6l-0.8,1.5l-1.5,2.3
		c-0.2,0.2-0.4,0.4-0.5,0.6c-0.1,0.2-0.3,0.4-0.5,0.7l-2.7,2.9c-0.1,0.7-0.7,1.4-1.7,1.9c-1,0.6-2,1.1-3.1,1.5
		c-1.1,0.5-2.2,0.9-3.1,1.2c-1,0.4-1.5,0.7-1.5,1c0,0,0,0.1,0.1,0.3c0,0.1,0.1,0.2,0.1,0.3c0,0.1,0,0.3-0.1,0.4
		c0,0.1-0.1,0.3-0.1,0.4c0,0.9,0.1,1.7,0.2,2.6c0.1,0.9,0.2,1.7,0.3,2.6l0.6,10.2c0,0.3,0.1,0.7,0.3,1c0.1,0.3,0.2,0.7,0.2,1.1
		c0,0.2,0,0.6,0,1c0,0.4-0.1,0.7-0.3,1v1.5c-0.1,0.1-0.2,0.3-0.2,0.5c0,0.2-0.1,0.4-0.2,0.6c0,0,0-0.1-0.1-0.1c0,0-0.1-0.1-0.1-0.2
		c0-0.1-0.1-0.2-0.1-0.2c-0.2,0-0.3,0.1-0.3,0.2c0,0.1-0.1,0.2-0.3,0.2c-0.1,0-0.3,0-0.4-0.1c-0.1,0-0.3-0.1-0.4-0.1
		c-0.2,0-0.5,0.1-0.8,0.3c-0.3,0.2-0.5,0.4-0.8,0.6c-0.3,0.2-0.6,0.4-0.8,0.6c-0.3,0.2-0.5,0.3-0.8,0.3c-0.2,0-0.3,0-0.4-0.1
		c0,0.1-0.2,0.3-0.6,0.5c-0.3,0.2-0.5,0.4-0.6,0.4c-0.2,0.3-0.5,0.7-0.8,1.2c-0.3,0.5-0.6,0.9-0.9,1.1c-0.2,0-0.3-0.2-0.3-0.4
		c0-0.2,0-0.4,0-0.7c0-0.1-0.1-0.3-0.1-0.5C161.4,67.1,161.4,66.9,161.4,66.8z M166.1,16.5c0,0.1,0.1,0.4,0.3,0.8
		c0.2,0.4,0.3,0.7,0.3,0.8c0.2,0.7,0.3,1.3,0.3,1.9c0,0.6,0.1,1.3,0.1,1.9c0,0.5,0.2,1,0.3,1.5c0.2,0.5,0.3,1,0.4,1.5
		c0,0,0,0.2,0,0.4c0,0.2,0,0.4,0,0.7c0,0.2,0,0.5,0,0.6c0,0.2,0,0.3,0,0.4c0,0.1,0,0.5,0.1,1c0.1,0.5,0.2,1.1,0.3,1.6
		c0.1,0.6,0.2,1.1,0.3,1.5c0.1,0.5,0.2,0.7,0.2,0.7c0.1,0,0.4-0.1,0.8-0.3c0.4-0.2,0.8-0.5,1.2-0.8c0.4-0.3,0.8-0.6,1.1-0.8
		c0.3-0.3,0.6-0.4,0.6-0.5c0.1-0.2,0.3-0.4,0.4-0.6c0.1-0.2,0.3-0.4,0.4-0.5c0.2-0.2,0.6-0.5,1-0.8c0.4-0.3,0.7-0.7,0.8-1
		c0.2-0.7,0.4-1.2,0.5-1.7c0.1-0.5,0.1-1.1,0.1-1.9c0-1.2-0.3-2.3-0.9-3.4c-0.6-1.1-1.3-2-2.2-2.8c-0.9-0.8-1.9-1.4-3.1-1.9
		c-1.2-0.5-2.3-0.7-3.5-0.7V16.5z"/>
	<path fill="#FFFFFF" d="M285.8,56.6v-3c0.1-0.3,0.1-0.6,0.1-1c0-0.4,0-0.7,0.1-1.1c0-0.1,0-0.3,0.1-0.5c0.1-0.2,0.1-0.4,0.1-0.5
		l-0.1-0.2v-0.3c0-0.5,0-1,0.1-1.5c0.1-0.5,0.1-0.9,0.2-1.4c0-1,0.1-1.9,0.1-2.8c0-0.9,0.1-1.9,0.2-2.8c0.1-0.6,0.2-1.2,0.2-1.8
		c0-0.6,0.2-1.2,0.4-1.8c0,0-0.1,0-0.1-0.1v-0.1c0.1-0.4,0.2-0.9,0.2-1.5c0-0.6,0.1-1.1,0.3-1.4c0.5-1.4,0.7-2.9,0.8-4.4
		c0-1.5,0.2-3,0.4-4.6l-0.1-0.1v-0.1v-1.7c0-0.1,0-0.2,0-0.2c0,0,0-0.1,0-0.2l-0.1-0.1v-0.1v-6.9c0-0.5,0.1-1.2,0.2-2.1
		c0.1-0.9,0.3-1.6,0.4-2.1c0.6-0.5,1.3-1.1,2.1-1.7c0.8-0.6,1.5-1.2,2.3-1.7c0.8-0.6,1.5-1.1,2.2-1.5c0.7-0.5,1.3-0.9,1.9-1.2
		c0.4,0,0.8,0.1,1.2,0.2c0.4,0.1,0.8,0.2,1.2,0.2c0.2,0.1,0.5,0.2,0.8,0.2c0.3,0,0.6,0.1,0.8,0.2c0.4,0.1,0.9,0.3,1.3,0.5
		c0.5,0.2,0.9,0.4,1.3,0.5c2.5,0.9,4.8,2.1,6.8,3.6c2.1,1.5,3.8,3.4,5.2,5.7c0.6,1,1,1.9,1.2,2.8c0.2,0.9,0.4,2,0.6,3.1
		c0.1,0.8,0.3,1.5,0.5,2.2c0.2,0.7,0.4,1.4,0.6,2.2c0.2,1.1,0.3,2.3,0.3,3.5c0,1.2,0,2.4,0.1,3.5c-0.1,0-0.2,0.3-0.3,0.8
		c0,0.5-0.1,1.1-0.1,1.8c-0.2,0.9-0.4,2-0.7,3.2c-0.3,1.2-0.6,2.3-1.1,3.2l-0.4,0.7c-0.4,0.7-0.8,1.5-1.3,2.4
		c-0.5,0.9-0.9,1.5-1.3,1.8c-0.5,0.5-1,1.1-1.3,1.7c-0.3,0.6-0.8,1.2-1.3,1.7l-4.3,3.7c-1.9,1.6-3.8,3.2-5.8,4.8c-2,1.6-4,2.7-6,3.5
		c-0.8,0.5-1.6,0.8-2.4,1c-0.8,0.2-1.6,0.3-2.4,0.3c-0.8,0-1.5-0.1-2.2-0.2c-0.7-0.1-1.4-0.3-1.9-0.5c-0.6-0.2-1-0.4-1.4-0.6
		c-0.4-0.2-0.6-0.3-0.7-0.4c0-0.2,0-0.4,0-0.6c0-0.2,0-0.3,0-0.4h-0.4c0.1-0.1,0.2-0.2,0.4-0.3c0.1,0,0.2-0.2,0.2-0.4
		c0,0-0.1,0-0.1,0c0,0-0.2,0-0.4,0L285.8,56.6z M286.9,55c0.2,1.5,0.4,2.3,0.5,2.3c0,0,0.1-0.2,0.1-0.5c0-0.3,0.1-0.7,0.1-1.2
		c0-0.5,0.1-0.9,0.1-1.3c0-0.4,0-0.8,0-1c0-0.2,0-0.4-0.1-0.5c0-0.1-0.1-0.3-0.1-0.5c0-0.3,0-0.7,0.1-1c0.1-0.3,0.2-0.7,0.2-1
		c0.1-0.7,0.1-1.3,0.1-2c0-0.6,0-1.3,0-2c0-0.7,0.1-1.4,0.2-2.1c0.1-0.7,0.1-1.4,0.1-2.1v-0.8c0.2-0.1,0.3-0.3,0.3-0.7v-0.4
		c0-0.1-0.2-0.1-0.4-0.1c-0.1,0-0.2,0.1-0.2,0.4c0,0.1-0.1,0.3-0.1,0.5c0,0.3-0.1,0.4-0.1,0.5v1.7c0,0.1-0.1,0.4-0.1,0.9
		c0,0.5-0.1,0.8-0.1,0.9v1.8l-0.2,0.4V51c-0.1,0.3-0.2,0.7-0.3,1.2c-0.1,0.5-0.1,0.9-0.1,1.3c0,0.1,0,0.2,0.1,0.3
		c0,0.1,0.1,0.2,0.1,0.3L286.9,55z M296.9,49.6c0,0.6,0,1.2-0.1,1.7c-0.1,0.5-0.1,1.1-0.1,1.7v0.8c0.3-0.2,0.7-0.4,1-0.6
		c0.3-0.2,0.6-0.4,0.9-0.6c0.2-0.1,0.5-0.3,0.7-0.8c0.2-0.4,0.5-0.6,0.8-0.6c0.1,0,0.2-0.1,0.4-0.3c0.1-0.2,0.3-0.4,0.4-0.5
		c0.2-0.5,0.6-0.9,1-1.2c0.4-0.3,0.8-0.6,1-1c0.9-1.2,1.7-2.4,2.5-3.6c0.8-1.2,1.5-2.6,2-4l1.4-4.8c0.2-1,0.3-1.8,0.4-2.6
		c0.1-0.8,0.1-1.7,0.1-2.8c0-0.8,0-1.7-0.1-2.7c-0.1-1-0.3-1.9-0.6-2.6c-0.6-1.2-1.4-2.4-2.3-3.5c-1-1.1-2-2-3.1-2.8
		c-0.7-0.5-1.4-0.9-2.1-1.3c-0.7-0.4-1.5-0.7-2.3-0.9c0.2,0.8,0.3,1.6,0.4,2.6c0.1,1,0.1,2,0.1,3.1c0,2.1-0.1,4.4-0.3,6.9
		c-0.2,2.5-0.5,5-0.7,7.4c-0.3,2.4-0.5,4.8-0.8,6.9c-0.2,2.2-0.4,4-0.4,5.5V49.6z M317,21.5c0.2,0,0.4,0.3,0.5,0.8
		c0.2,0.5,0.3,0.8,0.5,0.8c0-0.2,0-0.6-0.1-1.1c-0.1-0.5-0.2-1.1-0.4-1.7c-0.2-0.6-0.4-1.1-0.6-1.5c-0.3-0.5-0.5-0.7-0.8-0.7
		c0,0-0.1,0-0.2,0.1c-0.1,0.1-0.1,0.2-0.1,0.2c-0.2-0.1-0.4-0.4-0.5-0.7c-0.1-0.3-0.3-0.6-0.4-0.8c-0.5-0.8-1.2-1.6-2.1-2.6
		c-0.9-1-1.7-1.7-2.4-2.2c-0.4-0.2-0.8-0.5-1.2-0.7c-0.4-0.2-0.8-0.4-1.2-0.7l-0.3-0.4c-0.2-0.1-0.5-0.2-0.9-0.3
		c-0.4,0-0.7-0.1-0.9-0.3c-0.3-0.1-0.5-0.3-0.7-0.4c-0.2-0.1-0.4-0.3-0.7-0.4c-0.5-0.2-1.1-0.4-1.8-0.5c-0.7-0.1-1.7-0.3-3.1-0.6
		c-0.1,0.1-0.3,0.2-0.4,0.3l-0.1,0.1c0,0.2,0.1,0.3,0.4,0.4c0.3,0.1,0.4,0.1,0.5,0.1c0.4,0,0.8,0,1.2,0.1c0.4,0.1,0.9,0.1,1.3,0.1
		c0,0.1,0,0.2-0.1,0.3c0,0.4,0.3,0.7,0.8,0.8c0.6,0.1,1,0.3,1.3,0.4c0.6,0.3,1.2,0.6,1.7,0.9s1.2,0.6,1.7,0.9
		c1.3,0.7,2.5,1.5,3.5,2.6c1,1.1,2,2.2,2.8,3.3l0.1,0.2c0.2,0.2,0.4,0.3,0.6,0.5c0.2,0.1,0.3,0.3,0.5,0.5L317,21.5z"/>
	<path fill="#FFFFFF" d="M362,49.5v-1.4c0-0.4,0-0.8,0-1.2c0-0.4-0.1-0.8-0.3-1.2c-0.1-0.3-0.2-0.9-0.4-1.9c-0.2-1-0.4-2.1-0.6-3.1
		c-0.2-1.1-0.4-2.1-0.5-2.9c-0.1-0.9-0.2-1.3-0.3-1.3c-0.2-1.7-0.4-3.4-0.6-5.1c-0.2-1.7-0.3-3.4-0.4-5.1c-0.1-0.8-0.2-1.7-0.4-2.6
		c-0.2-0.9-0.3-1.7-0.3-2.6v-0.4l-0.2-1.3v-0.3c0-0.4-0.1-0.8-0.3-1.3c-0.2-0.5-0.3-1-0.3-1.5c0,0,0.1-0.1,0.3-0.2
		c0.2-0.1,0.3-0.2,0.3-0.2l4.2-3.9c0.1-0.1,0.2-0.3,0.1-0.5c0-0.2,0-0.3,0.2-0.5c0.2-0.1,0.6-0.3,0.9-0.4c0.4-0.1,0.6-0.4,0.6-0.6
		c0.4-0.2,0.9-0.4,1.5-0.5s1.3-0.3,2-0.3c0.7-0.1,1.3-0.1,1.9-0.1c0.6,0,1,0,1.3,0c0.8,0,1.6,0.1,2.4,0.2c0.8,0.1,1.8,0.2,2.9,0.2
		h0.6c0.1,0,0.5,0,1,0c0.5,0,1.1,0,1.7-0.1c0.6,0,1.2,0,1.7-0.1c0.5,0,0.9,0,1,0h0.7c1.1,0,2.3,0,3.6,0.1c1.3,0.1,2.4,0.3,3.4,0.7
		c0,0.2,0.1,0.3,0.2,0.4c0.1,0.1,0.3,0.2,0.4,0.3c0.1,0.1,0.3,0.2,0.4,0.3c0.1,0.1,0.2,0.2,0.2,0.4c-0.3,0-0.7,0-1-0.1
		c-0.4-0.1-0.7-0.1-1.1-0.1c-0.5,0-0.7,0.2-0.7,0.5c0,0.2,0.2,0.4,0.5,0.5c0.4,0.1,0.6,0.2,0.7,0.2c0,0.1,0.1,0.2,0.3,0.2
		c0.2,0,0.3,0.1,0.3,0.2c-0.4,0-0.6,0-0.7,0.1c-0.1,0.1-0.2,0.2-0.3,0.5c0.1,0,0.1,0,0.1,0.1c0,0.1-0.1,0.2-0.3,0.2
		c-0.2,0-0.4,0-0.6,0.1c-0.2,0-0.4,0.1-0.6,0.1c-0.2,0-0.3,0.1-0.4,0.3h0.4c0,0.1-0.1,0.3-0.2,0.3c-0.1,0.1-0.2,0.2-0.2,0.4
		c0,0.2,0.1,0.3,0.3,0.3c0.2,0,0.3,0,0.4,0.1c-0.4,0-1.1,0.1-2,0.1c-0.9,0-1.5,0.1-1.9,0.3c-0.1,0-0.2,0.1-0.2,0.4
		c0,0.2-0.1,0.3-0.4,0.3c-1.1,0.2-2.2,0.3-3.3,0.4c-1.1,0-2.2,0.1-3.3,0.3c-0.7,0-1.4,0.1-2.2,0.3c-0.8,0.1-1.5,0.2-2.1,0.3H372
		c-0.5,0-1,0.1-1.4,0.2c-0.4,0.1-0.9,0.3-1.4,0.6c0,0.1,0.1,0.4,0.2,0.9c0.1,0.5,0.2,0.8,0.3,0.8c0,0.4,0.1,0.8,0.2,1.1
		c0.1,0.4,0.2,0.7,0.3,1.1c0,0,0,0.1,0.1,0.3c0,0.1,0.1,0.2,0.3,0.3c0.4,0,0.8-0.1,1.2-0.2s0.8-0.2,1.2-0.3c2-0.4,4-0.7,6-0.9
		c2-0.2,4-0.4,6.1-0.4l1.8,3.2l-1.4,2.9c-0.2,0-0.5,0.1-0.6,0.2c-0.2,0.1-0.8,0.2-1.8,0.3c-0.4,0-0.7,0.1-0.9,0.2
		c-0.1,0.1-0.4,0.3-0.7,0.4c-0.2,0.1-0.6,0.2-1,0.3c-0.4,0.1-0.9,0.2-1.4,0.4c-0.5,0.1-1,0.2-1.4,0.3c-0.5,0.1-0.8,0.1-1,0.1
		c-0.2,0-0.6,0-1.1,0.1c-0.5,0.1-1.1,0.2-1.7,0.3c-0.6,0.1-1.1,0.3-1.6,0.4c-0.5,0.1-0.8,0.3-0.9,0.4v0.4c0,0.5,0.1,1,0.2,1.5
		c0.1,0.5,0.2,1,0.2,1.5v0.4l1.6,7.9h3.5c0.9-0.2,1.8-0.3,2.7-0.4c0.9,0,1.8-0.1,2.7-0.2c0.9-0.1,1.7-0.2,2.5-0.4
		c0.8-0.1,1.6-0.2,2.4-0.2h0.5c0,0.1,0.2,0.1,0.4,0.1c0.2,0,0.7,0,1.3,0c0.6,0,1,0.1,1.2,0.2c0,0.2,0.1,0.5,0.4,0.6
		c0.2,0.2,0.4,0.3,0.4,0.4c-0.2,0-0.4,0.1-0.7,0.1c-0.3,0-0.5,0.1-0.6,0.2l0.4,0.3c-0.3,0.8-0.5,1.5-0.8,2.2c-0.2,0.6-0.5,1.2-1,1.8
		c-0.4,0.6-1.1,1.1-1.9,1.6c-0.8,0.5-2.1,1-3.6,1.5c-0.2,0.1-0.4,0.2-0.5,0.4c-0.1,0.1-0.2,0.3-0.4,0.4c-0.7,0-1.2,0-1.5,0.1
		c-0.3,0.1-0.8,0.2-1.5,0.3c-0.1,0-0.2,0-0.4,0c-0.2,0-0.3,0-0.4,0h-2.7c0,0-0.1,0.1-0.2,0.1c0,0-0.1,0-0.1,0.1l-10.7,1.2
		c0,0-0.2,0.1-0.3,0.3c-0.2,0.1-0.3,0.2-0.4,0.2c0,0-0.1-0.1-0.1-0.1c-0.1,0-0.2,0-0.3-0.1L362,49.5z"/>
	<path fill="#FFFFFF" d="M458.5,56.5c-0.1-0.1-0.3-0.2-0.6-0.4c-0.3-0.1-0.6-0.3-0.8-0.4h-0.3l-0.1-0.3c-0.1-0.2-0.2-0.4-0.4-0.5
		c-0.2-0.1-0.3-0.3-0.3-0.5l-0.6-2.2c0-0.2,0-0.4-0.1-0.4c-0.2-1.3-0.4-2.7-0.5-4c-0.1-1.3-0.2-2.7-0.4-4c0-0.1,0-0.3,0-0.6
		c0-0.3-0.1-0.6-0.1-0.9c0-0.3-0.1-0.6-0.1-0.9c0-0.3,0-0.4,0-0.5v-0.4c-0.1,0-0.2,0-0.3,0c-0.1,0-0.2,0-0.3,0l-0.3,0.1
		c-0.1,0-0.4,0-0.9,0c-0.5,0-0.8,0-0.9,0h-0.3c-0.4,0-0.6,0.1-0.8,0.3c-0.1,0.2-0.4,0.3-0.8,0.4c-0.3,0-0.6,0.1-0.8,0.1
		c-0.3,0-0.5,0-0.8,0h-1.7c-1.2,0-2.2,0.1-3.2,0.2c-0.4,1-0.8,1.9-1.2,2.7c-0.4,0.8-0.8,1.7-1.2,2.6c-0.2,1.4-0.6,2.6-1.2,3.4
		c-0.5,0.8-1.1,1.5-1.8,1.9c-0.7,0.4-1.4,0.7-2.2,0.9c-0.7,0.1-1.5,0.2-2.1,0.2c-0.2,0-0.5,0-0.6,0c-0.2,0-0.4,0-0.5,0h-0.9
		c-0.6,0-0.9,0.1-0.9,0.3c0-0.1-0.1-0.2-0.4-0.3c0-0.2-0.1-0.3-0.3-0.3c-0.2,0-0.3,0.1-0.4,0.3c-0.1-0.1-0.3-0.3-0.5-0.3
		c-0.2-0.1-0.4-0.1-0.6-0.2l-0.1-0.2c0-0.2-0.1-0.6-0.2-0.9l-0.3,0.3c0-1,0.1-2,0.3-3.1c0.2-1,0.5-2,0.9-3l8.3-21.1l0.1-0.2l1-2.8
		c0.2-0.2,0.3-0.5,0.4-0.8c0-0.3,0.1-0.6,0.2-0.8l1.7-4.2c0.2-0.2,0.4-0.5,0.4-0.8c0-0.3,0.2-0.6,0.4-0.9c0.1-0.2,0.3-0.4,0.5-0.6
		c0.2-0.2,0.5-0.6,0.9-0.9c0.4-0.4,0.9-0.9,1.6-1.4c0.6-0.6,1.5-1.3,2.6-2.2c0.2-0.2,0.5-0.4,1-0.5c0.5-0.1,0.9-0.2,1.5-0.2
		c0.2,0,0.5,0,0.9,0c0.4,0,0.8,0.1,1.2,0.1c0.4,0.1,0.7,0.2,1,0.3c0.3,0.1,0.5,0.3,0.5,0.5c0.1,0,0.2,0,0.2,0.1
		c0,0.1,0.1,0.1,0.4,0.1c1.2,0.3,2.2,1,3,2.1c0.2,0,0.4,0.5,0.7,1.2c0.3,0.8,0.5,1.6,0.8,2.6s0.5,1.8,0.8,2.6s0.4,1.2,0.6,1.3v0.4
		c0,0.1,0,0.2,0,0.4c0,0.2,0.1,0.3,0.1,0.3c0,0.6,0.2,1.2,0.4,1.9c0.2,0.6,0.5,1.2,0.8,1.9c0.3,0.6,0.5,1.2,0.7,1.8
		c0.2,0.6,0.3,1.2,0.3,1.8c0,0.1,0,0.2,0.1,0.3c0,0.1,0.1,0.2,0.1,0.3c0,0.2,0.1,0.5,0.3,0.9c0.1,0.4,0.2,0.8,0.3,1.2
		c0.1,0.4,0.2,0.9,0.3,1.3c0.1,0.4,0.1,0.7,0.1,1l1.2,6.3v0.4c0,0.7,0.1,1.4,0.2,2.1c0.1,0.7,0.3,1.4,0.4,2.1l0.1,4
		c0,0.1,0,0.5-0.1,1.3c-0.1,0.8-0.3,1.7-0.8,2.7c-0.4,1-1.1,2-2,3C461.3,55.4,460.1,56.1,458.5,56.5z M449.5,22.8
		c-0.2,0.7-0.4,1.3-0.6,1.9c-0.2,0.6-0.4,1.2-0.6,1.8c-0.2,0.9-0.5,1.7-0.7,2.6c-0.2,0.9-0.5,1.8-0.8,2.6c-0.2,0.5-0.4,1-0.6,1.4
		c-0.2,0.5-0.4,1-0.4,1.5c0.8,0,1.6-0.1,2.4-0.2c0.8-0.1,1.6-0.2,2.4-0.2h0.4c0.1,0,0.3,0.1,0.7,0.1c0.4,0,0.6,0,0.7,0
		c0.1,0,0.2,0,0.3,0c0.1,0,0.2-0.1,0.2-0.2c-0.2-0.8-0.4-1.5-0.6-2c-0.1-0.5-0.3-1.1-0.5-1.7c-0.2-0.6-0.3-1.1-0.4-1.4l-0.4-0.9
		c-0.2-0.8-0.5-1.6-0.6-2.5c-0.2-0.8-0.4-1.7-0.6-2.6c0,0,0-0.1-0.1-0.3C449.8,22.9,449.7,22.8,449.5,22.8z"/>
	<path fill="#FFFFFF" d="M506.5,56.6v-3c0.1-0.3,0.1-0.6,0.1-1c0-0.4,0-0.7,0.1-1.1c0-0.1,0-0.3,0.1-0.5c0.1-0.2,0.1-0.4,0.1-0.5
		l-0.1-0.2v-0.3c0-0.5,0-1,0.1-1.5c0.1-0.5,0.1-0.9,0.2-1.4c0-1,0.1-1.9,0.1-2.8c0-0.9,0.1-1.9,0.2-2.8c0.1-0.6,0.2-1.2,0.2-1.8
		c0-0.6,0.2-1.2,0.4-1.8c0,0-0.1,0-0.1-0.1v-0.1c0.1-0.4,0.2-0.9,0.2-1.5c0-0.6,0.1-1.1,0.3-1.4c0.5-1.4,0.7-2.9,0.8-4.4
		c0-1.5,0.2-3,0.4-4.6l-0.1-0.1v-0.1v-1.7c0-0.1,0-0.2,0-0.2c0,0,0-0.1,0-0.2l-0.1-0.1v-0.1v-6.9c0-0.5,0.1-1.2,0.2-2.1
		c0.1-0.9,0.3-1.6,0.4-2.1c0.6-0.5,1.3-1.1,2.1-1.7c0.8-0.6,1.5-1.2,2.3-1.7c0.8-0.6,1.5-1.1,2.2-1.5c0.7-0.5,1.3-0.9,1.9-1.2
		c0.4,0,0.8,0.1,1.2,0.2c0.4,0.1,0.8,0.2,1.2,0.2c0.2,0.1,0.5,0.2,0.8,0.2c0.3,0,0.6,0.1,0.8,0.2c0.4,0.1,0.9,0.3,1.3,0.5
		c0.5,0.2,0.9,0.4,1.3,0.5c2.5,0.9,4.8,2.1,6.8,3.6c2.1,1.5,3.8,3.4,5.2,5.7c0.6,1,1,1.9,1.2,2.8c0.2,0.9,0.4,2,0.6,3.1
		c0.1,0.8,0.3,1.5,0.5,2.2c0.2,0.7,0.4,1.4,0.6,2.2c0.2,1.1,0.3,2.3,0.3,3.5c0,1.2,0,2.4,0.1,3.5c-0.1,0-0.2,0.3-0.3,0.8
		c0,0.5-0.1,1.1-0.1,1.8c-0.2,0.9-0.4,2-0.7,3.2c-0.3,1.2-0.6,2.3-1.1,3.2l-0.4,0.7c-0.4,0.7-0.8,1.5-1.3,2.4
		c-0.5,0.9-0.9,1.5-1.3,1.8c-0.5,0.5-1,1.1-1.3,1.7c-0.3,0.6-0.8,1.2-1.3,1.7l-4.3,3.7c-1.9,1.6-3.8,3.2-5.8,4.8c-2,1.6-4,2.7-6,3.5
		c-0.8,0.5-1.6,0.8-2.4,1c-0.8,0.2-1.6,0.3-2.4,0.3c-0.8,0-1.5-0.1-2.2-0.2c-0.7-0.1-1.4-0.3-1.9-0.5c-0.6-0.2-1-0.4-1.4-0.6
		c-0.4-0.2-0.6-0.3-0.7-0.4c0-0.2,0-0.4,0-0.6c0-0.2,0-0.3,0-0.4h-0.4c0.1-0.1,0.2-0.2,0.4-0.3c0.1,0,0.2-0.2,0.2-0.4
		c0,0-0.1,0-0.1,0c0,0-0.2,0-0.4,0L506.5,56.6z M507.6,55c0.2,1.5,0.4,2.3,0.5,2.3c0,0,0.1-0.2,0.1-0.5c0-0.3,0.1-0.7,0.1-1.2
		c0-0.5,0.1-0.9,0.1-1.3c0-0.4,0-0.8,0-1c0-0.2,0-0.4-0.1-0.5s-0.1-0.3-0.1-0.5c0-0.3,0-0.7,0.1-1c0.1-0.3,0.2-0.7,0.2-1
		c0.1-0.7,0.1-1.3,0.1-2c0-0.6,0-1.3,0-2c0-0.7,0.1-1.4,0.2-2.1c0.1-0.7,0.1-1.4,0.1-2.1v-0.8c0.2-0.1,0.3-0.3,0.3-0.7v-0.4
		c0-0.1-0.2-0.1-0.4-0.1c-0.1,0-0.2,0.1-0.2,0.4c0,0.1-0.1,0.3-0.1,0.5c0,0.3-0.1,0.4-0.1,0.5v1.7c0,0.1-0.1,0.4-0.1,0.9
		c0,0.5-0.1,0.8-0.1,0.9v1.8l-0.2,0.4V51c-0.1,0.3-0.2,0.7-0.3,1.2c-0.1,0.5-0.1,0.9-0.1,1.3c0,0.1,0,0.2,0.1,0.3
		c0,0.1,0.1,0.2,0.1,0.3L507.6,55z M517.6,49.6c0,0.6,0,1.2-0.1,1.7c-0.1,0.5-0.1,1.1-0.1,1.7v0.8c0.3-0.2,0.7-0.4,1-0.6
		c0.3-0.2,0.6-0.4,0.9-0.6c0.2-0.1,0.5-0.3,0.7-0.8c0.2-0.4,0.5-0.6,0.8-0.6c0.1,0,0.2-0.1,0.4-0.3c0.1-0.2,0.3-0.4,0.4-0.5
		c0.2-0.5,0.6-0.9,1-1.2c0.4-0.3,0.8-0.6,1-1c0.9-1.2,1.7-2.4,2.5-3.6c0.8-1.2,1.5-2.6,2-4l1.4-4.8c0.2-1,0.3-1.8,0.4-2.6
		c0.1-0.8,0.1-1.7,0.1-2.8c0-0.8,0-1.7-0.1-2.7c-0.1-1-0.3-1.9-0.6-2.6c-0.6-1.2-1.4-2.4-2.3-3.5c-1-1.1-2-2-3.1-2.8
		c-0.7-0.5-1.4-0.9-2.1-1.3c-0.7-0.4-1.5-0.7-2.3-0.9c0.2,0.8,0.3,1.6,0.4,2.6c0.1,1,0.1,2,0.1,3.1c0,2.1-0.1,4.4-0.3,6.9
		c-0.2,2.5-0.5,5-0.7,7.4c-0.3,2.4-0.5,4.8-0.8,6.9c-0.2,2.2-0.4,4-0.4,5.5V49.6z M537.7,21.5c0.2,0,0.4,0.3,0.5,0.8
		c0.2,0.5,0.3,0.8,0.5,0.8c0-0.2,0-0.6-0.1-1.1c-0.1-0.5-0.2-1.1-0.4-1.7c-0.2-0.6-0.4-1.1-0.6-1.5c-0.3-0.5-0.5-0.7-0.8-0.7
		c0,0-0.1,0-0.2,0.1c-0.1,0.1-0.1,0.2-0.1,0.2c-0.2-0.1-0.4-0.4-0.5-0.7c-0.1-0.3-0.3-0.6-0.4-0.8c-0.5-0.8-1.2-1.6-2.1-2.6
		c-0.9-1-1.7-1.7-2.4-2.2c-0.4-0.2-0.8-0.5-1.2-0.7c-0.4-0.2-0.8-0.4-1.2-0.7l-0.3-0.4c-0.2-0.1-0.5-0.2-0.9-0.3
		c-0.4,0-0.7-0.1-0.9-0.3c-0.3-0.1-0.5-0.3-0.7-0.4c-0.2-0.1-0.4-0.3-0.7-0.4c-0.5-0.2-1.1-0.4-1.8-0.5c-0.7-0.1-1.7-0.3-3.1-0.6
		c-0.1,0.1-0.3,0.2-0.4,0.3l-0.1,0.1c0,0.2,0.1,0.3,0.4,0.4c0.3,0.1,0.4,0.1,0.5,0.1c0.4,0,0.8,0,1.2,0.1c0.4,0.1,0.9,0.1,1.3,0.1
		c0,0.1,0,0.2-0.1,0.3c0,0.4,0.3,0.7,0.8,0.8c0.6,0.1,1,0.3,1.3,0.4c0.6,0.3,1.2,0.6,1.7,0.9c0.6,0.3,1.2,0.6,1.7,0.9
		c1.3,0.7,2.5,1.5,3.5,2.6c1,1.1,2,2.2,2.8,3.3l0.1,0.2c0.2,0.2,0.4,0.3,0.6,0.5c0.2,0.1,0.3,0.3,0.5,0.5L537.7,21.5z"/>
	<path fill="#FFFFFF" d="M581.7,62.4c-0.1,0-0.1-0.1-0.1-0.2c0,0.1-0.1,0.1-0.2,0.1c-0.7,0-1.2-0.2-1.7-0.6
		c-0.4-0.4-0.7-0.9-0.9-1.5v-1.4c0-1,0-2,0.1-3.1c0-1.1,0.1-2.2,0.1-3.5c0,0,0-0.2,0-0.5c0-0.3,0-0.6,0-0.9c0-0.3,0-0.6,0-0.8
		c0-0.2,0-0.4,0-0.5l0.1-0.7v-3.5c0-0.4,0.1-0.8,0.1-1.2c0-0.4,0.1-0.8,0.1-1.1c0,0-0.1,0-0.1-0.1v-0.1v-1.7c0-0.8,0-1.5,0.1-2.3
		c0.1-0.8,0.3-1.5,0.7-2v0.1c0,0,0,0.1,0.1,0.1c-0.1,0.8-0.2,1.6-0.2,2.6c0,1-0.1,2-0.2,3.1c-0.1,1.1-0.1,2.2-0.1,3.2
		c0,1.1,0,2.1,0,3.1c0,1.3,0,2.5,0.1,3.5c0.1,1,0.2,1.7,0.5,2.1c-0.1-0.6-0.2-1.2-0.2-1.9c0-0.9,0.1-1.8,0.2-2.7
		c0.1-0.9,0.2-1.8,0.3-2.7c0.1,0,0.1-0.1,0.1-0.2c0-4.1,0.3-8.5,0.9-13c-0.2-0.2-0.3-0.5-0.3-0.9c0-0.3,0-0.7,0.1-1.1
		c0.1-0.4,0.1-0.8,0.2-1c0-0.9-0.1-1.8-0.4-2.7c-0.2-0.9-0.4-1.4-0.6-1.4c-0.1,0-0.1,0.3-0.1,0.9c0,0.2,0,0.5,0,0.8
		c0,0.3,0,0.6,0.1,1c0,0.4,0,0.9,0,1.4c0,0.6,0,1.1,0,1.8c0,0.8,0,1.6-0.1,2.3c-0.1,0.7-0.3,1.3-0.6,1.7c0,0-0.1,0-0.1-0.1v-0.1
		c0.2-0.4,0.4-1,0.5-1.8c0.1-0.8,0.1-1.7,0.1-2.6c0-0.9,0-1.7-0.1-2.5s-0.1-1.4-0.2-1.8c0-0.4-0.1-0.8-0.1-1.2s0-0.9,0-1.3
		c0-2.3,0.1-4.6,0.4-7c0.3-2.4,0.6-4.8,0.9-7.2c0,0,0.1-0.2,0.3-0.4c0.1,0,0.1,0,0.1,0.1v0.6v1.3c0,0.2,0,0.5,0.1,0.8l0.2,0.2
		l0.2-0.2c0-0.2,0.1-0.4,0.1-0.6c0-0.1,0-0.3,0-0.5c0-0.2,0-0.3,0.1-0.5v-0.6c0-0.4,0-0.9-0.1-1.3c0-0.4-0.1-0.8-0.1-1.3V8.7
		L582,8.2V6.8l0.5-0.4l1.9-1.9c0.5-0.5,1-0.9,1.4-1.3c0.4-0.4,0.7-0.6,0.8-0.7c0.3,0,0.5,0.1,0.8,0.4s0.4,0.6,0.6,1
		c0.2,0.4,0.3,0.8,0.4,1.2c0.1,0.4,0.2,0.7,0.3,0.9c0,0.2,0.2,0.4,0.3,0.6c0.2,0.2,0.3,0.3,0.4,0.5c0.5,2.3,0.8,4.6,1,6.9
		c0.2,2.3,0.3,4.6,0.3,6.9c0,4.6-0.2,9.1-0.6,13.7c-0.4,4.6-0.6,9.1-0.6,13.8c0,0.5,0,1,0,1.5c0,0.5,0,0.9,0,1.5
		c0,0.3,0,0.6-0.1,0.8c0,0.3-0.1,0.5-0.1,0.8c0,0.3,0.2,0.4,0.5,0.4c0.4,0,0.6,0,0.8,0.1c0.1,0,0.4,0,0.9,0c0.4,0,0.7,0,0.8,0h1
		c1.2,0,2.4-0.1,3.6-0.2c1.2-0.1,2.5-0.3,4-0.7h1.9c0.2,0.3,0.5,0.6,0.6,0.9c0.1,0.2,0.3,0.5,0.4,0.7c0.1,0.2,0.2,0.4,0.3,0.5V55
		l0.2,0.1c0,0.1,0.2,0.4,0.4,0.6c0.2,0.3,0.4,0.6,0.6,0.9c0.2,0.3,0.4,0.6,0.6,1c0.2,0.3,0.3,0.6,0.3,0.9c0,0.4-0.2,0.7-0.6,0.9
		c-0.1,0-0.2,0-0.3,0.1c-2.3,1.1-4.8,1.9-7.8,2.3c-2.9,0.4-6.1,0.8-9.6,1.1l-1.3,0.1C585,63,583.3,62.8,581.7,62.4z"/>
	<path fill="#FFFFFF" d="M639.9,51c0-0.5,0-0.9,0-1.4c0-0.5,0-0.9,0-1.3l-0.1-26.2v-0.3c0-0.1,0-0.2,0-0.3c0-0.1,0-0.2,0-0.3v-0.1
		c0-0.1,0-0.2,0.1-0.2c0-0.1,0-0.2,0.1-0.3c0.1-1.2,0.2-2.3,0.3-3.4c0.1-1.1,0.3-2.3,0.5-3.4c0-0.3,0.2-0.5,0.4-0.5h0.3
		c0.1,0,0.2,0,0.2-0.1c0-0.1,0.1-0.3,0.1-0.6s0.1-0.6,0.1-0.9c0.1-0.3,0.1-0.5,0.2-0.8s0.2-0.3,0.3-0.3c0.2,0,0.5,0.1,0.6,0.3
		c0.2,0.2,0.4,0.3,0.6,0.3c0.5,0,0.7-0.2,0.7-0.5c0-0.1-0.1-0.2-0.3-0.3c0,0,0.1-0.1,0.2-0.1c0.1,0,0.3-0.1,0.7-0.2
		c0.4-0.1,0.9-0.3,1.6-0.5c0.7-0.2,1.7-0.5,3-1h0.4c0.1,0.1,0.2,0.4,0.4,0.9c0.2,0.5,0.3,0.9,0.5,1c0,0.1,0.1,0.4,0.1,0.9
		c0,0.5,0,0.8,0,0.9v0.8c0,0.4,0.2,0.9,0.4,1.4c0.2,0.5,0.3,1,0.3,1.5c0,0.8-0.1,1.7-0.3,2.5c-0.2,0.9-0.3,1.7-0.4,2.6
		c0,0.3-0.1,1.2-0.2,2.6c-0.1,1.4-0.2,3.1-0.4,5c-0.2,1.9-0.3,4-0.5,6.3c-0.2,2.2-0.4,4.3-0.6,6.2c-0.2,1.9-0.4,3.6-0.6,5
		c-0.2,1.4-0.4,2.2-0.5,2.5l-2.6,4.5l-0.4,0.1c0-0.2-0.2-0.3-0.5-0.4c-0.4,0-0.8-0.1-1.2-0.1c-0.5,0-0.9-0.1-1.2-0.1
		c-0.4,0-0.5-0.2-0.5-0.4c0,0-0.2-0.1-0.3-0.3c-0.2-0.2-0.4-0.4-0.6-0.6c-0.2-0.2-0.4-0.4-0.6-0.6C640,51,639.9,51,639.9,51z"/>
	<path fill="#FFFFFF" d="M725.1,47.4c-0.4,0-0.7,0.1-0.9,0.2c-0.2,0.1-0.6,0.2-1,0.3l-2.3-0.5c-0.3,0-0.6,0-0.9,0.1
		c-0.3,0.1-0.6,0.1-0.9,0.1c-0.6,0-1.1-0.3-1.5-1c-0.5-0.6-0.8-1.1-1.1-1.4l-0.4-0.3c-0.2-0.2-0.5-0.5-0.7-0.8
		c-0.2-0.3-0.5-0.6-0.9-0.9c-0.8-1.2-1.4-2.1-1.9-2.7c-0.4-0.6-0.8-1.1-1-1.4c-0.2-0.3-0.4-0.6-0.4-0.6c0-0.1-0.1-0.3-0.3-0.5
		c-0.1-0.2-0.3-0.4-0.4-0.5l-2.9-4.2l-0.1-0.1c0,0-0.1,0-0.1-0.1l-1.1-1.7l-0.6-0.8c0,0-0.1-0.2-0.2-0.4c-0.1-0.2-0.3-0.4-0.5-0.6
		c-0.2-0.2-0.3-0.4-0.5-0.5c-0.2-0.2-0.3-0.3-0.3-0.3c0,0-0.1-0.1-0.2-0.3c-0.1-0.1-0.2-0.2-0.3-0.2c0,0-0.1,0.1-0.1,0.3
		c0,0.2-0.1,0.3-0.1,0.3c-0.2,0.6-0.4,1.2-0.5,1.8c-0.1,0.6-0.3,1.4-0.5,2.4c-0.2,1-0.4,2.2-0.8,3.6c-0.3,1.4-0.8,3.2-1.3,5.4
		c-0.2,0-0.4,0.2-0.8,0.6c-0.3,0.3-0.6,0.5-0.9,0.6c-0.1,0-0.3-0.2-0.5-0.3c-0.2-0.2-0.4-0.3-0.4-0.3h-0.9c-0.4,0-0.9-0.1-1.4-0.2
		l-1,0.4c-0.5,0.2-1.1,0.4-1.7,0.6c-0.6,0.2-1,0.5-1,1l-0.1,0.3c0,0-0.2-0.1-0.5-0.1c-0.3,0-0.6,0-0.9,0h-0.3l0.1-0.2
		c-0.2,0-0.4,0-0.6,0.1c-0.1,0-0.2,0-0.2-0.1l-0.1-0.6V43l5.5-26c0.2-0.6,0.6-1.2,0.9-1.8c0.4-0.6,0.8-1.2,1.2-1.8
		c0.1-0.3,0.5-0.6,1.1-0.8c0.6-0.2,0.9-0.5,1-0.8c0,0,0-0.1,0.1-0.1c0,0,0.1-0.1,0.1-0.1c0,0,0.1,0,0.1-0.1l0.6,0.4h0.5
		c0.4,0.1,0.8,0.4,1,0.8c0.3,0.4,0.6,0.7,1,0.7h0.5c0.3,0,0.7,0.1,1.2,0.4c0.4,0.2,0.7,0.5,0.9,0.7l9,10.2l4.9,6.5
		c0.2,0.2,0.5,0.5,0.6,0.8c0.2,0.3,0.4,0.6,0.6,0.9l0.3-0.1v-0.3c0-0.2,0.1-0.4,0.1-0.6c0-0.2,0.1-0.4,0.1-0.6v-0.1l0.1-0.1
		c0,0,0-0.1,0-0.1c0,0,0-0.1,0-0.1l2.4-12.1c0,0-0.1-0.2-0.1-0.4c0-0.1,0-0.3,0.1-0.4c0-0.3,0.1-0.6,0.1-0.9c0-0.3,0.1-0.6,0.2-0.9
		l-0.1-0.4c0-0.2,0.2-0.5,0.4-0.8s0.3-0.6,0.4-0.9c0-0.1,0-0.3-0.1-0.6c0-0.1,0.1-0.1,0.4-0.1s0.4,0,0.5,0l0.2-1v-0.9l0.2-0.8
		c0,0,0.2,0.1,0.6,0.1c0.4,0,0.6,0.1,0.6,0.1c0.2,0,0.5-0.2,0.8-0.6c0.4-0.4,0.6-0.8,0.6-1.1c0-0.1,0-0.2,0.1-0.3
		c0.1-0.1,0.2-0.1,0.2-0.1c0.3,0,0.7,0.1,1.2,0.3c0.5,0.2,1,0.4,1.5,0.6s1.1,0.5,1.8,0.9c0,0,0.2,0.1,0.4,0.3
		c0.2,0.2,0.5,0.4,0.7,0.6c0.3,0.2,0.5,0.4,0.8,0.6c0.2,0.2,0.4,0.4,0.4,0.5c0,0.1,0.1,0.2,0.1,0.3l-0.1,0.5l0.2,0.4l-4,22.1v0.3
		c0,0.3-0.1,0.6-0.1,0.8c0,0.3,0,0.5,0,0.8l-0.4,6.9c0,0.7-0.2,1.1-0.5,1.2l0.1,1.4l-0.1,0.2c-0.2,0-0.5,0.1-0.7,0.1
		c-0.2,0-0.5,0.1-0.7,0.1c-0.2,0-0.5,0-0.6,0h-0.5c-0.1,0-0.2,0-0.3,0.1c-0.1,0.1-0.2,0.1-0.5,0.1s-0.5,0-0.7-0.1
		C725.6,47.4,725.4,47.4,725.1,47.4z"/>
	<path fill="#FFFFFF" d="M778.1,49.5v-1.4c0-0.4,0-0.8,0-1.2c0-0.4-0.1-0.8-0.3-1.2c-0.1-0.3-0.2-0.9-0.4-1.9
		c-0.2-1-0.4-2.1-0.6-3.1c-0.2-1.1-0.4-2.1-0.5-2.9c-0.1-0.9-0.2-1.3-0.3-1.3c-0.2-1.7-0.4-3.4-0.6-5.1c-0.2-1.7-0.3-3.4-0.4-5.1
		c-0.1-0.8-0.2-1.7-0.4-2.6c-0.2-0.9-0.3-1.7-0.3-2.6v-0.4l-0.2-1.3v-0.3c0-0.4-0.1-0.8-0.3-1.3c-0.2-0.5-0.3-1-0.3-1.5
		c0,0,0.1-0.1,0.3-0.2c0.2-0.1,0.3-0.2,0.3-0.2l4.2-3.9c0.1-0.1,0.2-0.3,0.1-0.5c0-0.2,0-0.3,0.2-0.5c0.2-0.1,0.6-0.3,0.9-0.4
		c0.4-0.1,0.6-0.4,0.6-0.6c0.4-0.2,0.9-0.4,1.5-0.5c0.6-0.1,1.3-0.3,2-0.3c0.7-0.1,1.3-0.1,1.9-0.1c0.6,0,1,0,1.3,0
		c0.8,0,1.6,0.1,2.4,0.2c0.8,0.1,1.8,0.2,2.9,0.2h0.6c0.1,0,0.5,0,1,0c0.5,0,1.1,0,1.7-0.1c0.6,0,1.2,0,1.7-0.1c0.5,0,0.9,0,1,0h0.7
		c1.1,0,2.3,0,3.6,0.1c1.3,0.1,2.4,0.3,3.4,0.7c0,0.2,0.1,0.3,0.2,0.4c0.1,0.1,0.3,0.2,0.4,0.3c0.1,0.1,0.3,0.2,0.4,0.3
		c0.1,0.1,0.2,0.2,0.2,0.4c-0.3,0-0.7,0-1-0.1c-0.4-0.1-0.7-0.1-1.1-0.1c-0.5,0-0.7,0.2-0.7,0.5c0,0.2,0.2,0.4,0.5,0.5
		c0.4,0.1,0.6,0.2,0.7,0.2c0,0.1,0.1,0.2,0.3,0.2c0.2,0,0.3,0.1,0.3,0.2c-0.4,0-0.6,0-0.7,0.1c-0.1,0.1-0.2,0.2-0.3,0.5
		c0.1,0,0.1,0,0.1,0.1c0,0.1-0.1,0.2-0.3,0.2c-0.2,0-0.4,0-0.6,0.1c-0.2,0-0.4,0.1-0.6,0.1c-0.2,0-0.3,0.1-0.4,0.3h0.4
		c0,0.1-0.1,0.3-0.2,0.3c-0.1,0.1-0.2,0.2-0.2,0.4c0,0.2,0.1,0.3,0.3,0.3c0.2,0,0.3,0,0.4,0.1c-0.4,0-1.1,0.1-2,0.1
		c-0.9,0-1.5,0.1-1.9,0.3c-0.1,0-0.2,0.1-0.2,0.4c0,0.2-0.1,0.3-0.4,0.3c-1.1,0.2-2.2,0.3-3.3,0.4c-1.1,0-2.2,0.1-3.3,0.3
		c-0.7,0-1.4,0.1-2.2,0.3c-0.8,0.1-1.5,0.2-2.1,0.3H788c-0.5,0-1,0.1-1.4,0.2c-0.4,0.1-0.9,0.3-1.4,0.6c0,0.1,0.1,0.4,0.2,0.9
		c0.1,0.5,0.2,0.8,0.3,0.8c0,0.4,0.1,0.8,0.2,1.1s0.2,0.7,0.3,1.1c0,0,0,0.1,0.1,0.3c0,0.1,0.1,0.2,0.3,0.3c0.4,0,0.8-0.1,1.2-0.2
		s0.8-0.2,1.2-0.3c2-0.4,4-0.7,6-0.9c2-0.2,4-0.4,6.1-0.4l1.8,3.2l-1.4,2.9c-0.2,0-0.5,0.1-0.6,0.2c-0.2,0.1-0.8,0.2-1.8,0.3
		c-0.4,0-0.7,0.1-0.9,0.2c-0.1,0.1-0.4,0.3-0.7,0.4c-0.2,0.1-0.6,0.2-1,0.3c-0.4,0.1-0.9,0.2-1.4,0.4c-0.5,0.1-1,0.2-1.4,0.3
		c-0.5,0.1-0.8,0.1-1,0.1c-0.2,0-0.6,0-1.1,0.1c-0.5,0.1-1.1,0.2-1.7,0.3c-0.6,0.1-1.1,0.3-1.6,0.4c-0.5,0.1-0.8,0.3-0.9,0.4v0.4
		c0,0.5,0.1,1,0.2,1.5c0.1,0.5,0.2,1,0.2,1.5v0.4l1.6,7.9h3.5c0.9-0.2,1.8-0.3,2.7-0.4c0.9,0,1.8-0.1,2.7-0.2
		c0.9-0.1,1.7-0.2,2.5-0.4c0.8-0.1,1.6-0.2,2.4-0.2h0.5c0,0.1,0.2,0.1,0.4,0.1c0.2,0,0.7,0,1.3,0c0.6,0,1,0.1,1.2,0.2
		c0,0.2,0.1,0.5,0.4,0.6c0.2,0.2,0.4,0.3,0.4,0.4c-0.2,0-0.4,0.1-0.7,0.1c-0.3,0-0.5,0.1-0.6,0.2l0.4,0.3c-0.3,0.8-0.5,1.5-0.8,2.2
		c-0.2,0.6-0.5,1.2-1,1.8c-0.4,0.6-1.1,1.1-1.9,1.6c-0.8,0.5-2.1,1-3.6,1.5c-0.2,0.1-0.4,0.2-0.5,0.4c-0.1,0.1-0.2,0.3-0.4,0.4
		c-0.7,0-1.2,0-1.5,0.1c-0.3,0.1-0.8,0.2-1.5,0.3c-0.1,0-0.2,0-0.4,0c-0.2,0-0.3,0-0.4,0h-2.7c0,0-0.1,0.1-0.2,0.1
		c0,0-0.1,0-0.1,0.1l-10.7,1.2c0,0-0.2,0.1-0.3,0.3c-0.2,0.1-0.3,0.2-0.4,0.2c0,0-0.1-0.1-0.1-0.1c-0.1,0-0.2,0-0.3-0.1L778.1,49.5z
		"/>
	<path fill="#FFFFFF" d="M847.6,27.3c0-0.7,0.1-1.4,0.4-2.2s0.5-1.6,0.7-2.4c0.2,0,0.4-0.1,0.5-0.2s0.3-0.3,0.4-0.6
		c0.2-0.2,0.4-0.5,0.7-0.8c0.3-0.3,0.8-0.5,1.4-0.8c0.8-0.2,1.6-0.4,2.2-0.5c0.7-0.1,1.1-0.1,1.4-0.1c0.1,0,0.3,0.1,0.5,0.2l0.6,0.3
		V24c0.1,0.4,0.2,0.8,0.2,1.1c0,0.4,0,0.8,0,1.2c0,1.2-0.2,2-0.7,2.4c-0.5,0.5-1,0.9-1.7,1.3l-0.4,0.2c-1.1,0-2.1-0.2-3.2-0.7
		c-0.1,0-0.3-0.2-0.6-0.3c-0.3-0.2-0.7-0.4-1.1-0.6c-0.4-0.2-0.7-0.4-1-0.7C847.8,27.6,847.6,27.5,847.6,27.3z M855,64.2
		c-0.4,0-0.6,0.1-0.7,0.3c-0.4-0.2-1.1-0.6-2.1-0.9c-0.9-0.4-1.9-0.8-2.8-1.3c0,0-0.1,0-0.1-0.1c0,0-0.1,0-0.1-0.1h-0.4
		c-0.1,0-0.3-0.3-0.4-0.6c-0.1-0.4-0.2-0.8-0.3-1.3c-0.1-0.5-0.1-0.9-0.2-1.3c0-0.4-0.1-0.7-0.1-0.9c0-0.4,0.1-0.6,0.3-0.8
		s0.3-0.5,0.3-1c0.1,0,0.2,0,0.2,0.1c0,0,0.1,0.1,0.2,0.1c0.2,0,0.5-0.1,0.8-0.4c0.3-0.2,0.6-0.4,1-0.4c0.2,0,0.4-0.1,0.5-0.3
		c0.1-0.2,0.3-0.3,0.5-0.3c0.1,0,0.3,0,0.5,0.1c0.2,0.1,0.3,0.1,0.2,0.1c0.5-0.1,0.9-0.2,1.2-0.3c0.3-0.1,0.6-0.2,0.8-0.3
		c0.3-0.1,0.4-0.2,0.5-0.3c0.4,0,0.6,0.1,0.8,0.4c0.1,0.2,0.3,0.6,0.6,0.9c0.1,0.4,0.2,0.8,0.3,1.3c0,0.5,0.1,0.9,0.1,1.3
		c0,0.2,0,0.5-0.1,0.7c-0.1,0.2-0.1,0.4-0.1,0.7c0,0.1,0,0.3,0.1,0.4c0,0.1,0.1,0.3,0.1,0.4c0,0.3-0.1,0.8-0.2,1.4
		c-0.1,0.7-0.3,1.1-0.4,1.4c-0.2,0-0.4,0.2-0.4,0.5c0,0.3-0.1,0.6-0.1,0.8L855,64.2z"/>
	<path fill="#FFFFFF" d="M18,149.1c0,0-0.2-0.1-0.3-0.4c-0.2-0.3-0.3-0.5-0.3-0.6c-0.2-0.4-0.3-0.9-0.3-1.6c0-0.5,0-1,0.1-1.4
		c0-0.5,0.1-1,0.1-1.4c0-1.1-0.2-1.8-0.6-2.2c0,0-0.1,0.1-0.1,0.2c0,0.1-0.1,0.5-0.1,0.9l-0.4-1.4c-0.1,0-0.2-0.3-0.3-0.6
		c-0.1-0.4-0.1-0.8-0.1-1.2c0-0.5,0-0.9,0-1.3s0-0.7,0-0.9c0-0.9-0.1-1.8-0.1-2.7c0-0.9,0-1.8,0-2.7c0-4.7,0.1-9.4,0.2-14
		c0.1-2.4,0.2-4.8,0.4-7.2c0.2-2.4,0.3-4.8,0.3-7.2v-0.5c-0.1-0.1-0.4-0.2-1-0.3c-0.6,0-1.3-0.1-2-0.1c-0.7,0-1.5-0.1-2.2-0.2
		c-0.7-0.1-1.2-0.2-1.5-0.5l0.6-0.2c0-0.2-0.1-0.3-0.3-0.4c-0.2,0-0.4-0.1-0.7-0.1c-0.3,0-0.5-0.1-0.7-0.1c-0.2-0.1-0.3-0.2-0.3-0.5
		c0-0.2,0-0.6,0-1c0-0.4,0.1-0.8,0.2-1c0.1-0.3,0.2-0.5,0.3-0.7c0.1-0.2,0.2-0.5,0.2-0.8v-0.4c0.5-0.2,0.8-0.6,0.8-1.1
		c0.1-0.5,0.2-1,0.3-1.6c0-0.1,0-0.2,0.1-0.2c0.3-0.3,0.7-0.5,1.2-0.6c0.5-0.1,0.8-0.4,0.9-0.8c0.1-0.1,0.3-0.2,0.5-0.3
		c0.2,0,0.4,0,0.5,0c0.3,0,0.7,0,1,0.1c0.3,0,0.7,0.1,1.1,0.1c0-0.2,0.6-0.3,1.8-0.4c1.2-0.1,2.6-0.2,4.2-0.3
		c1.6-0.1,3.2-0.2,4.8-0.3c1.6-0.1,2.8-0.3,3.5-0.5c0.5,0,1.2,0,2,0.1c0.8,0,1.5,0.2,2,0.4c0,0,0.2,0.1,0.4,0.3
		c0.2,0.2,0.4,0.4,0.6,0.6c0.2,0.2,0.5,0.5,0.8,0.9c0,0.1-0.1,0.2-0.4,0.4c-0.2,0.2-0.4,0.3-0.5,0.5c-0.1,0.1-0.2,0.4-0.2,0.7
		c0,0.3,0,0.5,0,0.6c0.1,0,0.2,0.1,0.3,0.1c0.1,0,0.2,0,0.3,0.1c-0.2,0.1-0.3,0.3-0.4,0.6c-0.1,0.3-0.1,0.5-0.1,0.6
		c-0.2,0-0.5,0.1-0.7,0.2c-0.2,0.1-0.3,0.3-0.3,0.6c0,0.2,0.2,0.4,0.5,0.6c0.3,0.2,0.5,0.3,0.6,0.4h-2.1c0,0,0,0.1,0,0.2
		c0,0.1,0,0.2,0,0.3h0.4c-0.1,0.2-0.4,0.4-0.9,0.6c-0.5,0.1-0.8,0.3-0.8,0.5c0,0.3,0.1,0.5,0.2,0.6c-0.1,0.1-0.5,0.2-1,0.4
		s-0.8,0.2-1,0.3c-0.3,0.1-0.4,0.2-0.4,0.4c0,0.3,0,0.8,0,1.7c0,0.8,0,1.8,0,2.9c0,1.1,0,2.3,0,3.6c0,1.3,0,2.5,0,3.6
		c0,1.2,0,2.2,0,3.1c0,0.9,0,1.6,0.1,1.9c0,0.4,0,0.9,0.1,1.3c0,0.4,0.1,0.9,0.1,1.3c0,0.6,0,1.1-0.1,1.7c0,0.6-0.1,1.1-0.1,1.7
		c0,0.2,0,0.4,0.1,0.5v9.4c0,0.7,0.1,1.6,0.2,2.7c0.1,1.1,0.2,1.8,0.2,2.4c0,0.3,0,0.4-0.1,0.4c-0.1,0-0.2-0.1-0.4-0.4
		c-0.1-0.5-0.2-0.9-0.4-1.3c-0.2-0.4-0.3-0.8-0.3-1.4c-0.1-0.1-0.2-0.2-0.4-0.3c-0.2,0-0.3-0.1-0.5-0.1h-0.3c0,0.2,0,0.6,0.1,1.1
		c0,0.6,0.1,0.9,0.1,1c0,0,0,0.2-0.1,0.4c0,0.2-0.1,0.5-0.1,0.7c0,0.3-0.1,0.5-0.2,0.7c-0.1,0.2-0.1,0.3-0.1,0.4c0,0,0,0.1,0,0.1
		c0,0,0,0.1,0,0.2c0,0.3-0.1,0.9-0.3,1.6c-0.1,0.7-0.4,1.6-0.8,2.4c-0.4,0.9-0.8,1.8-1.4,2.7c-0.6,0.9-1.4,1.7-2.3,2.3v-0.6
		c0,0-0.1-0.2-0.2-0.4c0-0.1-0.1-0.2-0.1-0.2h-0.3l-0.4,0.9c-0.2,0-0.4-0.2-0.4-0.6c0-0.5,0-1,0-1.5c0-0.5,0-1,0-1.4
		c0-0.6-0.1-0.9-0.2-0.9c0,0-0.1,0.1-0.1,0.1v0.2c0,0,0,0.2,0,0.4c0,0.2,0,0.4-0.1,0.7c0,0.2,0,0.5,0,0.7s0,0.3,0,0.4
		c0,0.1,0,0.3-0.1,0.6c0,0.2-0.1,0.5-0.2,0.8c-0.1,0.3-0.2,0.5-0.4,0.7c-0.2,0.2-0.3,0.3-0.5,0.3v-0.3c0-0.5-0.1-0.7-0.4-0.7
		L18,149.1z"/>
	<path fill="#FFFFFF" d="M37.8,145.2c0-0.1,0-0.2,0-0.3c0-0.1,0-0.2,0-0.3c0-0.1,0-0.4,0-0.9c0-0.5,0.1-1,0.1-1.5
		c0-0.6,0.1-1.1,0.1-1.5c0-0.5,0-0.8,0-0.9c0-0.4,0-0.8-0.1-1.2c-0.1-0.4-0.1-0.8-0.1-1.2c0-0.2,0-0.4,0-0.6c0-0.2,0.1-0.4,0.2-0.6
		v-4.9c0-0.1,0-0.5,0-1c0-0.6-0.1-1.1-0.1-1.7c0-0.6-0.1-1.2-0.1-1.7c0-0.5,0-0.9,0-1v-1.2c0-0.4-0.1-0.8-0.3-1.2V115
		c0,0-0.1-0.1-0.1-0.2c0-0.1-0.1-0.2-0.1-0.3l0.1-0.2c0-1.4,0-2.8-0.1-4.1c-0.1-1.3-0.1-2.7-0.1-4.1v-2.9c0.1-0.2,0.1-0.4,0.1-0.6
		v-0.3c0,0,0-0.2,0-0.4c0-0.2,0.1-0.5,0.1-0.8c0-0.3,0.1-0.5,0.1-0.7c0-0.2,0.1-0.4,0.1-0.5c0.1-0.7,0.3-1.4,0.5-2.2
		c0.3-0.7,0.4-1.5,0.4-2.3c0.2-0.2,0.4-0.4,0.6-0.6c0.2-0.1,0.4-0.3,0.7-0.6c0.4-0.3,0.8-0.5,1.1-0.7c0.2-0.2,0.5-0.4,0.7-0.5
		c0.2-0.1,0.3-0.2,0.4-0.2h0.8c0.4,0,0.8-0.1,1.3-0.4c0.5-0.2,0.9-0.4,1.3-0.4c0.3,0,0.6,0.2,0.7,0.6c0,0.4,0.1,0.9,0.1,1.3
		c0,0.5,0,0.9,0,1.4c0,0.3,0,0.6,0,0.9c0,0.3,0,0.6,0,1c0.1,0.1,0.1,0.2,0.1,0.4c0,0.2,0.1,0.5,0.1,1c0,0.5,0.1,0.8,0.1,0.9
		c0,0.2,0.1,0.9,0.1,1.9c0,1,0,2.4,0,4.2c0.1,0.1,0.1,0.2,0.1,0.4c0,0.2,0,0.3,0,0.5v0.9c0,0.2,0.1,0.6,0.2,1.4
		c0.1,0.7,0.1,1.5,0.2,2.3c0.1,0.8,0.2,1.6,0.3,2.3c0.1,0.7,0.2,1.1,0.3,1.1c0.1,0,0.6,0,1.7-0.1c1-0.1,2.1-0.1,3.2-0.2
		c1.2-0.1,2.7-0.2,4.6-0.4c0.1,0,0.1-0.1,0.1-0.3c0-0.9,0-1.9-0.1-2.8c-0.1-1-0.2-2.1-0.3-3.2h0.1c0,0,0.1,0,0.1,0.1
		c0.1,0.1,0.2,0.5,0.3,1c0.1,0.5,0.2,1.1,0.3,1.7c0.1,0.6,0.1,1.2,0.2,1.8c0,0.6,0.1,0.9,0.1,1c0,0.2,0,0.4-0.1,0.4
		c-0.1,0-0.2,0.1-0.3,0.3h0.4c0.2,0,0.4,0,0.8,0c0.3,0,0.5-0.2,0.5-0.4c0-0.1-0.1-0.2-0.2-0.4c-0.1-0.2-0.2-0.3-0.2-0.5
		c0-0.2,0-0.3,0.1-0.4c0,0,0.1-0.2,0.1-0.5c0-0.1,0-0.3-0.1-0.4l-0.4-3c0-0.4-0.1-0.8-0.2-1.2c-0.1-0.4-0.1-0.8-0.1-1.2
		c0-0.1,0-0.3,0.1-0.4c0-0.1,0.1-0.3,0.1-0.6c0,0,0-0.1-0.1-0.1c-0.1,0-0.1-0.1-0.1-0.1v-0.4c0,0,0-0.3,0-0.6c0-0.4,0-0.6,0-0.7
		c-0.1-0.2-0.2-0.6-0.2-1.2c0-0.5,0-1,0.1-1.7c0.1-0.6,0.2-1.2,0.3-1.8c0.1-0.6,0.2-1.2,0.3-1.7c0.1-0.5,0.1-0.9,0.1-1.2
		c0,0,0-0.1,0-0.2c0-0.1,0-0.1,0-0.2L58.6,95v-0.9c0.1,0,0.1,0,0.1-0.1l-0.1-0.3c0-0.1,0.1-0.2,0.3-0.3c0.2-0.1,0.6-0.2,1.1-0.4
		c0.5-0.2,1.2-0.4,2.1-0.7c0.9-0.3,2-0.7,3.4-1.3c0.4,0,0.8,0.1,1.1,0.4s0.5,0.6,0.6,1c0.1,0.4,0.3,0.8,0.3,1.2
		c0.1,0.4,0.1,0.7,0.1,1c0,2.3,0.2,4.5,0.7,6.7c0.5,2.2,0.7,4.4,0.7,6.6c0,0.1-0.1,0.2-0.3,0.3c-0.2,0.1-0.3,0.2-0.3,0.5
		c0,0.2,0,0.5,0.1,0.7c0.1,0.2,0.1,0.5,0.1,0.8v0.5c-0.2,0.1-0.3,0.3-0.3,0.6c0,0.2,0.1,0.4,0.3,0.6c0.2,0.2,0.3,0.4,0.3,0.6
		c0,0.1,0,0.3-0.1,0.4c0,0.1-0.1,0.2-0.1,0.4c0,0,0,0.1,0.1,0.1c0,0,0.1,0.1,0.1,0.2c0,0.1,0,0.2-0.1,0.3c0,0,0,0.1,0.1,0.3
		c0.1,0.1,0.1,0.2,0.2,0.3l0.1,3.2c0,0,0,0.1-0.1,0.1c0,0-0.1,0.1-0.1,0.1v2.3c0,0.1,0,0.3,0.1,0.7c0,0.4,0.1,0.6,0.1,0.7
		c0,2.2-0.1,4.4-0.4,6.6c-0.3,2.3-0.4,4.5-0.4,6.6v1c0,0,0,0.2-0.1,0.5c0,0.3-0.1,0.5-0.1,0.6c0,0.1-0.1,0.2-0.1,0.4
		c0,0.1,0,0.2-0.1,0.2h-0.4v1.8l-0.3-0.1c0,0.2-0.1,0.4-0.1,0.6c0,0.2-0.2,0.4-0.3,0.8c-0.2,0.3-0.4,0.7-0.8,1.2
		c-0.3,0.5-0.8,1.1-1.4,1.8c-0.6,0-1.4-0.2-2.4-0.6c-1-0.4-2.3-1.1-3.8-2.1c-0.2-0.1-0.3-0.5-0.4-1c-0.1-0.5-0.1-1.2-0.1-2
		c0-0.9,0-1.9,0.1-3c0.1-1.1,0.2-2.1,0.3-3.2c0.1-1.1,0.2-2,0.3-2.9c0.1-0.9,0.2-1.5,0.2-1.9c0-0.1,0-0.2,0-0.3c0-0.1,0-0.2,0-0.3
		v-0.2c0,0,0-0.1,0-0.1c0,0,0-0.1,0-0.1l0.1-0.1c0,0,0-0.1,0-0.1c0,0,0,0,0-0.1c0-0.2,0-0.4-0.1-0.5c0-0.2-0.2-0.3-0.4-0.3
		c-0.3,0.4-0.5,0.8-0.5,1.4c0,0.5-0.1,1.1-0.1,1.6c0,0.5,0,1-0.1,1.5c-0.1,0.5-0.1,1-0.2,1.5l-0.6,7.5l-0.1-1.1c0-1.9,0-3.8,0-5.7
		c0-1.9,0.1-3.8,0.2-5.7c0,0,0-0.2,0.1-0.4c0-0.2,0.1-0.3,0.1-0.4c0-0.1,0-0.4,0.1-0.8c0-0.4,0.1-0.6,0.1-0.6c0-0.1,0-0.2-0.1-0.3
		c0-0.1-0.1-0.2-0.1-0.2h-0.4c-1.2,0.1-2.3,0.2-3.5,0.2c-1.2,0-2.3,0-3.5,0.1c0,0-0.2,0-0.6,0c-0.3,0-0.6,0-0.6,0l-1,0.1l0.1,1.3
		v2.8c0,1,0,2,0,3.1c0,1,0,2,0,3c0,0.2,0,0.4,0.1,0.6c0,0.1,0.1,0.3,0.1,0.4v0.4l-0.1,0.5c0,0,0,0.2,0.1,0.5c0,0.3,0.1,0.5,0.1,0.5
		c0,0.9,0,1.4,0,1.6c0,0.1,0,0.2,0,0.3c-0.2,1.9-0.5,3.2-0.7,3.9c-0.2,0.7-0.6,1.2-1.3,1.4c-0.6,0.2-1.6,0.4-2.9,0.5
		c-1.3,0.1-3.1,0.5-5.5,1.1c-0.1-0.1-0.1-0.2-0.1-0.3C37.8,145.5,37.8,145.3,37.8,145.2z M57.3,107.6c-0.1-1.7-0.2-3.7-0.2-6
		c0-0.5,0-1.1,0-1.7c0-0.6,0-1.2,0.1-1.8v-0.9c0,0,0-0.2,0.1-0.5c0.1-0.3,0.1-0.5,0.1-0.6c0-0.2,0.1-0.5,0.1-0.8
		c0-0.4,0.2-0.5,0.6-0.5h0.1c0,0,0,0.1-0.1,0.3c0,0.1-0.1,0.2-0.1,0.3l-0.9,8.2c0,0.1,0,0.3,0,0.6c0,0.3,0,0.5,0,0.6
		c0.1,0.2,0.2,0.5,0.2,0.9c0,0.3,0,0.6,0,0.9v0.4l-0.1,0.2l0.1,0.2L57.3,107.6z"/>
	<path fill="#FFFFFF" d="M110.5,131.6c-0.1,0.2-0.2,0.4-0.4,0.6c-0.2,0.1-0.3,0.3-0.4,0.5c-0.1,0.1-0.3,0.3-0.5,0.6
		c-0.2,0.3-0.4,0.5-0.7,0.8c-0.2,0.3-0.4,0.6-0.6,0.9c-0.2,0.3-0.3,0.5-0.3,0.6c0,0.2-0.1,0.4-0.4,0.5c-0.3,0.2-0.4,0.3-0.5,0.5
		c-0.2,0.2-0.5,0.5-0.8,0.7c-0.3,0.2-0.5,0.5-0.8,0.7c-0.2,0.4-0.5,0.7-0.9,0.9c-0.4,0.2-0.7,0.5-1,0.9l-2.1,1.7
		c-0.4,0.2-0.6,0.3-0.7,0.3c-0.1,0-0.2,0-0.3,0l-0.2,0.2c0,0.1-0.1,0.2-0.2,0.2c0,0-0.2,0.1-0.5,0.1c-0.3,0-0.4,0.1-0.5,0.1
		c-0.2,0.1-0.4,0.2-0.6,0.4c-0.2,0.1-0.3,0.3-0.5,0.4c-1.5,0.7-3,1.2-4.5,1.7c-1.5,0.5-3.1,0.7-4.8,0.7c-1,0-2-0.2-3.1-0.5
		c-1-0.3-2-0.7-3-1.3c-1-0.5-1.8-1.2-2.6-1.9c-0.8-0.7-1.5-1.5-2.1-2.3c-0.8-1.1-1.4-2.2-1.9-3.2c-0.5-1-1-2.1-1.3-3.1
		c-0.4-1.1-0.6-2.2-0.8-3.3c-0.2-1.2-0.3-2.4-0.3-3.7v-1.7c0-0.1,0-0.4,0-0.8c0-0.5,0.1-0.9,0.1-1.4c0-0.5,0.1-1,0.1-1.4
		c0-0.4,0.1-0.7,0.1-0.9V120c0-0.1,0-0.3,0-0.7c0-0.4,0-0.8,0.1-1.2c0-0.4,0-0.8,0.1-1.2c0-0.4,0-0.6,0-0.7c0-0.3,0.1-0.6,0.1-0.9
		c0-0.3,0.1-0.6,0.1-0.9v-0.3l3.2-11.6c0-0.1,0.2-0.5,0.3-0.9c0.2-0.5,0.3-0.8,0.4-0.9c0,0,0.1-0.2,0.3-0.3c0.2-0.2,0.3-0.3,0.3-0.3
		l0.6-1.3c0,0,0.2-0.2,0.4-0.3c0.2-0.2,0.3-0.3,0.4-0.4c0,0,0.1-0.3,0.1-0.8c0.2-0.1,0.5-0.1,0.6-0.1c0.2,0,0.3-0.1,0.4-0.3
		c0.4,0.1,0.7,0.4,0.9,0.7c0.2,0.3,0.5,0.6,0.8,0.9c0.1,0.2,0.5,0.6,1,1.1c0.6,0.6,0.9,0.9,1.1,1.1c0.1,0.3,0.2,0.6,0.4,0.8
		c0.2,0.2,0.4,0.4,0.5,0.7c0.1,0.3,0.3,0.6,0.3,0.9c0.1,0.3,0.2,0.6,0.3,0.9c0.1,0.3,0.2,0.6,0.4,0.9s0.3,0.6,0.4,0.9v1.2
		c0,0.9-0.1,1.7-0.4,2.4c-0.3,0.8-0.5,1.6-0.8,2.4c-0.2,0.8-0.4,1.6-0.5,2.3c-0.1,0.7-0.2,1.5-0.4,2.3c-0.1,0.7-0.2,1.2-0.3,1.7
		c-0.1,0.5-0.1,1-0.1,1.7c0,0,0,0.2,0,0.3c0,0.2,0,0.3,0,0.5c0,0.2,0,0.4,0.1,0.6c0,0.2,0,0.3,0,0.4c0,0.1,0,0.3-0.1,0.5
		c0,0.2-0.1,0.4-0.2,0.5c0,0.4-0.1,0.7-0.1,1.1c0,0.3,0,0.7,0,1.1c0,0.3,0,0.6,0,0.8c0,0.2,0,0.5,0,0.8c0,0.1,0,0.3-0.1,0.4
		c-0.1,0.1-0.1,0.2-0.1,0.4c0,0.3,0,0.6,0.1,0.6c0.1,0.1,0.2,0.3,0.3,0.6c0,0.1,0.1,0.3,0,0.5c0,0.2,0,0.4,0.1,0.5
		c0,0.2,0.2,0.4,0.4,0.7c0.2,0.3,0.4,0.6,0.7,0.9c0.2,0.3,0.5,0.6,0.8,0.8c0.3,0.2,0.5,0.4,0.7,0.5c0.2,0.1,0.3,0.2,0.4,0.2
		c0.1,0,0.2,0.1,0.3,0.3c0.1,0,0.5,0.2,1,0.3c0.5,0.2,0.9,0.3,1.1,0.3c0,0.1,0.1,0.1,0.2,0.1c0.1,0,0.3,0.1,0.6,0.2l0.4,0.1
		c0.1,0,0.3,0,0.5-0.1c0.3,0,0.4-0.1,0.5-0.1c0.9,0,1.6-0.2,2.2-0.5c0.6-0.3,1.3-0.5,2.1-0.8c0.2-0.1,0.5-0.3,0.9-0.5
		c0.4-0.2,0.7-0.4,0.9-0.5l2.7-2.4c0.7-0.6,1.2-1.2,1.6-1.8c0.4-0.6,0.6-1.3,0.7-2.3c0-0.2,0.1-0.9,0.1-2.1c0-1.1,0-3.1,0.1-5.9
		c0-1.6-0.2-3.1-0.5-4.7c-0.3-1.5-0.8-3-1.4-4.5l-1.2-3.2c-0.1-0.3-0.3-0.6-0.6-0.9c-0.2-0.3-0.4-0.7-0.5-1.1c0-0.2,0-0.4,0.1-0.6
		c0-0.2,0.1-0.4,0.1-0.7c0-0.1,0-0.3,0-0.5c0-0.2,0-0.4,0-0.5c0-0.5,0.2-0.9,0.6-1.2c0.4-0.2,0.7-0.5,0.8-0.7c0,0,0-0.2,0-0.4
		c0-0.2,0.1-0.3,0.1-0.4c0-0.1,0.1-0.2,0.2-0.3c0.1-0.1,0.2-0.2,0.3-0.3c0.1-0.2,0.3-0.6,0.4-1c0.1-0.5,0.3-0.8,0.5-1
		c0-0.1,0-0.1,0.1-0.1c0.1,0,0.2,0,0.2-0.1h0.6c1.5,0,2.8,0.4,3.8,1.2c1.1,0.8,1.9,1.8,2.5,3.1c0.1,0.1,0.2,0.3,0.3,0.4
		c0.1,0.1,0.2,0.3,0.3,0.6c0,0.1,0.1,0.2,0.3,0.3c0.1,0.3,0.3,0.7,0.5,1.4c0.2,0.6,0.5,1.3,0.7,1.9c0.3,0.7,0.5,1.3,0.8,1.8
		c0.3,0.6,0.6,0.9,0.8,1l0.7,2.2l0.6,4.5v1.1c0,0,0,0.1,0.1,0.3c0,0.1,0.1,0.2,0.1,0.3c0,0.1,0,0.3-0.1,0.4l-0.2,8
		c0,0,0,0.2-0.1,0.5c-0.1,0.3-0.1,0.5-0.1,0.5c0,0.1,0,0.3-0.1,0.6c0,0.3-0.1,0.6-0.1,0.9c0,0.3-0.1,0.6-0.2,0.8
		c-0.1,0.2-0.2,0.3-0.3,0.3L110.5,131.6z"/>
	<path fill="#FFFFFF" d="M137,87.8c2,0,3.7,0.3,5.2,0.8c1.5,0.5,2.8,1,3.9,1.6c1.1,0.6,1.9,1.1,2.4,1.6c0.6,0.5,0.9,0.8,1,1
		c0.8,1,1.5,2.1,2.1,3.1c0.6,1.1,0.9,2.3,0.9,3.6c0,0.2,0,0.5,0,0.7c0,0.2-0.1,0.5-0.1,0.7c0,0.1,0,0.2,0,0.4c0,0.1-0.1,0.3-0.2,0.4
		l0.1,0.4c0,0.5-0.1,1.1-0.4,1.8c-0.3,0.7-0.6,1.2-0.9,1.6c-0.1,0.1-0.2,0.3-0.3,0.3c-0.1,0.1-0.2,0.2-0.3,0.3
		c-0.1,0.2-0.2,0.4-0.3,0.5c0,0.1-0.1,0.3-0.2,0.6v0.3c-0.4,1.8-0.9,3.5-1.7,5c-0.7,1.5-1.5,2.8-2.4,4c-0.9,1.2-1.8,2.2-2.8,3.2
		c-1,1-1.9,1.8-2.7,2.5c0.4,0.3,0.7,0.6,1.1,0.9c0.2,0.2,0.4,0.4,0.7,0.6c0.1,0.1,0.3,0.2,0.4,0.3c0.2,0.3,0.6,0.7,1.2,1.2
		c0.6,0.4,1,0.7,1.4,0.9l5.8,5.5c0.3,0.1,0.5,0.3,0.7,0.5c0.2,0.2,0.4,0.4,0.6,0.7c0.5,0.5,1,0.9,1.5,1.3c0.5,0.4,1,0.8,1.5,1.3
		l0.3,0.2l0.2,0.8c0.3,0.3,0.7,0.7,1,1c0.3,0.4,0.6,0.8,0.9,1.3c0,0.2,0,0.3-0.1,0.5c-0.1,0.1-0.1,0.2-0.1,0.3
		c0,0.3,0.1,0.5,0.3,0.6c0.2,0.1,0.3,0.3,0.3,0.5c-0.2,0-0.5-0.2-0.7-0.5c-0.2-0.3-0.4-0.5-0.7-0.5c-0.1,0-0.2,0.1-0.3,0.4
		c-0.1,0.2-0.1,0.4-0.1,0.4c-0.1,0.1-0.2,0.3-0.4,0.4c-0.2,0.1-0.3,0.3-0.3,0.5h-0.9c-0.2,0-0.4,0.2-0.4,0.7c0,0.5-0.2,0.7-0.4,0.7
		c-0.1,0-0.2,0-0.3-0.1c-0.1,0-0.2-0.1-0.3-0.1c-0.2,0-0.4,0-0.5,0.1c-0.1,0-0.3,0.1-0.5,0.1c-0.4,0-0.8-0.1-1.1-0.4
		c-0.4-0.2-0.7-0.5-0.9-0.6h-0.3c-0.3,0-0.4,0.2-0.4,0.5c0,0.2,0.1,0.4,0.4,0.5c0.3,0.1,0.4,0.3,0.4,0.5c-0.8,0-1.5-0.2-2.2-0.5
		c-0.6-0.3-1.2-0.7-1.7-1.2c-0.5-0.5-1-1-1.5-1.5s-1-1-1.6-1.4c-0.2-0.2-0.4-0.4-0.4-0.6c0-0.2-0.2-0.3-0.5-0.4l-2.2-2.2
		c-0.2-0.1-0.4-0.3-0.7-0.5c-0.3-0.3-0.5-0.5-0.7-0.7l-5.4-4.6c-0.3-0.2-0.6-0.4-0.8-0.6c-0.2-0.2-0.4-0.3-0.8-0.3
		c0,0.6,0.1,1.1,0.2,1.6c0.1,0.5,0.3,1,0.4,1.6c0.4,1.8,0.8,3.6,1.1,5.5c0.1,0.3,0.2,0.6,0.4,0.9c0.1,0.3,0.2,0.7,0.2,1
		c0,0.2-0.1,0.4-0.2,0.6c-0.1,0.2-0.2,0.4-0.2,0.6c0,0,0,0.1,0.1,0.1c0,0,0.1,0.1,0.1,0.2c-0.2,0-0.4-0.1-0.4-0.3
		c0-0.2-0.1-0.3-0.2-0.5c-0.1-0.1-0.2-0.3-0.3-0.5c-0.1-0.2-0.2-0.4-0.3-0.5c0-0.1-0.1-0.2-0.3-0.2c-0.2,0-0.4,0.1-0.4,0.3
		c0,0.2,0,0.3-0.1,0.4c-0.1,0.1-0.3,0.2-0.4,0.3c-0.1,0-0.3,0.1-0.4,0.2s-0.3,0.2-0.4,0.3c-0.1,0.1-0.2,0.4-0.3,0.7c0,0,0,0.2,0,0.4
		c0,0.2,0,0.3,0,0.4c0,0.1,0,0.2-0.1,0.2c0,0-0.1,0-0.1,0c0,0-0.1,0-0.2,0v0.9h-0.6v1.4c-0.1-0.6-0.2-0.9-0.3-0.9l-0.1-0.1
		c-0.2,0-0.3,0.2-0.5,0.7c-0.1,0.5-0.2,0.8-0.2,0.9c-0.1,0-0.2,0-0.3-0.1c-0.1-0.1-0.2-0.1-0.3-0.1c-0.2,0-0.3,0.1-0.3,0.4
		c0,0.2-0.1,0.4-0.2,0.4c-0.1,0-0.3-0.1-0.3-0.2c-0.1-0.1-0.2-0.2-0.4-0.2c0,0-0.1,0-0.1,0.1c0,0.1-0.1,0.2-0.1,0.3l0.4,0.9
		c-0.1,0-0.3-0.3-0.6-1c-0.3-0.7-0.5-1.4-0.8-2.2c-0.3-0.8-0.6-1.6-0.8-2.4c-0.2-0.8-0.4-1.3-0.4-1.5c0-0.2-0.1-0.5-0.2-0.9
		c-0.1-0.4-0.2-0.9-0.4-1.3c-0.1-0.5-0.3-0.9-0.4-1.4c-0.1-0.4-0.2-0.7-0.3-0.9c0-0.1,0-0.3-0.1-0.8c-0.1-0.4-0.2-0.7-0.2-0.8
		c0.1-0.1,0.1-0.3,0.1-0.6c-0.1-1-0.3-1.9-0.4-2.8s-0.3-1.9-0.4-2.8c0-0.1,0-0.4-0.1-0.9c-0.1-0.5-0.1-0.9-0.1-1.1
		c-0.2-2-0.4-3.9-0.6-5.7c-0.2-1.8-0.3-3.7-0.4-5.7c-0.1-1-0.2-2-0.4-3c-0.1-1-0.2-2-0.2-3c0-0.7,0-1.3,0.1-2c0.1-0.7,0.1-1.3,0.1-2
		c0-0.1-0.1-0.2-0.2-0.4c-0.1-0.1-0.2-0.3-0.2-0.4c0-0.1,0-0.3,0.1-0.5c0.1-0.2,0.2-0.4,0.3-0.4v-1.8c0-0.6,0.1-1,0.2-1.3l0.1-0.1
		c0,0,0.1,0,0.1-0.1c0.2-0.2,0.3-0.4,0.3-0.4c0,0,0-0.2,0.1-0.5c0-0.1,0.2-0.4,0.5-0.7c0.3-0.3,0.5-0.6,0.8-1
		c0.3-0.3,0.6-0.6,0.8-0.9c0.2-0.3,0.4-0.4,0.5-0.3l0.1-0.1c0,0,0.1,0,0.1-0.1c0.1,0,0.2-0.1,0.3-0.2c0.1-0.1,0.2-0.2,0.3-0.3
		l0.3-0.3v-0.3c0.2,0,0.4-0.1,0.5-0.2c0.1-0.1,0.3-0.2,0.5-0.3c0.6-0.5,1.2-1,1.8-1.5c0.6-0.5,1.3-0.9,1.9-1.2c0,0.1,0,0.2,0,0.2
		c0,0,0,0.1,0,0.2l0.1,0.1h0.1l0.8-0.4c0,0,0.1-0.1,0.3-0.3c0.1-0.1,0.2-0.2,0.3-0.2c0.2-0.1,0.5-0.3,1-0.4c0.5-0.1,0.7-0.3,0.7-0.6
		c-0.4,0-0.9,0.2-1.4,0.5c-0.6,0.4-1.1,0.5-1.4,0.5c0.1-0.1,0.3-0.2,0.5-0.3c0.2-0.1,0.3-0.2,0.4-0.3l2.7-1c0.4-0.1,0.8-0.3,1.1-0.3
		c0.3-0.1,0.7-0.2,1.3-0.3c0,0.1,0.1,0.1,0.3,0.1c0.1,0,0.3,0,0.4-0.1H137z M131.8,115.4c0,0.1,0.1,0.1,0.2,0.1
		c0.3,0,0.8-0.2,1.3-0.5c0.5-0.3,1.1-0.7,1.7-1.2c0.6-0.5,1.1-0.9,1.6-1.4c0.5-0.5,0.8-0.8,1-1c0.1-0.1,0.3-0.3,0.3-0.5
		c0.1-0.2,0.2-0.3,0.3-0.5l0.2-0.3c0.4-0.5,0.9-1.1,1.3-1.8c0.5-0.6,0.8-1.3,1-1.9c0.3-0.6,0.6-1.1,0.8-1.6c0.2-0.5,0.3-1.1,0.3-1.7
		c0-0.1,0-0.3-0.1-0.6c0-0.3-0.1-0.4-0.2-0.5l-1.7-2.7c-0.1-0.1-0.2-0.2-0.4-0.3c-0.3-0.2-0.4-0.3-0.4-0.4c-0.4-0.8-1.2-1.3-2.3-1.7
		c-1.2-0.4-2.4-0.5-3.6-0.5c-1.3,0-2.5,0.2-3.6,0.6c-1,0.4-1.5,1-1.5,1.9c0,0.1,0,0.2,0,0.2c0,0,0,0.1,0,0.2l3.5,15.6
		C131.5,115,131.6,115.2,131.8,115.4z M129.2,91.1c-0.1,0.1-0.1,0.2-0.1,0.2v0.2c0.1,0,0.3,0,0.4-0.1L129.2,91.1z M137.2,89
		c0.7,0,1.6,0.1,2.6,0.4c1,0.3,1.8,0.5,2.5,0.8c0.2,0.1,0.3,0.2,0.4,0.2c0,0,0.2,0.1,0.4,0.1c0-0.1-0.1-0.2-0.4-0.4
		c-0.3-0.2-0.6-0.4-1-0.5c-0.4-0.2-0.7-0.3-1-0.5c-0.3-0.1-0.6-0.2-0.7-0.3c-0.2-0.1-0.5-0.1-0.8-0.1c-0.3,0-0.5,0-0.8-0.1h-2.9
		c0,0-0.2,0-0.6,0.1c-0.3,0.1-0.6,0.1-0.8,0.2c-0.3,0.1-0.7,0.2-1,0.4c-0.4,0.2-0.7,0.4-0.9,0.7l0.2,0.1c0.2,0,0.4,0,0.6-0.1
		c0.2-0.1,0.3-0.2,0.5-0.3c0.3-0.1,0.6-0.1,0.9-0.1c0.3,0,0.6,0,1-0.1c0.4-0.1,0.7-0.2,0.8-0.3C136.5,89,136.8,89,137.2,89z"/>
	<path fill="#FFFFFF" d="M172.1,148.3c-1.1-0.2-2.2-0.4-3.3-0.7c-1.1-0.3-2.2-0.6-3.2-1.1c-1-0.4-2-1-2.8-1.6
		c-0.9-0.6-1.6-1.5-2.1-2.4c-0.3-0.6-0.7-1.2-1-1.7c-0.4-0.6-0.5-1.2-0.5-1.9l0.1-0.1c0,0,0-0.1,0-0.1c0,0,0,0,0-0.1
		c0-0.1-0.1-0.2-0.2-0.2c-0.1,0-0.1-0.1-0.1-0.3c0-0.1,0-0.2,0.1-0.2c0,0,0.1-0.1,0.1-0.2c0,0,0-0.2-0.1-0.3c0-0.2-0.1-0.3-0.1-0.3
		c0,0,0-0.1,0.1-0.5c0-0.3,0-0.8,0.1-1.3c0.1-0.6,0.2-1.1,0.4-1.7c0.2-0.6,0.4-1.1,0.6-1.5c0.2-0.5,0.5-0.8,0.9-1
		c0-0.1,0.1-0.4,0.4-0.9c0.3-0.5,0.5-0.8,0.6-0.9c0.1-0.1,0.2-0.2,0.4-0.3c0.2,0,0.3-0.1,0.4-0.3c0.2-0.4,0.5-0.8,0.7-1.2
		c0.2-0.4,0.6-0.6,1.3-0.6h0.3l0.2,0.2c0,0,0,0.1,0.1,0.1c0,0.2,0.1,0.5,0.4,0.9c0.3,0.3,0.6,0.7,0.9,1c0.4,0.3,0.7,0.7,1.1,1
		c0.4,0.3,0.7,0.6,0.9,0.8c0.2,0.5,0.5,0.9,0.8,1.3c0.3,0.4,0.5,0.9,0.5,1.4c0,0.2,0,0.5-0.1,0.7c-0.1,0.2-0.1,0.5-0.1,0.8
		c0.2,0.4,0.5,0.8,0.9,1.2c0.3,0.4,0.8,0.7,1.3,0.8c0.1,0,0.3,0.1,0.6,0.2c0.3,0.1,0.5,0.2,0.8,0.3c0.3,0.1,0.6,0.1,0.8,0.2
		c0.2,0.1,0.4,0.1,0.4,0.1c0.1,0,0.3,0.1,0.6,0.1c0.2,0,0.5,0,0.7,0h1.2c0.9,0,1.8-0.1,2.7-0.3c0.9-0.2,1.8-0.5,2.7-0.8l1.6-0.6
		v-0.1c0,0,0-0.1,0-0.1c0,0,0-0.1,0-0.1c0-0.3-0.2-0.7-0.5-1.2c-0.4-0.5-0.8-0.9-1.3-1.4c-0.5-0.5-1-0.9-1.5-1.3
		c-0.5-0.4-0.8-0.7-1-1l-11.6-7.7l-0.3-0.1c0,0-0.2-0.1-0.4-0.2c-0.2-0.1-0.5-0.3-0.7-0.5c-0.3-0.2-0.5-0.4-0.8-0.6
		c-0.3-0.2-0.5-0.4-0.6-0.5c-1.5-1.1-2.7-2.3-3.5-3.8c-0.8-1.5-1.3-3-1.3-4.7c0-1.1,0.2-2.3,0.7-3.7c0.5-1.4,1.1-2.7,1.7-4.1
		c0.7-1.3,1.4-2.6,2.1-3.8c0.7-1.2,1.4-2.1,1.9-2.8c0.4-0.5,0.8-0.9,1.3-1.3c0.5-0.4,1-0.7,1.4-1.1c1.5-1,2.9-1.8,4.4-2.4
		c1.4-0.6,3-1,4.9-1c1.2,0,2.4,0.1,3.7,0.4c1.2,0.3,2.4,0.8,3.3,1.4c0.2,0.1,0.4,0.3,0.5,0.6c0.2,0.3,0.3,0.6,0.5,0.9
		c0.1,0.3,0.3,0.6,0.4,0.8c0.1,0.2,0.2,0.4,0.3,0.4c0.6,0.4,1.2,0.9,1.8,1.4c0.6,0.5,1.1,1.1,1.6,1.7c0.5,0.6,0.9,1.2,1.2,1.9
		c0.3,0.7,0.5,1.4,0.5,2.2c0,0.8,0,1.6-0.1,2.5c-0.1,0.9-0.2,1.8-0.5,2.6c-0.3,1-1,1.6-1.9,2.1c-0.9,0.4-1.8,0.8-2.8,1l-0.4,0.1
		c-0.7,0.1-1.4,0.3-2.1,0.6c-0.6,0.3-1.3,0.6-1.9,0.9c0,0.2,0,0.4-0.1,0.6c0,0.1-0.1,0.2-0.1,0.3c-0.5,0-0.9-0.3-1.2-0.8
		c-0.2-0.5-0.4-1-0.4-1.4c0,0,0-0.1,0.1-0.1c0,0,0-0.1,0-0.1c0,0,0-0.1,0-0.1c0-0.2,0-0.5-0.1-0.8c-0.1-0.3-0.1-0.6-0.1-0.8
		c-0.1-0.7-0.1-1.4-0.1-2.2c0-0.7,0-1.4-0.1-2.2v-1.2c0,0,0-0.2-0.1-0.4c-0.1-0.2-0.1-0.4-0.1-0.5c-0.1-0.3-0.2-0.6-0.2-0.8
		c0-0.2-0.2-0.4-0.6-0.5c-0.1,0-0.3-0.1-0.6-0.2c-0.3-0.1-0.6-0.1-0.9-0.1c-0.2,0-0.4,0.1-0.7,0.2s-0.6,0.3-0.9,0.5
		c-0.3,0.2-0.6,0.4-0.9,0.6c-0.3,0.2-0.6,0.3-0.8,0.4c-0.4,0.1-0.8,0.3-1.2,0.5c-0.4,0.2-0.8,0.4-1.2,0.6c0,0-0.1,0-0.1,0
		c0,0-0.1,0-0.1,0h-0.1c-1.2,0.5-1.7,1.3-1.7,2.4c0,0.3,0,0.6,0,0.8c0,0.2,0,0.5,0.1,0.9c0,0,0.2,0.2,0.5,0.7
		c0.3,0.5,0.4,0.7,0.5,0.8c0.1,0.3,0.7,0.8,1.6,1.5c0.9,0.6,1.9,1.3,3,1.9s2.1,1.2,2.9,1.7c0.9,0.5,1.3,0.7,1.4,0.7
		c0.4,0.2,0.7,0.5,0.9,0.6c0.2,0.2,0.5,0.4,0.8,0.6c0.3,0.2,0.7,0.4,1.1,0.5c0.4,0.1,0.8,0.3,1,0.5c0,0,0.1,0,0.1,0.1
		c0,0.1,0.1,0.2,0.1,0.2c0.3,0.3,0.6,0.6,0.9,0.8c0.3,0.2,0.7,0.5,1.1,0.8c0.1,0,0.2,0.1,0.4,0.2c0.2,0.1,0.3,0.2,0.5,0.4
		c0.2,0.2,0.4,0.4,0.6,0.5l2.3,2.1c0.3,0.4,0.7,0.7,1.2,1.1c0.5,0.3,0.9,0.7,1.2,1.1c0.6,0.6,0.9,1.3,1.1,1.9
		c0.2,0.7,0.4,1.4,0.6,2.1c0.2,0.5,0.4,1,0.5,1.5c0.2,0.5,0.3,1,0.3,1.5c0,0.3-0.1,0.8-0.4,1.5c-0.3,0.7-0.7,1.6-1.3,2.5
		c-0.6,1-1.4,2-2.3,3c-1,1.1-2.1,2-3.5,3c-0.4,0.4-0.9,0.7-1.4,0.8c-0.5,0.2-1,0.4-1.5,0.6c-0.2,0.1-0.4,0.2-0.5,0.3
		c-0.2,0.1-0.3,0.2-0.5,0.3c0,0,0,0.1-0.1,0.1c0,0-0.1,0-0.1,0.1c-0.4,0.1-0.8,0.3-1.2,0.5c-0.4,0.2-0.8,0.4-1.2,0.5
		c-0.4,0.2-0.7,0.3-1,0.3c-0.3,0-0.6,0-1,0.1c-0.1,0.1-0.3,0.2-0.6,0.3c-0.3,0.1-0.5,0.2-0.8,0.2c-0.2,0-0.5,0.1-0.8,0.1
		c-0.4,0-0.6,0.1-0.7,0.1h-0.4c-0.3,0-0.8,0-1.3,0c-0.5,0-0.9,0-1.1,0c-0.1,0-0.4-0.1-0.8-0.1C172.6,148.3,172.3,148.3,172.1,148.3z
		"/>
	<path fill="#FFFFFF" d="M199.4,143v-3c0.1-0.3,0.1-0.6,0.1-1c0-0.4,0-0.7,0.1-1.1c0-0.1,0-0.3,0.1-0.5c0.1-0.2,0.1-0.4,0.1-0.5
		l-0.1-0.2v-0.3c0-0.5,0-1,0.1-1.5c0.1-0.5,0.1-0.9,0.2-1.4c0-1,0.1-1.9,0.1-2.8c0-0.9,0.1-1.9,0.2-2.8c0.1-0.6,0.2-1.2,0.2-1.8
		c0-0.6,0.2-1.2,0.4-1.8c0,0-0.1,0-0.1-0.1v-0.1c0.1-0.4,0.2-0.9,0.2-1.5c0-0.6,0.1-1.1,0.3-1.4c0.5-1.4,0.7-2.9,0.8-4.4
		c0-1.5,0.2-3,0.4-4.6l-0.1-0.1V112v-1.7c0-0.1,0-0.2,0-0.2c0,0,0-0.1,0-0.2l-0.1-0.1v-0.1v-6.9c0-0.5,0.1-1.2,0.2-2.1
		c0.1-0.9,0.3-1.6,0.4-2.1c0.6-0.5,1.3-1.1,2.1-1.7c0.8-0.6,1.5-1.2,2.3-1.7c0.8-0.6,1.5-1.1,2.2-1.5c0.7-0.5,1.3-0.9,1.9-1.2
		c0.4,0,0.8,0.1,1.2,0.2c0.4,0.1,0.8,0.2,1.2,0.2c0.2,0.1,0.5,0.2,0.8,0.2c0.3,0,0.6,0.1,0.8,0.2c0.4,0.1,0.9,0.3,1.3,0.5
		c0.5,0.2,0.9,0.4,1.3,0.5c2.5,0.9,4.8,2.1,6.8,3.6c2.1,1.5,3.8,3.4,5.2,5.7c0.6,1,1,1.9,1.2,2.8c0.2,0.9,0.4,2,0.6,3.1
		c0.1,0.8,0.3,1.5,0.5,2.2c0.2,0.7,0.4,1.4,0.6,2.2c0.2,1.1,0.3,2.3,0.3,3.5c0,1.2,0,2.4,0.1,3.5c-0.1,0-0.2,0.3-0.3,0.8
		c0,0.5-0.1,1.1-0.1,1.8c-0.2,0.9-0.4,2-0.7,3.2c-0.3,1.2-0.6,2.3-1.1,3.2l-0.4,0.7c-0.4,0.7-0.8,1.5-1.3,2.4
		c-0.5,0.9-0.9,1.5-1.3,1.8c-0.5,0.5-1,1.1-1.3,1.7c-0.3,0.6-0.8,1.2-1.3,1.7l-4.3,3.7c-1.9,1.6-3.8,3.2-5.8,4.8c-2,1.6-4,2.7-6,3.5
		c-0.8,0.5-1.6,0.8-2.4,1c-0.8,0.2-1.6,0.3-2.4,0.3c-0.8,0-1.5-0.1-2.2-0.2c-0.7-0.1-1.4-0.3-1.9-0.5c-0.6-0.2-1-0.4-1.4-0.6
		c-0.4-0.2-0.6-0.3-0.7-0.4c0-0.2,0-0.4,0-0.6c0-0.2,0-0.3,0-0.4h-0.4c0.1-0.1,0.2-0.2,0.4-0.3c0.1,0,0.2-0.2,0.2-0.4
		c0,0-0.1,0-0.1,0c0,0-0.2,0-0.4,0L199.4,143z M200.5,141.4c0.2,1.5,0.4,2.3,0.5,2.3c0,0,0.1-0.2,0.1-0.5c0-0.3,0.1-0.7,0.1-1.2
		c0-0.5,0.1-0.9,0.1-1.3c0-0.4,0-0.8,0-1c0-0.2,0-0.4-0.1-0.5c0-0.1-0.1-0.3-0.1-0.5c0-0.3,0-0.7,0.1-1c0.1-0.3,0.2-0.7,0.2-1
		c0.1-0.7,0.1-1.3,0.1-2c0-0.6,0-1.3,0-2c0-0.7,0.1-1.4,0.2-2.1c0.1-0.7,0.1-1.4,0.1-2.1v-0.8c0.2-0.1,0.3-0.3,0.3-0.7v-0.4
		c0-0.1-0.2-0.1-0.4-0.1c-0.1,0-0.2,0.1-0.2,0.4c0,0.1-0.1,0.3-0.1,0.5c0,0.3-0.1,0.4-0.1,0.5v1.7c0,0.1-0.1,0.4-0.1,0.9
		c0,0.5-0.1,0.8-0.1,0.9v1.8l-0.2,0.4v3.7c-0.1,0.3-0.2,0.7-0.3,1.2c-0.1,0.5-0.1,0.9-0.1,1.3c0,0.1,0,0.2,0.1,0.3
		c0,0.1,0.1,0.2,0.1,0.3L200.5,141.4z M210.5,136c0,0.6,0,1.2-0.1,1.7c-0.1,0.5-0.1,1.1-0.1,1.7v0.8c0.3-0.2,0.7-0.4,1-0.6
		c0.3-0.2,0.6-0.4,0.9-0.6c0.2-0.1,0.5-0.3,0.7-0.8c0.2-0.4,0.5-0.6,0.8-0.6c0.1,0,0.2-0.1,0.4-0.3c0.1-0.2,0.3-0.4,0.4-0.5
		c0.2-0.5,0.6-0.9,1-1.2c0.4-0.3,0.8-0.6,1-1c0.9-1.2,1.7-2.4,2.5-3.6c0.8-1.2,1.5-2.6,2-4l1.4-4.8c0.2-1,0.3-1.8,0.4-2.6
		c0.1-0.8,0.1-1.7,0.1-2.8c0-0.8,0-1.7-0.1-2.7c-0.1-1-0.3-1.9-0.6-2.6c-0.6-1.2-1.4-2.4-2.3-3.5c-1-1.1-2-2-3.1-2.8
		c-0.7-0.5-1.4-0.9-2.1-1.3c-0.7-0.4-1.5-0.7-2.3-0.9c0.2,0.8,0.3,1.6,0.4,2.6c0.1,1,0.1,2,0.1,3.1c0,2.1-0.1,4.4-0.3,6.9
		c-0.2,2.5-0.5,5-0.7,7.4c-0.3,2.4-0.5,4.8-0.8,6.9c-0.2,2.2-0.4,4-0.4,5.5V136z M230.6,107.9c0.2,0,0.4,0.3,0.5,0.8
		c0.2,0.5,0.3,0.8,0.5,0.8c0-0.2,0-0.6-0.1-1.1c-0.1-0.5-0.2-1.1-0.4-1.7c-0.2-0.6-0.4-1.1-0.6-1.5c-0.3-0.5-0.5-0.7-0.8-0.7
		c0,0-0.1,0-0.2,0.1c-0.1,0.1-0.1,0.2-0.1,0.2c-0.2-0.1-0.4-0.4-0.5-0.7c-0.1-0.3-0.3-0.6-0.4-0.8c-0.5-0.8-1.2-1.6-2.1-2.6
		c-0.9-1-1.7-1.7-2.4-2.2c-0.4-0.2-0.8-0.5-1.2-0.7c-0.4-0.2-0.8-0.4-1.2-0.7l-0.3-0.4c-0.2-0.1-0.5-0.2-0.9-0.3
		c-0.4,0-0.7-0.1-0.9-0.3c-0.3-0.1-0.5-0.3-0.7-0.4c-0.2-0.1-0.4-0.3-0.7-0.4c-0.5-0.2-1.1-0.4-1.8-0.5c-0.7-0.1-1.7-0.3-3.1-0.6
		c-0.1,0.1-0.3,0.2-0.4,0.3l-0.1,0.1c0,0.2,0.1,0.3,0.4,0.4c0.3,0.1,0.4,0.1,0.5,0.1c0.4,0,0.8,0,1.2,0.1c0.4,0.1,0.9,0.1,1.3,0.1
		c0,0.1,0,0.2-0.1,0.3c0,0.4,0.3,0.7,0.8,0.8c0.6,0.1,1,0.3,1.3,0.4c0.6,0.3,1.2,0.6,1.7,0.9s1.2,0.6,1.7,0.9
		c1.3,0.7,2.5,1.5,3.5,2.6c1,1.1,2,2.2,2.8,3.3l0.1,0.2c0.2,0.2,0.4,0.3,0.6,0.5c0.2,0.1,0.3,0.3,0.5,0.5L230.6,107.9z"/>
	<path fill="#FFFFFF" d="M265.5,142.9c-0.1-0.1-0.3-0.2-0.6-0.4c-0.3-0.1-0.6-0.3-0.8-0.4h-0.3l-0.1-0.3c-0.1-0.2-0.2-0.4-0.4-0.5
		c-0.2-0.1-0.3-0.3-0.3-0.5l-0.6-2.2c0-0.2,0-0.4-0.1-0.4c-0.2-1.3-0.4-2.7-0.5-4c-0.1-1.3-0.2-2.7-0.4-4c0-0.1,0-0.3,0-0.6
		c0-0.3-0.1-0.6-0.1-0.9c0-0.3-0.1-0.6-0.1-0.9c0-0.3,0-0.4,0-0.5v-0.4c-0.1,0-0.2,0-0.3,0c-0.1,0-0.2,0-0.3,0l-0.3,0.1
		c-0.1,0-0.4,0-0.9,0c-0.5,0-0.8,0-0.9,0h-0.3c-0.4,0-0.6,0.1-0.8,0.3c-0.1,0.2-0.4,0.3-0.8,0.4c-0.3,0-0.6,0.1-0.8,0.1
		c-0.3,0-0.5,0-0.8,0h-1.7c-1.2,0-2.2,0.1-3.2,0.2c-0.4,1-0.8,1.9-1.2,2.7c-0.4,0.8-0.8,1.7-1.2,2.6c-0.2,1.4-0.6,2.6-1.2,3.4
		c-0.5,0.8-1.1,1.5-1.8,1.9c-0.7,0.4-1.4,0.7-2.2,0.9c-0.7,0.1-1.5,0.2-2.1,0.2c-0.2,0-0.5,0-0.6,0c-0.2,0-0.4,0-0.5,0h-0.9
		c-0.6,0-0.9,0.1-0.9,0.3c0-0.1-0.1-0.2-0.4-0.3c0-0.2-0.1-0.3-0.3-0.3c-0.2,0-0.3,0.1-0.4,0.3c-0.1-0.1-0.3-0.3-0.5-0.3
		c-0.2-0.1-0.4-0.1-0.6-0.2l-0.1-0.2c0-0.2-0.1-0.6-0.2-0.9l-0.3,0.3c0-1,0.1-2,0.3-3.1c0.2-1,0.5-2,0.9-3l8.3-21.1l0.1-0.2l1-2.8
		c0.2-0.2,0.3-0.5,0.4-0.8c0-0.3,0.1-0.6,0.2-0.8l1.7-4.2c0.2-0.2,0.4-0.5,0.4-0.8c0-0.3,0.2-0.6,0.4-0.9c0.1-0.2,0.3-0.4,0.5-0.6
		c0.2-0.2,0.5-0.6,0.9-0.9c0.4-0.4,0.9-0.9,1.6-1.4c0.6-0.6,1.5-1.3,2.6-2.2c0.2-0.2,0.5-0.4,1-0.5c0.5-0.1,0.9-0.2,1.5-0.2
		c0.2,0,0.5,0,0.9,0c0.4,0,0.8,0.1,1.2,0.1c0.4,0.1,0.7,0.2,1,0.3c0.3,0.1,0.5,0.3,0.5,0.5c0.1,0,0.2,0,0.2,0.1
		c0,0.1,0.1,0.1,0.4,0.1c1.2,0.3,2.2,1,3,2.1c0.2,0,0.4,0.5,0.7,1.2c0.3,0.8,0.5,1.6,0.8,2.6c0.3,0.9,0.5,1.8,0.8,2.6
		c0.2,0.8,0.4,1.2,0.6,1.3v0.4c0,0.1,0,0.2,0,0.4c0,0.2,0.1,0.3,0.1,0.3c0,0.6,0.2,1.2,0.4,1.9c0.2,0.6,0.5,1.2,0.8,1.9
		c0.3,0.6,0.5,1.2,0.7,1.8c0.2,0.6,0.3,1.2,0.3,1.8c0,0.1,0,0.2,0.1,0.3c0,0.1,0.1,0.2,0.1,0.3c0,0.2,0.1,0.5,0.3,0.9
		c0.1,0.4,0.2,0.8,0.3,1.2c0.1,0.4,0.2,0.9,0.3,1.3c0.1,0.4,0.1,0.7,0.1,1l1.2,6.3v0.4c0,0.7,0.1,1.4,0.2,2.1
		c0.1,0.7,0.3,1.4,0.4,2.1l0.1,4c0,0.1,0,0.5-0.1,1.3c-0.1,0.8-0.3,1.7-0.8,2.7c-0.4,1-1.1,2-2,3
		C268.3,141.8,267.1,142.5,265.5,142.9z M256.5,109.2c-0.2,0.7-0.4,1.3-0.6,1.9c-0.2,0.6-0.4,1.2-0.6,1.8c-0.2,0.9-0.5,1.7-0.7,2.6
		c-0.2,0.9-0.5,1.8-0.8,2.6c-0.2,0.5-0.4,1-0.6,1.4c-0.2,0.5-0.4,1-0.4,1.5c0.8,0,1.6-0.1,2.4-0.2c0.8-0.1,1.6-0.2,2.4-0.2h0.4
		c0.1,0,0.3,0.1,0.7,0.1c0.4,0,0.6,0,0.7,0c0.1,0,0.2,0,0.3,0c0.1,0,0.2-0.1,0.2-0.2c-0.2-0.8-0.4-1.5-0.6-2
		c-0.1-0.5-0.3-1.1-0.5-1.7c-0.2-0.6-0.3-1.1-0.4-1.4l-0.4-0.9c-0.2-0.8-0.5-1.6-0.6-2.5c-0.2-0.8-0.4-1.7-0.6-2.6
		c0,0,0-0.1-0.1-0.3C256.7,109.3,256.6,109.2,256.5,109.2z"/>
	<path fill="#FFFFFF" d="M281.3,147.2c0-0.1,0-0.3,0-0.6c0-0.3,0-0.4,0-0.5c0,0,0-0.2,0-0.4s0-0.4,0-0.7c0-0.2,0-0.5,0.1-0.7
		c0-0.2,0-0.3,0-0.4v-0.8c0-2.7,0.1-5.4,0.4-8.1c0.3-2.7,0.5-5.4,0.6-8.1c0-0.3,0.1-0.6,0.1-0.9c0-0.2,0.1-0.5,0.1-0.9v-0.9
		c0-0.1,0-0.3,0-0.5c0-0.2,0-0.3,0.1-0.5c0,0,0-0.1,0.1-0.3c0.1-0.1,0.1-0.2,0.1-0.3v-1.4c-0.2-0.3-0.4-0.5-0.6-0.5
		c-0.2-0.1-0.4-0.3-0.4-0.8c-0.3-0.4-0.6-0.9-0.8-1.3c-0.3-0.4-0.6-0.9-1-1.4c-0.6-1.2-1.2-2.4-1.8-3.6c-0.6-1.2-1.3-2.3-2.1-3.4
		c0-0.1,0-0.3-0.3-0.7c-0.2-0.4-0.4-0.6-0.4-0.7c-0.2-0.2-0.4-0.5-0.6-1c-0.2-0.5-0.4-0.7-0.6-0.8c-0.7-1.1-1.4-2.2-2.1-3.4
		s-1.3-2.3-2-3.4c-0.4-0.5-0.8-1-1.2-1.5c-0.4-0.5-0.8-1-1.2-1.6c0-0.2,0.1-0.4,0.2-0.5c0.1-0.2,0.2-0.3,0.2-0.5
		c0-0.2-0.1-0.5-0.4-0.6l0.8-0.8c0.1-0.1,0.2-0.3,0.2-0.5c0-0.2,0.2-0.5,0.4-0.8c0.2-0.4,0.6-0.8,1-1.3c0.5-0.5,1.1-1.2,2.1-2
		c0.2,0,0.4,0,0.6,0.1c0.2,0.1,0.5,0.2,0.7,0.3c0.2,0.1,0.5,0.3,0.8,0.4c0-0.2-0.1-0.3-0.3-0.3c-0.2,0-0.3,0-0.4-0.3
		c0-0.1,0.1-0.2,0.2-0.3c0.1-0.1,0.2-0.1,0.3-0.1c0.3,0.1,0.7,0.3,1.1,0.6c0.4,0.3,0.7,0.6,1,0.8c0.5,0.4,1,0.8,1.5,1.4
		c0.6,0.5,1,1.1,1.3,1.7c0.2,0.4,0.5,0.9,0.6,1.3c0.2,0.5,0.4,0.9,0.7,1.3c0,0,0.1,0.1,0.3,0.2c0.1,0.1,0.2,0.2,0.2,0.3
		c0.3,0.4,0.6,0.9,0.9,1.4c0.3,0.5,0.6,1,0.9,1.5c0.7,0.9,1.3,1.8,1.9,2.7c0.6,0.9,1.1,1.9,1.7,2.8l1.4,2.2c0.5,0,0.9-0.3,1.3-0.8
		c0.4-0.5,0.7-0.9,1-1.2c0,0,0.1-0.2,0.3-0.5c0.2-0.3,0.4-0.7,0.6-1.1c0.2-0.4,0.5-0.8,0.7-1.1c0.2-0.3,0.4-0.6,0.5-0.6
		c0,0,0-0.1,0.1-0.1c0.1,0,0.2-0.1,0.2-0.1c0.3-0.3,0.6-0.7,0.9-1.2c0.2-0.5,0.5-0.9,0.7-1.3c0.7-1.1,1.4-2.1,2.2-3.2
		c0.7-1.1,1.5-2.1,2.3-3.1c0.5-0.6,1-1.2,1.5-1.8c0.5-0.6,1-1.2,1.5-1.7h0.1c0,0,0.1,0,0.1-0.1l0.6-0.8h0.3c0.4,0.8,0.9,1.3,1.4,1.4
		c0.5,0.1,1,0.2,1.4,0.4c0.5,0.1,0.9,0.4,1.3,0.8c0.4,0.4,0.6,1.2,0.8,2.6c0,0.2,0,0.4-0.1,0.7c0,0.3-0.1,0.5-0.1,0.6
		s-0.1,0.4-0.4,0.6c-0.2,0.3-0.5,0.6-0.8,0.9c-0.3,0.3-0.6,0.6-0.9,0.9c-0.3,0.3-0.5,0.5-0.7,0.6l-0.7,0.9c-0.8,0.7-1.5,1.5-2.1,2.5
		c-0.6,1-1.2,1.9-1.7,2.7c0,0-0.1,0.1-0.3,0.3c-0.1,0.2-0.2,0.3-0.3,0.4c-0.8,1.1-1.5,2.2-2.2,3.4c-0.6,1.2-1.3,2.3-2,3.5
		c-0.2,0.3-0.5,0.7-0.6,1c-0.2,0.4-0.4,0.7-0.6,1.1c0,0,0,0.1,0,0.1c0,0,0,0.1,0,0.2v0.2c-0.1,0.3-0.4,0.7-0.7,1
		c-0.3,0.3-0.5,0.7-0.5,1.2c0,0.5,0,0.9,0.1,1.4c0,0.5,0.1,0.9,0.1,1.5c0,3.3-0.1,6.4-0.4,9.5c0,0.1,0,0.4-0.1,1
		c-0.1,0.6-0.1,1-0.2,1.3c-0.2,1.6-0.4,3.2-0.4,4.8c0,1.6-0.2,3.2-0.4,4.7v5.4c-0.2,0-0.3,0.2-0.4,0.4c-0.1,0.2-0.1,0.4-0.1,0.5
		s0,0.3,0.1,0.5c0.1,0.2,0.1,0.3,0.1,0.5c0,0.1-0.1,0.2-0.2,0.4c-0.1,0.2-0.3,0.3-0.4,0.3l-0.3-0.1c-0.1,0-0.4,0.1-0.8,0.2
		c-0.5,0.1-0.7,0.2-0.8,0.3c-0.1,0.1-0.2,0.3-0.3,0.5c-0.1,0.3-0.2,0.4-0.3,0.5c-0.1,0.1-0.2,0.2-0.3,0.2c-0.2,0-0.3-0.1-0.4-0.4
		c-0.6,0.2-1.1,0.4-1.5,0.4c-0.4,0-0.9,0.3-1.4,0.6c-0.1,0-0.3,0-0.4-0.1c-0.1-0.1-0.3-0.1-0.5-0.1c-0.3,0-0.6,0.1-0.9,0.3
		c-0.3,0.2-0.5,0.3-0.6,0.3c-0.1,0-0.2-0.1-0.3-0.3c-0.1-0.2-0.1-0.5-0.2-0.8c-0.1-0.3-0.1-0.6-0.2-0.8c0-0.3-0.1-0.4-0.1-0.5
		c0-0.1,0-0.3,0-0.8c0-0.4,0-0.7,0-0.8c0,0,0-0.2,0-0.5C281.3,147.5,281.3,147.3,281.3,147.2z"/>
	<path fill="#FFFFFF" d="M308.8,159.9c-0.1,0-0.3,0-0.4,0.1c-0.1,0.1-0.2,0.2-0.4,0.2c0-0.4,0-0.8,0.1-1.1c0.1-0.4,0.1-0.7,0.1-1.1
		c0-0.2,0-0.4,0-0.5c0-0.2-0.1-0.4-0.2-0.6l0.5-6.6c-0.1-0.1-0.1-0.3-0.1-0.5v-0.4c-0.4-0.4-0.8-0.8-1.1-1.2c-0.3-0.4-0.7-0.9-1-1.3
		c-0.4-0.5-0.8-0.9-1.3-1.1c-0.5-0.3-0.8-0.8-0.8-1.5c0-0.2,0-0.4,0.1-0.5c0-0.1,0.1-0.1,0.2-0.1c0.1,0,0.1-0.1,0.2-0.1
		c0.1-0.1,0.1-0.2,0.1-0.4c0-0.1,0.2-0.3,0.7-0.5c0.5-0.3,1.1-0.5,1.7-0.8c0,0,0.1-0.1,0.4-0.2c0.2-0.1,0.5-0.1,0.8-0.2
		c0.3-0.1,0.6-0.2,0.9-0.3c0.3-0.1,0.5-0.3,0.6-0.5c0.2,0,0.5,0.1,0.7,0.2c0.2,0.1,0.5,0.2,0.7,0.2c0.1,0,0.2,0,0.3-0.1
		c0.1,0,0.2-0.1,0.4-0.1c0.5,0,1.1,0.4,1.7,1.3c0.6,0.8,0.9,1.7,0.9,2.6c0,0.5,0,1.1-0.1,1.6c-0.1,0.5-0.2,1.1-0.3,1.6
		c-0.1,0.7-0.2,1.5-0.2,2.2c0,0.7-0.1,1.5-0.1,2.3c0,0.8-0.2,1.7-0.4,2.6c-0.2,0.9-0.5,2-1,3.1c-0.1-0.1-0.3-0.1-0.5-0.1
		c-0.1,0-0.3,0.1-0.3,0.3c-0.1,0.2-0.1,0.3-0.2,0.5c-0.1,0.2-0.1,0.3-0.2,0.5c0,0.2-0.1,0.3-0.3,0.3c-0.2,0-0.6,0.1-0.9,0.4
		c-0.4,0.3-0.6,0.4-0.7,0.4c0,0-0.1-0.1-0.2-0.2C309.2,159.9,309,159.9,308.8,159.9z"/>
	<path fill="#FFFFFF" d="M340.7,116.9c0-0.7,0.1-1.4,0.3-2.1c0.2-0.7,0.4-1.4,0.5-1.9c0.2-0.2,0.3-0.4,0.4-0.6
		c0-0.2,0.1-0.4,0.2-0.6c0,0,0-0.1,0-0.1c0,0,0,0,0-0.1c0.2-0.4,0.5-1,0.6-1.7c0.2-0.7,0.5-1.2,0.9-1.4c0.3-0.5,0.6-1,0.8-1.4
		c0.2-0.4,0.5-0.9,0.8-1.4c0.1-0.1,0.1-0.2,0.1-0.3l1.6-2.2h0.1l0.1-0.1l0.1-0.1c0,0,0.1-0.1,0.1-0.1c0,0,0-0.1,0.1-0.1
		c0-0.1,0.1-0.2,0.2-0.3l1.6-1.7c0.2-0.1,0.3-0.2,0.4-0.3c0.1,0,0.2-0.2,0.4-0.4c0.1,0,0.3-0.2,0.5-0.4c0.3-0.2,0.6-0.5,0.9-0.7
		c0.3-0.2,0.6-0.5,0.9-0.7c0.3-0.2,0.5-0.4,0.6-0.5c0.6-0.5,1.3-0.9,2-1.3c0.7-0.4,1.3-0.8,1.9-1.3h0.4c1.4-1,3-1.7,4.6-2
		c1.6-0.3,3.4-0.5,5.3-0.5c1.8,0,3.5,0.2,5.2,0.5c1.7,0.4,3,1.2,4,2.5c0.2,0.3,0.5,0.7,0.6,1.2c0.2,0.5,0.4,0.9,0.7,1.2
		c0.4,0.5,0.9,0.9,1.3,1.4c0.5,0.4,0.8,0.9,1,1.5c0.1,0.4,0.2,0.8,0.4,1.4c0.2,0.5,0.3,0.8,0.3,0.9c0,0.2,0,0.5,0.1,0.8
		c0.1,0.4,0.2,0.6,0.2,0.8c0.1,1,0.3,1.9,0.4,2.8s0.2,1.9,0.2,2.8c0,0.2,0,0.5-0.1,0.9c0,0.3-0.1,0.6-0.2,0.7c0,0.2,0,0.5,0,0.6
		c0,0.2,0,0.4,0,0.5c0,0.4-0.1,1.1-0.4,1.9c-0.3,0.8-0.6,1.7-1,2.5c-0.4,0.9-0.8,1.7-1.3,2.4c-0.5,0.8-1,1.3-1.4,1.7
		c-0.4,0.3-0.7,0.8-1,1.3c0,0-0.1,0.1-0.1,0.3c0,0.1,0,0.2-0.1,0.2c-0.1,0.1-0.2,0.2-0.3,0.3c-0.1,0.1-0.2,0.1-0.3,0.2
		c-0.1,0.1-0.3,0.1-0.4,0.1c0,0,0,0.1,0,0.2c0,0.1,0,0.1,0,0.2c-0.1,0.2-0.3,0.4-0.6,0.4c-0.3,0-0.5,0.2-0.5,0.5
		c0,0.1,0,0.2,0.1,0.2h1c-0.1,0.2-0.3,0.4-0.7,0.5c-0.4,0.1-0.6,0.2-0.6,0.5c0,0.1,0.1,0.1,0.2,0.1c0,0,0.1,0.1,0.2,0.1l-1.2,0.5
		c0,0-0.1,0.1-0.1,0.1c0,0,0,0.1,0,0.1c0,0,0,0.1,0,0.1c0.1,0,0.2,0.1,0.3,0.3c0,0-0.2,0-0.5,0.1c-0.3,0.1-0.6,0.2-1,0.4
		c-0.4,0.1-0.7,0.3-1,0.4c-0.3,0.1-0.5,0.2-0.5,0.3c-0.1,0.1-0.1,0.3-0.1,0.4c0,0.1,0,0.2-0.1,0.3c-0.7,0.3-1.4,0.7-1.9,1.4
		c0,0.1,0.1,0.2,0.2,0.3c0.1,0,0.2,0.1,0.3,0.1c-0.4,0.4-0.9,0.7-1.4,1c-0.6,0.3-1.1,0.6-1.4,1c-0.1,0.1-0.3,0.2-0.6,0.3
		c-0.3,0.1-0.5,0.2-0.5,0.4c-0.1,0-0.3,0.1-0.6,0.2c-0.3,0.1-0.6,0.3-1,0.5c-0.4,0.2-0.7,0.4-1,0.5c-0.3,0.2-0.6,0.3-0.7,0.3
		c-0.5,0.2-1,0.3-1.5,0.3c-0.5,0-1,0.1-1.5,0.2c-0.4,0.1-0.7,0.2-0.9,0.3c-0.2,0.1-0.5,0.1-0.9,0.1c-1.4,0-2.6-0.1-3.5-0.4
		c-1-0.3-2.1-0.7-3.3-1.2c-1.7-0.7-3.1-1.8-4.1-3.3c-1-1.5-1.7-3-2.1-4.4c0,0,0-0.2,0-0.3c0-0.2-0.1-0.3-0.1-0.3
		c-0.1-0.2-0.3-0.5-0.5-0.7c-0.2-0.2-0.4-0.5-0.5-0.7l-0.1-0.4c0-0.1-0.1-0.2-0.1-0.3v-0.8c0-0.1-0.1-0.3-0.3-0.5
		c-0.1-0.2-0.2-0.3-0.3-0.5c-0.2-0.9-0.4-1.8-0.6-2.7C340.7,118.7,340.7,117.8,340.7,116.9z M353.8,124.2c1,0.9,2.3,1.6,3.9,2.2
		c1.6,0.6,3.1,0.8,4.7,0.8c0.1,0,0.3,0,0.8,0c0.4,0,0.7,0,0.8,0c0-0.1,0.2-0.1,0.4-0.1c0,0,0.2-0.1,0.4-0.3c0.2-0.1,0.4-0.2,0.6-0.3
		l2.9-2.5c0.1-0.1,0.3-0.2,0.5-0.3c0.2-0.1,0.4-0.3,0.5-0.4v-0.4c0,0,0.1-0.2,0.3-0.3c0.1-0.2,0.2-0.3,0.2-0.3
		c0.1-0.1,0.3-0.4,0.6-0.9c0.3-0.4,0.4-0.7,0.5-0.8c0.7-1.2,1.1-2.6,1.3-4.1c0.2-1.5,0.3-2.9,0.3-4.3c0-0.8,0-1.6-0.1-2.4
		c-0.1-0.8-0.2-1.6-0.3-2.4c0-0.1-0.1-0.3-0.2-0.4c-0.1-0.1-0.2-0.2-0.3-0.3c-0.2-0.5-0.4-1-0.6-1.5c-0.2-0.6-0.5-1.1-0.9-1.6
		c-0.3-0.5-0.7-1-1.2-1.4c-0.5-0.4-1-0.7-1.7-1c-0.5-0.1-0.9-0.2-1.3-0.3c-0.4-0.1-0.8-0.1-1.3-0.1c-1.3,0-2.6,0.2-3.8,0.7
		c-1.2,0.5-2.4,1-3.4,1.7c-1.1,0.7-2,1.4-2.9,2.2c-0.9,0.8-1.6,1.5-2.1,2.1c-0.1,0.2-0.2,0.5-0.3,0.8c-0.1,0.3-0.2,0.5-0.4,0.7
		c-0.3,1-0.5,1.9-0.7,2.8c-0.2,0.9-0.3,1.8-0.3,2.8c0,0.4,0,0.8,0.1,1.3c0,0.5,0.1,1,0.3,1.5c0,0.1,0,0.3,0.1,0.6
		c0.1,0.2,0.1,0.5,0.2,0.8c0,0.3,0.1,0.5,0.1,0.7c0,0.2,0.1,0.3,0.1,0.4c0.2,0.8,0.6,1.6,0.9,2.3
		C352.8,122.7,353.3,123.4,353.8,124.2z"/>
	<path fill="#FFFFFF" d="M389.8,140.9c0-0.1,0-0.2,0.1-0.3c0.1-0.1,0.1-0.2,0.1-0.3c0-0.2-0.1-0.5-0.4-0.7c-0.2-0.2-0.4-0.4-0.5-0.5
		c-0.1-0.2-0.2-0.5-0.3-0.8c0-0.3-0.2-0.5-0.4-0.6c-0.5-1-1-2-1.4-3.1c-0.4-1.1-0.8-2.1-1-3.2c-0.1-0.1-0.1-0.2-0.1-0.4
		c0-0.2,0-0.4-0.1-0.5c-0.1-0.2-0.3-0.5-0.5-0.6c-0.2-0.2-0.4-0.4-0.5-0.6c-0.2-0.6-0.4-1.3-0.5-2.1c-0.1-0.7-0.1-1.5-0.1-2.1
		c0-0.8,0-1.5,0.1-2.2c0.1-0.7,0.2-1.5,0.2-2.2c0-0.4,0.1-0.8,0-1.2c0-0.4,0-0.9,0.1-1.3c0-0.3,0.1-0.6,0.2-0.8
		c0.1-0.3,0.1-0.5,0.2-0.8v-0.7c0,0,0-0.2,0.1-0.3c0.1-0.2,0.2-0.3,0.2-0.3c0.3-0.9,0.4-1.8,0.4-2.8c0-0.9,0-1.9,0.3-2.8
		c0-0.3,0.1-0.5,0.2-0.6c0.1-0.1,0.2-0.3,0.3-0.7c0,0,0-0.2,0-0.5c0-0.3,0-0.4,0-0.5l0.9-3.2c0.2-0.1,0.3-0.3,0.4-0.5
		c0.1-0.2,0.2-0.5,0.3-0.6c0.5-0.8,1.1-1.5,1.8-2.3c0.7-0.7,1.4-1.4,2.1-1.9c0.6-0.5,1.3-0.9,1.9-1.4c0.6-0.4,1.3-0.8,2-1.2
		c0.1-0.1,0.3-0.2,0.7-0.4s0.6-0.3,0.7-0.4c0.6-0.2,1.2-0.5,1.8-0.8c0.6-0.3,1.2-0.5,1.8-0.7c0.2,0,0.4-0.1,0.5-0.1
		c0.2,0,0.3,0,0.5-0.1h1.4c1.3,0,2.6,0.1,3.7,0.3c1.1,0.2,2.2,0.5,3.1,0.9c0.9,0.4,1.8,1,2.6,1.8c0.8,0.8,1.6,1.8,2.4,3
		c0.1,0.1,0.3,0.5,0.5,1c0.3,0.5,0.4,0.8,0.5,1l0.6,1.9l0.1,0.2c0,0,0,0.1,0,0.1c0,0,0,0.1,0,0.1c0,0,0,0.1,0.1,0.1v1.8
		c0.2,0.3,0.3,0.7,0.4,1c0.1,0.3,0.2,0.6,0.3,1v1.9c-0.3,0.2-0.5,0.6-0.5,1.1c-0.1,0.5-0.3,0.8-0.5,0.9c0.1,0.2,0.1,0.3,0.1,0.4
		c0,0.4-0.2,0.9-0.7,1.3c-0.5,0.5-1,0.9-1.7,1.3c-0.6,0.4-1.3,0.7-1.9,1c-0.6,0.3-1.1,0.4-1.5,0.4c-0.3,0-0.4-0.1-0.4-0.3
		c-0.2-0.4-0.4-0.7-0.6-0.9c-0.2-0.2-0.3-0.6-0.5-0.9c-0.2-0.8-0.4-1.6-0.6-2.4c-0.2-0.8-0.5-1.6-1-2.3c-0.5-0.7-1.2-1.4-2.2-2.2
		c-0.9-0.7-1.8-1.1-2.8-1.1c-1.2,0-2.4,0.4-3.6,1.2c-1.2,0.8-2.4,1.8-3.4,3.1c-1,1.3-1.9,2.7-2.6,4.3c-0.7,1.6-1,3.3-1,5v4
		c0,0.2,0.1,0.5,0.1,0.8c0,0.3,0.1,0.6,0.1,0.9l1.8,5.4c0.1,0.3,0.3,0.7,0.7,1.2c0.4,0.5,0.8,0.9,1.2,1.3c0.4,0.4,0.9,0.8,1.3,1.2
		c0.5,0.4,0.9,0.6,1.2,0.7c0.2,0.1,0.6,0.2,0.9,0.3c0.4,0.1,0.7,0.2,1.1,0.3c0,0,0.1,0.1,0.2,0.1h0.3c0.1,0,0.3,0,0.5,0
		c0.2,0,0.4,0,0.5,0h0.4c0.3,0,0.7-0.1,1.1-0.3c0.4-0.2,0.7-0.3,1.1-0.5c1.3-0.7,2.3-1.5,3.1-2.4c0.7-0.9,1.6-1.9,2.5-3l1-1.3
		c0,0,0.2-0.1,0.3-0.3c0.2-0.1,0.3-0.2,0.3-0.3l0.5-0.7v-0.1c0,0,0-0.1,0-0.1c0,0,0-0.1,0-0.1c0-0.2,0.2-0.6,0.6-1.1
		c0.3-0.5,0.7-1,1.1-1.4c0.4-0.5,0.8-0.9,1.2-1.3c0.4-0.4,0.7-0.7,0.9-0.8c0.2,0.4,0.3,0.7,0.3,0.8c0,0.1,0,0.3-0.1,0.5
		c-0.1,0.2-0.1,0.7-0.1,1.5c0,0.1,0,0.2,0.1,0.3c0,0.2,0,0.4,0.1,0.6c0.1,0.2,0.1,0.3,0.1,0.5c0,0.1,0,0.2-0.1,0.3
		c0,0.1-0.1,0.2-0.1,0.3c0,0.2,0.1,0.4,0.3,0.5c0.2,0.1,0.3,0.3,0.3,0.6c0,0,0,0.1-0.1,0.1l-0.1,0.1c0,0,0.1,0.1,0.1,0.1
		c0,0.1,0,0.2,0.1,0.2c-0.1,0.2-0.2,0.4-0.2,0.5c0,0.1,0,0.2,0,0.3v0.1c0.1,0,0.2,0.1,0.2,0.3c0,0.4-0.1,0.7-0.3,1
		c-0.2,0.3-0.3,0.6-0.3,1v1.2c0,0.2-0.1,0.5-0.3,0.6c-0.1,0.2-0.2,0.4-0.3,0.6c-0.2,1.4-0.7,2.6-1.5,3.7c-0.8,1.1-1.6,2.1-2.4,3.2
		c-0.1,0.2-0.2,0.4-0.4,0.5c-0.2,0.1-0.3,0.2-0.4,0.4c-0.7,1-1.4,1.6-2.1,2.1c-0.6,0.4-1.5,0.8-2.6,1.3c-0.7,0.3-1.3,0.5-1.9,0.6
		c-0.6,0.1-1.2,0.3-1.9,0.4c0,0-0.1,0-0.1,0c0,0,0,0-0.1,0l-0.1,0.1h-0.9c-1,0-1.9-0.1-2.8-0.4c-0.9-0.3-1.8-0.5-2.8-0.7
		c-2.5-0.4-4.7-1.6-6.5-3.6c0,0-0.1-0.2-0.2-0.4C389.9,141,389.8,140.9,389.8,140.9z"/>
	<path fill="#FFFFFF" d="M430.1,149.1c0,0-0.2-0.1-0.3-0.4c-0.2-0.3-0.3-0.5-0.3-0.6c-0.2-0.4-0.3-0.9-0.3-1.6c0-0.5,0-1,0.1-1.4
		c0-0.5,0.1-1,0.1-1.4c0-1.1-0.2-1.8-0.6-2.2c0,0-0.1,0.1-0.1,0.2c0,0.1-0.1,0.5-0.1,0.9l-0.4-1.4c-0.1,0-0.2-0.3-0.3-0.6
		c-0.1-0.4-0.1-0.8-0.1-1.2c0-0.5,0-0.9,0-1.3s0-0.7,0-0.9c0-0.9-0.1-1.8-0.1-2.7c0-0.9,0-1.8,0-2.7c0-4.7,0.1-9.4,0.2-14
		c0.1-2.4,0.2-4.8,0.4-7.2c0.2-2.4,0.3-4.8,0.3-7.2v-0.5c-0.1-0.1-0.4-0.2-1-0.3c-0.6,0-1.3-0.1-2-0.1c-0.7,0-1.5-0.1-2.2-0.2
		c-0.7-0.1-1.2-0.2-1.5-0.5l0.6-0.2c0-0.2-0.1-0.3-0.3-0.4c-0.2,0-0.4-0.1-0.7-0.1c-0.3,0-0.5-0.1-0.7-0.1c-0.2-0.1-0.3-0.2-0.3-0.5
		c0-0.2,0-0.6,0-1c0-0.4,0.1-0.8,0.2-1c0.1-0.3,0.2-0.5,0.3-0.7c0.1-0.2,0.2-0.5,0.2-0.8v-0.4c0.5-0.2,0.8-0.6,0.8-1.1
		c0.1-0.5,0.2-1,0.3-1.6c0-0.1,0-0.2,0.1-0.2c0.3-0.3,0.7-0.5,1.2-0.6c0.5-0.1,0.8-0.4,0.9-0.8c0.1-0.1,0.3-0.2,0.5-0.3
		c0.2,0,0.4,0,0.5,0c0.3,0,0.7,0,1,0.1c0.3,0,0.7,0.1,1.1,0.1c0-0.2,0.6-0.3,1.8-0.4c1.2-0.1,2.6-0.2,4.2-0.3
		c1.6-0.1,3.2-0.2,4.8-0.3c1.6-0.1,2.8-0.3,3.5-0.5c0.5,0,1.2,0,2,0.1c0.8,0,1.5,0.2,2,0.4c0,0,0.2,0.1,0.4,0.3
		c0.2,0.2,0.4,0.4,0.6,0.6c0.2,0.2,0.5,0.5,0.8,0.9c0,0.1-0.1,0.2-0.4,0.4c-0.2,0.2-0.4,0.3-0.5,0.5c-0.1,0.1-0.2,0.4-0.2,0.7
		c0,0.3,0,0.5,0,0.6c0.1,0,0.2,0.1,0.3,0.1c0.1,0,0.2,0,0.3,0.1c-0.2,0.1-0.3,0.3-0.4,0.6c-0.1,0.3-0.1,0.5-0.1,0.6
		c-0.2,0-0.5,0.1-0.7,0.2c-0.2,0.1-0.3,0.3-0.3,0.6c0,0.2,0.2,0.4,0.5,0.6c0.3,0.2,0.5,0.3,0.6,0.4h-2.1c0,0,0,0.1,0,0.2
		c0,0.1,0,0.2,0,0.3h0.4c-0.1,0.2-0.4,0.4-0.9,0.6c-0.5,0.1-0.8,0.3-0.8,0.5c0,0.3,0.1,0.5,0.2,0.6c-0.1,0.1-0.5,0.2-1,0.4
		s-0.8,0.2-1,0.3c-0.3,0.1-0.4,0.2-0.4,0.4c0,0.3,0,0.8,0,1.7c0,0.8,0,1.8,0,2.9c0,1.1,0,2.3,0,3.6c0,1.3,0,2.5,0,3.6
		c0,1.2,0,2.2,0,3.1c0,0.9,0,1.6,0.1,1.9c0,0.4,0,0.9,0.1,1.3c0,0.4,0.1,0.9,0.1,1.3c0,0.6,0,1.1-0.1,1.7c0,0.6-0.1,1.1-0.1,1.7
		c0,0.2,0,0.4,0.1,0.5v9.4c0,0.7,0.1,1.6,0.2,2.7c0.1,1.1,0.2,1.8,0.2,2.4c0,0.3,0,0.4-0.1,0.4c-0.1,0-0.2-0.1-0.4-0.4
		c-0.1-0.5-0.2-0.9-0.4-1.3c-0.2-0.4-0.3-0.8-0.3-1.4c-0.1-0.1-0.2-0.2-0.4-0.3c-0.2,0-0.3-0.1-0.5-0.1h-0.3c0,0.2,0,0.6,0.1,1.1
		c0,0.6,0.1,0.9,0.1,1c0,0,0,0.2-0.1,0.4c0,0.2-0.1,0.5-0.1,0.7c0,0.3-0.1,0.5-0.2,0.7c-0.1,0.2-0.1,0.3-0.1,0.4c0,0,0,0.1,0,0.1
		c0,0,0,0.1,0,0.2c0,0.3-0.1,0.9-0.3,1.6c-0.1,0.7-0.4,1.6-0.8,2.4c-0.4,0.9-0.8,1.8-1.4,2.7c-0.6,0.9-1.4,1.7-2.3,2.3v-0.6
		c0,0-0.1-0.2-0.2-0.4c0-0.1-0.1-0.2-0.1-0.2h-0.3l-0.4,0.9c-0.2,0-0.4-0.2-0.4-0.6c0-0.5,0-1,0-1.5c0-0.5,0-1,0-1.4
		c0-0.6-0.1-0.9-0.2-0.9c0,0-0.1,0.1-0.1,0.1v0.2c0,0,0,0.2,0,0.4c0,0.2,0,0.4-0.1,0.7c0,0.2,0,0.5,0,0.7s0,0.3,0,0.4
		c0,0.1,0,0.3-0.1,0.6c0,0.2-0.1,0.5-0.2,0.8c-0.1,0.3-0.2,0.5-0.4,0.7c-0.2,0.2-0.3,0.3-0.5,0.3v-0.3c0-0.5-0.1-0.7-0.4-0.7
		L430.1,149.1z"/>
	<path fill="#FFFFFF" d="M456,142.2c-0.4,0-0.8-0.2-1.1-0.5c-0.4-0.3-0.7-0.6-0.9-0.9c-0.7-0.6-1.3-1.2-2-1.9
		c-0.6-0.7-1.2-1.4-1.7-2.2c-1.1-1.9-2-3.8-2.8-5.7c-0.7-1.9-1.1-4-1.1-6.3c0-2.2,0.3-4.3,1-6.3c0.7-2,1.6-3.9,2.7-5.8
		c0.5-1,1.1-2,1.6-3c0.5-1,1.2-2,1.9-2.8c0-0.1,0.2-0.3,0.4-0.5c0.2-0.2,0.5-0.4,0.7-0.7c0.3-0.2,0.5-0.5,0.7-0.7
		c0.2-0.2,0.4-0.4,0.5-0.5l1.6-1.2c0.1-0.1,0.3-0.2,0.5-0.2c0.5-0.2,1.1-0.5,1.6-0.9c0.6-0.4,1.1-0.7,1.5-1.1l1.2-0.9
		c0,0,0.1-0.1,0.2-0.2c0.1-0.1,0.1-0.1,0.2-0.1l0.3,0.1c0.2,0,0.4-0.1,0.5-0.2c0.1-0.1,0.2-0.2,0.3-0.3c0.6-0.3,1.2-0.6,1.8-0.8
		c0.6-0.2,1.3-0.5,1.8-0.8c0.1,0,0.4-0.1,0.7-0.3c0.3-0.1,0.6-0.2,1-0.4c0.4-0.1,0.7-0.2,1-0.3c0.3-0.1,0.5-0.2,0.7-0.2
		c0.5,0,1.1-0.1,1.6-0.2c0.6-0.1,1.1-0.2,1.7-0.3c0.1,0,0.3,0,0.6,0c0.3,0,0.7,0,1.1,0.1c0.4,0,0.7,0,1.1,0c0.3,0,0.6,0,0.6,0h0.4
		c0.2,0,0.3,0,0.4-0.1c0.1-0.1,0.2-0.1,0.4-0.1c0.4,0,1,0.1,1.6,0.4c0.6,0.3,1.1,0.5,1.4,0.6c1.1,0.5,2.2,1.3,3.4,2.2
		c1.2,1,2.1,2,2.7,3c0.4,0.8,0.9,1.6,1.3,2.6c0.4,1,0.8,2,1.2,3.1c0.4,1.1,0.7,2.1,1,3.2c0.3,1.1,0.6,2,0.8,2.9c0,0,0.1,0.2,0.1,0.5
		c0,0.3,0,0.4,0,0.5c0,0.2,0.1,0.5,0.2,0.9c0.1,0.3,0.1,0.6,0.1,0.9c0,1.1-0.1,2.1-0.2,3c-0.1,1-0.3,1.9-0.4,3
		c-0.1,0.7-0.2,1.3-0.2,1.9c0,0.6-0.1,1.2-0.3,1.9c-0.1,0.6-0.5,1.4-1,2.3c-0.5,1-1.1,1.9-1.9,2.7c0,0-0.2,0.2-0.3,0.4
		c-0.2,0.2-0.3,0.4-0.5,0.7c-0.2,0.3-0.4,0.5-0.5,0.7c-0.2,0.2-0.3,0.3-0.3,0.4c-0.5,0.6-1,0.9-1.5,0.9c-0.5,0-1.1,0.3-1.6,0.6
		c-0.7,0.5-1.3,1.1-2,1.7c-0.7,0.6-1.4,1.1-2.1,1.7c-0.4,0.3-0.9,0.6-1.4,0.8c-0.5,0.2-0.9,0.5-1.4,0.8c-0.4,0.3-0.7,0.6-1.1,0.9
		c-0.3,0.3-0.7,0.6-1.2,0.8c-0.2,0.1-0.3,0.2-0.4,0.3c0,0.1-0.1,0.2-0.2,0.3c-0.4,0.3-0.9,0.5-1.4,0.6s-1,0.3-1.5,0.5
		c-1.1,0.5-2.3,0.9-3.6,1.3c-1.3,0.3-2.5,0.5-3.8,0.5s-2.5-0.2-3.7-0.6c-1.2-0.4-2.3-1.1-3.2-2.1c-0.1-0.1-0.3-0.2-0.6-0.3
		C456.1,142.6,456,142.4,456,142.2z M456.9,121.8c0,0.1,0.2,0.8,0.6,2.1c0.3,1.3,1,2.7,2,4.3c1,1.6,2.5,3.1,4.4,4.4
		c1.9,1.4,4.5,2.2,7.7,2.5c0,0.1,0,0.2,0.1,0.2c0.1,0,0.2,0.1,0.3,0.1l2.4-0.7c0,0,0.2-0.1,0.3-0.1c0.2,0,0.3,0,0.4,0
		c0.7-0.7,1.2-1.4,1.7-2.1c0.5-0.7,1-1.5,1.4-2.3c0.2-0.4,0.5-0.8,0.7-1.2c0.2-0.4,0.5-0.8,0.6-1.2c0.7-1.5,1.2-3.1,1.5-4.8
		c0.4-1.7,0.5-3.4,0.5-5c0-0.6-0.1-1.2-0.2-2c-0.1-0.7-0.2-2-0.3-3.7v-0.2c0-0.4-0.2-1-0.5-1.8s-0.9-1.6-1.6-2.4s-1.7-1.5-2.8-2.1
		c-1.1-0.6-2.5-0.9-4.1-0.9c-0.9,0-1.8,0-2.7,0.1c-0.9,0.1-1.8,0.2-2.8,0.4l-3.5,1.4c-0.5,0.2-1,0.5-1.3,0.8
		c-0.3,0.4-0.6,0.8-0.9,1.2c-0.1,0.2-0.3,0.5-0.3,0.8c-0.1,0.3-0.2,0.6-0.3,0.8c-1,1.8-1.8,3.6-2.5,5.5
		C457.3,117.8,456.9,119.7,456.9,121.8z"/>
	<path fill="#FFFFFF" d="M500,136v-0.4l-1.7-10.2v-0.3c0-0.3,0-0.6-0.1-0.8c0-0.3-0.1-0.5-0.1-0.8c0-0.1,0-0.3,0-0.5
		c0-0.2,0-0.4,0-0.5c-0.1-1.2-0.2-2.5-0.4-3.7c-0.1-1.2-0.2-2.5-0.3-3.7c0-0.7-0.1-1.3-0.1-2c0-0.7,0-1.3,0-2c0-1.4,0-2.9,0-4.4
		c0-1.6-0.1-3.2-0.3-5c0.2-0.3,0.3-0.7,0.3-1.1c0-0.4,0.1-0.7,0.3-1.1c0.1-0.2,0.2-0.4,0.4-0.5s0.3-0.3,0.4-0.4
		c0.3-0.5,0.5-1.1,0.8-1.6c0.2-0.5,0.5-1.1,0.8-1.6l1.3-1.6c0.8-0.7,1.9-1.3,3.4-1.9c1.4-0.6,2.7-0.9,3.9-0.9h0.4
		c0,0,0.1-0.1,0.2-0.1c0.1,0,0.3,0,0.4,0c0.4,0,0.7,0,1,0c0.3,0,0.6,0.1,1,0.2c0,0.1,0.2,0.2,0.4,0.3c0.2,0.1,0.3,0.1,0.4,0.1h0.1
		c0,0,0.1,0,0.1,0c0,0,0.1,0,0.1,0l3.7,1.8c0.8,0.4,1.7,0.9,2.5,1.3c0.9,0.4,1.6,1.1,2.1,2l1.1,1.9c0.3,0.7,0.5,1.5,0.5,2.2
		c0,0.3,0,0.6-0.1,0.8c-0.1,0.2-0.2,0.5-0.3,0.8c-0.1,0.8-0.3,1.5-0.5,2.3s-0.6,1.5-1.1,2.1c-0.2,0.3-0.6,0.7-1,1.3
		c-0.5,0.6-0.7,1-0.7,1.3c0,0.1,0.1,0.2,0.4,0.4c0.2,0.2,0.4,0.3,0.5,0.3c0.1,0,0.3,0.1,0.7,0.3c0.4,0.1,0.6,0.2,0.7,0.2
		c0.5,0.2,1,0.4,1.3,0.6c0.3,0.2,0.7,0.4,1.2,0.5c0,0,0.1,0.1,0.3,0.1c0.1,0,0.2,0,0.3,0c0.1,0,0.2,0,0.2-0.1c0.1,0,0.3,0.1,0.5,0.3
		c0.2,0.1,0.4,0.2,0.5,0.3c0,0,0,0.1,0.1,0.1c0.1,0.1,0.2,0.1,0.2,0.1c0.2,0.1,0.5,0.2,0.6,0.4c0.2,0.2,0.4,0.3,0.6,0.4
		c0.8,0.4,1.4,0.8,1.9,1.3c0.4,0.5,0.9,1,1.5,1.7c0,0,0.1,0.3,0.4,0.7s0.5,0.7,0.6,0.8c0.5,0.9,1,1.9,1.4,2.8c0.4,1,0.6,2,0.6,3.1
		c0,0.6,0,1.2-0.1,1.8c0,0.6-0.1,1.2-0.2,1.7c-0.1,0.5-0.3,1.1-0.5,1.6c-0.2,0.5-0.4,1.1-0.5,1.6c-0.1,0-0.1,0.1-0.1,0.2
		c0,0.1,0,0.2-0.1,0.3l-1.1,2.1c-0.2,0.3-0.3,0.6-0.5,0.9c-0.1,0.3-0.3,0.6-0.5,0.9c-0.4,0.7-0.9,1.4-1.5,2.1
		c-0.6,0.7-1.1,1.3-1.6,1.9c-0.1,0.2-0.4,0.4-0.8,0.8c-0.4,0.3-0.7,0.5-0.8,0.7c0,0-0.1,0-0.1,0.1c0,0,0,0.1-0.1,0.1
		c-0.1,0.3-0.4,0.6-0.8,1c-0.4,0.4-0.8,0.7-1.3,1.1c-0.5,0.4-1,0.7-1.4,1c-0.5,0.3-0.9,0.6-1.2,0.7c-0.1,0.1-0.2,0.1-0.4,0.1
		c-0.3,0-0.5,0.2-0.8,0.4c-0.2,0.2-0.5,0.4-0.8,0.5c-0.4,0.1-0.9,0.3-1.3,0.4c-0.4,0.1-0.9,0.2-1.4,0.3c-0.1,0-0.2,0-0.2,0.1h-0.8
		c-0.3,0-0.6,0-0.8-0.1c-0.3,0-0.6-0.1-1-0.1c-0.5,0.2-1,0.4-1.4,0.6c-0.4,0.2-0.9,0.3-1.6,0.3c-0.1,0-0.4,0.1-0.8,0.1
		c-1.1,0.1-2.1,0.3-3,0.4c-0.8,0.1-1.5,0.2-2.1,0.3c-0.6,0.1-1,0.1-1,0.1c-0.1,0-0.2-0.2-0.3-0.6c-0.1-0.4-0.2-0.8-0.3-1
		c0,0-0.1-0.2-0.2-0.4c-0.1-0.2-0.2-0.3-0.3-0.4c-0.1-0.1-0.1-0.2-0.1-0.4c0-0.2,0-0.3,0-0.5c0-0.3,0-0.6,0.1-0.7L500,136z
		 M506.9,112.1c0.2,0,0.3-0.1,0.4-0.3c0.1-0.2,0.4-0.5,0.9-1c0.5-0.4,0.9-0.8,1.3-1.2c0.4-0.4,0.8-0.9,1.2-1.4
		c0.1-0.1,0.4-0.4,0.6-0.7c0.3-0.3,0.6-0.6,0.9-1c0.3-0.4,0.6-0.7,0.8-1c0.2-0.3,0.4-0.5,0.4-0.7c0-0.4-0.3-0.9-0.8-1.4
		c-0.6-0.5-1-0.9-1.3-1.2c-0.7-0.3-1.3-0.7-1.9-1.1c-0.6-0.4-1.3-0.6-2.1-0.6c-0.4,0-0.9,0.1-1.4,0.4c-0.5,0.2-0.7,0.6-0.7,1.2
		L506.9,112.1z M510.6,136.8c0.1,0.1,0.4,0.1,0.7,0.1c0.4,0,0.9-0.1,1.5-0.3c0.6-0.2,1.1-0.4,1.7-0.6s1.1-0.4,1.6-0.6
		c0.5-0.2,0.9-0.3,1.2-0.3c0.2,0,0.3,0,0.4,0.1l2.4-1.6c0.3-0.3,0.6-0.6,0.9-0.8c0.3-0.2,0.6-0.5,0.8-0.8c0.2-0.2,0.3-0.6,0.4-1
		c0.1-0.4,0.2-0.9,0.3-1.3c0.1-0.5,0.1-0.9,0.1-1.3c0-0.4,0-0.8,0-1c0-1.2-0.2-2.3-0.6-3.1c-0.4-0.8-0.9-1.5-1.6-2.1
		c-0.7-0.5-1.5-1-2.3-1.3c-0.9-0.3-1.9-0.6-2.9-0.9c-0.7-0.2-1.4-0.4-2.2-0.5c-0.8-0.2-1.6-0.3-2.3-0.3h-0.6c-0.4,0-0.9,0.2-1.4,0.5
		c-0.5,0.3-0.9,0.5-1.3,0.8c-0.1,0-0.2,0.1-0.2,0.2c0,0.1-0.1,0.2-0.3,0.4l3,15.7c0,0,0.1,0.1,0.1,0.1h0.3L510.6,136.8z"/>
	<path fill="#FFFFFF" d="M538.3,135.9v-1.4c0-0.4,0-0.8,0-1.2c0-0.4-0.1-0.8-0.3-1.2c-0.1-0.3-0.2-0.9-0.4-1.9
		c-0.2-1-0.4-2.1-0.6-3.1c-0.2-1.1-0.4-2.1-0.5-2.9c-0.1-0.9-0.2-1.3-0.3-1.3c-0.2-1.7-0.4-3.4-0.6-5.1c-0.2-1.7-0.3-3.4-0.4-5.1
		c-0.1-0.8-0.2-1.7-0.4-2.6c-0.2-0.9-0.3-1.7-0.3-2.6v-0.4l-0.2-1.3v-0.3c0-0.4-0.1-0.8-0.3-1.3c-0.2-0.5-0.3-1-0.3-1.5
		c0,0,0.1-0.1,0.3-0.2c0.2-0.1,0.3-0.2,0.3-0.2l4.2-3.9c0.1-0.1,0.2-0.3,0.1-0.5c0-0.2,0-0.3,0.2-0.5c0.2-0.1,0.6-0.3,0.9-0.4
		c0.4-0.1,0.6-0.4,0.6-0.6c0.4-0.2,0.9-0.4,1.5-0.5c0.6-0.1,1.3-0.3,2-0.3c0.7-0.1,1.3-0.1,1.9-0.1c0.6,0,1,0,1.3,0
		c0.8,0,1.6,0.1,2.4,0.2c0.8,0.1,1.8,0.2,2.9,0.2h0.6c0.1,0,0.5,0,1,0c0.5,0,1.1,0,1.7-0.1c0.6,0,1.2,0,1.7-0.1c0.5,0,0.9,0,1,0h0.7
		c1.1,0,2.3,0,3.6,0.1c1.3,0.1,2.4,0.3,3.4,0.7c0,0.2,0.1,0.3,0.2,0.4c0.1,0.1,0.3,0.2,0.4,0.3c0.1,0.1,0.3,0.2,0.4,0.3
		c0.1,0.1,0.2,0.2,0.2,0.4c-0.3,0-0.7,0-1-0.1c-0.4-0.1-0.7-0.1-1.1-0.1c-0.5,0-0.7,0.2-0.7,0.5c0,0.2,0.2,0.4,0.5,0.5
		c0.4,0.1,0.6,0.2,0.7,0.2c0,0.1,0.1,0.2,0.3,0.2c0.2,0,0.3,0.1,0.3,0.2c-0.4,0-0.6,0-0.7,0.1c-0.1,0.1-0.2,0.2-0.3,0.5
		c0.1,0,0.1,0,0.1,0.1c0,0.1-0.1,0.2-0.3,0.2c-0.2,0-0.4,0-0.6,0.1c-0.2,0-0.4,0.1-0.6,0.1c-0.2,0-0.3,0.1-0.4,0.3h0.4
		c0,0.1-0.1,0.3-0.2,0.3c-0.1,0.1-0.2,0.2-0.2,0.4c0,0.2,0.1,0.3,0.3,0.3c0.2,0,0.3,0,0.4,0.1c-0.4,0-1.1,0.1-2,0.1
		c-0.9,0-1.5,0.1-1.9,0.3c-0.1,0-0.2,0.1-0.2,0.4c0,0.2-0.1,0.3-0.4,0.3c-1.1,0.2-2.2,0.3-3.3,0.4c-1.1,0-2.2,0.1-3.3,0.3
		c-0.7,0-1.4,0.1-2.2,0.3c-0.8,0.1-1.5,0.2-2.1,0.3h-0.6c-0.5,0-1,0.1-1.4,0.2c-0.4,0.1-0.9,0.3-1.4,0.6c0,0.1,0.1,0.4,0.2,0.9
		c0.1,0.5,0.2,0.8,0.3,0.8c0,0.4,0.1,0.8,0.2,1.1s0.2,0.7,0.3,1.1c0,0,0,0.1,0.1,0.3c0,0.1,0.1,0.2,0.3,0.3c0.4,0,0.8-0.1,1.2-0.2
		s0.8-0.2,1.2-0.3c2-0.4,4-0.7,6-0.9c2-0.2,4-0.4,6.1-0.4l1.8,3.2l-1.4,2.9c-0.2,0-0.5,0.1-0.6,0.2c-0.2,0.1-0.8,0.2-1.8,0.3
		c-0.4,0-0.7,0.1-0.9,0.2c-0.1,0.1-0.4,0.3-0.7,0.4c-0.2,0.1-0.6,0.2-1,0.3c-0.4,0.1-0.9,0.2-1.4,0.4c-0.5,0.1-1,0.2-1.4,0.3
		c-0.5,0.1-0.8,0.1-1,0.1c-0.2,0-0.6,0-1.1,0.1c-0.5,0.1-1.1,0.2-1.7,0.3c-0.6,0.1-1.1,0.3-1.6,0.4c-0.5,0.1-0.8,0.3-0.9,0.4v0.4
		c0,0.5,0.1,1,0.2,1.5c0.1,0.5,0.2,1,0.2,1.5v0.4l1.6,7.9h3.5c0.9-0.2,1.8-0.3,2.7-0.4c0.9,0,1.8-0.1,2.7-0.2
		c0.9-0.1,1.7-0.2,2.5-0.4c0.8-0.1,1.6-0.2,2.4-0.2h0.5c0,0.1,0.2,0.1,0.4,0.1c0.2,0,0.7,0,1.3,0c0.6,0,1,0.1,1.2,0.2
		c0,0.2,0.1,0.5,0.4,0.6c0.2,0.2,0.4,0.3,0.4,0.4c-0.2,0-0.4,0.1-0.7,0.1c-0.3,0-0.5,0.1-0.6,0.2l0.4,0.3c-0.3,0.8-0.5,1.5-0.8,2.2
		c-0.2,0.6-0.5,1.2-1,1.8c-0.4,0.6-1.1,1.1-1.9,1.6c-0.8,0.5-2.1,1-3.6,1.5c-0.2,0.1-0.4,0.2-0.5,0.4c-0.1,0.1-0.2,0.3-0.4,0.4
		c-0.7,0-1.2,0-1.5,0.1c-0.3,0.1-0.8,0.2-1.5,0.3c-0.1,0-0.2,0-0.4,0c-0.2,0-0.3,0-0.4,0h-2.7c0,0-0.1,0.1-0.2,0.1
		c0,0-0.1,0-0.1,0.1l-10.7,1.2c0,0-0.2,0.1-0.3,0.3c-0.2,0.1-0.3,0.2-0.4,0.2c0,0-0.1-0.1-0.1-0.1c-0.1,0-0.2,0-0.3-0.1L538.3,135.9
		z"/>
	<path fill="#FFFFFF" d="M587,87.8c2,0,3.7,0.3,5.2,0.8c1.5,0.5,2.8,1,3.9,1.6c1.1,0.6,1.9,1.1,2.4,1.6c0.6,0.5,0.9,0.8,1,1
		c0.8,1,1.5,2.1,2.1,3.1c0.6,1.1,0.9,2.3,0.9,3.6c0,0.2,0,0.5,0,0.7c0,0.2-0.1,0.5-0.1,0.7c0,0.1,0,0.2,0,0.4c0,0.1-0.1,0.3-0.2,0.4
		l0.1,0.4c0,0.5-0.1,1.1-0.4,1.8c-0.3,0.7-0.6,1.2-0.9,1.6c-0.1,0.1-0.2,0.3-0.3,0.3c-0.1,0.1-0.2,0.2-0.3,0.3
		c-0.1,0.2-0.2,0.4-0.3,0.5c0,0.1-0.1,0.3-0.2,0.6v0.3c-0.4,1.8-0.9,3.5-1.7,5c-0.7,1.5-1.5,2.8-2.4,4c-0.9,1.2-1.8,2.2-2.8,3.2
		c-1,1-1.9,1.8-2.7,2.5c0.4,0.3,0.7,0.6,1.1,0.9c0.2,0.2,0.4,0.4,0.7,0.6c0.1,0.1,0.3,0.2,0.4,0.3c0.2,0.3,0.6,0.7,1.2,1.2
		c0.6,0.4,1,0.7,1.4,0.9l5.8,5.5c0.3,0.1,0.5,0.3,0.7,0.5c0.2,0.2,0.4,0.4,0.6,0.7c0.5,0.5,1,0.9,1.5,1.3c0.5,0.4,1,0.8,1.5,1.3
		l0.3,0.2l0.2,0.8c0.3,0.3,0.7,0.7,1,1s0.6,0.8,0.9,1.3c0,0.2,0,0.3-0.1,0.5c-0.1,0.1-0.1,0.2-0.1,0.3c0,0.3,0.1,0.5,0.3,0.6
		c0.2,0.1,0.3,0.3,0.3,0.5c-0.2,0-0.5-0.2-0.7-0.5c-0.2-0.3-0.4-0.5-0.7-0.5c-0.1,0-0.2,0.1-0.3,0.4c-0.1,0.2-0.1,0.4-0.1,0.4
		c-0.1,0.1-0.2,0.3-0.4,0.4c-0.2,0.1-0.3,0.3-0.3,0.5h-0.9c-0.2,0-0.4,0.2-0.4,0.7c0,0.5-0.2,0.7-0.4,0.7c-0.1,0-0.2,0-0.3-0.1
		c-0.1,0-0.2-0.1-0.3-0.1c-0.2,0-0.4,0-0.5,0.1c-0.1,0-0.3,0.1-0.5,0.1c-0.4,0-0.8-0.1-1.1-0.4c-0.4-0.2-0.7-0.5-0.9-0.6h-0.3
		c-0.3,0-0.4,0.2-0.4,0.5c0,0.2,0.1,0.4,0.4,0.5c0.3,0.1,0.4,0.3,0.4,0.5c-0.8,0-1.5-0.2-2.2-0.5c-0.6-0.3-1.2-0.7-1.7-1.2
		c-0.5-0.5-1-1-1.5-1.5c-0.5-0.5-1-1-1.6-1.4c-0.2-0.2-0.4-0.4-0.4-0.6c0-0.2-0.2-0.3-0.5-0.4l-2.2-2.2c-0.2-0.1-0.4-0.3-0.7-0.5
		c-0.3-0.3-0.5-0.5-0.7-0.7l-5.4-4.6c-0.3-0.2-0.6-0.4-0.8-0.6c-0.2-0.2-0.4-0.3-0.8-0.3c0,0.6,0.1,1.1,0.2,1.6
		c0.1,0.5,0.3,1,0.4,1.6c0.4,1.8,0.8,3.6,1.1,5.5c0.1,0.3,0.2,0.6,0.4,0.9c0.1,0.3,0.2,0.7,0.2,1c0,0.2-0.1,0.4-0.2,0.6
		c-0.1,0.2-0.2,0.4-0.2,0.6c0,0,0,0.1,0.1,0.1c0,0,0.1,0.1,0.1,0.2c-0.2,0-0.4-0.1-0.4-0.3c0-0.2-0.1-0.3-0.2-0.5
		c-0.1-0.1-0.2-0.3-0.3-0.5c-0.1-0.2-0.2-0.4-0.3-0.5c0-0.1-0.1-0.2-0.3-0.2c-0.2,0-0.4,0.1-0.4,0.3c0,0.2,0,0.3-0.1,0.4
		c-0.1,0.1-0.3,0.2-0.4,0.3c-0.1,0-0.3,0.1-0.4,0.2c-0.1,0.1-0.3,0.2-0.4,0.3c-0.1,0.1-0.2,0.4-0.3,0.7c0,0,0,0.2,0,0.4
		c0,0.2,0,0.3,0,0.4c0,0.1,0,0.2-0.1,0.2s-0.1,0-0.1,0c0,0-0.1,0-0.2,0v0.9h-0.6v1.4c-0.1-0.6-0.2-0.9-0.3-0.9l-0.1-0.1
		c-0.2,0-0.3,0.2-0.5,0.7c-0.1,0.5-0.2,0.8-0.2,0.9c-0.1,0-0.2,0-0.3-0.1c-0.1-0.1-0.2-0.1-0.3-0.1c-0.2,0-0.3,0.1-0.3,0.4
		c0,0.2-0.1,0.4-0.2,0.4c-0.1,0-0.3-0.1-0.3-0.2s-0.2-0.2-0.4-0.2c0,0-0.1,0-0.1,0.1c0,0.1-0.1,0.2-0.1,0.3l0.4,0.9
		c-0.1,0-0.3-0.3-0.6-1c-0.3-0.7-0.5-1.4-0.8-2.2c-0.3-0.8-0.6-1.6-0.8-2.4c-0.2-0.8-0.4-1.3-0.4-1.5c0-0.2-0.1-0.5-0.2-0.9
		c-0.1-0.4-0.2-0.9-0.4-1.3c-0.1-0.5-0.3-0.9-0.4-1.4c-0.1-0.4-0.2-0.7-0.3-0.9c0-0.1,0-0.3-0.1-0.8c-0.1-0.4-0.2-0.7-0.2-0.8
		c0.1-0.1,0.1-0.3,0.1-0.6c-0.1-1-0.3-1.9-0.4-2.8c-0.1-0.9-0.3-1.9-0.4-2.8c0-0.1,0-0.4-0.1-0.9c-0.1-0.5-0.1-0.9-0.1-1.1
		c-0.2-2-0.4-3.9-0.6-5.7c-0.2-1.8-0.3-3.7-0.4-5.7c-0.1-1-0.2-2-0.4-3c-0.1-1-0.2-2-0.2-3c0-0.7,0-1.3,0.1-2c0.1-0.7,0.1-1.3,0.1-2
		c0-0.1-0.1-0.2-0.2-0.4c-0.1-0.1-0.2-0.3-0.2-0.4c0-0.1,0-0.3,0.1-0.5c0.1-0.2,0.2-0.4,0.3-0.4v-1.8c0-0.6,0.1-1,0.2-1.3l0.1-0.1
		c0,0,0.1,0,0.1-0.1c0.2-0.2,0.3-0.4,0.3-0.4c0,0,0-0.2,0.1-0.5c0-0.1,0.2-0.4,0.5-0.7c0.3-0.3,0.5-0.6,0.8-1
		c0.3-0.3,0.6-0.6,0.8-0.9c0.2-0.3,0.4-0.4,0.5-0.3l0.1-0.1c0,0,0.1,0,0.1-0.1c0.1,0,0.2-0.1,0.3-0.2c0.1-0.1,0.2-0.2,0.3-0.3
		l0.3-0.3v-0.3c0.2,0,0.4-0.1,0.5-0.2c0.1-0.1,0.3-0.2,0.5-0.3c0.6-0.5,1.2-1,1.8-1.5c0.6-0.5,1.3-0.9,1.9-1.2c0,0.1,0,0.2,0,0.2
		c0,0,0,0.1,0,0.2l0.1,0.1h0.1l0.8-0.4c0,0,0.1-0.1,0.3-0.3c0.1-0.1,0.2-0.2,0.3-0.2c0.2-0.1,0.5-0.3,1-0.4c0.5-0.1,0.7-0.3,0.7-0.6
		c-0.4,0-0.9,0.2-1.4,0.5c-0.6,0.4-1.1,0.5-1.4,0.5c0.1-0.1,0.3-0.2,0.5-0.3c0.2-0.1,0.3-0.2,0.4-0.3l2.7-1c0.4-0.1,0.8-0.3,1.1-0.3
		c0.3-0.1,0.7-0.2,1.3-0.3c0,0.1,0.1,0.1,0.3,0.1c0.1,0,0.3,0,0.4-0.1H587z M581.8,115.4c0,0.1,0.1,0.1,0.2,0.1
		c0.3,0,0.8-0.2,1.3-0.5c0.5-0.3,1.1-0.7,1.7-1.2c0.6-0.5,1.1-0.9,1.6-1.4c0.5-0.5,0.8-0.8,1-1c0.1-0.1,0.3-0.3,0.3-0.5
		c0.1-0.2,0.2-0.3,0.3-0.5l0.2-0.3c0.4-0.5,0.9-1.1,1.3-1.8c0.5-0.6,0.8-1.3,1-1.9c0.3-0.6,0.6-1.1,0.8-1.6c0.2-0.5,0.3-1.1,0.3-1.7
		c0-0.1,0-0.3-0.1-0.6c0-0.3-0.1-0.4-0.2-0.5l-1.7-2.7c-0.1-0.1-0.2-0.2-0.4-0.3c-0.3-0.2-0.4-0.3-0.4-0.4c-0.4-0.8-1.2-1.3-2.3-1.7
		c-1.2-0.4-2.4-0.5-3.6-0.5c-1.3,0-2.5,0.2-3.6,0.6c-1,0.4-1.5,1-1.5,1.9c0,0.1,0,0.2,0,0.2c0,0,0,0.1,0,0.2l3.5,15.6
		C581.5,115,581.6,115.2,581.8,115.4z M579.2,91.1c-0.1,0.1-0.1,0.2-0.1,0.2v0.2c0.1,0,0.3,0,0.4-0.1L579.2,91.1z M587.2,89
		c0.7,0,1.6,0.1,2.6,0.4c1,0.3,1.8,0.5,2.5,0.8c0.2,0.1,0.3,0.2,0.4,0.2c0,0,0.2,0.1,0.4,0.1c0-0.1-0.1-0.2-0.4-0.4
		c-0.3-0.2-0.6-0.4-1-0.5c-0.4-0.2-0.7-0.3-1-0.5c-0.3-0.1-0.6-0.2-0.7-0.3c-0.2-0.1-0.5-0.1-0.8-0.1c-0.3,0-0.5,0-0.8-0.1h-2.9
		c0,0-0.2,0-0.6,0.1c-0.3,0.1-0.6,0.1-0.8,0.2c-0.3,0.1-0.7,0.2-1,0.4c-0.4,0.2-0.7,0.4-0.9,0.7l0.2,0.1c0.2,0,0.4,0,0.6-0.1
		c0.2-0.1,0.3-0.2,0.5-0.3c0.3-0.1,0.6-0.1,0.9-0.1s0.6,0,1-0.1c0.4-0.1,0.7-0.2,0.8-0.3C586.5,89,586.8,89,587.2,89z"/>
	<path fill="#FFFFFF" d="M633.8,132.4c0-0.8,0.1-1.6,0.3-2.4c0.2-0.8,0.4-1.6,0.6-2.4c0-0.1,0.1-0.2,0.2-0.4
		c0.1-0.2,0.1-0.3,0.1-0.5c0.2-1,0.6-1.9,1.1-2.7c0.5-0.8,1-1.7,1.6-2.5c0.5-0.4,1-1,1.3-1.7c0.4-0.7,0.8-1.3,1.3-1.8
		c0.1-0.1,0.4-0.4,0.7-0.6c0.3-0.3,0.7-0.6,1-0.9c0.3-0.3,0.6-0.6,0.9-0.9c0.3-0.3,0.4-0.5,0.4-0.7c0,0-0.1-0.2-0.3-0.3
		c-0.2-0.2-0.3-0.4-0.5-0.6c-0.2-0.2-0.4-0.4-0.5-0.6c-0.2-0.2-0.3-0.3-0.3-0.4c-1.1-1.4-1.7-3-1.7-4.7c0-0.6,0.1-1.2,0.3-1.9
		c0.2-0.7,0.5-1.2,0.9-1.6c0.1-0.2,0.3-0.5,0.6-0.6c0.2-0.2,0.4-0.4,0.5-0.7c0.2-1.4,0.7-2.8,1.3-4c0.6-1.2,1.4-2.4,2.4-3.3
		c1-1,2.1-1.7,3.3-2.3c1.2-0.6,2.6-0.8,4.2-0.8c1.3,0,2.7,0.3,4.1,0.9c1.4,0.6,2.7,1.5,3.9,2.5c1.2,1,2.1,2.2,2.9,3.6
		c0.7,1.3,1.1,2.7,1.1,4.2c0,0.5-0.1,1.4-0.4,2.5c-0.2,1.1-0.6,2.3-1,3.5c-0.5,1.2-1,2.2-1.7,3.1c-0.6,0.9-1.4,1.4-2.2,1.4
		c0,0.2,0.3,0.5,0.8,1s1.1,1.1,1.8,1.8c0.7,0.7,1.4,1.5,2.1,2.3c0.7,0.8,1.2,1.7,1.5,2.6c0.1,0.2,0.3,0.7,0.5,1.5
		c0.2,0.8,0.4,1.6,0.7,2.4c0.2,0.9,0.5,1.7,0.6,2.4c0.2,0.7,0.3,1.3,0.3,1.5l0.1,1.4c0,0.3,0,0.6-0.1,1.1c-0.1,0.4-0.3,1.1-0.6,1.9
		c-0.1,0.1-0.3,0.5-0.5,1.1c-0.2,0.6-0.5,1.2-0.9,1.9c-0.4,0.7-0.8,1.3-1.2,1.9c-0.4,0.6-0.9,1-1.4,1.1c0.1-0.1,0.2-0.2,0.2-0.4
		c0-0.2,0.1-0.3,0.2-0.5c0-0.2,0.1-0.4,0.2-0.6c-0.1,0-0.4,0.2-0.8,0.6c-0.4,0.4-0.7,0.8-1,1.2c0.1-0.2,0.2-0.5,0.3-0.8
		c0.1-0.3,0.2-0.4,0.1-0.4c-0.1,0-0.4,0.1-0.8,0.4c-0.4,0.3-0.8,0.5-1.3,0.6c-0.1,0-0.2-0.1-0.3-0.2c-0.1-0.1-0.2-0.2-0.4-0.2
		c-0.2,0-0.4,0.2-0.5,0.7c-0.2,0.5-0.3,0.8-0.3,1h0.5c0.1,0,0.2,0,0.4-0.1c0,0.1,0,0.2-0.1,0.3c0.1,0,0.2,0,0.3,0c0.1,0,0.2,0,0.3,0
		c-0.1,0.2-0.3,0.5-0.7,0.6c-0.4,0.2-0.8,0.4-1.2,0.5c-0.5,0.2-0.9,0.3-1.3,0.4c-0.4,0.1-0.7,0.2-0.9,0.3c-1.2,1.1-2.7,1.9-4.4,2.3
		c-1.7,0.4-3.4,0.6-5,0.6c-2,0-3.9-0.5-5.5-1.4c-1.7-0.9-3.1-2.1-4.3-3.5c-1.2-1.4-2.1-3-2.8-4.8
		C634.1,135.8,633.8,134.1,633.8,132.4z M642.7,132c0,0.1,0.1,0.3,0.3,0.6c0.2,0.3,0.4,0.7,0.7,1.1c0.3,0.4,0.5,0.7,0.8,1
		s0.5,0.4,0.7,0.4c1.1,1.1,2.2,1.8,3.3,2.2c1.1,0.4,2.3,0.6,3.7,0.6c0.5,0,1-0.1,1.7-0.3c0.6-0.2,1.2-0.4,1.8-0.6
		c0.6-0.2,1-0.4,1.4-0.6c0.4-0.2,0.6-0.4,0.6-0.5c0.2-0.2,0.4-0.5,0.5-0.9c0.2-0.4,0.3-0.8,0.4-1.3c0.1-0.5,0.1-0.9,0.2-1.3
		c0-0.4,0.1-0.7,0.1-1c0-1.4-0.4-2.8-1.2-4.1c-0.8-1.3-1.8-2.6-3-3.9c-1.2-1.2-2.5-2.4-3.9-3.4c-1.4-1-2.7-2-3.9-2.8
		c-0.7,0.6-1.3,1.4-1.8,2.5s-0.9,2.2-1.3,3.5c-0.3,1.2-0.6,2.5-0.8,3.7s-0.3,2.3-0.3,3.1l0.1,0.6V132z M649.4,105.8
		c0,0.1,0.1,0.3,0.3,0.6c0.2,0.2,0.4,0.5,0.6,0.7c0.2,0.2,0.4,0.5,0.6,0.6c0.2,0.2,0.3,0.3,0.4,0.4c0.7,0.6,1.3,1.1,1.8,1.5
		c0.5,0.4,0.9,0.7,1.4,1.1c0.5,0.3,0.8,0.5,1,0.5c0,0,0.1-0.2,0.2-0.4c0.1-0.2,0.3-0.5,0.4-0.7c0.2-0.3,0.3-0.5,0.4-0.8
		c0.1-0.3,0.2-0.5,0.2-0.6c0-2.1-0.5-3.4-1.4-4.1c-0.9-0.6-2.2-1-3.9-1c-0.3,0-0.8,0.2-1.3,0.6S649.4,105.2,649.4,105.8z
		 M662.7,141.4c0,0,0-0.1,0.1-0.2C662.8,141.2,662.8,141.2,662.7,141.4C662.8,141.3,662.8,141.4,662.7,141.4z"/>
	<path fill="#FFFFFF" d="M677.6,159.9c-0.1,0-0.3,0-0.4,0.1c-0.1,0.1-0.2,0.2-0.4,0.2c0-0.4,0-0.8,0.1-1.1c0.1-0.4,0.1-0.7,0.1-1.1
		c0-0.2,0-0.4,0-0.5c0-0.2-0.1-0.4-0.2-0.6l0.5-6.6c-0.1-0.1-0.1-0.3-0.1-0.5v-0.4c-0.4-0.4-0.8-0.8-1.1-1.2c-0.3-0.4-0.7-0.9-1-1.3
		c-0.4-0.5-0.8-0.9-1.3-1.1c-0.5-0.3-0.8-0.8-0.8-1.5c0-0.2,0-0.4,0.1-0.5c0-0.1,0.1-0.1,0.2-0.1c0.1,0,0.1-0.1,0.2-0.1
		c0.1-0.1,0.1-0.2,0.1-0.4c0-0.1,0.2-0.3,0.7-0.5c0.5-0.3,1.1-0.5,1.7-0.8c0,0,0.1-0.1,0.4-0.2c0.2-0.1,0.5-0.1,0.8-0.2
		c0.3-0.1,0.6-0.2,0.9-0.3c0.3-0.1,0.5-0.3,0.6-0.5c0.2,0,0.5,0.1,0.7,0.2c0.2,0.1,0.5,0.2,0.7,0.2c0.1,0,0.2,0,0.3-0.1
		c0.1,0,0.2-0.1,0.4-0.1c0.5,0,1.1,0.4,1.7,1.3c0.6,0.8,0.9,1.7,0.9,2.6c0,0.5,0,1.1-0.1,1.6c-0.1,0.5-0.2,1.1-0.3,1.6
		c-0.1,0.7-0.2,1.5-0.2,2.2c0,0.7-0.1,1.5-0.1,2.3c0,0.8-0.2,1.7-0.4,2.6c-0.2,0.9-0.5,2-1,3.1c-0.1-0.1-0.3-0.1-0.5-0.1
		c-0.1,0-0.3,0.1-0.3,0.3c-0.1,0.2-0.1,0.3-0.2,0.5c-0.1,0.2-0.1,0.3-0.2,0.5c0,0.2-0.1,0.3-0.3,0.3c-0.2,0-0.6,0.1-0.9,0.4
		c-0.4,0.3-0.6,0.4-0.7,0.4c0,0-0.1-0.1-0.2-0.2C677.9,159.9,677.8,159.9,677.6,159.9z"/>
	<path fill="#FFFFFF" d="M709.7,143.7c0.1-0.4,0.2-0.8,0.3-1.1s0.1-0.7,0.2-0.9c0.1-0.2,0.1-0.4,0.1-0.4l2.5-6.6
		c0.1-0.1,0.1-0.2,0.1-0.3c0-0.1,0-0.2,0.1-0.4c0.4-1,0.9-1.9,1.5-2.8c0.6-0.9,1.1-1.8,1.7-2.7c0.4-0.7,0.9-1.4,1.4-2.1
		c0.6-0.6,1-1.3,1.5-2.1c0.1-0.2,0.2-0.3,0.3-0.4c0.1-0.1,0.2-0.2,0.2-0.4l1.8-2.5l0.1-0.1c0,0,0.1-0.1,0.1-0.1c0,0,0.1-0.1,0.1-0.1
		c1.1-1.3,2.1-2.6,3.2-3.9c1.1-1.2,2.1-2.6,3-4c0.2-0.3,0.3-0.6,0.3-1c0-0.4,0.1-0.8,0.1-1c0-0.1,0.1-0.3,0.1-0.5c0-0.2,0-0.3,0-0.4
		c0,0-0.1-0.4-0.3-1c-0.1-0.6-0.2-1.1-0.3-1.4c0-0.2-0.1-0.6-0.2-1c-0.1-0.5-0.2-0.8-0.4-1c-0.4-0.4-0.9-1-1.6-1.6
		c-0.7-0.6-1.4-1-2-1.1c-0.2,0-0.5,0.1-0.9,0.4c-0.4,0.2-0.9,0.5-1.4,0.9c-0.5,0.3-1,0.7-1.5,1c-0.5,0.4-0.9,0.6-1.2,0.8l-1,0.7
		c-0.1,0.1-0.2,0.2-0.3,0.3c0,0.1-0.1,0.2-0.2,0.3c-0.4,0.2-0.7,0.4-1,0.6s-0.6,0.3-1,0.5c-0.4,0-1,0-1.7,0.1
		c-0.8,0.1-1.3,0.2-1.7,0.4c-0.1,0.1-0.2,0.2-0.3,0.3c-0.1,0.1-0.3,0.1-0.4,0.2c-0.1,0-0.2-0.1-0.4-0.2c-0.1-0.1-0.3-0.1-0.5-0.2
		l0.1-0.2c0-0.3,0-0.6-0.1-0.7c-0.1-0.1-0.2-0.2-0.3-0.2c-0.1,0-0.2,0-0.3,0s-0.1,0-0.1-0.1c0-0.1,0.1-0.2,0.2-0.2
		c0.1,0,0.2-0.2,0.3-0.4l0.4-4c0.4-0.5,0.7-1,0.8-1.6c0.2-0.6,0.4-1.2,0.6-1.8c0,0,0.2-0.2,0.4-0.5c0.2-0.3,0.3-0.6,0.4-0.7
		c0.2-0.2,0.3-0.4,0.4-0.8c0.1-0.3,0.2-0.6,0.4-0.8c1.3-1.2,2.9-2.2,4.9-3c1.9-0.8,3.9-1.2,5.7-1.2c0.2,0,0.5,0,0.6,0
		c0.2,0,0.4,0,0.6,0.1c2.8,0.3,5.3,1.6,7.5,3.9c0.2,0.3,0.4,0.6,0.5,0.9c0.1,0.3,0.3,0.6,0.5,0.9c0.2,0.3,0.5,0.7,0.8,1
		c0.3,0.3,0.6,0.7,0.9,1c0.1,0.1,0.2,0.2,0.3,0.4c0.1,0.2,0.2,0.4,0.3,0.6c0.2,0.4,0.5,0.8,0.6,1.1c0.2,0.4,0.3,0.8,0.4,1.3
		c0,0.1,0.1,0.4,0.2,0.7c0.1,0.3,0.2,0.7,0.3,1c0.1,0.3,0.1,0.6,0.2,0.9c0.1,0.3,0.1,0.5,0.1,0.5c0,0.1,0.1,0.3,0.1,0.7
		c0,0.4,0.1,0.6,0.1,0.7v0.1c0,0,0,0.1,0.1,0.1c0,0.1-0.1,0.3-0.1,0.6c0,0.3,0,0.5,0,0.6c-0.1,0.9-0.3,1.7-0.5,2.4
		c-0.2,0.7-0.5,1.5-0.7,2.3c-0.5,0.8-0.9,1.5-1.4,2.2c-0.5,0.7-0.9,1.3-1.4,2l-0.4,0.3c0,0.1-0.1,0.2-0.2,0.4
		c-0.1,0.2-0.1,0.3-0.1,0.3c-0.1,0.1-0.3,0.3-0.5,0.3c-0.2,0.1-0.3,0.2-0.4,0.3c-0.4,0.7-0.8,1.3-1.4,1.9c-0.5,0.6-1.1,1.2-1.6,1.8
		c-0.1,0.2-0.4,0.5-0.6,0.8c-0.3,0.4-0.6,0.7-0.9,1.1c-0.3,0.4-0.6,0.7-0.8,1c-0.2,0.3-0.4,0.5-0.4,0.6c-0.4,0.6-0.8,1.1-1.2,1.7
		c-0.4,0.6-0.8,1.1-1.3,1.6c0,0-0.1,0.1-0.2,0.2c-0.1,0.1-0.2,0.2-0.3,0.2c-0.1,0.2-0.2,0.5-0.4,0.8c-0.2,0.4-0.3,0.6-0.5,0.7
		c-0.1,0.2-0.3,0.6-0.6,1.2c-0.3,0.6-0.6,1-0.6,1.2c0,0,0,0.2-0.1,0.4c-0.1,0.2-0.2,0.4-0.2,0.5c0.3,0,0.7,0.1,1,0.1
		c0.3,0,0.7,0,1.1,0c0.5,0,0.9,0,1.4,0c0.5,0,0.9,0,1.5,0c0,0,0.1,0,0.1,0c0,0,0.1,0,0.1,0c0.7-0.1,1.4-0.2,2-0.2c0.1,0,0.2,0,0.4,0
		c0.1,0,0.3,0,0.4,0c0.5,0.1,1.1,0.4,1.6,0.9c0.5,0.5,1.1,0.7,1.6,0.7c0.3,0,0.6-0.1,0.9-0.4c0,0,0,0.1,0,0.1c0,0,0,0.1,0,0.2
		c0,0.1,0,0.2,0.1,0.2c0,0.4,0.3,1,0.7,1.7c0.4,0.7,0.6,1.5,0.6,2.6c0,0.5-0.1,1-0.2,1.5c-0.1,0.5-0.4,1.1-0.8,1.7l-0.1,0.9
		c-0.1,0-0.3,0.1-0.4,0.1c-0.1,0-0.3,0.1-0.5,0.1h-0.4c-0.1,0-0.2,0-0.4,0.1c0,0.2-0.5,0.4-1.7,0.5c-1.2,0.1-2.6,0.2-4.3,0.2
		c-1.7,0-3.3,0-5,0.1c-1.7,0-3,0.1-3.9,0.2c0,0-0.1,0.1-0.2,0.1s-0.2,0-0.3,0s-0.2,0-0.3,0c-0.2,0-0.3,0-0.3,0
		c-0.1,0-0.2,0.1-0.4,0.1c-0.4,0-0.7-0.1-1.1-0.3c-0.3-0.1-0.7-0.2-1-0.3c-0.1,0-0.2,0-0.3,0.1c-0.1,0-0.3,0.1-0.4,0.1
		c-0.4,0-0.7,0.1-1,0.1c-0.3,0-0.5,0-0.8,0c-1.1-0.1-1.6-0.8-1.6-1.9v-0.3C709.5,144.4,709.6,144,709.7,143.7z"/>
	<path fill="#FFFFFF" d="M746.8,145.7c-0.1-0.2-0.2-0.4-0.4-0.6c-0.2-0.2-0.4-0.3-0.5-0.5c-1.4-1.7-2.7-3.7-3.9-6
		c-1.2-2.3-1.8-4.9-1.8-7.8c0-0.1,0-0.3,0-0.6c0-0.3-0.1-0.7-0.1-1.1c0-0.4-0.1-0.7-0.1-1c0-0.3-0.1-0.5-0.1-0.5
		c0-1.4,0-2.8,0.1-4.4c0.1-1.5,0.3-3,0.5-4.5c0.3-1.5,0.7-2.9,1.3-4.2c0.6-1.4,1.4-2.6,2.5-3.7c0,0-0.1-0.1-0.1-0.2
		c0-0.4,0.2-0.8,0.6-1.3c0.4-0.5,0.6-0.8,0.6-0.9c0-0.1,0.2-0.3,0.6-0.7c0.4-0.4,0.8-1,1.2-1.9c1-0.9,2-2,3.2-3.4
		c1.2-1.4,2.4-2.8,3.8-4.1c1.4-1.3,2.8-2.5,4.4-3.5c1.6-1,3.3-1.4,5.2-1.4c1.7,0,3.2,0.4,4.5,1.2c1.2,0.8,2.3,1.7,3.3,2.8
		c0.9,1.1,1.8,2.3,2.5,3.5c0.7,1.2,1.5,2.3,2.3,3.2l1.7,3.4c0,0,0.1,0.2,0.2,0.4c0.1,0.2,0.2,0.6,0.3,1.3c0.1,0.6,0.3,1.5,0.5,2.6
		c0.2,1.1,0.5,2.6,0.8,4.5l0.4,2c0,5.3-0.6,9.8-1.8,13.5c-1.2,3.7-2.6,6.7-4.3,9c-1.7,2.3-3.4,4-5.2,5c-1.8,1-3.3,1.5-4.6,1.5
		c-0.2,0-0.4,0-0.6-0.1c-0.1-0.1-0.3-0.1-0.5-0.1c-0.3,0-0.6,0.1-0.8,0.4c-0.2,0.2-0.5,0.4-0.8,0.4c-0.3,0.1-0.6,0.2-0.8,0.3
		c-0.2,0.1-0.4,0.2-0.6,0.3c-0.2,0.1-0.3,0.3-0.4,0.4c0.1,0,0.2,0.1,0.2,0.2c0,0.1,0,0.2,0,0.2c-0.1,0-0.3,0-0.6,0
		c-0.3,0-0.6,0-0.9-0.1c-0.3,0-0.6-0.1-0.9-0.2c-0.3-0.1-0.5-0.2-0.6-0.3c0,0-0.1,0-0.3,0c-0.1,0-0.2,0-0.3,0c-0.1,0-0.2,0-0.3-0.1
		c-0.1,0-0.2-0.1-0.3-0.1c-0.1,0-0.2,0-0.2-0.1c-0.1,0-0.4,0-0.8,0c-0.4,0-0.6,0-0.7,0c-0.1,0-0.4-0.1-0.8-0.2
		c-0.4-0.1-0.8-0.3-1.3-0.5c-0.5-0.2-0.9-0.4-1.3-0.6c-0.4-0.2-0.8-0.4-1.1-0.5c-0.7-0.5-1.1-0.9-1.4-1s-0.4-0.2-0.5-0.2
		c0,0.1,0.2,0.3,0.5,0.7c0.4,0.4,0.8,0.8,1.3,1.2c0.5,0.4,1,0.8,1.5,1.2c0.5,0.3,1,0.5,1.3,0.5c0,0.1-0.1,0.2-0.3,0.2
		c-0.5,0-1.1-0.2-1.6-0.5c-0.5-0.3-1-0.7-1.5-1c-0.5-0.4-0.9-0.8-1.3-1.2C747.3,146.1,747,145.8,746.8,145.7z M750,123.7
		c0,1.3,0.1,2.6,0.4,3.9c0.2,1.3,0.6,2.5,0.9,3.6c0.1,0.4,0.7,1.1,1.7,2.1c1,1,2.1,1.9,3.3,2.9c1.2,1,2.5,1.9,3.7,2.6
		c1.2,0.8,2.2,1.2,3,1.2c0.8,0,1.2-0.4,1.2-1.3c0-0.1,0-0.2-0.1-0.3c0.2-0.2,0.6-0.5,1.1-0.7c0.5-0.2,0.8-0.4,0.9-0.4
		c1.2-2.7,2.1-5.2,2.7-7.6c0.5-2.4,0.8-4.9,0.8-7.5c0-1.2,0-2.4-0.1-3.7c-0.1-1.2-0.2-2.6-0.4-4l0.1-0.2c0-0.9-0.2-1.9-0.7-3.1
		c-0.5-1.2-1.1-2.4-1.8-3.6c-0.7-1.2-1.6-2.1-2.6-2.9c-1-0.8-2-1.2-3-1.2c-1.1,0-2.1,0.5-3.1,1.4c-1,0.9-1.9,2.1-2.7,3.4
		c-0.8,1.3-1.5,2.7-2.1,4c-0.6,1.4-1.1,2.5-1.4,3.3l-0.2,0.6C750.5,118.6,750,121.1,750,123.7z"/>
	<path fill="#FFFFFF" d="M784.8,147.8c0-0.1,0-0.2,0.1-0.2c0.1,0,0.1-0.1,0.1-0.2c0-0.2-0.1-0.5-0.2-0.6c-0.1-0.2-0.2-0.4-0.2-0.5
		c0-0.8,0.2-1.4,0.7-1.9c0.5-0.5,0.8-1.1,1-1.8v-0.3c0-0.1,0-0.2,0-0.3c0-0.1,0-0.2,0-0.3c0-0.1,0-0.2,0.1-0.3c0,0,0.1-0.1,0.1-0.1
		c0,0,0.1-0.2,0.1-0.3c0-0.2,0.1-0.5,0.1-1c0-0.2,0.2-0.5,0.7-0.7c0.5-0.2,1-0.4,1.6-0.6c0.6-0.2,1.3-0.3,1.9-0.4
		c0.6-0.1,1.2-0.2,1.5-0.3c0,0,0.1,0,0.3,0c0.1,0,0.2,0,0.3,0c0.4,0,0.8-0.1,1-0.2c0.2-0.1,0.3-0.4,0.3-0.8l-0.1-21.1l0.5-4.8
		l-0.1-0.6c-0.3,0-0.6,0.1-0.8,0.3c-0.3,0.2-0.6,0.4-0.9,0.6c-0.6,0.4-1.5,0.6-2.6,0.8s-2.1,0.2-3.1,0.2c-0.9,0-1.5,0-1.8-0.1
		c-0.3-0.1-0.5-0.2-0.6-0.4s-0.1-0.3-0.1-0.4c0-0.1-0.1-0.3-0.4-0.4c0.2-0.2,0.4-0.4,0.4-0.6s0.1-0.3,0.1-0.4c0-0.3,0-0.5-0.1-0.8
		c-0.1-0.2-0.1-0.5-0.1-0.8c0-0.4,0.2-0.8,0.4-1c0.2-0.2,0.4-0.4,0.6-0.5c0.2-0.1,0.4-0.3,0.5-0.5c0.2-0.2,0.3-0.5,0.3-0.8l-0.2-0.1
		c0.1-0.1,0.4-0.4,0.8-0.9c0.5-0.5,1.2-1.3,2.2-2.2c1-0.9,2.3-2.1,3.9-3.5c1.6-1.4,3.6-2.9,6.1-4.6h0.7c0,0,0.1,0.2,0.3,0.5
		c0.1,0.3,0.3,0.7,0.4,1c0.2,0.4,0.4,0.7,0.6,1c0.2,0.3,0.4,0.5,0.6,0.5c0.9,0.5,1.5,1.1,1.8,1.8c0.4,0.7,0.6,1.4,0.7,2.1
		c0.1,0.7,0.2,1.4,0.2,2c0,0.6,0.2,1.2,0.4,1.7c-0.2,1.7-0.3,3.3-0.3,4.9c0,1.6-0.1,3.3-0.5,4.9c0.1,0.3,0.1,0.7,0.1,1
		c0,0.3,0,0.6,0,1c0,0.6,0,1.2,0,1.9c0,0.6,0,1.3,0,1.9c0,0.6,0,1.2,0,1.8c0,0.6,0,1.2,0,1.8s0,1.1-0.1,1.7c0,0.5-0.1,1.1-0.1,1.6
		c0,0.5,0,1.1,0.1,1.7c0,0.6,0.1,0.9,0.1,1c0,0.6,0,1.2-0.1,1.8c0,0.6-0.1,1.2-0.1,1.7c0,1,0,1.6,0.1,2c0.1,0.4,0.4,0.5,0.9,0.5
		c0.3,0,0.7,0,1-0.1c0.3,0,0.7-0.1,1-0.1c0.4,0,0.9,0.1,1.4,0.3c0.4,0.5,0.8,1,1.2,1.3c0.4,0.3,0.7,0.7,1,1c0.3,0.3,0.6,0.7,0.8,1
		c0.2,0.4,0.3,0.8,0.3,1.3c0,0.1,0,0.3,0.1,0.6c0.1,0.3,0.1,0.5,0.1,0.8c0,0.5-0.3,0.7-0.8,0.8c0,0-0.1,0-0.1,0c0,0-0.1,0-0.1,0
		c-0.2,0-0.4,0.1-0.6,0.3c-0.2,0.2-0.4,0.3-0.4,0.4c0,0.1,0,0.2,0,0.3c0,0.1,0,0.3,0,0.5c-0.8,0-1.5,0.2-2,0.6
		c0,0.2-0.4,0.4-1.3,0.5c-0.9,0.1-1.9,0.3-3,0.4s-2.3,0.3-3.5,0.4c-1.2,0.1-2.1,0.3-2.7,0.4l-6.8,0.4c-0.7,0.1-1.2,0.2-1.7,0.2
		c-0.4,0-0.8,0.1-1.2,0.1c-0.4,0-0.6,0.1-0.7,0.1c-0.2,0-0.5,0-0.8,0c-0.3,0-0.5,0-0.8,0c-0.2,0-0.3,0-0.4,0.1
		c-0.1-0.1-0.2-0.2-0.3-0.2C784.9,148,784.8,147.9,784.8,147.8z"/>
	<path fill="#FFFFFF" d="M845.6,143c-1.9,3-3.8,5-5.8,6.1c-2,1.1-4.3,1.7-6.8,1.7c-1.4,0-3-0.1-4.6-0.4c-1.6-0.3-3.3-0.6-5.2-1
		c-0.6-0.3-1.2-0.8-1.9-1.4c-0.7-0.6-1.3-1.3-1.9-2c-0.6-0.7-1.1-1.5-1.5-2.2c-0.4-0.7-0.6-1.5-0.6-2.1c0-0.2,0-0.4,0.1-0.5
		c0-0.5-0.1-1.1-0.3-1.6c-0.2-0.5-0.3-1.1-0.3-1.6c0-0.2,0.1-0.6,0.2-1.1c0.1-0.5,0.3-0.8,0.5-0.8c0.2,0,0.3,0.1,0.3,0.3
		c0,0.2,0.1,0.3,0.3,0.3c0.3,0,0.4-0.1,0.4-0.3c0-0.1,0-0.3-0.1-0.4c0-0.1-0.1-0.2-0.1-0.4c0-0.1,0.1-0.2,0.2-0.4
		c0.1-0.1,0.2-0.3,0.2-0.6c0-0.2,0.2-0.4,0.5-0.7c0.3-0.3,0.7-0.6,1.2-1c0.5-0.4,0.9-0.8,1.4-1.3c0.5-0.5,0.8-1,1-1.6
		c0.3,0.7,0.8,1.3,1.3,1.9c0.5,0.6,1.1,1.2,1.6,1.9c0.5,0.6,1,1.3,1.4,1.9c0.4,0.7,0.8,1.4,1,2.2c0,0.2,0.2,0.5,0.5,0.6
		c0.3,0.2,0.5,0.5,0.5,0.8c0,0.3,0.3,0.6,0.8,0.9c0.6,0.3,1.2,0.5,1.9,0.7c0.7,0.2,1.5,0.3,2.2,0.4c0.7,0.1,1.3,0.2,1.7,0.2
		c0.5-0.3,1-1,1.5-1.9c0.6-1,0.9-1.8,1.2-2.4c0.3-1,0.5-1.9,0.6-2.9c0-1,0.1-2,0.1-2.9c0-1.2-0.2-2.5-0.5-3.7s-0.9-2.3-1.7-3.3
		c-1.2-1.5-2.6-2.7-4.1-3.3c-1.5-0.7-3.2-1-5.2-1c-1.1,0-2.1,0.1-3.1,0.2c-1,0.1-2.2,0.2-3.4,0.3c-0.6,0-1.2,0-1.8-0.1
		c-0.6,0-1.2-0.3-1.8-0.6c-0.2-0.1-0.4-0.3-0.5-0.6c-0.2-0.3-0.3-0.5-0.5-0.6c0-0.1,0-0.3,0-0.5c0-0.2,0.1-0.3,0.3-0.3
		c0-0.2,0-0.4-0.1-0.6c0-0.1-0.1-0.3-0.1-0.5c0-0.9,0-2.2,0.1-3.8c0.1-1.6,0.2-3.3,0.4-4.9c0.1-0.9,0.2-1.9,0.3-3
		c0.1-1.1,0.3-2,0.7-2.9c0.1-0.2,0.3-0.6,0.7-1c0.4-0.5,0.7-0.9,1.1-1.3c0,0,0,0,0.1-0.1c0.1-0.1,0.2-0.2,0.4-0.3
		c0.1-0.1,0.3-0.3,0.5-0.4c0.8-1.2,1.9-2,3.3-2.4c1.4-0.3,2.8-0.5,4.4-0.5c0.9,0,1.8,0,2.7,0.1c0.9,0,1.8,0.1,2.7,0.1
		c0.1,0,0.5,0,1.3-0.1c0.7,0,1.5-0.1,2.4-0.2c0.9-0.1,2-0.2,3.4-0.3h1.3c0.4,0,0.9,0,1.3,0.1c0.4,0,0.8,0.1,1.2,0.3
		c0.4,0.1,0.7,0.3,0.9,0.6c0.2,0.3,0.4,0.6,0.4,1.1c0,0.5-0.1,1-0.3,1.3c-0.2,0.4-0.3,0.7-0.3,1.1c0,0.8,0.2,1.4,0.5,1.9
		c0.3,0.5,0.5,0.9,0.5,1.2c0,0.1-0.1,0.3-0.4,0.4c-0.3,0.1-0.8,0.3-1.6,0.4c-0.8,0.1-1.8,0.3-3.1,0.5c-1.3,0.2-3,0.5-5.1,0.8
		c-0.1,0-0.2,0-0.4-0.1c-0.1,0-0.3-0.1-0.4-0.1c-0.1,0-0.2,0-0.3,0.1c-0.2,0-0.4,0-0.5,0c-0.1,0-0.3,0-0.5,0c-0.2,0-0.4,0-0.5,0
		c-0.1,0-0.3,0-0.5,0h-6.2c-0.1,0.1-0.2,0.4-0.2,0.8c0,0.5-0.1,1-0.1,1.5c0,0.6,0,1.1-0.1,1.6c0,0.5-0.1,0.8-0.2,0.9
		c0.7,0,1.3,0,1.9-0.1c0.6,0,1.3-0.1,2.1-0.1c3.3,0,6.1,0.5,8.5,1.4c2.4,0.9,4.4,2.6,6.2,5.2c0.4,0.6,0.7,1.2,0.9,1.8
		c0.2,0.6,0.5,1.3,0.9,1.9c0.1,0.2,0.2,0.4,0.4,0.5c0.1,0.2,0.3,0.3,0.4,0.5c0.1,0.3,0.3,0.6,0.3,0.9c0.1,0.3,0.2,0.6,0.3,0.8
		c0.2,0.4,0.4,0.7,0.6,1.1c0.2,0.3,0.3,0.7,0.4,1.2l0.6,4c0,0-0.1,0.2-0.1,0.4c0,0.1,0,0.2,0.1,0.2v3.1c0,0.8-0.1,1.6-0.4,2.6
		c-0.3,0.9-0.6,1.8-1,2.7c-0.4,0.9-0.9,1.7-1.5,2.5S846.2,142.5,845.6,143z"/>
</g>
</svg>
