<?xml version="1.0" encoding="utf-8"?>
<!-- Generator: Adobe Illustrator 18.1.1, SVG Export Plug-In . SVG Version: 6.00 Build 0)  -->
<svg version="1.1" id="Layer_1" xmlns="http://www.w3.org/2000/svg" xmlns:xlink="http://www.w3.org/1999/xlink" x="0px" y="0px"
	 viewBox="0 0 407.5 80.1" enable-background="new 0 0 407.5 80.1" xml:space="preserve">
<g>
	<path fill="#FFFFFF" d="M60,30.2l-0.6,0.2h-2.7c-0.2,0-0.4,0.1-0.6,0.3c-1.6,0-2.8,0.2-3.7,0.4c0.2,0.1,0.4,0.1,0.7,0.1l6-0.2
		c-0.7,0-1.6,0.1-2.7,0.4c-0.4,0-1.1,0.1-2,0.3c0.2,0.1,0.5,0.2,0.8,0.2c0.5,0,1.3,0,2.2-0.1c0.9-0.1,1.8,0,2.7,0.1v1.4
		c-0.2-0.1-0.5-0.2-0.9-0.1c-0.2,0-0.5,0.1-1,0.1l0.2,0.1c0-0.1,0.1-0.1,0.2-0.1c0.1,0,0.2,0,0.3,0.1v0.5h-3.3c-0.1,0-0.2,0-0.2,0.1
		c0,0-0.1,0.1-0.2,0.1h-0.7c-0.4,0-0.8-0.1-1.2-0.1c0,0,0,0-0.1,0.1c0.2,0,0.5,0.1,0.7,0.1c0.3,0,0.6,0,0.9-0.1
		c-0.1,0.2-0.4,0.3-0.8,0.3c0,0,0,0,0,0.1c0,0,0,0.1-0.1,0.1c-0.1,0-0.1,0-0.1-0.1v-0.1l-0.2,0.1c0.1,0.1,0.2,0.1,0.4,0.1
		c0.1,0,0.3,0,0.4-0.1c0.1,0.1,0.1,0.2,0.1,0.3c-0.2,0-0.5,0.1-0.9,0.4c0-0.1,0-0.2-0.1-0.3l-0.4,0.4c0,0-0.1,0-0.1-0.1h-0.1
		c-0.1,0-0.2,0-0.3,0.1c-0.1,0.1-0.1,0.1-0.2,0.1c-0.1,0-0.2,0-0.3-0.1c-0.1-0.1-0.2-0.1-0.3-0.1c0.4,0-0.1,0.2-1.7,0.5
		c-0.2,0-0.8,0.1-1.8,0.1c0,0.1-0.1,0.1-0.2,0.1c-0.2,0-0.3,0-0.4-0.1c0,0-0.1,0.1-0.1,0.2c0,0,0,0.1,0.1,0.2
		c-0.2,0-0.5-0.1-0.9-0.2c-0.4-0.1-0.7-0.2-0.9-0.2c-0.1,0-0.4,0.1-0.7,0.2c-0.3,0.1-0.5,0.2-0.7,0.2c0,0-0.1,0-0.1-0.1
		c0,0,0-0.1-0.1-0.1h-0.3c0,0-0.1-0.1-0.2-0.1c0,0,0,0.1-0.2,0.3h-0.4c-0.1,0-0.5,0-1.1-0.1L42,36.8c0.1,0.1,0.3,0.2,0.4,0.2
		c0.1,0,0.2,0,0.4-0.1c0.1,0,0.3-0.1,0.4-0.1c0.1,0,0.3,0,0.5,0.1c0.2,0,0.4,0.1,0.5,0.1h0.4c0.1,0,0.3-0.1,0.4-0.1
		c0.1,0,0.3,0,0.5,0.1c0.2,0.1,0.4,0.1,0.5,0.1c0.1,0,0.1,0,0.1-0.1c0-0.1,0-0.1,0.1-0.1l0.2,0.1c0.2,0.2,0.5,0.3,0.9,0.3
		c0.1,0,0.3-0.2,0.4-0.4c0.1,0.1,0.3,0.2,0.5,0.4c-0.1,0-0.2,0-0.3,0.1c0,0,0.1,0.1,0.2,0.1c-0.3,0-0.4,0-0.4-0.1
		c-0.4,0.1-1.1,0.2-2.1,0.2c-0.1,0-0.3,0-0.5-0.1c-0.2,0-0.4-0.1-0.5-0.1c0,0-0.1,0-0.2,0.1c-0.1,0.1-0.1,0.1-0.2,0.1l-0.8-0.1
		c0.2,0-0.1,0.1-1,0.1c-1.3,0-2.1,0.1-2.3,0.4c-0.3,1.3-0.7,2.9-1,4.6c0,0.2-0.2,0.4-0.4,0.5v0.1c-0.1,0.5-0.4,1.2-0.8,2.3h3.4
		c0,0-0.2,0.1-0.4,0.3c0.2,0.1,0.4,0.1,0.5,0.1l0.6-0.1l-0.1-0.1c-0.1,0-0.2,0-0.3,0.1c0.4-0.1,0.8-0.2,1.2-0.2
		c0-0.1-0.2-0.1-0.4-0.1h-0.3c-0.1,0-0.3,0.1-0.4,0.1h-0.2c0.5,0,1.3-0.1,2.3-0.2c-0.1,0-0.3,0.1-0.6,0.2c0,0,0.5,0.1,1.3,0.1
		c-0.2,0-0.4,0-0.5,0.1c0.1,0,0.3,0.1,0.5,0.1c0.2,0,0.4,0,0.6-0.1c0,0,0.1,0,0.2,0.1c0.1,0.1,0.2,0.1,0.3,0.1
		c0.2,0,0.4-0.1,0.6-0.2c0,0,0.1,0,0.3-0.1c-0.1-0.1-0.3-0.1-0.7-0.1h-0.3c-0.1,0-0.2,0.1-0.3,0.1c0-0.1,0.1-0.2,0.1-0.4
		C48.3,45,49.8,45,50,45c-0.4,0-1.1,0-2.1,0.1l-1.4,0.1c-0.2,0-0.4,0-0.6,0.1c0.1,0,0.3,0,0.4,0.1c0.1,0,0.2,0,0.4,0l0.2,0.2h0.3
		c0,0,0.1,0,0.3-0.1c0.1-0.1,0.2-0.1,0.3-0.1c0.1,0,0.3,0,0.4,0.1c0,0,0-0.1-0.1-0.2h1.3c-0.1,0-0.2,0.2-0.4,0.5c0.2,0,0.5,0,0.9,0
		c0.3-0.1,0.6,0,0.9,0.1c0.1,0,0.2,0,0.4-0.1c0.1-0.1,0.3-0.1,0.4-0.1c0,0,0.1,0,0.1,0.1h0.1c0.1,0,0.2-0.1,0.3-0.2
		c0.1-0.1,0.2-0.2,0.2-0.2c0,0.1,0.1,0.2,0.2,0.4c-0.3,0-0.6,0-0.9,0.1c0.4,0.1,1,0.1,1.8,0.1l-0.7,0.4h-1.2c0.1,0,0.2,0.2,0.4,0.4
		c-0.2,0.1-0.6,0.3-1.1,0.5c0,0,0,0.1,0.1,0.1c0.1,0,0.3,0,0.4-0.1c0,0.2,0,0.4,0.1,0.4c0.1-0.1,0.2-0.1,0.2-0.1
		c0,0.1,0-0.1-0.1-0.5c0.1,0,0.3,0.2,0.4,0.4c0,0,0.1,0,0.2-0.1c0.1-0.1,0.2-0.1,0.3-0.1h3.2c-0.7,0.2-1.9,0.2-3.5,0.1
		c0,0-0.1,0.1-0.1,0.2c0.3,0,0.6,0.1,0.9,0.1c0.3,0,0.6,0,0.9-0.1c0.2,0.1,0.4,0.2,0.6,0.2c0.1,0,0.2,0,0.2-0.1
		c0-0.1,0.1-0.1,0.2-0.1c0.1,0,0.2,0,0.3,0.1c0.1,0.1,0.2,0.1,0.3,0.1c0.1,0,0.1,0,0.1-0.1c0-0.1,0-0.1,0.1-0.1l0.5,0.3
		c-0.1,0-0.3,0-0.6,0.1c-0.3,0-0.5,0.1-0.6,0.1c-0.4-0.1-0.6-0.1-0.6,0.2c0,0.1,0,0.2,0.1,0.3c0.4-0.1,1-0.1,1.7-0.1
		c0.1,0,0.2,0,0.1-0.1c0.1,0,0.2,0,0.4,0.1c0.4,0,1,0,1.7,0.2c0,0,0-0.1,0.1-0.1c0,0,0.1-0.1,0.1-0.1c0,0,0.1,0,0.3,0.1
		c-0.3,0.2-0.6,0.3-0.9,0.3c-0.2,0-0.4,0-0.6-0.1l-0.1,0.2c0.1,0.1,0.3,0.1,0.6,0.1c0.7,0,1.4-0.1,2.3-0.4l-1.1,0.6
		c-1.5,0.2-2.5,0.4-2.8,0.4c-0.1,0-0.2,0-0.2-0.1c0-0.1-0.1-0.1-0.2-0.1c-0.2,0-0.5,0-0.6,0.1c0,0.1,0.1,0.1,0.1,0.1
		c-0.1,0-0.2-0.1-0.4-0.2h-0.5c0,0,0.1,0.1,0.2,0.3c-2.2,0.1-4.3,0.3-6.3,0.6c-0.2,0-1,0.2-2.4,0.5c-0.3,0.1-0.5,0.2-0.6,0.4
		c0,0-0.1,0.1-0.5,0.1h-0.9l-0.1,0.1c0.1,0.1,0.3,0.1,0.6,0.1c-0.5,0-0.6,0-0.2,0c0.3,0,1,0.1,2,0.1l3.8,0.1l-2.9,0.4
		c0,0-0.2,0-0.4,0.1c-0.2,0.1-0.3,0.1-0.4,0.1h-1.4l-0.1,0.1l0.1,0.1h1c0,0.1-0.1,0.3-0.2,0.4c-3,0.4-5.2,0.6-6.7,0.6
		c-0.2,0-0.4,0-0.8,0.1c-0.3,0-0.6,0.1-0.8,0.1l-0.1,0.2c0,0,0.3,0.1,0.8,0.1h0.6c0,0-0.1,0.2-0.1,0.4c0,0-0.1,0-0.3,0.1h-0.3
		c-0.1,0-0.2,0-0.2-0.1c0,0-0.1-0.1-0.2-0.1c0,0-0.1,0.1-0.2,0.2c-0.5,0-1.1,0.3-1.8,0.6v0.9c-0.1,0.2-0.3,0.6-0.6,1
		c0.1,0.2,0.2,0.5,0.3,0.6h-0.3c0,0.1-0.1,0.4-0.3,0.9c-0.1,0.4-0.1,0.7,0,0.9c0,0-0.1,0-0.2,0.1c-0.1,0-0.1,0.1-0.2,0.1
		c0.1-0.1,0.1,0,0.1,0.4l-0.5,0.7c0,0.1,0.1,0.3,0.1,0.5c0,0.5-0.2,0.9-0.6,1.2c0.1,0.1,0.2,0.2,0.2,0.4c0,0.1-0.1,0.4-0.2,0.9
		c-0.1,0.5-0.2,0.8-0.1,1c-0.1,0.1-0.3,0.2-0.5,0.4c0-0.4,0.1-0.8,0.2-1.2h-0.4c-0.1,0-0.2,0-0.2-0.1c0-0.1-0.1-0.1-0.1-0.1
		c-0.2,0-0.4,0.2-0.5,0.6c0,0.1,0,0.3,0.1,0.5c0,0-0.2,0.4-0.6,1.2c-0.1,0.8-0.5,2.1-1.2,3.8c-0.2-0.1-0.3-0.3-0.3-0.5
		c0-0.2,0.1-0.5,0.4-0.7c0-0.4,0.1-0.8,0.2-1.3c0-0.1,0.1-0.2,0.2-0.4c0.1-0.1,0.2-0.3,0.2-0.4c0,0,0-0.1-0.1-0.1
		c-0.2,0.5-0.5,1.1-0.8,1.8c-0.1,0.1-0.2,0.3-0.4,0.5c0.1-0.1,0.1-0.3,0.1-0.5c0-0.3-0.1-0.7-0.3-1.1c0,0-0.7,1.5-2,4.5v-0.3
		c0-0.3,0.2-1.2,0.6-2.5l-0.1-0.5c-0.3,0.8-0.6,1.6-0.8,2.2c0.1-0.4,0.3-1.1,0.6-1.9c0-0.3,0-0.7,0.1-1.3c0-0.6,0.1-1,0.1-1.3v-0.2
		c0-0.1,0-0.4,0.1-0.7c0,0,0.1,0,0.2-0.1c0,0-0.1-0.1-0.2-0.1c0.1-0.4,0.2-0.7,0.1-1C28.1,64,28,64.1,28,64.2c0-0.3,0-0.6,0-0.6
		c-0.1,0.2-0.2,0.4-0.4,0.7c0,0,0.1,0.2,0.1,0.4c0,0.1-0.1,0.2-0.2,0.3c0.1,0.3,0.1,0.7-0.1,1.1c0,0,0-0.1-0.1-0.2
		c-0.1,0.2-0.3,0.5-0.6,0.9c0.2,0.6,0.3,0.7,0.3,0.5l-0.5,0.1c0-0.2,0-0.6,0.1-1.1c0.1-0.5,0.1-0.9,0.1-1.1h-0.2
		c0,0.3,0,0.5-0.1,0.7c0-1.3,0.2-2,0.7-2.1v-0.1c-0.3,0-0.5-0.1-0.5-0.3c0-0.2,0.1-0.6,0.3-1.1c0.2-0.5,0.3-0.9,0.3-1.1
		c0.2-1.8,0.6-3.5,1.2-4.9c-0.1-0.1-0.3-0.3-0.5-0.5h-0.3c-0.2,0-0.7,0-1.5,0.1l-1.4,0.1c-0.1,0-0.4,0-0.6,0.1
		c-0.3,0-0.5,0.1-0.7,0.1c-0.2,0-0.5,0.1-1,0.2c-0.1,0.1-0.2,0.2-0.3,0.4c-0.9,3.9-1.6,6.8-1.9,8.8c0-0.1,0-0.2-0.1-0.3
		c0,0.5-0.2,1.2-0.5,2.2c0,0.2,0,0.4,0.1,0.5c-0.1,0-0.2,0.1-0.2,0.1c-0.1-0.7-0.1-1.2-0.1-1.6l0.1-1.1L19,64.9
		c0.1-0.4,0-0.9-0.1-1.5c-0.2,0.3-0.6,0.9-1.1,1.7c0-0.1,0-0.4,0-0.8c-0.2,0.1-0.4,0.4-0.5,0.8c0.2-1.1,0.3-2.1,0.3-2.9v-1.1h-0.1
		c-0.1,0.8-0.4,2-0.9,3.6c0-0.1,0-0.3-0.1-0.5c0,0-0.1,0.2-0.1,0.4c0-0.1,0-0.2-0.1-0.3c-0.1,0-0.1,0-0.1,0.1
		c0.1-0.9,0.4-2.4,0.6-4.3l-0.1-0.1c-0.1,0.1-0.2,0.3-0.2,0.4c0-0.1,0-0.4,0.1-0.6V59c0.1,0,0.3-0.3,0.4-1c0-0.4,0.1-0.8,0.1-1.2
		c-0.1,0-0.2,0-0.3,0.1c-0.3,1.5-0.9,3.9-1.6,7c0-0.1,0-0.3,0.1-0.5c0.1-0.2,0.1-0.3,0.1-0.4l-0.2-0.2c0-0.1,0-0.3,0.1-0.5v-0.5
		c0,0,0-0.1-0.1-0.2c0,0.1-0.1,0.2-0.3,0.4c0.1-0.3,0.2-1.3,0.3-2.8c0.1-0.3,0.3-0.7,0.4-1.2V57h-1.5c-0.1,0-0.2,0-0.3-0.1
		c-0.1-0.1-0.2-0.1-0.3-0.1c-0.1,0-0.1,0-0.1,0.1c0,0.1,0,0.1-0.1,0.1c0,0-0.1,0-0.1-0.1c0-0.1-0.1-0.1-0.2-0.1
		c-0.1,0-0.2,0-0.5-0.1c-0.2-0.1-0.4-0.1-0.5-0.1c-0.1,0-0.3,0-0.5,0.1c-0.3,0.1-0.5,0.1-0.6,0.1h-0.5c-0.4,0-0.8,0.1-1.2,0.1H6.6
		c-0.1,0-0.2-0.1-0.3-0.2C6.1,56.5,6,56.4,6,56.4c0.8-0.4,1.2-0.6,1.4-0.6h2.5c0.1,0,0.3,0,0.4-0.1c-0.1,0-0.2-0.1-0.2-0.3
		c0-0.1,0.1-0.2,0.1-0.4H9.8c-0.2,0-0.3-0.1-0.3-0.4c0.2,0,0.6,0.1,1,0.2c0.2-0.2,0.3-0.3,0.3-0.4c-0.3,0-0.8-0.1-1.4-0.4
		c0-0.2,0-0.5-0.1-0.8C9.5,53.1,9.5,53,9.4,53c0.1,0,0.2-0.1,0.3-0.2c-0.2-0.1-0.6-0.2-1.2-0.4c0,0,0,0-0.1,0.1
		c0.1,0.1,0.3,0.3,0.6,0.5c-0.4-0.1-0.6-0.3-0.7-0.5c0,0-0.1,0.1-0.2,0.2c-0.2-0.1-0.5-0.3-0.9-0.6c0.2,0,0.6,0.1,1.1,0.3
		c0.4-0.7,0.6-1.1,0.6-1.2c0-0.1,0-0.3-0.1-0.5H8.3c0-0.2,0.2-0.6,0.5-0.9l-0.3-0.4c0.2-0.1,0.8-0.1,1.9-0.1c0.1,0,0.4-0.1,0.6-0.3
		c0,0,0.1,0,0.2,0.1c0.1,0.1,0.2,0.1,0.2,0.1c0.1,0,0.4-0.3,0.9-0.6c0.4-0.1,0.6-0.1,0.6-0.1c0.1,0,0.2,0,0.3,0.1h0.2
		c0.9,0,1.7-0.1,2.4-0.3c0.2-0.2,0.4-0.4,0.6-0.4c0.1,0,0.1,0,0.1,0.1c0,0,0,0.1,0,0.1c0.3,0,0.5-0.1,0.7-0.4c0-0.1,0.1-0.4,0.1-0.9
		c0-0.1,0.1-0.4,0.3-0.8c0.2-0.4,0.3-0.6,0.3-0.6c0-0.1,0-0.2-0.1-0.2c-0.1,0-0.1-0.1-0.1-0.2c-0.1,0.1-0.2,0.4-0.4,0.9
		c0,0.1,0,0.1-0.1,0.1l-0.2-0.1c0,0.1,0,0.3,0,0.4c0.1,0,0.2-0.1,0.2-0.1c-0.3,0.6-0.6,0.9-0.9,0.9c0.3-0.8,0.6-1.6,0.7-2.6L16.7,44
		c0-0.2,0.3-1,0.6-2.2c0.3-1.1,0.5-1.7,0.5-1.9c-0.2-0.3-0.4-0.7-0.7-1.2c-0.1-0.2-0.3-0.5-0.6-0.9c-0.5-0.1-1.3-0.4-2.4-0.9v-0.4
		l0.2-0.1c0.1,0,0.2-0.1,0.4-0.1c0,0.2,0,0.4,0.1,0.5c0.1,0,0.1-0.1,0.1-0.3c0,0,0.1,0.1,0.3,0.3c0.1,0.2,0.2,0.3,0.3,0.3h0.7
		c0.4,0,0.7,0.1,0.7,0.1c0.2,0,0.3-0.2,0.3-0.6c0-0.1-0.2-0.3-0.5-0.5c-0.3-0.2-0.5-0.5-0.5-0.8l-0.1-0.2c-0.1-0.1-0.1-0.2-0.1-0.3
		l-0.1-1.1c-0.3,0.2-0.4,0.4-0.4,0.6c0.1,0-0.1,0.1-0.8,0.4c-0.2,0-0.5,0-0.9,0.1c0-0.5,0.1-1.1,0.3-1.9c0.2,0.1,0.4,0.1,0.6,0.1
		c0.2,0,0.4-0.1,0.6-0.3c0,0.1,0,0.2-0.1,0.3c0.1,0.1,0.4,0.3,0.6,0.5c0.2,0,0.4-0.3,0.6-0.9c0.2,0,0.3-0.2,0.4-0.5
		c-0.3,0-0.5,0-0.6,0.1c-0.1,0-0.2,0-0.3-0.1c-0.1-0.1-0.3-0.1-0.5-0.1c-0.1,0-0.3,0.1-0.5,0.3c-0.2-0.5-0.3-0.7-0.3-0.8
		c-0.3,0.1-0.8,0.3-1.3,0.6c0,0.1,0,0.3,0.1,0.6c-1.2,0.6-1.9,0.9-2.1,0.9c-0.1,0-0.2,0-0.3-0.1c-0.1-0.1-0.2-0.1-0.3-0.1l-0.2,0.1
		l-0.1-0.2V33c0.6-0.3,1.6-1.1,2.9-2.3h0.4c-0.1,0.1-0.4,0.5-0.8,1c0,0,0.1,0.1,0.2,0.1c0.1,0,0.4-0.1,0.7-0.2
		c0.3-0.1,0.5-0.2,0.7-0.2c0,0,0.1,0,0.1,0.1c0,0,0,0.1,0.1,0.1c0-0.1,0.3-0.2,0.6-0.4l-0.2-0.2c0.4-0.1,0.8-0.3,1.2-0.5
		c0.2,0,0.5-0.1,0.9-0.4c0,0.2,0.1,0.3,0.2,0.3h0.3c0.3-0.1,0.4-0.3,0.4-0.4c0,0.1,0.1,0.2,0.2,0.4c0.1,0,0.3,0,0.5-0.1
		c-0.1,0-0.4-0.3-0.9-0.8c0.6,0,1.1,0.2,1.4,0.4c-0.1,0-0.1,0.1-0.1,0.3l0.1,0.2c0.1-0.1,0.5-0.1,1.1-0.1c0.4-0.7,0.8-1.8,1.2-3.2
		c0.4-1.6,0.8-2.7,1.1-3.3c0.1-0.2,0.1-0.5,0.1-0.9c0.1,0,0.3,0.1,0.5,0.3h0.4c0.1-0.2,0.1-0.4,0.1-0.6c0.1,0,0.2,0.1,0.2,0.1
		c0-0.1,0.1-0.2,0.1-0.4h0.1c0,0,0.1,0.1,0.2,0.1c0.1,0,0.3-0.1,0.7-0.3c0.1,0.1,0.3,0.3,0.4,0.7c0.3-0.2,0.4-0.4,0.4-0.7
		c0.5-0.1,0.9-0.2,1.2-0.2c0,0.1,0.1,0.4,0.2,0.9c0,0.1,0.2,0.2,0.5,0.2c0,0,0.2,0.3,0.4,0.9c0.2,0.6,0.5,0.8,0.8,0.8
		c0.4,0,0.6-0.2,0.6-0.7c0-0.3-0.1-0.7-0.2-1.2c0.6,0,0.9,0.3,0.9,0.7c0,0.1,0,0.2-0.1,0.3c0,0.1-0.1,0.2-0.1,0.2c0,0,0-0.1-0.1-0.2
		l-0.4,0.6c0,0,0.2,0.1,0.3,0.1c0.2,0,0.3,0.1,0.3,0.2c0,0.2-0.1,0.5-0.3,0.9c-0.2,0.4-0.3,0.7-0.3,0.9l0.1,0.6
		c0,0.2,0.1,0.6,0.3,1.1h2.8c0.2,0.1,0.3,0.1,0.4,0.1c0.4,0,0.8-0.3,1.2-0.9c1-2.2,2.1-4.1,3.2-5.8c0.1,0,0.3,0.2,0.5,0.4
		c0,0.1,0,0.2-0.1,0.4c0,0,0,0.1,0.1,0.1c-0.1,0,0.2-0.3,1-0.9c0.5-0.4,0.9-0.6,1-0.6c0.1,0,0.1,0,0.1,0.1c0,0,0,0.3-0.1,0.7
		l0.9-0.3c0.1,0,0.1,0,0.1,0.1c0,0,0,0.1,0.1,0.1c0.1,0,0.3-0.1,0.6-0.2c0.3-0.1,0.5-0.2,0.5-0.2c0.2,0,0.5,0.1,0.9,0.4
		c0.3,0.2,0.5,0.5,0.5,0.7c0,0-0.1,0.2-0.3,0.5c-0.2,0.3-0.2,0.5-0.1,0.7c0.1,0,0.3-0.2,0.5-0.5c0.2-0.3,0.4-0.4,0.5-0.4
		c0,0,0.1,0,0.1,0.1c0,0,0.1-0.2,0.1-0.4c0-0.2,0-0.3,0.1-0.3c0.1,0,0.2,0.1,0.3,0.2c0,0,0.1,0,0.1-0.1c0-0.4-0.1-0.6-0.1-0.5
		c0.2-0.8,0.7-1.5,1.4-2l0.1,0.5l-1.9,3c0-0.1,0.1-0.2,0.1-0.2l-0.1-0.1c-0.3,0.1-0.5,0.5-0.6,0.9c0,0,0.1,0.1,0.2,0.1
		c0.1,0,0.2-0.1,0.3-0.2c-0.1,1-0.5,2.4-1.2,4.4c0.1,0.1,0.9,0.3,2.3,0.4l1.6,0.1H49l0.2-0.2l0.4,0.3c0.4,0.1,1.1,0.3,1.9,0.5
		c0.1,0.1,0.2,0.2,0.1,0.2c0.3,0.1,0.5,0.2,0.4,0.2c0.7,0,1,0.1,1,0.2h0.1c0.1,0,0.2,0,0.3-0.1c0.1-0.1,0.2-0.1,0.2-0.1
		c0.3,0,0.7,0,1.3,0.1c0.6,0,1,0.1,1.3,0.1l-0.5,0.2c-0.2,0-0.5,0-0.8-0.1c-0.4-0.1-0.6-0.1-0.8-0.1l-0.6,0.2
		c-0.5,0.2-1.2,0.3-1.9,0.3h-0.3c-0.1,0-0.3-0.1-0.4-0.1l-0.1,0.1c0.1,0.1,0.4,0.1,0.9,0.1c0.3,0,0.8,0,1.5-0.1
		c0.6-0.1,1.1-0.1,1.5-0.1c0.1,0,0.2,0.2,0.3,0.4H60z M6.6,52.7c-0.1,0.1-0.3,0-0.5-0.1c0,0,0.1,0,0.3-0.1L6.6,52.7z M7.9,49.3v-0.1
		H7.5v0.1H7.9z M7.9,50.8H7.5v-0.1h0.4V50.8z M8.9,54.1l-0.1,0.1l-0.4-0.2l0.1-0.1L8.9,54.1z M10.5,48.8l-0.1,0.1l-0.1-0.1l0.1-0.1
		L10.5,48.8z M11.2,48.7l-0.4-0.1v-0.1l0.4,0.1V48.7z M11.9,49.5h-0.6v-0.1h0.6V49.5z M15.2,65.1v-0.4h-0.1v0.4H15.2z M15.8,31.1
		v-0.2h-0.3v0.2H15.8z M16.4,61.1v-0.5h-0.2v0.5H16.4z M16.5,66.8l-0.1,0.1l-0.1-0.2l0.1-0.1L16.5,66.8z M16.5,66.3v-0.4h-0.1v0.4
		H16.5z M17,63.1c-0.1-0.1-0.1-0.2-0.1-0.4c-0.2,0.7-0.4,1-0.4,0.9C16.8,63.2,17,63.1,17,63.1z M16.7,65.8h-0.1v-0.3h0.1V65.8z
		 M18.6,29h-0.4L18,28.7c0,0-0.1,0.1-0.1,0.3c0,0-0.2-0.1-0.5-0.1c-0.1,0-0.2,0.1-0.2,0.3L17,29c0.4-0.2,0.6-0.3,0.6-0.3
		c0,0,0.1,0.1,0.3,0.2c0-0.1,0.1-0.2,0.1-0.4C18.1,28.6,18.3,28.8,18.6,29z M17.4,42.8c0,0.1-0.1,0.2-0.2,0.4
		c-0.1,0.1-0.2,0.3-0.2,0.4c0,0.1,0,0.2,0.1,0.2C17.3,43.3,17.4,43,17.4,42.8z M17.2,61.4v-0.4h-0.1v0.4H17.2z M17.9,32l-0.6-0.2V32
		l0.6,0.2V32z M17.9,63.7v-0.4h-0.2v0.4H17.9z M19.5,64.1h-0.2L19.2,65h0.1L19.5,64.1z M19.8,67h-0.1v-0.6h0.1V67z M24.7,68.6
		l-0.3,1.4h-0.1l0.3-1.4H24.7z M26.9,58c0-0.1,0-0.2-0.1-0.2c0,0.3,0,0.7-0.1,1.3c0,0.6-0.1,1-0.1,1.3c0,0,0-0.1-0.1-0.2
		c-0.1,0.4-0.3,0.7-0.5,1c0.1,0.1,0.2,0.2,0.4,0.2l-0.1,0.1v0.7c-0.3,0.3-0.4,0.6-0.4,0.9c0,0.1,0,0.2,0.1,0.2
		c-0.1,0-0.2,0.2-0.2,0.4c-0.1,0-0.2-0.1-0.4-0.2c0,0-0.1,0.2-0.1,0.3c0,0.2,0,0.3-0.1,0.3c0,0,0.2,0.1,0.4,0.1
		c0.1,0,0.1-0.1,0.1-0.3c0,0.1,0,0.2,0.1,0.3c-0.1,0.2-0.3,0.6-0.5,1.1c0-0.2,0-0.3-0.1-0.4c0,0-0.1,0.1-0.1,0.3
		c-0.2,0-0.5,0-0.9,0.1l1.9-8.2C26.4,57.3,26.6,57.6,26.9,58z M25,65.7l-0.2,0.5l-0.1-0.1l0.2-0.5L25,65.7z M25.4,65.6
		c0,0.3-0.1,0.7-0.3,1.2c0-0.1,0-0.2-0.1-0.3c-0.1,0-0.1,0-0.1,0.1C25.2,66.3,25.3,65.9,25.4,65.6z M31,37.7c-0.8,0-1.2,0.3-1.2,0.9
		c-0.7,0.1-1.7,0.4-3,0.8l-1.9,7h3.6c0.7,0,0.9-1,0.7-3c-0.1-0.3,0-0.8,0.1-1.4c0.2-0.6,0.4-1.1,0.6-1.3v-0.4
		c0.4-0.4,0.6-0.8,0.6-1.2c0-0.1,0-0.3-0.1-0.5c-0.1-0.2-0.1-0.4-0.1-0.5l0.2,0.1L31,37.7z M25.4,64.5v-0.3h-0.2v0.3H25.4z
		 M25.6,64.8h-0.2v-0.4h0.2V64.8z M26.6,66.1c-0.1,0-0.2,0.1-0.2,0.4L26.2,66C26.4,66,26.5,66,26.6,66.1z M26.7,60.8v-0.3h-0.1v0.3
		H26.7z M27.1,58.8h-0.1l-0.1,0.4l0.1,0.1L27.1,58.8z M27.5,57.8l-0.4,0.9l-0.1-0.1l0.4-0.9H27.5z M27.7,57.6h-0.1l-0.1-0.2l0.1-0.1
		L27.7,57.6z M27.9,56.7L27.8,57l-0.1-0.1l0.1-0.3L27.9,56.7z M28.6,62.4v-0.4h-0.1v0.4H28.6z M29.1,59.6c0-0.1,0-0.2-0.1-0.4h-0.1
		C29,59.6,29.1,59.7,29.1,59.6z M30.6,42.8c-0.1,0-0.2,0-0.3,0.1C30.2,43,30.1,43,30,43l0.1,0.4c-0.1,0.6-0.3,1.4-0.6,2.4
		c0-0.1-0.1-0.2-0.1-0.3c0,0,0,0.1-0.1,0.1c0,0-0.1-0.1-0.1-0.2c0.1-0.1,0.2-0.2,0.1-0.3c-0.1,0.4-0.2,0.7-0.1,0.9
		c-0.1,0,0.1,0.1,0.6,0.1C29.9,45.4,30.2,44.3,30.6,42.8z M30.7,42.2v-0.4h-0.1v0.4H30.7z M31.2,65.9L31,66.5l-0.1-0.1l0.2-0.5H31.2
		z M31.3,65.2l-0.1,0.4L31,65.6l0.1-0.4H31.3z M31.9,68.4h-0.1l-0.1-0.2l0.1-0.1L31.9,68.4z M33.1,65.3c0,0.1-0.1,0.8-0.3,2.1
		c0,0-0.1,0-0.3,0.1c-0.1,0-0.2,0.1-0.3,0.1C32.5,66.7,32.8,65.9,33.1,65.3z M32.6,65.7l-0.1,0.6h-0.1l0.1-0.6H32.6z M32.8,63.2
		h-0.2l-0.1,0.5h0.2L32.8,63.2z M33.2,61.3c0,0,0,0.2-0.1,0.3c-0.1,0.2-0.1,0.3-0.1,0.5c0,0.3,0,0.5,0,0.5c0,0.1,0,0.3-0.1,0.4
		c-0.1-1.4-0.1-1.9-0.1-1.6c0-0.1,0.1-0.2,0.2-0.4c0.1-0.1,0.1-0.3-0.1-0.5C33.1,60.8,33.2,61,33.2,61.3z M33.2,59.9h-0.1v-0.3h0.1
		V59.9z M33.3,67.9h-0.2v-0.2h0.2V67.9z M34,65h-0.1v-0.4H34V65z M44.9,45.4h-0.5v-0.1h0.5V45.4z M45.2,45.6h-0.4v-0.1h0.4V45.6z
		 M46.1,37.6v-0.2h-0.4v0.2H46.1z M46.7,52.6l-0.1,0.1l-0.2-0.1l0.1-0.1L46.7,52.6z M48.6,36.6l-0.1,0.1l-0.1-0.1l0.1-0.1L48.6,36.6
		z M50.7,29.9l-0.2-0.2c-0.4,0-0.8,0.1-1.4,0.4C49.9,29.9,50.5,29.9,50.7,29.9z M50.6,47.3v-0.2h-0.6v0.2H50.6z M51.1,45.3l-0.4-0.1
		V45l0.4,0.1V45.3z M52.5,47h-0.1l-0.1-0.3h0.1L52.5,47z M52.8,46.3v-0.2h-0.3v0.2H52.8z M54.2,45.6L53,45.5v-0.2l1.2,0.1V45.6z
		 M54.2,48h-0.4v0.4C54,48.4,54.1,48.2,54.2,48z M54.4,30.2V30H54v0.1H54.4z M55.7,45.4l-1.4,0.1v-0.2l1.4-0.1V45.4z M54.7,30h-0.1
		l-0.1,0.2l0.1,0.1L54.7,30z M55.4,35.1H55v-0.1h0.4V35.1z M55.6,48.2h-0.3V48h0.3V48.2z M57,50.3h-1.2c0.1-0.3,0.5-0.5,1.2-0.5
		c0.2,0,0.1,0.1-0.3,0.3C56.8,50.2,56.9,50.2,57,50.3z M58.3,29.4h-1.9v-0.1h1.9V29.4z"/>
	<path fill="#FFFFFF" d="M76.5,8.5c2,0,3.7,0.3,5.2,0.8c1.5,0.5,2.8,1,3.9,1.6c1.1,0.6,1.9,1.1,2.4,1.6c0.6,0.5,0.9,0.8,1,1
		c0.8,1,1.5,2.1,2.1,3.1c0.6,1.1,0.9,2.3,0.9,3.6c0,0.2,0,0.5,0,0.7c0,0.2-0.1,0.5-0.1,0.7c0,0.1,0,0.2,0,0.4c0,0.1-0.1,0.3-0.2,0.4
		l0.1,0.4c0,0.5-0.1,1.1-0.4,1.8c-0.3,0.7-0.6,1.2-0.9,1.6c-0.1,0.1-0.2,0.3-0.3,0.3c-0.1,0.1-0.2,0.2-0.3,0.3
		c-0.1,0.2-0.2,0.4-0.3,0.5c0,0.1-0.1,0.3-0.2,0.6v0.3c-0.4,1.8-0.9,3.5-1.7,5c-0.7,1.5-1.5,2.8-2.4,4c-0.9,1.2-1.8,2.2-2.8,3.2
		c-1,1-1.9,1.8-2.7,2.5c0.4,0.3,0.7,0.6,1.1,0.9c0.2,0.2,0.4,0.4,0.7,0.6c0.1,0.1,0.3,0.2,0.4,0.3c0.2,0.3,0.6,0.7,1.2,1.2
		c0.6,0.4,1,0.7,1.4,0.9l5.8,5.5c0.3,0.1,0.5,0.3,0.7,0.5c0.2,0.2,0.4,0.4,0.6,0.7c0.5,0.5,1,0.9,1.5,1.3c0.5,0.4,1,0.8,1.5,1.3
		l0.3,0.2l0.2,0.8c0.3,0.3,0.7,0.7,1,1c0.3,0.4,0.6,0.8,0.9,1.3c0,0.2,0,0.3-0.1,0.5c-0.1,0.1-0.1,0.2-0.1,0.3
		c0,0.3,0.1,0.5,0.3,0.6c0.2,0.1,0.3,0.3,0.3,0.5c-0.2,0-0.5-0.2-0.7-0.5c-0.2-0.3-0.4-0.5-0.7-0.5c-0.1,0-0.2,0.1-0.3,0.4
		c-0.1,0.2-0.1,0.4-0.1,0.4c-0.1,0.1-0.2,0.3-0.4,0.4c-0.2,0.1-0.3,0.3-0.3,0.5H94c-0.2,0-0.4,0.2-0.4,0.7c0,0.5-0.2,0.7-0.4,0.7
		c-0.1,0-0.2,0-0.3-0.1c-0.1,0-0.2-0.1-0.3-0.1c-0.2,0-0.4,0-0.5,0.1c-0.1,0-0.3,0.1-0.5,0.1c-0.4,0-0.8-0.1-1.1-0.4
		c-0.4-0.2-0.7-0.5-0.9-0.6h-0.3c-0.3,0-0.4,0.2-0.4,0.5c0,0.2,0.1,0.4,0.4,0.5c0.3,0.1,0.4,0.3,0.4,0.5c-0.8,0-1.5-0.2-2.2-0.5
		c-0.6-0.3-1.2-0.7-1.7-1.2c-0.5-0.5-1-1-1.5-1.5s-1-1-1.6-1.4c-0.2-0.2-0.4-0.4-0.4-0.6c0-0.2-0.2-0.3-0.5-0.4l-2.2-2.2
		c-0.2-0.1-0.4-0.3-0.7-0.5c-0.3-0.3-0.5-0.5-0.7-0.7l-5.4-4.6c-0.3-0.2-0.6-0.4-0.8-0.6c-0.2-0.2-0.4-0.3-0.8-0.3
		c0,0.6,0.1,1.1,0.2,1.6c0.1,0.5,0.3,1,0.4,1.6c0.4,1.8,0.8,3.6,1.1,5.5c0.1,0.3,0.2,0.6,0.4,0.9c0.1,0.3,0.2,0.7,0.2,1
		c0,0.2-0.1,0.4-0.2,0.6c-0.1,0.2-0.2,0.4-0.2,0.6c0,0,0,0.1,0.1,0.1c0,0,0.1,0.1,0.1,0.2c-0.2,0-0.4-0.1-0.4-0.3
		c0-0.2-0.1-0.3-0.2-0.5c-0.1-0.1-0.2-0.3-0.3-0.5c-0.1-0.2-0.2-0.4-0.3-0.5c0-0.1-0.1-0.2-0.3-0.2c-0.2,0-0.4,0.1-0.4,0.3
		c0,0.2,0,0.3-0.1,0.4c-0.1,0.1-0.3,0.2-0.4,0.3c-0.1,0-0.3,0.1-0.4,0.2s-0.3,0.2-0.4,0.3c-0.1,0.1-0.2,0.4-0.3,0.7c0,0,0,0.2,0,0.4
		c0,0.2,0,0.3,0,0.4c0,0.1,0,0.2-0.1,0.2c0,0-0.1,0-0.1,0c0,0-0.1,0-0.2,0v0.9h-0.6V65c-0.1-0.6-0.2-0.9-0.3-0.9l-0.1-0.1
		c-0.2,0-0.3,0.2-0.5,0.7c-0.1,0.5-0.2,0.8-0.2,0.9c-0.1,0-0.2,0-0.3-0.1c-0.1-0.1-0.2-0.1-0.3-0.1c-0.2,0-0.3,0.1-0.3,0.4
		c0,0.2-0.1,0.4-0.2,0.4c-0.1,0-0.3-0.1-0.3-0.2c-0.1-0.1-0.2-0.2-0.4-0.2c0,0-0.1,0-0.1,0.1c0,0.1-0.1,0.2-0.1,0.3l0.4,0.9
		c-0.1,0-0.3-0.3-0.6-1c-0.3-0.7-0.5-1.4-0.8-2.2c-0.3-0.8-0.6-1.6-0.8-2.4c-0.2-0.8-0.4-1.3-0.4-1.5c0-0.2-0.1-0.5-0.2-0.9
		c-0.1-0.4-0.2-0.9-0.4-1.3c-0.1-0.5-0.3-0.9-0.4-1.4c-0.1-0.4-0.2-0.7-0.3-0.9c0-0.1,0-0.3-0.1-0.8c-0.1-0.4-0.2-0.7-0.2-0.8
		c0.1-0.1,0.1-0.3,0.1-0.6c-0.1-1-0.3-1.9-0.4-2.8s-0.3-1.9-0.4-2.8c0-0.1,0-0.4-0.1-0.9c-0.1-0.5-0.1-0.9-0.1-1.1
		c-0.2-2-0.4-3.9-0.6-5.7c-0.2-1.8-0.3-3.7-0.4-5.7c-0.1-1-0.2-2-0.4-3c-0.1-1-0.2-2-0.2-3c0-0.7,0-1.3,0.1-2c0.1-0.7,0.1-1.3,0.1-2
		c0-0.1-0.1-0.2-0.2-0.4c-0.1-0.1-0.2-0.3-0.2-0.4c0-0.1,0-0.3,0.1-0.5c0.1-0.2,0.2-0.4,0.3-0.4v-1.8c0-0.6,0.1-1,0.2-1.3l0.1-0.1
		c0,0,0.1,0,0.1-0.1c0.2-0.2,0.3-0.4,0.3-0.4c0,0,0-0.2,0.1-0.5c0-0.1,0.2-0.4,0.5-0.7c0.3-0.3,0.5-0.6,0.8-1
		c0.3-0.3,0.6-0.6,0.8-0.9c0.2-0.3,0.4-0.4,0.5-0.3l0.1-0.1c0,0,0.1,0,0.1-0.1c0.1,0,0.2-0.1,0.3-0.2c0.1-0.1,0.2-0.2,0.3-0.3
		l0.3-0.3v-0.3c0.2,0,0.4-0.1,0.5-0.2c0.1-0.1,0.3-0.2,0.5-0.3c0.6-0.5,1.2-1,1.8-1.5c0.6-0.5,1.3-0.9,1.9-1.2c0,0.1,0,0.2,0,0.2
		c0,0,0,0.1,0,0.2l0.1,0.1h0.1l0.8-0.4c0,0,0.1-0.1,0.3-0.3c0.1-0.1,0.2-0.2,0.3-0.2c0.2-0.1,0.5-0.3,1-0.4c0.5-0.1,0.7-0.3,0.7-0.6
		c-0.4,0-0.9,0.2-1.4,0.5c-0.6,0.4-1.1,0.5-1.4,0.5c0.1-0.1,0.3-0.2,0.5-0.3c0.2-0.1,0.3-0.2,0.4-0.3l2.7-1c0.4-0.1,0.8-0.3,1.1-0.3
		C74,8.7,74.4,8.6,75,8.5c0,0.1,0.1,0.1,0.3,0.1c0.1,0,0.3,0,0.4-0.1H76.5z M71.3,36.1c0,0.1,0.1,0.1,0.2,0.1c0.3,0,0.8-0.2,1.3-0.5
		c0.5-0.3,1.1-0.7,1.7-1.2c0.6-0.5,1.1-0.9,1.6-1.4c0.5-0.5,0.8-0.8,1-1c0.1-0.1,0.3-0.3,0.3-0.5c0.1-0.2,0.2-0.3,0.3-0.5l0.2-0.3
		c0.4-0.5,0.9-1.1,1.3-1.8c0.5-0.6,0.8-1.3,1-1.9c0.3-0.6,0.6-1.1,0.8-1.6c0.2-0.5,0.3-1.1,0.3-1.7c0-0.1,0-0.3-0.1-0.6
		c0-0.3-0.1-0.4-0.2-0.5L79.2,20c-0.1-0.1-0.2-0.2-0.4-0.3c-0.3-0.2-0.4-0.3-0.4-0.4c-0.4-0.8-1.2-1.3-2.3-1.7
		c-1.2-0.4-2.4-0.5-3.6-0.5c-1.3,0-2.5,0.2-3.6,0.6c-1,0.4-1.5,1-1.5,1.9c0,0.1,0,0.2,0,0.2c0,0,0,0.1,0,0.2L71,35.6
		C71,35.7,71.1,35.9,71.3,36.1z M68.7,11.8c-0.1,0.1-0.1,0.2-0.1,0.2v0.2c0.1,0,0.3,0,0.4-0.1L68.7,11.8z M76.7,9.7
		c0.7,0,1.6,0.1,2.6,0.4c1,0.3,1.8,0.5,2.5,0.8c0.2,0.1,0.3,0.2,0.4,0.2c0,0,0.2,0.1,0.4,0.1c0-0.1-0.1-0.2-0.4-0.4
		c-0.3-0.2-0.6-0.4-1-0.5c-0.4-0.2-0.7-0.3-1-0.5c-0.3-0.1-0.6-0.2-0.7-0.3c-0.2-0.1-0.5-0.1-0.8-0.1c-0.3,0-0.5,0-0.8-0.1H75
		c0,0-0.2,0-0.6,0.1c-0.3,0.1-0.6,0.1-0.8,0.2c-0.3,0.1-0.7,0.2-1,0.4c-0.4,0.2-0.7,0.4-0.9,0.7l0.2,0.1c0.2,0,0.4,0,0.6-0.1
		c0.2-0.1,0.3-0.2,0.5-0.3c0.3-0.1,0.6-0.1,0.9-0.1c0.3,0,0.6,0,1-0.1c0.4-0.1,0.7-0.2,0.8-0.3C76,9.7,76.3,9.7,76.7,9.7z"/>
	<path fill="#FFFFFF" d="M133.4,52.4c-0.1,0.2-0.2,0.4-0.4,0.6c-0.2,0.1-0.3,0.3-0.4,0.5c-0.1,0.1-0.3,0.3-0.5,0.6
		c-0.2,0.3-0.4,0.5-0.7,0.8c-0.2,0.3-0.4,0.6-0.6,0.9c-0.2,0.3-0.3,0.5-0.3,0.6c0,0.2-0.1,0.4-0.4,0.5c-0.3,0.2-0.4,0.3-0.5,0.5
		c-0.2,0.2-0.5,0.5-0.8,0.7c-0.3,0.2-0.5,0.5-0.8,0.7c-0.2,0.4-0.5,0.7-0.9,0.9c-0.4,0.2-0.7,0.5-1,0.9l-2.1,1.7
		c-0.4,0.2-0.6,0.3-0.7,0.3c-0.1,0-0.2,0-0.3,0l-0.2,0.2c0,0.1-0.1,0.2-0.2,0.2c0,0-0.2,0.1-0.5,0.1c-0.3,0-0.4,0.1-0.5,0.1
		c-0.2,0.1-0.4,0.2-0.6,0.4c-0.2,0.1-0.3,0.3-0.5,0.4c-1.5,0.7-3,1.2-4.5,1.7c-1.5,0.5-3.1,0.7-4.8,0.7c-1,0-2-0.2-3.1-0.5
		c-1-0.3-2-0.7-3-1.3c-1-0.5-1.8-1.2-2.6-1.9c-0.8-0.7-1.5-1.5-2.1-2.3c-0.8-1.1-1.4-2.2-1.9-3.2c-0.5-1-1-2.1-1.3-3.1
		c-0.4-1.1-0.6-2.2-0.8-3.3c-0.2-1.2-0.3-2.4-0.3-3.7v-1.7c0-0.1,0-0.4,0-0.8c0-0.5,0.1-0.9,0.1-1.4c0-0.5,0.1-1,0.1-1.4
		c0-0.4,0.1-0.7,0.1-0.9v-0.3c0-0.1,0-0.3,0-0.7c0-0.4,0-0.8,0.1-1.2c0-0.4,0-0.8,0.1-1.2c0-0.4,0-0.6,0-0.7c0-0.3,0.1-0.6,0.1-0.9
		c0-0.3,0.1-0.6,0.1-0.9v-0.3l3.2-11.6c0-0.1,0.2-0.5,0.3-0.9c0.2-0.5,0.3-0.8,0.4-0.9c0,0,0.1-0.2,0.3-0.3c0.2-0.2,0.3-0.3,0.3-0.3
		l0.6-1.3c0,0,0.2-0.2,0.4-0.3c0.2-0.2,0.3-0.3,0.4-0.4c0,0,0.1-0.3,0.1-0.8c0.2-0.1,0.5-0.1,0.6-0.1c0.2,0,0.3-0.1,0.4-0.3
		c0.4,0.1,0.7,0.4,0.9,0.7c0.2,0.3,0.5,0.6,0.8,0.9c0.1,0.2,0.5,0.6,1,1.1c0.6,0.6,0.9,0.9,1.1,1.1c0.1,0.3,0.2,0.6,0.4,0.8
		c0.2,0.2,0.4,0.4,0.5,0.7c0.1,0.3,0.3,0.6,0.3,0.9c0.1,0.3,0.2,0.6,0.3,0.9c0.1,0.3,0.2,0.6,0.4,0.9s0.3,0.6,0.4,0.9v1.2
		c0,0.9-0.1,1.7-0.4,2.4c-0.3,0.8-0.5,1.6-0.8,2.4c-0.2,0.8-0.4,1.6-0.5,2.3c-0.1,0.7-0.2,1.5-0.4,2.3c-0.1,0.7-0.2,1.2-0.3,1.7
		c-0.1,0.5-0.1,1-0.1,1.7c0,0,0,0.2,0,0.3c0,0.2,0,0.3,0,0.5c0,0.2,0,0.4,0.1,0.6c0,0.2,0,0.3,0,0.4c0,0.1,0,0.3-0.1,0.5
		c0,0.2-0.1,0.4-0.2,0.5c0,0.4-0.1,0.7-0.1,1.1c0,0.3,0,0.7,0,1.1c0,0.3,0,0.6,0,0.8c0,0.2,0,0.5,0,0.8c0,0.1,0,0.3-0.1,0.4
		c-0.1,0.1-0.1,0.2-0.1,0.4c0,0.3,0,0.6,0.1,0.6c0.1,0.1,0.2,0.3,0.3,0.6c0,0.1,0.1,0.3,0,0.5c0,0.2,0,0.4,0.1,0.5
		c0,0.2,0.2,0.4,0.4,0.7c0.2,0.3,0.4,0.6,0.7,0.9c0.2,0.3,0.5,0.6,0.8,0.8c0.3,0.2,0.5,0.4,0.7,0.5c0.2,0.1,0.3,0.2,0.4,0.2
		c0.1,0,0.2,0.1,0.3,0.3c0.1,0,0.5,0.2,1,0.3c0.5,0.2,0.9,0.3,1.1,0.3c0,0.1,0.1,0.1,0.2,0.1c0.1,0,0.3,0.1,0.6,0.2l0.4,0.1
		c0.1,0,0.3,0,0.5-0.1c0.3,0,0.4-0.1,0.5-0.1c0.9,0,1.6-0.2,2.2-0.5c0.6-0.3,1.3-0.5,2.1-0.8c0.2-0.1,0.5-0.3,0.9-0.5
		c0.4-0.2,0.7-0.4,0.9-0.5l2.7-2.4c0.7-0.6,1.2-1.2,1.6-1.8c0.4-0.6,0.6-1.3,0.7-2.3c0-0.2,0.1-0.9,0.1-2.1c0-1.1,0-3.1,0.1-5.9
		c0-1.6-0.2-3.1-0.5-4.7c-0.3-1.5-0.8-3-1.4-4.5l-1.2-3.2c-0.1-0.3-0.3-0.6-0.6-0.9c-0.2-0.3-0.4-0.7-0.5-1.1c0-0.2,0-0.4,0.1-0.6
		c0-0.2,0.1-0.4,0.1-0.7c0-0.1,0-0.3,0-0.5c0-0.2,0-0.4,0-0.5c0-0.5,0.2-0.9,0.6-1.2c0.4-0.2,0.7-0.5,0.8-0.7c0,0,0-0.2,0-0.4
		c0-0.2,0.1-0.3,0.1-0.4c0-0.1,0.1-0.2,0.2-0.3c0.1-0.1,0.2-0.2,0.3-0.3c0.1-0.2,0.3-0.6,0.4-1c0.1-0.5,0.3-0.8,0.5-1
		c0-0.1,0-0.1,0.1-0.1c0.1,0,0.2,0,0.2-0.1h0.6c1.5,0,2.8,0.4,3.8,1.2c1.1,0.8,1.9,1.8,2.5,3.1c0.1,0.1,0.2,0.3,0.3,0.4
		c0.1,0.1,0.2,0.3,0.3,0.6c0,0.1,0.1,0.2,0.3,0.3c0.1,0.3,0.3,0.7,0.5,1.4c0.2,0.6,0.5,1.3,0.7,1.9c0.3,0.7,0.5,1.3,0.8,1.8
		c0.3,0.6,0.6,0.9,0.8,1l0.7,2.2l0.6,4.5v1.1c0,0,0,0.1,0.1,0.3c0,0.1,0.1,0.2,0.1,0.3c0,0.1,0,0.3-0.1,0.4l-0.2,8
		c0,0,0,0.2-0.1,0.5c-0.1,0.3-0.1,0.5-0.1,0.5c0,0.1,0,0.3-0.1,0.6c0,0.3-0.1,0.6-0.1,0.9c0,0.3-0.1,0.6-0.2,0.8
		c-0.1,0.2-0.2,0.3-0.3,0.3L133.4,52.4z"/>
	<path fill="#FFFFFF" d="M152.4,69c-1.1-0.2-2.2-0.4-3.3-0.7c-1.1-0.3-2.2-0.6-3.2-1.1c-1-0.4-2-1-2.8-1.6c-0.9-0.6-1.6-1.5-2.1-2.4
		c-0.3-0.6-0.7-1.2-1-1.7c-0.4-0.6-0.5-1.2-0.5-1.9l0.1-0.1c0,0,0-0.1,0-0.1c0,0,0,0,0-0.1c0-0.1-0.1-0.2-0.2-0.2
		c-0.1,0-0.1-0.1-0.1-0.3c0-0.1,0-0.2,0.1-0.2c0,0,0.1-0.1,0.1-0.2c0,0,0-0.2-0.1-0.3c0-0.2-0.1-0.3-0.1-0.3c0,0,0-0.1,0.1-0.5
		c0-0.3,0-0.8,0.1-1.3c0.1-0.6,0.2-1.1,0.4-1.7c0.2-0.6,0.4-1.1,0.6-1.5c0.2-0.5,0.5-0.8,0.9-1c0-0.1,0.1-0.4,0.4-0.9
		c0.3-0.5,0.5-0.8,0.6-0.9c0.1-0.1,0.2-0.2,0.4-0.3c0.2,0,0.3-0.1,0.4-0.3c0.2-0.4,0.5-0.8,0.7-1.2c0.2-0.4,0.6-0.6,1.3-0.6h0.3
		l0.2,0.2c0,0,0,0.1,0.1,0.1c0,0.2,0.1,0.5,0.4,0.9c0.3,0.3,0.6,0.7,0.9,1c0.4,0.3,0.7,0.7,1.1,1c0.4,0.3,0.7,0.6,0.9,0.8
		c0.2,0.5,0.5,0.9,0.8,1.3c0.3,0.4,0.5,0.9,0.5,1.4c0,0.2,0,0.5-0.1,0.7c-0.1,0.2-0.1,0.5-0.1,0.8c0.2,0.4,0.5,0.8,0.9,1.2
		c0.3,0.4,0.8,0.7,1.3,0.8c0.1,0,0.3,0.1,0.6,0.2c0.3,0.1,0.5,0.2,0.8,0.3c0.3,0.1,0.6,0.1,0.8,0.2c0.2,0.1,0.4,0.1,0.4,0.1
		c0.1,0,0.3,0.1,0.6,0.1c0.2,0,0.5,0,0.7,0h1.2c0.9,0,1.8-0.1,2.7-0.3c0.9-0.2,1.8-0.5,2.7-0.8l1.6-0.6v-0.1c0,0,0-0.1,0-0.1
		c0,0,0-0.1,0-0.1c0-0.3-0.2-0.7-0.5-1.2c-0.4-0.5-0.8-0.9-1.3-1.4c-0.5-0.5-1-0.9-1.5-1.3c-0.5-0.4-0.8-0.7-1-1l-11.6-7.7l-0.3-0.1
		c0,0-0.2-0.1-0.4-0.2c-0.2-0.1-0.5-0.3-0.7-0.5c-0.3-0.2-0.5-0.4-0.8-0.6c-0.3-0.2-0.5-0.4-0.6-0.5c-1.5-1.1-2.7-2.3-3.5-3.8
		c-0.8-1.5-1.3-3-1.3-4.7c0-1.1,0.2-2.3,0.7-3.7c0.5-1.4,1.1-2.7,1.7-4.1c0.7-1.3,1.4-2.6,2.1-3.8c0.7-1.2,1.4-2.1,1.9-2.8
		c0.4-0.5,0.8-0.9,1.3-1.3c0.5-0.4,1-0.7,1.4-1.1c1.5-1,2.9-1.8,4.4-2.4c1.4-0.6,3-1,4.9-1c1.2,0,2.4,0.1,3.7,0.4
		c1.2,0.3,2.4,0.8,3.3,1.4c0.2,0.1,0.4,0.3,0.5,0.6c0.2,0.3,0.3,0.6,0.5,0.9c0.1,0.3,0.3,0.6,0.4,0.8c0.1,0.2,0.2,0.4,0.3,0.4
		c0.6,0.4,1.2,0.9,1.8,1.4c0.6,0.5,1.1,1.1,1.6,1.7c0.5,0.6,0.9,1.2,1.2,1.9c0.3,0.7,0.5,1.4,0.5,2.2c0,0.8,0,1.6-0.1,2.5
		c-0.1,0.9-0.2,1.8-0.5,2.6c-0.3,1-1,1.6-1.9,2.1c-0.9,0.4-1.8,0.8-2.8,1l-0.4,0.1c-0.7,0.1-1.4,0.3-2.1,0.6
		c-0.6,0.3-1.3,0.6-1.9,0.9c0,0.2,0,0.4-0.1,0.6c0,0.1-0.1,0.2-0.1,0.3c-0.5,0-0.9-0.3-1.2-0.8c-0.2-0.5-0.4-1-0.4-1.4
		c0,0,0-0.1,0.1-0.1c0,0,0-0.1,0-0.1c0,0,0-0.1,0-0.1c0-0.2,0-0.5-0.1-0.8c-0.1-0.3-0.1-0.6-0.1-0.8c-0.1-0.7-0.1-1.4-0.1-2.2
		c0-0.7,0-1.4-0.1-2.2v-1.2c0,0,0-0.2-0.1-0.4c-0.1-0.2-0.1-0.4-0.1-0.5c-0.1-0.3-0.2-0.6-0.2-0.8c0-0.2-0.2-0.4-0.6-0.5
		c-0.1,0-0.3-0.1-0.6-0.2c-0.3-0.1-0.6-0.1-0.9-0.1c-0.2,0-0.4,0.1-0.7,0.2s-0.6,0.3-0.9,0.5c-0.3,0.2-0.6,0.4-0.9,0.6
		c-0.3,0.2-0.6,0.3-0.8,0.4c-0.4,0.1-0.8,0.3-1.2,0.5c-0.4,0.2-0.8,0.4-1.2,0.6c0,0-0.1,0-0.1,0c0,0-0.1,0-0.1,0h-0.1
		c-1.2,0.5-1.7,1.3-1.7,2.4c0,0.3,0,0.6,0,0.8c0,0.2,0,0.5,0.1,0.9c0,0,0.2,0.2,0.5,0.7c0.3,0.5,0.4,0.7,0.5,0.8
		c0.1,0.3,0.7,0.8,1.6,1.5c0.9,0.6,1.9,1.3,3,1.9s2.1,1.2,2.9,1.7c0.9,0.5,1.3,0.7,1.4,0.7c0.4,0.2,0.7,0.5,0.9,0.6
		c0.2,0.2,0.5,0.4,0.8,0.6c0.3,0.2,0.7,0.4,1.1,0.5c0.4,0.1,0.8,0.3,1,0.5c0,0,0.1,0,0.1,0.1c0,0.1,0.1,0.2,0.1,0.2
		c0.3,0.3,0.6,0.6,0.9,0.8c0.3,0.2,0.7,0.5,1.1,0.8c0.1,0,0.2,0.1,0.4,0.2c0.2,0.1,0.3,0.2,0.5,0.4c0.2,0.2,0.4,0.4,0.6,0.5l2.3,2.1
		c0.3,0.4,0.7,0.7,1.2,1.1c0.5,0.3,0.9,0.7,1.2,1.1c0.6,0.6,0.9,1.3,1.1,1.9c0.2,0.7,0.4,1.4,0.6,2.1c0.2,0.5,0.4,1,0.5,1.5
		c0.2,0.5,0.3,1,0.3,1.5c0,0.3-0.1,0.8-0.4,1.5c-0.3,0.7-0.7,1.6-1.3,2.5c-0.6,1-1.4,2-2.3,3c-1,1.1-2.1,2-3.5,3
		c-0.4,0.4-0.9,0.7-1.4,0.8c-0.5,0.2-1,0.4-1.5,0.6c-0.2,0.1-0.4,0.2-0.5,0.3c-0.2,0.1-0.3,0.2-0.5,0.3c0,0,0,0.1-0.1,0.1
		c0,0-0.1,0-0.1,0.1c-0.4,0.1-0.8,0.3-1.2,0.5c-0.4,0.2-0.8,0.4-1.2,0.5c-0.4,0.2-0.7,0.3-1,0.3c-0.3,0-0.6,0-1,0.1
		c-0.1,0.1-0.3,0.2-0.6,0.3c-0.3,0.1-0.5,0.2-0.8,0.2c-0.2,0-0.5,0.1-0.8,0.1c-0.4,0-0.6,0.1-0.7,0.1h-0.4c-0.3,0-0.8,0-1.3,0
		c-0.5,0-0.9,0-1.1,0c-0.1,0-0.4-0.1-0.8-0.1C152.9,69,152.6,69,152.4,69z"/>
	<path fill="#FFFFFF" d="M179.7,66c0-0.1,0-0.2,0-0.3c0-0.1,0-0.2,0-0.3c0-0.1,0-0.4,0-0.9c0-0.5,0.1-1,0.1-1.5
		c0-0.6,0.1-1.1,0.1-1.5c0-0.5,0-0.8,0-0.9c0-0.4,0-0.8-0.1-1.2c-0.1-0.4-0.1-0.8-0.1-1.2c0-0.2,0-0.4,0-0.6c0-0.2,0.1-0.4,0.2-0.6
		v-4.9c0-0.1,0-0.5,0-1c0-0.6-0.1-1.1-0.1-1.7c0-0.6-0.1-1.2-0.1-1.7c0-0.5,0-0.9,0-1v-1.2c0-0.4-0.1-0.8-0.3-1.2v-8.4
		c0,0-0.1-0.1-0.1-0.2c0-0.1-0.1-0.2-0.1-0.3l0.1-0.2c0-1.4,0-2.8-0.1-4.1c-0.1-1.3-0.1-2.7-0.1-4.1v-2.9c0.1-0.2,0.1-0.4,0.1-0.6
		V23c0,0,0-0.2,0-0.4c0-0.2,0.1-0.5,0.1-0.8c0-0.3,0.1-0.5,0.1-0.7c0-0.2,0.1-0.4,0.1-0.5c0.1-0.7,0.3-1.4,0.5-2.2
		c0.3-0.7,0.4-1.5,0.4-2.3c0.2-0.2,0.4-0.4,0.6-0.6c0.2-0.1,0.4-0.3,0.7-0.6c0.4-0.3,0.8-0.5,1.1-0.7c0.2-0.2,0.5-0.4,0.7-0.5
		c0.2-0.1,0.3-0.2,0.4-0.2h0.8c0.4,0,0.8-0.1,1.3-0.4c0.5-0.2,0.9-0.4,1.3-0.4c0.3,0,0.6,0.2,0.7,0.6c0,0.4,0.1,0.9,0.1,1.3
		c0,0.5,0,0.9,0,1.4c0,0.3,0,0.6,0,0.9c0,0.3,0,0.6,0,1c0.1,0.1,0.1,0.2,0.1,0.4c0,0.2,0.1,0.5,0.1,1c0,0.5,0.1,0.8,0.1,0.9
		c0,0.2,0.1,0.9,0.1,1.9c0,1,0,2.4,0,4.2c0.1,0.1,0.1,0.2,0.1,0.4c0,0.2,0,0.3,0,0.5v0.9c0,0.2,0.1,0.6,0.2,1.4
		c0.1,0.7,0.1,1.5,0.2,2.3c0.1,0.8,0.2,1.6,0.3,2.3c0.1,0.7,0.2,1.1,0.3,1.1c0.1,0,0.6,0,1.7-0.1c1-0.1,2.1-0.1,3.2-0.2
		c1.2-0.1,2.7-0.2,4.6-0.4c0.1,0,0.1-0.1,0.1-0.3c0-0.9,0-1.9-0.1-2.8c-0.1-1-0.2-2.1-0.3-3.2h0.1c0,0,0.1,0,0.1,0.1
		c0.1,0.1,0.2,0.5,0.3,1c0.1,0.5,0.2,1.1,0.3,1.7c0.1,0.6,0.1,1.2,0.2,1.8c0,0.6,0.1,0.9,0.1,1c0,0.2,0,0.4-0.1,0.4
		c-0.1,0-0.2,0.1-0.3,0.3h0.4c0.2,0,0.4,0,0.8,0c0.3,0,0.5-0.2,0.5-0.4c0-0.1-0.1-0.2-0.2-0.4c-0.1-0.2-0.2-0.3-0.2-0.5
		c0-0.2,0-0.3,0.1-0.4c0,0,0.1-0.2,0.1-0.5c0-0.1,0-0.3-0.1-0.4l-0.4-3c0-0.4-0.1-0.8-0.2-1.2c-0.1-0.4-0.1-0.8-0.1-1.2
		c0-0.1,0-0.3,0.1-0.4c0-0.1,0.1-0.3,0.1-0.6c0,0,0-0.1-0.1-0.1c-0.1,0-0.1-0.1-0.1-0.1v-0.4c0,0,0-0.3,0-0.6c0-0.4,0-0.6,0-0.7
		c-0.1-0.2-0.2-0.6-0.2-1.2c0-0.5,0-1,0.1-1.7c0.1-0.6,0.2-1.2,0.3-1.8c0.1-0.6,0.2-1.2,0.3-1.7c0.1-0.5,0.1-0.9,0.1-1.2
		c0,0,0-0.1,0-0.2c0-0.1,0-0.1,0-0.2l-0.1-0.2v-0.9c0.1,0,0.1,0,0.1-0.1l-0.1-0.3c0-0.1,0.1-0.2,0.3-0.3c0.2-0.1,0.6-0.2,1.1-0.4
		c0.5-0.2,1.2-0.4,2.1-0.7c0.9-0.3,2-0.7,3.4-1.3c0.4,0,0.8,0.1,1.1,0.4s0.5,0.6,0.6,1c0.1,0.4,0.3,0.8,0.3,1.2
		c0.1,0.4,0.1,0.7,0.1,1c0,2.3,0.2,4.5,0.7,6.7c0.5,2.2,0.7,4.4,0.7,6.6c0,0.1-0.1,0.2-0.3,0.3c-0.2,0.1-0.3,0.2-0.3,0.5
		c0,0.2,0,0.5,0.1,0.7c0.1,0.2,0.1,0.5,0.1,0.8v0.5c-0.2,0.1-0.3,0.3-0.3,0.6c0,0.2,0.1,0.4,0.3,0.6c0.2,0.2,0.3,0.4,0.3,0.6
		c0,0.1,0,0.3-0.1,0.4c0,0.1-0.1,0.2-0.1,0.4c0,0,0,0.1,0.1,0.1c0,0,0.1,0.1,0.1,0.2c0,0.1,0,0.2-0.1,0.3c0,0,0,0.1,0.1,0.3
		c0.1,0.1,0.1,0.2,0.2,0.3l0.1,3.2c0,0,0,0.1-0.1,0.1c0,0-0.1,0.1-0.1,0.1v2.3c0,0.1,0,0.3,0.1,0.7c0,0.4,0.1,0.6,0.1,0.7
		c0,2.2-0.1,4.4-0.4,6.6c-0.3,2.3-0.4,4.5-0.4,6.6v1c0,0,0,0.2-0.1,0.5c0,0.3-0.1,0.5-0.1,0.6c0,0.1-0.1,0.2-0.1,0.4
		c0,0.1,0,0.2-0.1,0.2h-0.4v1.8l-0.3-0.1c0,0.2-0.1,0.4-0.1,0.6c0,0.2-0.2,0.4-0.3,0.8c-0.2,0.3-0.4,0.7-0.8,1.2
		c-0.3,0.5-0.8,1.1-1.4,1.8c-0.6,0-1.4-0.2-2.4-0.6c-1-0.4-2.3-1.1-3.8-2.1c-0.2-0.1-0.3-0.5-0.4-1c-0.1-0.5-0.1-1.2-0.1-2
		c0-0.9,0-1.9,0.1-3c0.1-1.1,0.2-2.1,0.3-3.2c0.1-1.1,0.2-2,0.3-2.9c0.1-0.9,0.2-1.5,0.2-1.9c0-0.1,0-0.2,0-0.3c0-0.1,0-0.2,0-0.3
		v-0.2c0,0,0-0.1,0-0.1c0,0,0-0.1,0-0.1l0.1-0.1c0,0,0-0.1,0-0.1c0,0,0,0,0-0.1c0-0.2,0-0.4-0.1-0.5c0-0.2-0.2-0.3-0.4-0.3
		c-0.3,0.4-0.5,0.8-0.5,1.4c0,0.5-0.1,1.1-0.1,1.6c0,0.5,0,1-0.1,1.5c-0.1,0.5-0.1,1-0.2,1.5l-0.6,7.5l-0.1-1.1c0-1.9,0-3.8,0-5.7
		c0-1.9,0.1-3.8,0.2-5.7c0,0,0-0.2,0.1-0.4c0-0.2,0.1-0.3,0.1-0.4c0-0.1,0-0.4,0.1-0.8c0-0.4,0.1-0.6,0.1-0.6c0-0.1,0-0.2-0.1-0.3
		c0-0.1-0.1-0.2-0.1-0.2h-0.4c-1.2,0.1-2.3,0.2-3.5,0.2c-1.2,0-2.3,0-3.5,0.1c0,0-0.2,0-0.6,0c-0.3,0-0.6,0-0.6,0l-1,0.1l0.1,1.3
		v2.8c0,1,0,2,0,3.1c0,1,0,2,0,3c0,0.2,0,0.4,0.1,0.6c0,0.1,0.1,0.3,0.1,0.4v0.4l-0.1,0.5c0,0,0,0.2,0.1,0.5c0,0.3,0.1,0.5,0.1,0.5
		c0,0.9,0,1.4,0,1.6c0,0.1,0,0.2,0,0.3c-0.2,1.9-0.5,3.2-0.7,3.9c-0.2,0.7-0.6,1.2-1.3,1.4c-0.6,0.2-1.6,0.4-2.9,0.5
		c-1.3,0.1-3.1,0.5-5.5,1.1c-0.1-0.1-0.1-0.2-0.1-0.3C179.7,66.2,179.7,66.1,179.7,66z M199.1,28.3c-0.1-1.7-0.2-3.7-0.2-6
		c0-0.5,0-1.1,0-1.7c0-0.6,0-1.2,0.1-1.8v-0.9c0,0,0-0.2,0.1-0.5c0.1-0.3,0.1-0.5,0.1-0.6c0-0.2,0.1-0.5,0.1-0.8
		c0-0.4,0.2-0.5,0.6-0.5h0.1c0,0,0,0.1-0.1,0.3c0,0.1-0.1,0.2-0.1,0.3l-0.9,8.2c0,0.1,0,0.3,0,0.6c0,0.3,0,0.5,0,0.6
		c0.1,0.2,0.2,0.5,0.2,0.9c0,0.3,0,0.6,0,0.9v0.4l-0.1,0.2l0.1,0.2L199.1,28.3z"/>
	<path fill="#FFFFFF" d="M232.7,8.5c2,0,3.7,0.3,5.2,0.8c1.5,0.5,2.8,1,3.9,1.6c1.1,0.6,1.9,1.1,2.4,1.6c0.6,0.5,0.9,0.8,1,1
		c0.8,1,1.5,2.1,2.1,3.1c0.6,1.1,0.9,2.3,0.9,3.6c0,0.2,0,0.5,0,0.7c0,0.2-0.1,0.5-0.1,0.7c0,0.1,0,0.2,0,0.4c0,0.1-0.1,0.3-0.2,0.4
		l0.1,0.4c0,0.5-0.1,1.1-0.4,1.8c-0.3,0.7-0.6,1.2-0.9,1.6c-0.1,0.1-0.2,0.3-0.3,0.3c-0.1,0.1-0.2,0.2-0.3,0.3
		c-0.1,0.2-0.2,0.4-0.3,0.5c0,0.1-0.1,0.3-0.2,0.6v0.3c-0.4,1.8-0.9,3.5-1.7,5c-0.7,1.5-1.5,2.8-2.4,4c-0.9,1.2-1.8,2.2-2.8,3.2
		c-1,1-1.9,1.8-2.7,2.5c0.4,0.3,0.7,0.6,1.1,0.9c0.2,0.2,0.4,0.4,0.7,0.6c0.1,0.1,0.3,0.2,0.4,0.3c0.2,0.3,0.6,0.7,1.2,1.2
		c0.6,0.4,1,0.7,1.4,0.9l5.8,5.5c0.3,0.1,0.5,0.3,0.7,0.5c0.2,0.2,0.4,0.4,0.6,0.7c0.5,0.5,1,0.9,1.5,1.3c0.5,0.4,1,0.8,1.5,1.3
		l0.3,0.2l0.2,0.8c0.3,0.3,0.7,0.7,1,1s0.6,0.8,0.9,1.3c0,0.2,0,0.3-0.1,0.5c-0.1,0.1-0.1,0.2-0.1,0.3c0,0.3,0.1,0.5,0.3,0.6
		c0.2,0.1,0.3,0.3,0.3,0.5c-0.2,0-0.5-0.2-0.7-0.5c-0.2-0.3-0.4-0.5-0.7-0.5c-0.1,0-0.2,0.1-0.3,0.4c-0.1,0.2-0.1,0.4-0.1,0.4
		c-0.1,0.1-0.2,0.3-0.4,0.4c-0.2,0.1-0.3,0.3-0.3,0.5h-0.9c-0.2,0-0.4,0.2-0.4,0.7c0,0.5-0.2,0.7-0.4,0.7c-0.1,0-0.2,0-0.3-0.1
		c-0.1,0-0.2-0.1-0.3-0.1c-0.2,0-0.4,0-0.5,0.1c-0.1,0-0.3,0.1-0.5,0.1c-0.4,0-0.8-0.1-1.1-0.4c-0.4-0.2-0.7-0.5-0.9-0.6h-0.3
		c-0.3,0-0.4,0.2-0.4,0.5c0,0.2,0.1,0.4,0.4,0.5c0.3,0.1,0.4,0.3,0.4,0.5c-0.8,0-1.5-0.2-2.2-0.5c-0.6-0.3-1.2-0.7-1.7-1.2
		c-0.5-0.5-1-1-1.5-1.5c-0.5-0.5-1-1-1.6-1.4c-0.2-0.2-0.4-0.4-0.4-0.6c0-0.2-0.2-0.3-0.5-0.4l-2.2-2.2c-0.2-0.1-0.4-0.3-0.7-0.5
		c-0.3-0.3-0.5-0.5-0.7-0.7l-5.4-4.6c-0.3-0.2-0.6-0.4-0.8-0.6c-0.2-0.2-0.4-0.3-0.8-0.3c0,0.6,0.1,1.1,0.2,1.6
		c0.1,0.5,0.3,1,0.4,1.6c0.4,1.8,0.8,3.6,1.1,5.5c0.1,0.3,0.2,0.6,0.4,0.9c0.1,0.3,0.2,0.7,0.2,1c0,0.2-0.1,0.4-0.2,0.6
		c-0.1,0.2-0.2,0.4-0.2,0.6c0,0,0,0.1,0.1,0.1c0,0,0.1,0.1,0.1,0.2c-0.2,0-0.4-0.1-0.4-0.3c0-0.2-0.1-0.3-0.2-0.5
		c-0.1-0.1-0.2-0.3-0.3-0.5c-0.1-0.2-0.2-0.4-0.3-0.5c0-0.1-0.1-0.2-0.3-0.2c-0.2,0-0.4,0.1-0.4,0.3c0,0.2,0,0.3-0.1,0.4
		c-0.1,0.1-0.3,0.2-0.4,0.3c-0.1,0-0.3,0.1-0.4,0.2c-0.1,0.1-0.3,0.2-0.4,0.3c-0.1,0.1-0.2,0.4-0.3,0.7c0,0,0,0.2,0,0.4
		c0,0.2,0,0.3,0,0.4c0,0.1,0,0.2-0.1,0.2s-0.1,0-0.1,0c0,0-0.1,0-0.2,0v0.9h-0.6V65c-0.1-0.6-0.2-0.9-0.3-0.9l-0.1-0.1
		c-0.2,0-0.3,0.2-0.5,0.7c-0.1,0.5-0.2,0.8-0.2,0.9c-0.1,0-0.2,0-0.3-0.1c-0.1-0.1-0.2-0.1-0.3-0.1c-0.2,0-0.3,0.1-0.3,0.4
		c0,0.2-0.1,0.4-0.2,0.4c-0.1,0-0.3-0.1-0.3-0.2s-0.2-0.2-0.4-0.2c0,0-0.1,0-0.1,0.1c0,0.1-0.1,0.2-0.1,0.3l0.4,0.9
		c-0.1,0-0.3-0.3-0.6-1c-0.3-0.7-0.5-1.4-0.8-2.2c-0.3-0.8-0.6-1.6-0.8-2.4c-0.2-0.8-0.4-1.3-0.4-1.5c0-0.2-0.1-0.5-0.2-0.9
		c-0.1-0.4-0.2-0.9-0.4-1.3c-0.1-0.5-0.3-0.9-0.4-1.4c-0.1-0.4-0.2-0.7-0.3-0.9c0-0.1,0-0.3-0.1-0.8c-0.1-0.4-0.2-0.7-0.2-0.8
		c0.1-0.1,0.1-0.3,0.1-0.6c-0.1-1-0.3-1.9-0.4-2.8c-0.1-0.9-0.3-1.9-0.4-2.8c0-0.1,0-0.4-0.1-0.9c-0.1-0.5-0.1-0.9-0.1-1.1
		c-0.2-2-0.4-3.9-0.6-5.7c-0.2-1.8-0.3-3.7-0.4-5.7c-0.1-1-0.2-2-0.4-3c-0.1-1-0.2-2-0.2-3c0-0.7,0-1.3,0.1-2c0.1-0.7,0.1-1.3,0.1-2
		c0-0.1-0.1-0.2-0.2-0.4c-0.1-0.1-0.2-0.3-0.2-0.4c0-0.1,0-0.3,0.1-0.5c0.1-0.2,0.2-0.4,0.3-0.4v-1.8c0-0.6,0.1-1,0.2-1.3l0.1-0.1
		c0,0,0.1,0,0.1-0.1c0.2-0.2,0.3-0.4,0.3-0.4c0,0,0-0.2,0.1-0.5c0-0.1,0.2-0.4,0.5-0.7c0.3-0.3,0.5-0.6,0.8-1
		c0.3-0.3,0.6-0.6,0.8-0.9c0.2-0.3,0.4-0.4,0.5-0.3l0.1-0.1c0,0,0.1,0,0.1-0.1c0.1,0,0.2-0.1,0.3-0.2c0.1-0.1,0.2-0.2,0.3-0.3
		l0.3-0.3v-0.3c0.2,0,0.4-0.1,0.5-0.2c0.1-0.1,0.3-0.2,0.5-0.3c0.6-0.5,1.2-1,1.8-1.5c0.6-0.5,1.3-0.9,1.9-1.2c0,0.1,0,0.2,0,0.2
		c0,0,0,0.1,0,0.2l0.1,0.1h0.1l0.8-0.4c0,0,0.1-0.1,0.3-0.3c0.1-0.1,0.2-0.2,0.3-0.2c0.2-0.1,0.5-0.3,1-0.4c0.5-0.1,0.7-0.3,0.7-0.6
		c-0.4,0-0.9,0.2-1.4,0.5c-0.6,0.4-1.1,0.5-1.4,0.5c0.1-0.1,0.3-0.2,0.5-0.3c0.2-0.1,0.3-0.2,0.4-0.3l2.7-1c0.4-0.1,0.8-0.3,1.1-0.3
		c0.3-0.1,0.7-0.2,1.3-0.3c0,0.1,0.1,0.1,0.3,0.1c0.1,0,0.3,0,0.4-0.1H232.7z M227.5,36.1c0,0.1,0.1,0.1,0.2,0.1
		c0.3,0,0.8-0.2,1.3-0.5c0.5-0.3,1.1-0.7,1.7-1.2c0.6-0.5,1.1-0.9,1.6-1.4c0.5-0.5,0.8-0.8,1-1c0.1-0.1,0.3-0.3,0.3-0.5
		c0.1-0.2,0.2-0.3,0.3-0.5l0.2-0.3c0.4-0.5,0.9-1.1,1.3-1.8c0.5-0.6,0.8-1.3,1-1.9c0.3-0.6,0.6-1.1,0.8-1.6c0.2-0.5,0.3-1.1,0.3-1.7
		c0-0.1,0-0.3-0.1-0.6c0-0.3-0.1-0.4-0.2-0.5l-1.7-2.7c-0.1-0.1-0.2-0.2-0.4-0.3c-0.3-0.2-0.4-0.3-0.4-0.4c-0.4-0.8-1.2-1.3-2.3-1.7
		c-1.2-0.4-2.4-0.5-3.6-0.5c-1.3,0-2.5,0.2-3.6,0.6c-1,0.4-1.5,1-1.5,1.9c0,0.1,0,0.2,0,0.2c0,0,0,0.1,0,0.2l3.5,15.6
		C227.2,35.7,227.3,35.9,227.5,36.1z M224.9,11.8c-0.1,0.1-0.1,0.2-0.1,0.2v0.2c0.1,0,0.3,0,0.4-0.1L224.9,11.8z M232.9,9.7
		c0.7,0,1.6,0.1,2.6,0.4c1,0.3,1.8,0.5,2.5,0.8c0.2,0.1,0.3,0.2,0.4,0.2c0,0,0.2,0.1,0.4,0.1c0-0.1-0.1-0.2-0.4-0.4
		c-0.3-0.2-0.6-0.4-1-0.5c-0.4-0.2-0.7-0.3-1-0.5c-0.3-0.1-0.6-0.2-0.7-0.3c-0.2-0.1-0.5-0.1-0.8-0.1c-0.3,0-0.5,0-0.8-0.1h-2.9
		c0,0-0.2,0-0.6,0.1c-0.3,0.1-0.6,0.1-0.8,0.2c-0.3,0.1-0.7,0.2-1,0.4c-0.4,0.2-0.7,0.4-0.9,0.7l0.2,0.1c0.2,0,0.4,0,0.6-0.1
		c0.2-0.1,0.3-0.2,0.5-0.3c0.3-0.1,0.6-0.1,0.9-0.1s0.6,0,1-0.1c0.4-0.1,0.7-0.2,0.8-0.3C232.2,9.7,232.5,9.7,232.9,9.7z"/>
	<path fill="#FFFFFF" d="M285.6,63.7c-0.1-0.1-0.3-0.2-0.6-0.4c-0.3-0.1-0.6-0.3-0.8-0.4h-0.3l-0.1-0.3c-0.1-0.2-0.2-0.4-0.4-0.5
		c-0.2-0.1-0.3-0.3-0.3-0.5l-0.6-2.2c0-0.2,0-0.4-0.1-0.4c-0.2-1.3-0.4-2.7-0.5-4c-0.1-1.3-0.2-2.7-0.4-4c0-0.1,0-0.3,0-0.6
		c0-0.3-0.1-0.6-0.1-0.9c0-0.3-0.1-0.6-0.1-0.9c0-0.3,0-0.4,0-0.5v-0.4c-0.1,0-0.2,0-0.3,0c-0.1,0-0.2,0-0.3,0l-0.3,0.1
		c-0.1,0-0.4,0-0.9,0c-0.5,0-0.8,0-0.9,0h-0.3c-0.4,0-0.6,0.1-0.8,0.3c-0.1,0.2-0.4,0.3-0.8,0.4c-0.3,0-0.6,0.1-0.8,0.1
		c-0.3,0-0.5,0-0.8,0h-1.7c-1.2,0-2.2,0.1-3.2,0.2c-0.4,1-0.8,1.9-1.2,2.7c-0.4,0.8-0.8,1.7-1.2,2.6c-0.2,1.4-0.6,2.6-1.2,3.4
		c-0.5,0.8-1.1,1.5-1.8,1.9c-0.7,0.4-1.4,0.7-2.2,0.9c-0.7,0.1-1.5,0.2-2.1,0.2c-0.2,0-0.5,0-0.6,0c-0.2,0-0.4,0-0.5,0h-0.9
		c-0.6,0-0.9,0.1-0.9,0.3c0-0.1-0.1-0.2-0.4-0.3c0-0.2-0.1-0.3-0.3-0.3c-0.2,0-0.3,0.1-0.4,0.3c-0.1-0.1-0.3-0.3-0.5-0.3
		c-0.2-0.1-0.4-0.1-0.6-0.2l-0.1-0.2c0-0.2-0.1-0.6-0.2-0.9l-0.3,0.3c0-1,0.1-2,0.3-3.1c0.2-1,0.5-2,0.9-3l8.3-21.1l0.1-0.2l1-2.8
		c0.2-0.2,0.3-0.5,0.4-0.8s0.1-0.6,0.2-0.8l1.7-4.2c0.2-0.2,0.4-0.5,0.4-0.8c0-0.3,0.2-0.6,0.4-0.9c0.1-0.2,0.3-0.4,0.5-0.6
		c0.2-0.2,0.5-0.6,0.9-0.9c0.4-0.4,0.9-0.9,1.6-1.4c0.6-0.6,1.5-1.3,2.6-2.2c0.2-0.2,0.5-0.4,1-0.5c0.5-0.1,0.9-0.2,1.5-0.2
		c0.2,0,0.5,0,0.9,0c0.4,0,0.8,0.1,1.2,0.1c0.4,0.1,0.7,0.2,1,0.3c0.3,0.1,0.5,0.3,0.5,0.5c0.1,0,0.2,0,0.2,0.1
		c0,0.1,0.1,0.1,0.4,0.1c1.2,0.3,2.2,1,3,2.1c0.2,0,0.4,0.5,0.7,1.2c0.3,0.8,0.5,1.6,0.8,2.6c0.3,0.9,0.5,1.8,0.8,2.6
		c0.2,0.8,0.4,1.2,0.6,1.3v0.4c0,0.1,0,0.2,0,0.4c0,0.2,0.1,0.3,0.1,0.3c0,0.6,0.2,1.2,0.4,1.9c0.2,0.6,0.5,1.2,0.8,1.9
		c0.3,0.6,0.5,1.2,0.7,1.8c0.2,0.6,0.3,1.2,0.3,1.8c0,0.1,0,0.2,0.1,0.3c0,0.1,0.1,0.2,0.1,0.3c0,0.2,0.1,0.5,0.3,0.9
		c0.1,0.4,0.2,0.8,0.3,1.2c0.1,0.4,0.2,0.9,0.3,1.3c0.1,0.4,0.1,0.7,0.1,1l1.2,6.3v0.4c0,0.7,0.1,1.4,0.2,2.1
		c0.1,0.7,0.3,1.4,0.4,2.1l0.1,4c0,0.1,0,0.5-0.1,1.3c-0.1,0.8-0.3,1.7-0.8,2.7c-0.4,1-1.1,2-2,3C288.4,62.5,287.1,63.2,285.6,63.7z
		 M276.6,30c-0.2,0.7-0.4,1.3-0.6,1.9c-0.2,0.6-0.4,1.2-0.6,1.8c-0.2,0.9-0.5,1.7-0.7,2.6c-0.2,0.9-0.5,1.8-0.8,2.6
		c-0.2,0.5-0.4,1-0.6,1.4c-0.2,0.5-0.4,1-0.4,1.5c0.8,0,1.6-0.1,2.4-0.2c0.8-0.1,1.6-0.2,2.4-0.2h0.4c0.1,0,0.3,0.1,0.7,0.1
		c0.4,0,0.6,0,0.7,0c0.1,0,0.2,0,0.3,0c0.1,0,0.2-0.1,0.2-0.2c-0.2-0.8-0.4-1.5-0.6-2c-0.1-0.5-0.3-1.1-0.5-1.7
		c-0.2-0.6-0.3-1.1-0.4-1.4l-0.4-0.9c-0.2-0.8-0.5-1.6-0.6-2.5c-0.2-0.8-0.4-1.7-0.6-2.6c0,0,0-0.1-0.1-0.3
		C276.8,30,276.7,30,276.6,30z"/>
	<path fill="#FFFFFF" d="M297.6,63.7v-3c0.1-0.3,0.1-0.6,0.1-1c0-0.4,0-0.7,0.1-1.1c0-0.1,0-0.3,0.1-0.5c0.1-0.2,0.1-0.4,0.1-0.5
		l-0.1-0.2v-0.3c0-0.5,0-1,0.1-1.5c0.1-0.5,0.1-0.9,0.2-1.4c0-1,0.1-1.9,0.1-2.8c0-0.9,0.1-1.9,0.2-2.8c0.1-0.6,0.2-1.2,0.2-1.8
		c0-0.6,0.2-1.2,0.4-1.8c0,0-0.1,0-0.1-0.1v-0.1c0.1-0.4,0.2-0.9,0.2-1.5c0-0.6,0.1-1.1,0.3-1.4c0.5-1.4,0.7-2.9,0.8-4.4
		c0-1.5,0.2-3,0.4-4.6l-0.1-0.1v-0.1V31c0-0.1,0-0.2,0-0.2c0,0,0-0.1,0-0.2l-0.1-0.1v-0.1v-6.9c0-0.5,0.1-1.2,0.2-2.1
		c0.1-0.9,0.3-1.6,0.4-2.1c0.6-0.5,1.3-1.1,2.1-1.7c0.8-0.6,1.5-1.2,2.3-1.7c0.8-0.6,1.5-1.1,2.2-1.5c0.7-0.5,1.3-0.9,1.9-1.2
		c0.4,0,0.8,0.1,1.2,0.2c0.4,0.1,0.8,0.2,1.2,0.2c0.2,0.1,0.5,0.2,0.8,0.2c0.3,0,0.6,0.1,0.8,0.2c0.4,0.1,0.9,0.3,1.3,0.5
		c0.5,0.2,0.9,0.4,1.3,0.5c2.5,0.9,4.8,2.1,6.8,3.6c2.1,1.5,3.8,3.4,5.2,5.7c0.6,1,1,1.9,1.2,2.8c0.2,0.9,0.4,2,0.6,3.1
		c0.1,0.8,0.3,1.5,0.5,2.2c0.2,0.7,0.4,1.4,0.6,2.2c0.2,1.1,0.3,2.3,0.3,3.5c0,1.2,0,2.4,0.1,3.5c-0.1,0-0.2,0.3-0.3,0.8
		c0,0.5-0.1,1.1-0.1,1.8c-0.2,0.9-0.4,2-0.7,3.2c-0.3,1.2-0.6,2.3-1.1,3.2l-0.4,0.7c-0.4,0.7-0.8,1.5-1.3,2.4
		c-0.5,0.9-0.9,1.5-1.3,1.8c-0.5,0.5-1,1.1-1.3,1.7c-0.3,0.6-0.8,1.2-1.3,1.7l-4.3,3.7c-1.9,1.6-3.8,3.2-5.8,4.8c-2,1.6-4,2.7-6,3.5
		c-0.8,0.5-1.6,0.8-2.4,1s-1.6,0.3-2.4,0.3c-0.8,0-1.5-0.1-2.2-0.2c-0.7-0.1-1.4-0.3-1.9-0.5c-0.6-0.2-1-0.4-1.4-0.6
		c-0.4-0.2-0.6-0.3-0.7-0.4c0-0.2,0-0.4,0-0.6c0-0.2,0-0.3,0-0.4h-0.4c0.1-0.1,0.2-0.2,0.4-0.3c0.1,0,0.2-0.2,0.2-0.4
		c0,0-0.1,0-0.1,0c0,0-0.2,0-0.4,0L297.6,63.7z M298.7,62.1c0.2,1.5,0.4,2.3,0.5,2.3c0,0,0.1-0.2,0.1-0.5c0-0.3,0.1-0.7,0.1-1.2
		c0-0.5,0.1-0.9,0.1-1.3c0-0.4,0-0.8,0-1c0-0.2,0-0.4-0.1-0.5s-0.1-0.3-0.1-0.5c0-0.3,0-0.7,0.1-1c0.1-0.3,0.2-0.7,0.2-1
		c0.1-0.7,0.1-1.3,0.1-2c0-0.6,0-1.3,0-2c0-0.7,0.1-1.4,0.2-2.1c0.1-0.7,0.1-1.4,0.1-2.1v-0.8c0.2-0.1,0.3-0.3,0.3-0.7v-0.4
		c0-0.1-0.2-0.1-0.4-0.1c-0.1,0-0.2,0.1-0.2,0.4c0,0.1-0.1,0.3-0.1,0.5c0,0.3-0.1,0.4-0.1,0.5v1.7c0,0.1-0.1,0.4-0.1,0.9
		c0,0.5-0.1,0.8-0.1,0.9v1.8l-0.2,0.4v3.7c-0.1,0.3-0.2,0.7-0.3,1.2c-0.1,0.5-0.1,0.9-0.1,1.3c0,0.1,0,0.2,0.1,0.3
		c0,0.1,0.1,0.2,0.1,0.3L298.7,62.1z M308.7,56.7c0,0.6,0,1.2-0.1,1.7c-0.1,0.5-0.1,1.1-0.1,1.7v0.8c0.3-0.2,0.7-0.4,1-0.6
		c0.3-0.2,0.6-0.4,0.9-0.6c0.2-0.1,0.5-0.3,0.7-0.8c0.2-0.4,0.5-0.6,0.8-0.6c0.1,0,0.2-0.1,0.4-0.3c0.1-0.2,0.3-0.4,0.4-0.5
		c0.2-0.5,0.6-0.9,1-1.2c0.4-0.3,0.8-0.6,1-1c0.9-1.2,1.7-2.4,2.5-3.6c0.8-1.2,1.5-2.6,2-4l1.4-4.8c0.2-1,0.3-1.8,0.4-2.6
		c0.1-0.8,0.1-1.7,0.1-2.8c0-0.8,0-1.7-0.1-2.7c-0.1-1-0.3-1.9-0.6-2.6c-0.6-1.2-1.4-2.4-2.3-3.5c-1-1.1-2-2-3.1-2.8
		c-0.7-0.5-1.4-0.9-2.1-1.3c-0.7-0.4-1.5-0.7-2.3-0.9c0.2,0.8,0.3,1.6,0.4,2.6c0.1,1,0.1,2,0.1,3.1c0,2.1-0.1,4.4-0.3,6.9
		c-0.2,2.5-0.5,5-0.7,7.4c-0.3,2.4-0.5,4.8-0.8,6.9c-0.2,2.2-0.4,4-0.4,5.5V56.7z M328.8,28.6c0.2,0,0.4,0.3,0.5,0.8
		c0.2,0.5,0.3,0.8,0.5,0.8c0-0.2,0-0.6-0.1-1.1c-0.1-0.5-0.2-1.1-0.4-1.7c-0.2-0.6-0.4-1.1-0.6-1.5c-0.3-0.5-0.5-0.7-0.8-0.7
		c0,0-0.1,0-0.2,0.1c-0.1,0.1-0.1,0.2-0.1,0.2c-0.2-0.1-0.4-0.4-0.5-0.7c-0.1-0.3-0.3-0.6-0.4-0.8c-0.5-0.8-1.2-1.6-2.1-2.6
		c-0.9-1-1.7-1.7-2.4-2.2c-0.4-0.2-0.8-0.5-1.2-0.7c-0.4-0.2-0.8-0.4-1.2-0.7l-0.3-0.4c-0.2-0.1-0.5-0.2-0.9-0.3
		c-0.4,0-0.7-0.1-0.9-0.3c-0.3-0.1-0.5-0.3-0.7-0.4c-0.2-0.1-0.4-0.3-0.7-0.4c-0.5-0.2-1.1-0.4-1.8-0.5c-0.7-0.1-1.7-0.3-3.1-0.6
		c-0.1,0.1-0.3,0.2-0.4,0.3l-0.1,0.1c0,0.2,0.1,0.3,0.4,0.4c0.3,0.1,0.4,0.1,0.5,0.1c0.4,0,0.8,0,1.2,0.1c0.4,0.1,0.9,0.1,1.3,0.1
		c0,0.1,0,0.2-0.1,0.3c0,0.4,0.3,0.7,0.8,0.8c0.6,0.1,1,0.3,1.3,0.4c0.6,0.3,1.2,0.6,1.7,0.9c0.6,0.3,1.2,0.6,1.7,0.9
		c1.3,0.7,2.5,1.5,3.5,2.6c1,1.1,2,2.2,2.8,3.3l0.1,0.2c0.2,0.2,0.4,0.3,0.6,0.5c0.2,0.1,0.3,0.3,0.5,0.5L328.8,28.6z"/>
	<path fill="#FFFFFF" d="M336,58.1c0-0.5,0-0.9,0-1.4c0-0.5,0-0.9,0-1.3L336,29.2v-0.3c0-0.1,0-0.2,0-0.3c0-0.1,0-0.2,0-0.3v-0.1
		c0-0.1,0-0.2,0.1-0.2c0-0.1,0-0.2,0.1-0.3c0.1-1.2,0.2-2.3,0.3-3.4c0.1-1.1,0.3-2.3,0.5-3.4c0-0.3,0.2-0.5,0.4-0.5h0.3
		c0.1,0,0.2,0,0.2-0.1c0-0.1,0.1-0.3,0.1-0.6s0.1-0.6,0.1-0.9c0.1-0.3,0.1-0.5,0.2-0.8s0.2-0.3,0.3-0.3c0.2,0,0.5,0.1,0.6,0.3
		c0.2,0.2,0.4,0.3,0.6,0.3c0.5,0,0.7-0.2,0.7-0.5c0-0.1-0.1-0.2-0.3-0.3c0,0,0.1-0.1,0.2-0.1c0.1,0,0.3-0.1,0.7-0.2
		c0.4-0.1,0.9-0.3,1.6-0.5c0.7-0.2,1.7-0.5,3-1h0.4c0.1,0.1,0.2,0.4,0.4,0.9c0.2,0.5,0.3,0.9,0.5,1c0,0.1,0.1,0.4,0.1,0.9
		c0,0.5,0,0.8,0,0.9v0.8c0,0.4,0.2,0.9,0.4,1.4c0.2,0.5,0.3,1,0.3,1.5c0,0.8-0.1,1.7-0.3,2.5c-0.2,0.9-0.3,1.7-0.4,2.6
		c0,0.3-0.1,1.2-0.2,2.6c-0.1,1.4-0.2,3.1-0.4,5c-0.2,1.9-0.3,4-0.5,6.3c-0.2,2.2-0.4,4.3-0.6,6.2c-0.2,1.9-0.4,3.6-0.6,5
		c-0.2,1.4-0.4,2.2-0.5,2.5l-2.6,4.5l-0.4,0.1c0-0.2-0.2-0.3-0.5-0.4c-0.4,0-0.8-0.1-1.2-0.1c-0.5,0-0.9-0.1-1.2-0.1
		c-0.4,0-0.5-0.2-0.5-0.4c0,0-0.2-0.1-0.3-0.3c-0.2-0.2-0.4-0.4-0.6-0.6c-0.2-0.2-0.4-0.4-0.6-0.6C336.1,58.1,336,58.1,336,58.1z"/>
	<path fill="#FFFFFF" d="M359,62.9c-0.4,0-0.8-0.2-1.1-0.5c-0.4-0.3-0.7-0.6-0.9-0.9c-0.7-0.6-1.3-1.2-2-1.9
		c-0.6-0.7-1.2-1.4-1.7-2.2c-1.1-1.9-2-3.8-2.8-5.7c-0.7-1.9-1.1-4-1.1-6.3c0-2.2,0.3-4.3,1-6.3c0.7-2,1.6-3.9,2.7-5.8
		c0.5-1,1.1-2,1.6-3c0.5-1,1.2-2,1.9-2.8c0-0.1,0.2-0.3,0.4-0.5c0.2-0.2,0.5-0.4,0.7-0.7c0.3-0.2,0.5-0.5,0.7-0.7
		c0.2-0.2,0.4-0.4,0.5-0.5l1.6-1.2c0.1-0.1,0.3-0.2,0.5-0.2c0.5-0.2,1.1-0.5,1.6-0.9c0.6-0.4,1.1-0.7,1.5-1.1l1.2-0.9
		c0,0,0.1-0.1,0.2-0.2c0.1-0.1,0.1-0.1,0.2-0.1l0.3,0.1c0.2,0,0.4-0.1,0.5-0.2c0.1-0.1,0.2-0.2,0.3-0.3c0.6-0.3,1.2-0.6,1.8-0.8
		c0.6-0.2,1.3-0.5,1.8-0.8c0.1,0,0.4-0.1,0.7-0.3c0.3-0.1,0.6-0.2,1-0.4c0.4-0.1,0.7-0.2,1-0.3c0.3-0.1,0.5-0.2,0.7-0.2
		c0.5,0,1.1-0.1,1.6-0.2c0.6-0.1,1.1-0.2,1.7-0.3c0.1,0,0.3,0,0.6,0c0.3,0,0.7,0,1.1,0.1c0.4,0,0.7,0,1.1,0c0.3,0,0.6,0,0.6,0h0.4
		c0.2,0,0.3,0,0.4-0.1c0.1-0.1,0.2-0.1,0.4-0.1c0.4,0,1,0.1,1.6,0.4s1.1,0.5,1.4,0.6c1.1,0.5,2.2,1.3,3.4,2.2c1.2,1,2.1,2,2.7,3
		c0.4,0.8,0.9,1.6,1.3,2.6c0.4,1,0.8,2,1.2,3.1c0.4,1.1,0.7,2.1,1,3.2c0.3,1.1,0.6,2,0.8,2.9c0,0,0.1,0.2,0.1,0.5c0,0.3,0,0.4,0,0.5
		c0,0.2,0.1,0.5,0.2,0.9c0.1,0.3,0.1,0.6,0.1,0.9c0,1.1-0.1,2.1-0.2,3c-0.1,1-0.3,1.9-0.4,3c-0.1,0.7-0.2,1.3-0.2,1.9
		c0,0.6-0.1,1.2-0.3,1.9c-0.1,0.6-0.5,1.4-1,2.3c-0.5,1-1.1,1.9-1.9,2.7c0,0-0.2,0.2-0.3,0.4c-0.2,0.2-0.3,0.4-0.5,0.7
		c-0.2,0.3-0.4,0.5-0.5,0.7c-0.2,0.2-0.3,0.3-0.3,0.4c-0.5,0.6-1,0.9-1.5,0.9c-0.5,0-1.1,0.3-1.6,0.6c-0.7,0.5-1.3,1.1-2,1.7
		c-0.7,0.6-1.4,1.1-2.1,1.7c-0.4,0.3-0.9,0.6-1.4,0.8c-0.5,0.2-0.9,0.5-1.4,0.8c-0.4,0.3-0.7,0.6-1.1,0.9c-0.3,0.3-0.7,0.6-1.2,0.8
		c-0.2,0.1-0.3,0.2-0.4,0.3c0,0.1-0.1,0.2-0.2,0.3c-0.4,0.3-0.9,0.5-1.4,0.6s-1,0.3-1.5,0.5c-1.1,0.5-2.3,0.9-3.6,1.3
		c-1.3,0.3-2.5,0.5-3.8,0.5c-1.2,0-2.5-0.2-3.7-0.6c-1.2-0.4-2.3-1.1-3.2-2.1c-0.1-0.1-0.3-0.2-0.6-0.3
		C359.1,63.3,359,63.1,359,62.9z M359.9,42.6c0,0.1,0.2,0.8,0.6,2.1c0.3,1.3,1,2.7,2,4.3c1,1.6,2.5,3.1,4.4,4.4
		c1.9,1.4,4.5,2.2,7.7,2.5c0,0.1,0,0.2,0.1,0.2c0.1,0,0.2,0.1,0.3,0.1l2.4-0.7c0,0,0.2-0.1,0.3-0.1c0.2,0,0.3,0,0.4,0
		c0.7-0.7,1.2-1.4,1.7-2.1c0.5-0.7,1-1.5,1.4-2.3c0.2-0.4,0.5-0.8,0.7-1.2c0.2-0.4,0.5-0.8,0.6-1.2c0.7-1.5,1.2-3.1,1.5-4.8
		c0.4-1.7,0.5-3.4,0.5-5c0-0.6-0.1-1.2-0.2-2c-0.1-0.7-0.2-2-0.3-3.7v-0.2c0-0.4-0.2-1-0.5-1.8c-0.3-0.8-0.9-1.6-1.6-2.4
		s-1.7-1.5-2.8-2.1c-1.1-0.6-2.5-0.9-4.1-0.9c-0.9,0-1.8,0-2.7,0.1c-0.9,0.1-1.8,0.2-2.8,0.4l-3.5,1.4c-0.5,0.2-1,0.5-1.3,0.8
		c-0.3,0.4-0.6,0.8-0.9,1.2c-0.1,0.2-0.3,0.5-0.3,0.8c-0.1,0.3-0.2,0.6-0.3,0.8c-1,1.8-1.8,3.6-2.5,5.5
		C360.3,38.5,359.9,40.4,359.9,42.6z"/>
</g>
</svg>
