<?xml version="1.0" encoding="utf-8"?>
<!-- Generator: Adobe Illustrator 18.1.1, SVG Export Plug-In . SVG Version: 6.00 Build 0)  -->
<svg version="1.1" id="Layer_1" xmlns="http://www.w3.org/2000/svg" xmlns:xlink="http://www.w3.org/1999/xlink" x="0px" y="0px"
	 viewBox="0 0 597.8 340.1" enable-background="new 0 0 597.8 340.1" xml:space="preserve">
<g>
	<g>
		<g>
			<path fill="none" stroke="#FFFFFF" stroke-width="5" stroke-linejoin="round" stroke-miterlimit="10" d="M134.3,30.3
				c0.3-0.8,0.6-1.8,0.9-2.8c0.5-1.9,0.7-3.6,0.7-5c-0.3,0.9-1,2.3-2.3,3.8c-1.4,1.6-2.8,2.7-3.7,3.2c-5.6-18.3,15-22.4,15.2-22.1
				C153.7,18.8,140,26.6,134.3,30.3z M135.5,34.3c0.6,0.6,1.3,1.2,1.9,2c1.2,1.4,2,2.8,2.6,4c-0.6-0.6-1.7-1.6-3.4-2.3
				c-1.8-0.7-3.4-0.8-4.4-0.7c5.1,17.8,18.8,13,19.1,13.2C155.5,36.9,142.5,33.9,135.5,34.3z"/>
		</g>
		<g>
			<path fill="none" stroke="#FFFFFF" stroke-width="5" stroke-linejoin="round" stroke-miterlimit="10" d="M104.4,43.1
				c0.1-1,0.1-2,0.1-3.2c0-2.1-0.3-3.9-0.6-5.4c-0.1,1-0.4,2.7-1.3,4.6c-0.9,2-2.1,3.4-2.8,4.2c-10.6-18.1,9.2-27,9.5-26.7
				C120.8,26.7,109.2,37.8,104.4,43.1z M106.7,47c0.8,0.5,1.6,1,2.5,1.7c1.6,1.2,2.8,2.5,3.7,3.7c-0.8-0.5-2.1-1.3-4-1.7
				c-2-0.4-3.6-0.1-4.6,0.2c10,17.6,22.2,9.8,22.4,10C127.3,45.6,113.7,45,106.7,47z"/>
		</g>
		<g>
			<path fill="none" stroke="#FFFFFF" stroke-width="5" stroke-linejoin="round" stroke-miterlimit="10" d="M77.7,63.5
				c-0.2-1-0.4-2.2-0.8-3.4c-0.6-2.2-1.4-4.1-2.1-5.5c0.2,1.1,0.3,2.9,0,5.1c-0.4,2.4-1.2,4.1-1.7,5.2C57,48.5,75,34,75.3,34.4
				C89.9,42.3,81,56.8,77.7,63.5z M81.1,67c0.9,0.3,2,0.7,3,1.1c2,0.9,3.5,2,4.8,3c-0.9-0.4-2.5-0.9-4.5-0.8
				c-2.1,0.1-3.7,0.8-4.6,1.3c15.4,15.9,25.2,4.9,25.6,5.1C101.6,60.6,87.8,63.2,81.1,67z"/>
		</g>
		<g>
			<path fill="none" stroke="#FFFFFF" stroke-width="5" stroke-linejoin="round" stroke-miterlimit="10" d="M55.9,92.2
				c-0.5-1-1.1-2.1-1.8-3.3c-1.3-2.1-2.6-3.9-3.8-5.2c0.5,1.1,1.2,3,1.5,5.4c0.3,2.6,0,4.7-0.3,6c-21.6-12.5-6.8-33.3-6.4-32.9
				C62.5,66.4,57.4,84.1,55.9,92.2z M60.6,94.9c1.1,0,2.2,0.1,3.5,0.3c2.3,0.4,4.3,1.1,5.9,1.8c-1.1-0.1-2.9-0.2-4.9,0.4
				c-2.2,0.7-3.6,1.9-4.4,2.7c20.7,12.1,27.5-1.8,27.9-1.7C79.8,82.6,66.4,88.9,60.6,94.9z"/>
		</g>
		<g>
			<path fill="none" stroke="#FFFFFF" stroke-width="5" stroke-linejoin="round" stroke-miterlimit="10" d="M41.6,129.1
				c-0.8-0.9-1.8-1.9-2.8-2.9c-2-1.8-3.9-3.2-5.6-4.3c0.9,1,2.1,2.8,3.2,5.2c1.1,2.6,1.4,5,1.5,6.4c-26.4-5.9-17-33.1-16.4-32.8
				C40.9,99.8,40.8,120.1,41.6,129.1z M47.3,130.4c1.1-0.3,2.4-0.6,3.7-0.8c2.5-0.3,4.8-0.2,6.7,0c-1.2,0.2-3.1,0.7-5,2
				c-2.1,1.4-3.2,3.2-3.8,4.3c25.4,5.8,28.3-10.4,28.7-10.4C63.8,111.6,51.6,122.1,47.3,130.4z"/>
		</g>
		<g>
			<path fill="none" stroke="#FFFFFF" stroke-width="5" stroke-linejoin="round" stroke-miterlimit="10" d="M38,172.9
				c-1.2-0.7-2.5-1.4-3.9-2c-2.7-1.2-5.1-2-7.2-2.5c1.2,0.8,3.1,2.1,5,4.4c2,2.4,3,4.8,3.6,6.2c-29.6,3.6-28.3-29.2-27.5-29
				C28.1,142.2,34.2,163.8,38,172.9z M44.4,172.2c1.1-0.7,2.3-1.5,3.7-2.2c2.5-1.3,4.9-2,7-2.4c-1.2,0.6-3,1.8-4.6,3.9
				c-1.7,2.2-2.3,4.5-2.6,5.9c28.3-3.5,26.2-20.8,26.7-21C55.7,146.8,46.2,161.9,44.4,172.2z"/>
		</g>
		<g>
			<path fill="none" stroke="#FFFFFF" stroke-width="5" stroke-linejoin="round" stroke-miterlimit="10" d="M49.3,220.6
				c-1.4-0.2-3-0.5-4.8-0.6c-3.2-0.2-6-0.1-8.3,0.2c1.5,0.3,4,1,6.7,2.7c2.9,1.8,4.9,3.8,6,5.1c-29.2,16-40-19.8-38.9-19.9
				C28.2,191.9,42,212.6,49.3,220.6z M55.6,217.3c0.8-1.2,1.8-2.5,3-3.8c2.2-2.3,4.4-4,6.3-5.3c-1,1.1-2.4,3.1-3.3,5.9
				c-0.9,3-0.7,5.7-0.5,7.2c27.6-15.4,19.6-32,20.1-32.3C58.5,186.3,53.6,205.6,55.6,217.3z"/>
		</g>
		<g>
			<path fill="none" stroke="#FFFFFF" stroke-width="5" stroke-linejoin="round" stroke-miterlimit="10" d="M80.9,265.9
				c-1.6,0.4-3.3,0.9-5.2,1.5c-3.4,1.2-6.2,2.6-8.5,3.9c1.7-0.3,4.6-0.7,8.2-0.1c3.9,0.6,6.9,1.8,8.8,2.7
				c-22.6,30-50.9-3.5-49.4-4.2C46.5,244.7,69.3,260.9,80.9,265.9z M85.8,259.6c0.3-1.6,0.7-3.4,1.3-5.2c1.1-3.4,2.6-6.1,4-8.3
				c-0.5,1.6-1.1,4.3-0.7,7.6c0.5,3.6,1.9,6.2,2.9,7.7c20.7-28.5,5.8-41.6,6.3-42.1C75.4,226.1,78.1,248.2,85.8,259.6z"/>
		</g>
		<g>
			<path fill="none" stroke="#FFFFFF" stroke-width="5" stroke-linejoin="round" stroke-miterlimit="10" d="M139.7,297.8
				c-1.5,1.2-3.1,2.5-4.8,4.1c-3,2.8-5.2,5.6-6.8,8.1c1.7-1.2,4.6-2.9,9-4.1c4.7-1.3,8.9-1.6,11.6-1.6
				c-2.3,19.9-17.9,26.5-31.5,26.1c-13.8,0-25.7-6.9-25.3-6.8C90,292.3,123.4,298.6,139.7,297.8z M141.1,289
				c-0.8-1.8-1.4-3.8-1.9-5.9c-0.9-4-1-7.5-0.8-10.4c0.5,1.9,1.4,4.9,4,8.1c2.8,3.4,6.1,5.4,8.3,6.4c3.6-39-19.1-44.9-18.7-45.8
				C110.5,259.8,125,281.2,141.1,289z"/>
		</g>
	</g>
</g>
<g>
	<g>
		<g>
			<path fill="none" stroke="#FFFFFF" stroke-width="5" stroke-linejoin="round" stroke-miterlimit="10" d="M465.2,33.8
				c-0.6,0.5-1.3,1.1-2,1.7c-1.2,1.2-2,2.5-2.6,3.6c0.6-0.6,1.7-1.4,3.4-1.9c1.8-0.6,3.4-0.6,4.4-0.5c-5.2,16.1-18.9,11-19.2,11.2
				C445.1,35.3,458.2,33.2,465.2,33.8z M466,30.1c-0.3-0.8-0.6-1.7-0.9-2.6c-0.5-1.7-0.6-3.3-0.7-4.6c0.3,0.8,1,2.2,2.2,3.6
				c1.3,1.5,2.8,2.5,3.6,3.1C476,13,455.6,8.7,455.4,9C446.7,18.9,460.2,26.4,466,30.1z"/>
		</g>
		<g>
			<path fill="none" stroke="#FFFFFF" stroke-width="5" stroke-linejoin="round" stroke-miterlimit="10" d="M493.9,46.6
				c-0.8,0.4-1.6,0.8-2.5,1.4c-1.6,1.1-2.8,2.2-3.7,3.2c0.8-0.5,2.1-1.1,3.9-1.3c2-0.2,3.6,0.1,4.5,0.4c-10,15.9-22,7.8-22.3,8
				C473.4,44.1,487,44.3,493.9,46.6z M495.7,42.8c-0.1-0.9-0.1-1.9-0.1-2.9c0-2,0.3-3.6,0.6-5c0.1,1,0.4,2.5,1.2,4.3
				c0.9,1.9,2.1,3.3,2.8,4.1c10.6-16.4-8.9-25.5-9.2-25.1C479.5,26.8,491,37.6,495.7,42.8z"/>
		</g>
		<g>
			<path fill="none" stroke="#FFFFFF" stroke-width="5" stroke-linejoin="round" stroke-miterlimit="10" d="M519.4,66.7
				c-0.9,0.2-1.9,0.5-3,0.9c-1.9,0.7-3.5,1.7-4.8,2.5c0.9-0.3,2.5-0.7,4.4-0.4c2.1,0.2,3.7,1,4.6,1.6c-15.3,14.2-24.9,3-25.2,3.1
				C499.2,59.2,512.9,62.5,519.4,66.7z M522.5,63.1c0.2-1,0.4-2,0.8-3.1c0.6-2.1,1.4-3.8,2.1-5.1c-0.2,1-0.4,2.7,0,4.9
				c0.4,2.3,1.1,4,1.7,5c16-14.6-1.7-29.3-2.1-28.9C510.5,42.3,519.2,56.4,522.5,63.1z"/>
		</g>
		<g>
			<path fill="none" stroke="#FFFFFF" stroke-width="5" stroke-linejoin="round" stroke-miterlimit="10" d="M539.9,94.5
				c-1-0.1-2.2,0-3.4,0.1c-2.3,0.2-4.2,0.8-5.8,1.3c1.1-0.1,2.8,0,4.8,0.8c2.1,0.8,3.6,2.1,4.3,3c-20.6,10.4-27-3.6-27.4-3.6
				C521,81.3,534.2,88.3,539.9,94.5z M544.2,91.7c0.5-1,1.1-2,1.8-3.1c1.3-2,2.6-3.6,3.8-4.8c-0.5,1-1.2,2.8-1.5,5.1
				c-0.3,2.5,0,4.6,0.2,5.8c21.5-10.7,7.1-31.6,6.6-31.2C537.9,66.4,542.8,83.7,544.2,91.7z"/>
		</g>
		<g>
			<path fill="none" stroke="#FFFFFF" stroke-width="5" stroke-linejoin="round" stroke-miterlimit="10" d="M553,130
				c-1.1-0.4-2.3-0.8-3.7-1c-2.5-0.5-4.7-0.5-6.6-0.5c1.2,0.3,3,0.9,4.9,2.3c2,1.6,3.1,3.4,3.7,4.5c-25.4,4-27.7-12.2-28.1-12.2
				C537.1,110.3,548.9,121.6,553,130z M558.5,128.4c0.8-0.9,1.8-1.8,2.9-2.7c2-1.7,3.9-2.9,5.6-3.8c-0.9,0.9-2.2,2.6-3.2,4.9
				c-1.1,2.5-1.4,4.8-1.6,6.2c26.4-4.1,17.3-31.3,16.7-31C559.6,99.7,559.5,119.6,558.5,128.4z"/>
		</g>
		<g>
			<path fill="none" stroke="#FFFFFF" stroke-width="5" stroke-linejoin="round" stroke-miterlimit="10" d="M555.7,171.8
				c-1.1-0.8-2.3-1.7-3.6-2.4c-2.5-1.4-4.9-2.3-6.9-2.9c1.2,0.7,2.9,2,4.5,4.2c1.6,2.4,2.2,4.7,2.5,6.1
				c-28.4-5.4-25.7-22.5-26.1-22.7C545,145.6,554.1,161.3,555.7,171.8z M562.2,172.2c1.2-0.6,2.5-1.2,3.9-1.8c2.7-1,5.1-1.7,7.2-2
				c-1.2,0.7-3.1,1.9-5,4.1c-2,2.3-3.1,4.6-3.7,6c29.6,5.7,28.7-27.1,27.9-26.9C572.5,142.1,566.1,163.3,562.2,172.2z"/>
		</g>
		<g>
			<path fill="none" stroke="#FFFFFF" stroke-width="5" stroke-linejoin="round" stroke-miterlimit="10" d="M544.4,216.7
				c-0.8-1.3-1.8-2.7-2.9-4c-2.1-2.5-4.4-4.4-6.3-5.9c1,1.2,2.4,3.3,3.2,6.3c0.9,3.1,0.7,5.8,0.4,7.4c-27.8-17.7-19.2-33.6-19.6-34
				C542.1,185,546.5,204.9,544.4,216.7z M551,219.7c1.5-0.1,3.1-0.3,4.8-0.3c3.2,0,6,0.3,8.4,0.8c-1.5,0.2-4,0.8-6.8,2.3
				c-3,1.6-5,3.6-6.1,4.8c29.3,18.5,40.4-17.3,39.3-17.5C572.6,191.9,558.5,212.1,551,219.7z"/>
		</g>
		<g>
			<path fill="none" stroke="#FFFFFF" stroke-width="5" stroke-linejoin="round" stroke-miterlimit="10" d="M514,258.7
				c-0.3-1.7-0.7-3.6-1.3-5.6c-1.1-3.6-2.6-6.6-4-9c0.5,1.7,1.1,4.5,0.6,8c-0.5,3.7-2,6.4-3,7.9c-20.8-31.5-5.6-43.4-6-44
				C525,224.7,521.9,247.3,514,258.7z M519.7,265c1.6,0.5,3.4,1.1,5.2,1.9c3.4,1.5,6.3,3.1,8.5,4.6c-1.7-0.5-4.6-1-8.3-0.7
				c-3.9,0.3-7,1.5-8.8,2.3c22.5,33.1,51.1-0.4,49.7-1.1C554.5,245.1,531.3,260.4,519.7,265z"/>
		</g>
		<g>
			<path fill="none" stroke="#FFFFFF" stroke-width="5" stroke-linejoin="round" stroke-miterlimit="10" d="M458.8,287.7
				c0.8-1.9,1.5-4.1,2-6.4c0.9-4.3,1-8.2,0.9-11.3c-0.5,2-1.5,5.2-4.1,8.6c-2.8,3.5-6.2,5.6-8.3,6.6c-3.1-43.4,19-47.3,18.8-48.3
				C489.8,258,475,279.8,458.8,287.7z M461.3,297.1c1.5,1.3,3.1,2.9,4.7,4.6c3,3.2,5.2,6.4,6.7,9.1c-1.7-1.4-4.6-3.4-9-4.9
				c-4.6-1.6-8.9-2-11.5-2.2c1.9,22.1,17.4,29.7,31,29.8c13.8,0.4,25.9-6.6,25.5-6.5C511.2,293.3,477.5,298.5,461.3,297.1z"/>
		</g>
	</g>
</g>
<g>
	<path fill="#FFFFFF" d="M216.8,104.7c-0.1-0.1,0-0.1,0.2,0c0.3,0.1,0.4,0.2,0.2,0.3c0.4,0,0.6-0.2,0.5-0.6
		c-0.1-0.4,0.1-0.6,0.7-0.6c0.3,0,0.6,0.1,0.7,0.2c0.2,0.2,0.4,0.2,0.7,0.2c0.4,0,0.9,0,1.5-0.1c0.6-0.1,0.9-0.4,1.2-0.9
		c0,0.2,0.2,0.3,0.5,0.3c0.2,0,0.4-0.1,0.6-0.2c0.2-0.2,0.4-0.2,0.6-0.2c0,1.1,0.5,1.6,1.5,1.6c0.6,0,0.9-0.2,1.1-0.5
		c0.2-0.3,0.5-0.6,1.1-0.8c0.2,0.2,0.4,0.3,0.7,0.3c0.2,0,0.5-0.1,0.7-0.2c0.3-0.1,0.5-0.2,0.7-0.2c0.6,0,1.1,0.5,1.6,1.4
		c0.5,0.9,0.7,1.6,0.7,2c0,1.9-0.3,3.8-1,5.7c-0.7,2-1.4,3.9-2.3,5.7c-0.9,1.9-1.9,3.6-3,5.3c-1.1,1.7-2.1,3.2-2.8,4.5
		c-0.1,0.9-0.5,1.7-1.2,2.6c-0.7,0.9-1.9,2.3-3.7,4.2c-1.8,1.9-4.4,4.5-7.7,7.9c-3.3,3.4-7.7,7.9-13.1,13.6l0.3,0.5
		c0.3,0.1,0.8,0.3,1.4,0.6c0.6,0.3,1.5,0.7,2.7,1.4c1.2,0.7,2.7,1.5,4.6,2.6c1.9,1.1,4.3,2.5,7.3,4.2l3.5,2.1c1.1,1.1,2.3,2,3.6,2.8
		c1.3,0.8,2.5,2,3.7,3.8c0.6,0.7,1.5,1.6,2.9,2.9c1.4,1.3,2.8,2.6,4.2,4c1.4,1.4,2.7,2.8,3.8,4.1c1.1,1.3,1.7,2.3,1.7,3.1
		c0,2.1-0.4,3.9-1.2,5.6c-0.8,1.7-1.7,3.1-2.9,4.2c-1.2,1.1-2.5,2-3.9,2.7c-1.4,0.7-2.9,1-4.3,1c-0.3,0-0.9-0.1-1.8-0.2
		c-0.9-0.1-1.9-0.3-2.9-0.5c-1.1-0.2-2.1-0.5-3.1-1c-1-0.4-1.8-1-2.5-1.6c-0.1-0.1-0.6-0.6-1.6-1.6c-0.9-0.9-2.1-2-3.5-3.3
		c-1.4-1.3-2.9-2.7-4.5-4.2c-1.6-1.5-3.1-2.8-4.6-4.1c-1.4-1.3-2.7-2.3-3.7-3.2c-1.1-0.9-1.7-1.4-1.9-1.5c-0.2,0-0.3,0.2-0.3,0.7
		c0,0.3,0.2,0.8,0.7,1.4c0.4,0.6,0.9,1.2,1.5,1.8c0.6,0.6,1.1,1.1,1.5,1.6c0.4,0.4,0.7,0.7,0.7,0.8l9.1,9c0.6,1.1,1.5,1.9,2.8,2.3
		c0,0.5-0.2,0.8-0.7,0.8c-0.7,0-1.7-0.6-3.1-1.8c-1.4-1.2-2.9-2.6-4.5-4.3c-1.6-1.7-3.2-3.4-4.7-5.1c-1.6-1.7-2.8-3-3.8-4l-14.6-9.6
		l-5.5,37.9c0,0.2,0,0.4-0.1,0.5c-0.1,0.1-0.1,0.3-0.1,0.5c-0.2,1-0.5,2-0.7,3c-0.3,1-0.7,2-1.3,2.8c-0.6,0.8-1.4,1.5-2.3,2
		c-0.9,0.5-2.2,0.8-3.7,0.8c-0.1-0.1-0.2-0.3-0.3-0.5c-0.1-0.2-0.2-0.3-0.3-0.3c-0.6,0-1.1,0.2-1.5,0.7c-0.4,0.5-0.9,0.8-1.5,0.9
		c-0.3,0-0.8,0.1-1.3,0.2c-0.6,0.1-0.9,0.2-1,0.2c-0.6,0-0.9-0.1-1.1-0.4c-0.2-0.3-0.2-0.6-0.2-1c0-0.4-0.1-0.7-0.2-1.1
		c-0.1-0.3-0.3-0.6-0.7-0.8c-0.7,0-1.2,0.1-1.7,0.2c-0.4,0.1-0.8,0.2-1.2,0.2c-0.1,0-0.4-0.3-0.9-0.8c-0.5-0.5-1-0.8-1.6-0.8
		c-0.4,0-0.7,0.4-0.9,1.1c-0.2,0.7-0.3,1.1-0.4,1.1c-0.6,0-1.1-0.2-1.6-0.7c-0.5-0.5-1.1-0.7-1.7-0.7c0.6-0.5,0.9-0.9,1-1.1
		c0.1-0.2,0.2-0.5,0.2-0.8v-0.7c0-0.3,0.1-0.8,0.4-1.6c0.3-0.7,0.5-1.4,0.7-2.1c0.2-0.7,0.4-1.4,0.7-2c0.2-0.7,0.3-1,0.3-1.1
		c0.2-1.4,0.6-3.2,1.2-5.3c0.6-2.1,0.8-4.4,0.8-6.9c0.3-1.9,0.6-3.7,0.9-5.5c0.3-1.8,0.4-3.3,0.4-4.5c0.8-5.9,1.5-11.7,2.2-17.5
		c0.7-5.8,1.3-11.6,1.8-17.5c0.4-2.5,1-5,1.6-7.4c0.6-2.5,0.9-4.9,0.9-7.4v-0.7c0.2-1.7,0.4-2.9,0.6-3.6c0.2-0.7,0.4-1.5,0.7-2.5
		c0.3-1,0.7-2.6,1.2-4.8c0.6-2.2,1.3-5.7,2.3-10.5c0.4-2.2,0.7-4.1,0.8-5.7c0.1-1.6,0.2-3.1,0.4-4.5c0.2-1.4,0.5-2.6,1-3.8
		c0.5-1.2,1.4-2.5,2.7-3.8c0.9-0.9,1.8-1.4,2.8-1.6c1-0.2,1.7-0.6,2.2-1.1c0.3-0.3,0.6-0.7,0.7-1.1c0.1-0.4,0.3-0.6,0.5-0.6
		c2.3,0,4-0.3,5.2-1c1.1-0.7,1.7-1,1.8-1c0.4,0,0.8,0.2,1.1,0.7c0.3,0.4,0.7,0.7,1.2,0.7c0.4,0,1.1,0.7,1.9,2
		c0.8,1.3,1.7,2.8,2.5,4.6c0.8,1.7,1.6,3.4,2.2,5.1c0.6,1.6,1,2.8,1.1,3.4c0,2.7-0.2,5.6-0.7,8.7c-0.5,3.1-1,6.1-1.6,9.1
		c-0.3,1.6-0.7,3.2-1.1,4.7c-0.4,1.5-0.6,3-0.6,4.7v0.7c0.1,0,0.4-0.2,0.8-0.7c0.4-0.5,0.8-0.9,1-1.2c3.8-4,7.2-8.2,10.2-12.4
		c3-4.2,6.2-8.4,9.6-12.4c0.1-0.1,0.3-0.2,0.7-0.2s0.6-0.1,0.8-0.3c0.1,0.1,0.2,0.3,0.2,0.5c0,0.1-0.1,0.4-0.4,0.8
		c-0.3,0.4-0.6,1-0.9,1.6c-0.3,0.6-0.7,1.1-1,1.6s-0.6,0.8-0.7,1.1c-1,1.7-1.9,3.5-2.7,5.4c-0.8,1.9-2,3.5-3.4,5.1
		c-1.4,1.5-2.6,2.6-3.3,3.3c-0.8,0.7-1.6,1.8-2.5,3.4l-2.3,2c-0.7,0.5-1.4,1.3-2.3,2.1h-0.3c-0.1,0-0.2-0.1-0.3-0.2
		c-0.1,0.1-0.2,0.3-0.2,0.5c0,0.1-0.1,0.2-0.2,0.3c-0.6,1.1-1.3,2-2.2,2.7c-0.9,0.7-1.3,1.8-1.3,3.3c0.7-0.7,1.4-1.4,2.2-2.3
		c0.8-0.9,1.6-1.8,2.4-2.7c0.8-0.9,1.7-1.8,2.5-2.6c0.8-0.8,1.6-1.5,2.2-2c0.6-0.2,0.8-0.4,0.8-0.7c0-0.1,0-0.2-0.1-0.2
		c-0.1-0.1-0.1-0.1-0.1-0.2c1.8-1.7,3.5-3.7,5.2-5.8c1.7-2.1,3.3-4.3,4.7-6.5c0.9-1.4,2-3.1,3.4-5c1.4-1.9,2.1-3.7,2.1-5.3
		c0-0.2-0.1-0.4-0.3-0.5c-0.2-0.1-0.3-0.3-0.3-0.5c0-0.1,0-0.2-0.1-0.2c-0.1-0.1-0.1-0.2-0.1-0.4L216.8,104.7z M204.5,193.1
		c-0.2,0-0.3,0.2-0.3,0.5c0.1,0,0.2-0.1,0.2-0.2L204.5,193.1z M222.7,104.7c-0.2,0-0.3,0.2-0.3,0.5c0.1,0,0.2-0.1,0.2-0.2
		L222.7,104.7z"/>
</g>
<g>
	<path fill="#FFFFFF" d="M312.1,95.6c0.6,0,1.2,0.1,1.9,0.3c0.7,0.2,1.4,0.4,1.9,0.6c0.9,0.2,1.8,0.3,2.7,0.3c0.9,0,1.8,0,2.7,0.1
		c0.7,0.1,1.2,0.6,1.7,1.7c0.5,1,0.9,2.2,1.3,3.6c0.4,1.4,0.7,2.7,0.9,4.1c0.2,1.4,0.4,2.4,0.5,3.2c0.1,0.1,0.2,0.5,0.4,1.2
		c0.1,0.7,0.3,1.2,0.4,1.4l3,14.1l0,1c0,1.2,0.2,2.5,0.6,3.8c0.4,1.4,0.7,2.5,0.9,3.5c0.1,0.5,0.2,1.1,0.2,1.7c0,0.6,0,1.2,0,1.7
		l0.4,1c0.1,0.3,0.2,1,0.4,2c0.1,1,0.2,1.7,0.2,1.9c0.2,0.2,0.5,0.8,0.7,1.7c0.2,0.9,0.5,1.9,0.7,3.1c0.2,1.1,0.4,2.2,0.5,3.2
		c0.1,1,0.3,1.7,0.4,2.1c0.3,1.6,0.7,3.2,1.2,4.8c0.5,1.6,1,3.1,1.4,4.6l1.5,7c0,0.1,0.1,0.4,0.3,1c0.2,0.5,0.4,1.1,0.5,1.6
		c0.2,0.5,0.3,1.1,0.5,1.6c0.1,0.5,0.2,0.9,0.2,1c0.1,0.1,0.2,0.5,0.3,1.1c0.1,0.6,0.1,0.9,0.1,1.1c0,0.2,0.1,0.5,0.2,0.8
		c0.1,0.3,0.2,0.6,0.4,0.8c0.5,2.1,0.9,4.1,1.3,6.2c0.4,2.1,0.9,4.1,1.5,6.2c0,0.1,0.2,0.5,0.5,1.3c0.4,0.8,0.5,1.3,0.5,1.8
		c0,0.3,0,1-0.1,2c-0.1,1-0.2,1.6-0.3,1.8c-0.5,0.7-0.9,1.4-1.2,2.2c-0.3,0.8-0.6,1.6-1.1,2.6c-0.5,0.9-1.1,2-2,3.2
		c-0.9,1.2-2.2,2.6-4,4.2c-0.1,0-0.3,0-0.6-0.1c-0.3-0.1-0.5-0.1-0.8-0.1c-0.6,0-0.9,0.3-1.1,0.8c-0.2,0.5-0.7,0.8-1.6,0.9
		c-0.6,0-1.1-0.2-1.5-0.6c-0.5-0.4-0.8-0.8-1-1.1l-2.3-4c-0.3-0.2-0.8-0.7-1.3-1.6c-0.5-0.9-0.9-1.4-1.1-1.8
		c-1.7-2.1-3.4-4.3-4.9-6.5c-1.6-2.2-2.8-4.5-3.8-7c-1-3.1-1.9-6.3-2.7-9.6c-0.8-3.2-1.5-6.4-2.2-9.6c-0.1-0.3-0.3-0.6-0.4-0.9
		c-0.2-0.3-0.3-0.6-0.4-1.1l-3.3-13.6c-0.2-1-0.5-1.9-0.9-2.9c-0.4-1-0.7-1.9-0.9-2.9c0-0.1,0-0.3,0.1-0.5c0.1-0.2,0.1-0.4,0.1-0.7
		c0-0.3-0.1-0.7-0.2-1c-0.1-0.3-0.3-0.6-0.7-0.8c-0.1,0-0.5,0.8-1.2,2.3c-0.7,1.5-1.5,3.5-2.3,5.8c-0.9,2.3-1.8,4.8-2.8,7.6
		c-1,2.7-1.9,5.4-2.9,7.9c-0.9,2.5-1.7,4.7-2.3,6.6c-0.6,1.9-1,3.1-1.2,3.6l-6.1,14.2c-0.8,0.9-1.2,1.9-1.3,3.1
		c-0.1,1.1-0.3,2.3-0.5,3.4c-0.3,1.2-0.8,2.4-1.6,3.5c-0.7,1.1-1.7,2.1-2.9,3c-0.4,0-0.7-0.1-0.8-0.2c-0.1-0.2-0.4-0.3-0.8-0.4
		c-0.1,0-0.3,0-0.4-0.1c-0.2-0.1-0.3-0.1-0.4-0.1c-0.5,0.2-1.1,1-1.7,2.3c-0.6,1.3-2.1,3.6-4.6,6.8l-0.3,0c-0.1,0-0.2,0-0.2,0.1
		c0,0.1-0.1,0.1-0.2,0.1c-0.7,0.2-1.1,0.7-1.4,1.4c-0.3,0.7-0.7,1.1-1.4,1.1c-0.3,0-0.6-0.1-0.7-0.3c-0.2-0.2-0.5-0.6-0.7-1
		c-0.2-0.5-0.4-0.8-0.5-1c0-0.1-0.1-0.4-0.3-0.7c-0.2-0.4-0.3-0.6-0.3-0.7c-0.3-0.6-0.6-0.9-0.7-0.8c-0.1,0.1-0.3,0-0.7-0.5
		l-0.9-1.4c-0.3-0.5-0.9-1.3-1.6-2.2c-0.7-0.9-1.5-1.9-2.3-2.9c-0.8-1-1.5-2-2.2-2.9c-0.6-0.9-1-1.6-1-2c0-0.5,0.1-1.1,0.5-1.6
		c0.3-0.6,0.6-1.1,0.8-1.7c0.5-1.6,0.8-3.1,0.7-4.3c0.1,0,0.2-0.3,0.4-0.7s0.3-1,0.5-1.6c0.2-0.6,0.4-1.2,0.5-1.7
		c0.2-0.5,0.3-0.9,0.4-1c0-0.1,0.1-0.4,0.4-0.8c0.3-0.4,0.5-0.7,0.6-0.8c0.6-1.4,1.1-2.5,1.5-3.3c0.4-0.8,0.8-1.9,1.3-3.3
		c0.7-1.4,1.4-3.1,2-4.9c0.6-1.8,1.2-3.4,1.7-4.9c0-0.1,0-0.4,0.1-0.8c0.1-0.4,0.3-0.9,0.5-1.4c0.2-0.5,0.4-1,0.5-1.4
		c0.2-0.4,0.3-0.7,0.4-0.8c2.2-5.1,4.3-10.3,6.3-15.8c2-5.4,4.6-11.4,7.6-17.8c0.3-0.8,0.6-1.5,0.9-2.2c0.3-0.7,0.7-1.5,1.1-2.2
		c0.4-0.8,0.7-1.5,0.9-2.1c0.2-0.6,0.5-1.3,0.8-2.2c0.5-0.9,1-1.8,1.5-2.7c0.5-0.9,0.9-1.9,1.3-2.9c0.2-0.9,0.5-1.7,0.9-2.5
		c0.4-0.8,0.8-1.5,1.1-2.3l1.9-3.8c0-0.1,0.2-0.7,0.5-1.7c0.4-1,0.8-2.2,1.2-3.5c0.5-1.3,0.9-2.5,1.4-3.6c0.5-1.1,0.8-1.7,0.9-1.8
		c0.5-0.6,1.7-1.1,3.5-1.6c1.8-0.5,3-0.8,3.6-0.8c1.2,0,2.4,0,3.6,0.2c1.2,0.2,2.4,0.3,3.6,0.2L312.1,95.6z"/>
</g>
<g>
	<path fill="#FFFFFF" d="M369.2,215.8c-0.6,0-0.9-0.2-1-0.5c-0.1-0.3-0.2-0.6-0.2-0.8c0-0.5-0.2-0.8-0.5-0.8c-0.3,0-0.6,0.1-0.8,0.2
		v-0.7c0-0.9-0.1-1.8-0.2-2.7c-0.2-0.9-0.2-1.8-0.2-2.7c0-2.3,0.2-4.6,0.5-6.9c0.3-2.3,0.6-4.7,0.8-6.9l1-8.3c0-0.1,0.1-0.4,0.2-0.7
		c0.1-0.4,0.2-0.7,0.2-1.1l2.3-15.8c0-0.9,0.1-1.7,0.3-2.5c0.2-0.8,0.4-1.6,0.5-2.4c0-0.1,0-0.4,0.1-0.9c0.1-0.5,0.1-1,0.2-1.6
		c0.1-0.5,0.2-1.1,0.2-1.6c0.1-0.5,0.1-0.9,0.1-1.1l4-21.1c0.2-0.2,0.3-0.5,0.3-0.8l2.3-12.3c0-0.4,0.1-0.8,0.2-1.2
		c0.1-0.4,0.2-0.7,0.3-1.1l1.7-10c1-0.3,1.7-1,2.2-1.9c0.5-0.9,1.1-1.7,1.7-2.2l1.8-1.6l5.8-3.6c0.3,0,0.5-0.1,0.5-0.2
		c0.1,0,0.2,0.1,0.4,0.3c0.2,0.2,0.3,0.3,0.4,0.3c0.2,0.1,0.5,0.2,0.9,0.2c0.4,0,0.8,0,1.2,0h1.2c1,0,1.6,0,1.8,0
		c0.2,0,0.3-0.1,0.3-0.2c0.1-0.1,0.2-0.3,0.2-0.5c0-0.2,0-0.4,0-0.5c0.1,0,0.4,0,0.7,0c0.4,0,0.7-0.1,0.9-0.2l0.5-0.2l0.3,0.2h0.2
		c1,0.3,1.7,0.5,2.2,0.6c0.5,0.1,1.1,0.5,1.7,1.2l6.2,6.7c0.6,1.1,1.2,2.1,2.1,3.1c0.8,1,1.5,2,2.1,2.9c2.2,4,4.2,8.2,5.8,12.4
		c0.3,0.4,0.9,1.6,1.7,3.3c0.8,1.8,1.8,3.9,2.9,6.3c1.1,2.4,2.3,4.9,3.5,7.6c1.2,2.7,2.4,5.1,3.5,7.4c1.1,2.3,2,4.2,2.8,5.8
		c0.8,1.6,1.3,2.5,1.7,2.7c0.6,0.7,1.4,2.2,2.5,4.7c1.1,2.5,2.2,5.1,3.3,7.9c1.1,2.8,2.1,5.3,2.9,7.5c0.8,2.2,1.3,3.4,1.4,3.5
		c0.8,2.4,1.3,4.3,1.6,5.6c0.3,1.4,0.4,2.5,0.4,3.3c0,1.3-0.2,2.3-0.5,2.9c-0.3,0.7-0.5,1.6-0.5,2.8c0,0.9-0.3,1.7-0.8,2.5
		c-0.6,0.8-1.8,1.8-3.7,3c-0.7,0-1,0.4-1,1.1c-0.7,0-1.1-0.1-1.3-0.2c-0.2-0.2-0.7-0.2-1.5-0.2c-0.4,0-0.7,0.1-0.7,0.3
		c0,0.2,0,0.5,0.1,0.9c0.1,0.4,0.1,0.6,0.2,0.7h-0.8l-1.5-1.1c-0.4,0-0.7,0.2-0.8,0.7c-0.7-0.8-1.3-1.4-1.9-1.9
		c-0.6-0.5-1.1-1.1-1.6-1.9c0-0.1-0.4-0.9-1.1-2.3c-0.7-1.4-1.5-2.9-2.3-4.6s-1.6-3.1-2.4-4.4c-0.8-1.3-1.2-2-1.3-2
		c0,0.2,0,0.4-0.1,0.7c-0.1,0.2-0.1,0.4-0.1,0.7c0,0.2,0.1,0.5,0.2,1c0.1,0.4,0.2,0.8,0.3,1v0.8c1.1,0.5,1.9,1.7,2.5,3.4
		c0.6,1.7,1,3.2,1.3,4.2c0.2,0.2,0.4,0.6,0.4,1.1c0.1,0.5,0.1,0.8,0.1,0.9c-0.1,0-0.3,0.1-0.5,0.3c-1.7-2.5-3.1-5-4.3-7.5
		c-1.2-2.5-2.4-5.1-3.7-7.8l-0.3-0.7c-0.4-0.9-0.7-1.6-0.9-2.2c-0.2-0.6-0.5-1.3-1.1-2c-3,1.5-5.7,2.7-8.2,3.6
		c-2.5,0.9-5.3,1.6-8.4,2.1c-0.2,0.1-0.9,0.2-2.1,0.4s-2.5,0.4-4.1,0.6c-1.6,0.2-3.2,0.5-4.8,0.8c-1.7,0.3-3.1,0.7-4.3,1
		c-0.4,1-0.8,1.8-1.2,2.4c-0.3,0.6-0.7,1.2-1.1,1.8c-0.4,0.6-0.7,1-1.1,1.2l-1.7,1.1c-0.6,0.4-0.9,1.1-1,2c-0.1,0.9-0.2,1.8-0.3,2.7
		c-0.1,0.9-0.3,1.8-0.6,2.6c-0.3,0.8-0.9,1.3-1.7,1.6l-0.3,2.9v1.6c-0.6,0-0.9,0.3-1,0.8c-0.1,0.5-0.2,1-0.3,1.3
		c-0.1-0.3-0.2-0.6-0.2-0.9c-0.1-0.3-0.3-0.4-0.7-0.4c-0.6,0-0.8,0.2-0.8,0.5v0.8c0,0.5-0.1,0.8-0.3,0.8c0-0.2-0.2-0.4-0.6-0.6
		c-0.4-0.2-0.7-0.4-0.9-0.6l-1.8,1.5c-0.6-0.5-0.9-0.9-1-1c-0.1-0.1-0.2-0.2-0.3-0.2c0,0.1-0.1,0.2-0.2,0.3
		c-0.1,0.1-0.2,0.2-0.3,0.2c-0.3,0-0.5-0.1-0.5-0.3c-0.4,0.2-0.7,0.5-0.7,1c-0.1,0.4-0.1,0.8-0.1,1c-0.2-0.2-0.4-0.4-0.5-0.7
		l-0.3-0.7H369.2z M382.5,208.5c0,0.2,0,0.4,0.1,0.7c0.1,0.2,0.1,0.5,0.1,0.8c0,0.2,0,0.5-0.1,0.7c-0.1,0.3-0.1,0.5-0.1,0.6
		c-0.1,0.1-0.2-0.3-0.2-1.3C382.3,208.8,382.4,208.4,382.5,208.5z M396.5,171.7c0,0.3,0.2,0.5,0.7,0.5c0.8,0,2-0.1,3.8-0.4
		c1.8-0.3,3.6-0.6,5.4-1c1.8-0.4,3.5-0.7,5.1-1.1c1.6-0.3,2.5-0.6,2.8-0.8c0-0.1-0.3-0.8-0.8-2c-0.6-1.3-1-2.3-1.3-3
		c-0.8-1.6-1.5-3.2-2.1-4.7c-0.6-1.5-1.2-3.4-1.9-5.6c0-0.8-0.2-1.6-0.5-2.5c-0.3-0.9-0.6-1.7-0.8-2.6c0-0.1,0-0.2-0.1-0.4
		c-0.1-0.2-0.1-0.3-0.1-0.4l-1.8-4.2c-0.6-1.2-1-2.5-1.3-3.9c-0.3-1.4-0.9-2.6-1.7-3.6c-0.8,2.8-1.3,5.7-1.7,8.5
		c-0.3,2.8-0.7,5.8-1.2,9L396.5,171.7z M435.9,202.6c0,0.5,0.3,1.2,0.8,2c0.6,0.8,1.1,1.3,1.7,1.6c0-0.3,0.2-0.6,0.5-0.8
		c-0.3-0.5-0.7-1.1-1.2-1.6C437.1,203.2,436.5,202.8,435.9,202.6z M438.4,205.2c0,0.1-0.1,0.2-0.2,0.3c-0.1,0.1-0.2,0.1-0.2,0
		C438,205.3,438.1,205.2,438.4,205.2z"/>
</g>
<path fill="none" stroke="#FFFFFF" stroke-width="5" stroke-linejoin="round" stroke-miterlimit="10" d="M163.7,301.2
	c0,0,14.2,10.5,36.5,0l3.7,17C203.9,318.2,170.3,319.5,163.7,301.2z"/>
<path fill="none" stroke="#FFFFFF" stroke-width="5" stroke-linejoin="round" stroke-miterlimit="10" d="M433.4,300.2
	c0,0-13.8,10.5-35.5,0l-3.6,17C394.3,317.2,427,318.5,433.4,300.2z"/>
</svg>
