<?xml version="1.0" encoding="utf-8"?>
<!-- Generator: Adobe Illustrator 18.1.1, SVG Export Plug-In . SVG Version: 6.00 Build 0)  -->
<svg version="1.1" id="Layer_1" xmlns="http://www.w3.org/2000/svg" xmlns:xlink="http://www.w3.org/1999/xlink" x="0px" y="0px"
	 viewBox="0 0 664.5 212" enable-background="new 0 0 664.5 212" xml:space="preserve">
<g>
	<path fill="#FFFFFF" d="M25.3,20.2c-1.3,0-2.8-0.1-4.7-0.3c-1.8-0.2-3.1-0.5-3.7-0.9c-0.6-0.5-1.1-1-1.4-1.4
		c-0.3-0.5-0.7-0.8-1.1-0.8l0.1-4.8c0.5-1,0.7-1.9,0.7-2.8V8.5c0.2,0,0.4-0.2,0.6-0.6c0.2-0.4,0.7-0.6,1.3-0.6c0.1,0,0.7,0,1.9,0.1
		c1.2,0.1,2.8,0.2,4.9,0.3C26,7.8,28.5,7.9,31.2,8C34,8.1,36.9,8.1,40,8.1c4.7,0,9.6,0,14.6-0.1c5,0,9.5-0.1,13.6-0.1H71
		c1.7,0,3.2,0,4.6,0.1c1.4,0.1,2,0.3,2,0.6c0,0.2,0,0.3-0.1,0.5c0,0.2-0.1,0.4-0.1,0.5c0,0.1,0.2,0.2,0.5,0.4
		c0.3,0.2,0.5,0.4,0.6,0.5c0,0.2-0.1,0.3-0.2,0.4c-0.1,0.1-0.2,0.2-0.2,0.4c0,0.2,0.1,0.4,0.4,0.6c0.3,0.2,0.4,0.3,0.4,0.5l-0.4,0.4
		c0,0.2,0,0.3,0.1,0.3c0.1,0,0.2,0.1,0.2,0.3c0.1,0.2,0.2,0.3,0.2,0.4c-0.2,0-0.4,0.1-0.4,0.2c0,0.2,0.1,0.4,0.2,0.6
		c0.2,0.2,0.2,0.3,0.2,0.5c0,0.2-0.1,0.4-0.2,0.4c-0.2,0-0.3,0-0.5,0c-0.2,0-0.3,0.1-0.5,0.2C78,15.8,78,16.1,78,16.5
		c0,0.5,0.1,0.9,0.2,1.2c-0.3,0.1-0.8,0.2-1.4,0.3c-0.6,0.1-1,0.4-1,0.8c0,0.5,0.1,0.8,0.2,0.8c-0.4,0.2-1,0.4-1.7,0.5
		c-0.7,0.1-1.5,0.2-2.2,0.4c-0.8,0.1-1.5,0.2-2.2,0.3c-0.7,0.1-1.3,0.2-1.8,0.2c-0.3,0-0.8,0-1.6-0.1c-0.7,0-1.5-0.1-2.4-0.1
		c-1.8,0-3.1,0-3.8,0.1c-0.7,0.1-1.6,0.1-2.7,0.1c-0.2-0.2-1.6-0.2-4.4-0.2c-1.2,0-2.5,0-4,0.1c-1.5,0-2.9,0.1-4.3,0.1
		c-1.4,0-2.7,0-3.8,0.1c-1.2,0-2,0.1-2.6,0.1h-0.7c-1,0-2.1,0-3.4-0.1c-1.3,0-2.6-0.1-3.8-0.2c-1.2-0.1-2.2-0.2-3.1-0.3
		c-0.9-0.1-1.3-0.3-1.3-0.4H25.3z"/>
</g>
<g>
	<path fill="#FFFFFF" d="M349.4,20.2c-1.3,0-2.8-0.1-4.7-0.3c-1.8-0.2-3.1-0.5-3.7-0.9c-0.6-0.5-1.1-1-1.4-1.4
		c-0.3-0.5-0.7-0.8-1.1-0.8l0.1-4.8c0.5-1,0.7-1.9,0.7-2.8V8.5c0.2,0,0.4-0.2,0.6-0.6c0.2-0.4,0.7-0.6,1.3-0.6c0.1,0,0.7,0,1.9,0.1
		c1.2,0.1,2.8,0.2,4.9,0.3c2.1,0.1,4.5,0.2,7.3,0.3c2.8,0.1,5.7,0.1,8.8,0.1c4.7,0,9.6,0,14.6-0.1c5,0,9.5-0.1,13.6-0.1h2.8
		c1.7,0,3.2,0,4.6,0.1c1.4,0.1,2,0.3,2,0.6c0,0.2,0,0.3-0.1,0.5c0,0.2-0.1,0.4-0.1,0.5c0,0.1,0.2,0.2,0.5,0.4
		c0.3,0.2,0.5,0.4,0.6,0.5c0,0.2-0.1,0.3-0.2,0.4c-0.1,0.1-0.2,0.2-0.2,0.4c0,0.2,0.1,0.4,0.4,0.6c0.3,0.2,0.4,0.3,0.4,0.5l-0.4,0.4
		c0,0.2,0,0.3,0.1,0.3c0.1,0,0.2,0.1,0.2,0.3c0.1,0.2,0.2,0.3,0.2,0.4c-0.2,0-0.4,0.1-0.4,0.2c0,0.2,0.1,0.4,0.2,0.6
		c0.2,0.2,0.2,0.3,0.2,0.5c0,0.2-0.1,0.4-0.2,0.4c-0.2,0-0.3,0-0.5,0c-0.2,0-0.3,0.1-0.5,0.2c-0.2,0.1-0.2,0.4-0.2,0.8
		c0,0.5,0.1,0.9,0.2,1.2c-0.3,0.1-0.8,0.2-1.4,0.3c-0.6,0.1-1,0.4-1,0.8c0,0.5,0.1,0.8,0.2,0.8c-0.4,0.2-1,0.4-1.7,0.5
		c-0.7,0.1-1.5,0.2-2.2,0.4c-0.8,0.1-1.5,0.2-2.2,0.3c-0.7,0.1-1.3,0.2-1.8,0.2c-0.3,0-0.8,0-1.6-0.1c-0.7,0-1.5-0.1-2.4-0.1
		c-1.8,0-3.1,0-3.8,0.1c-0.7,0.1-1.6,0.1-2.7,0.1c-0.2-0.2-1.6-0.2-4.4-0.2c-1.2,0-2.5,0-4,0.1c-1.5,0-2.9,0.1-4.3,0.1
		c-1.4,0-2.7,0-3.8,0.1c-1.2,0-2,0.1-2.6,0.1h-0.7c-1,0-2.1,0-3.4-0.1c-1.3,0-2.6-0.1-3.8-0.2c-1.2-0.1-2.2-0.2-3.1-0.3
		c-0.9-0.1-1.3-0.3-1.3-0.4H349.4z"/>
</g>
<g>
	<path fill="#FFFFFF" d="M431.3,20.2c-1.3,0-2.8-0.1-4.7-0.3c-1.8-0.2-3.1-0.5-3.7-0.9c-0.6-0.5-1.1-1-1.4-1.4
		c-0.3-0.5-0.7-0.8-1.1-0.8l0.1-4.8c0.5-1,0.7-1.9,0.7-2.8V8.5c0.2,0,0.4-0.2,0.6-0.6c0.2-0.4,0.7-0.6,1.3-0.6c0.1,0,0.7,0,1.9,0.1
		c1.2,0.1,2.8,0.2,4.9,0.3c2.1,0.1,4.5,0.2,7.3,0.3c2.8,0.1,5.7,0.1,8.8,0.1c4.7,0,9.6,0,14.6-0.1c5,0,9.5-0.1,13.6-0.1h2.8
		c1.7,0,3.2,0,4.6,0.1c1.4,0.1,2,0.3,2,0.6c0,0.2,0,0.3-0.1,0.5c0,0.2-0.1,0.4-0.1,0.5c0,0.1,0.2,0.2,0.5,0.4
		c0.3,0.2,0.5,0.4,0.6,0.5c0,0.2-0.1,0.3-0.2,0.4c-0.1,0.1-0.2,0.2-0.2,0.4c0,0.2,0.1,0.4,0.4,0.6c0.3,0.2,0.4,0.3,0.4,0.5l-0.4,0.4
		c0,0.2,0,0.3,0.1,0.3c0.1,0,0.2,0.1,0.2,0.3c0.1,0.2,0.2,0.3,0.2,0.4c-0.2,0-0.4,0.1-0.4,0.2c0,0.2,0.1,0.4,0.2,0.6
		c0.2,0.2,0.2,0.3,0.2,0.5c0,0.2-0.1,0.4-0.2,0.4c-0.2,0-0.3,0-0.5,0c-0.2,0-0.3,0.1-0.5,0.2c-0.2,0.1-0.2,0.4-0.2,0.8
		c0,0.5,0.1,0.9,0.2,1.2c-0.3,0.1-0.8,0.2-1.4,0.3c-0.6,0.1-1,0.4-1,0.8c0,0.5,0.1,0.8,0.2,0.8c-0.4,0.2-1,0.4-1.7,0.5
		c-0.7,0.1-1.5,0.2-2.2,0.4c-0.8,0.1-1.5,0.2-2.2,0.3c-0.7,0.1-1.3,0.2-1.8,0.2c-0.3,0-0.8,0-1.6-0.1c-0.7,0-1.5-0.1-2.4-0.1
		c-1.8,0-3.1,0-3.8,0.1c-0.7,0.1-1.6,0.1-2.7,0.1c-0.2-0.2-1.6-0.2-4.4-0.2c-1.2,0-2.5,0-4,0.1c-1.5,0-2.9,0.1-4.3,0.1
		c-1.4,0-2.7,0-3.8,0.1c-1.2,0-2,0.1-2.6,0.1h-0.7c-1,0-2.1,0-3.4-0.1c-1.3,0-2.6-0.1-3.8-0.2c-1.2-0.1-2.2-0.2-3.1-0.3
		c-0.9-0.1-1.3-0.3-1.3-0.4H431.3z"/>
</g>
<g>
	<path fill="#FFFFFF" d="M269.3,20.2c-1.3,0-2.8-0.1-4.7-0.3c-1.8-0.2-3.1-0.5-3.7-0.9c-0.6-0.5-1.1-1-1.4-1.4
		c-0.3-0.5-0.7-0.8-1.1-0.8l0.1-4.8c0.5-1,0.7-1.9,0.7-2.8V8.5c0.2,0,0.4-0.2,0.6-0.6c0.2-0.4,0.7-0.6,1.3-0.6c0.1,0,0.7,0,1.9,0.1
		c1.2,0.1,2.8,0.2,4.9,0.3c2.1,0.1,4.5,0.2,7.3,0.3c2.8,0.1,5.7,0.1,8.8,0.1c4.7,0,9.6,0,14.6-0.1c5,0,9.5-0.1,13.6-0.1h2.8
		c1.7,0,3.2,0,4.6,0.1c1.4,0.1,2,0.3,2,0.6c0,0.2,0,0.3-0.1,0.5c0,0.2-0.1,0.4-0.1,0.5c0,0.1,0.2,0.2,0.5,0.4
		c0.3,0.2,0.5,0.4,0.6,0.5c0,0.2-0.1,0.3-0.2,0.4c-0.1,0.1-0.2,0.2-0.2,0.4c0,0.2,0.1,0.4,0.4,0.6c0.3,0.2,0.4,0.3,0.4,0.5l-0.4,0.4
		c0,0.2,0,0.3,0.1,0.3c0.1,0,0.2,0.1,0.2,0.3c0.1,0.2,0.2,0.3,0.2,0.4c-0.2,0-0.4,0.1-0.4,0.2c0,0.2,0.1,0.4,0.2,0.6
		c0.2,0.2,0.2,0.3,0.2,0.5c0,0.2-0.1,0.4-0.2,0.4c-0.2,0-0.3,0-0.5,0c-0.2,0-0.3,0.1-0.5,0.2c-0.2,0.1-0.2,0.4-0.2,0.8
		c0,0.5,0.1,0.9,0.2,1.2c-0.3,0.1-0.8,0.2-1.4,0.3c-0.6,0.1-1,0.4-1,0.8c0,0.5,0.1,0.8,0.2,0.8c-0.4,0.2-1,0.4-1.7,0.5
		c-0.7,0.1-1.5,0.2-2.2,0.4c-0.8,0.1-1.5,0.2-2.2,0.3c-0.7,0.1-1.3,0.2-1.8,0.2c-0.3,0-0.8,0-1.6-0.1c-0.7,0-1.5-0.1-2.4-0.1
		c-1.8,0-3.1,0-3.8,0.1c-0.7,0.1-1.6,0.1-2.7,0.1c-0.2-0.2-1.6-0.2-4.4-0.2c-1.2,0-2.5,0-4,0.1c-1.5,0-2.9,0.1-4.3,0.1
		c-1.4,0-2.7,0-3.8,0.1c-1.2,0-2,0.1-2.6,0.1h-0.7c-1,0-2.1,0-3.4-0.1c-1.3,0-2.6-0.1-3.8-0.2c-1.2-0.1-2.2-0.2-3.1-0.3
		c-0.9-0.1-1.3-0.3-1.3-0.4H269.3z"/>
</g>
<g>
	<path fill="#FFFFFF" d="M187.2,20.2c-1.3,0-2.8-0.1-4.7-0.3c-1.8-0.2-3.1-0.5-3.7-0.9c-0.6-0.5-1.1-1-1.4-1.4
		c-0.3-0.5-0.7-0.8-1.1-0.8l0.1-4.8c0.5-1,0.7-1.9,0.7-2.8V8.5c0.2,0,0.4-0.2,0.6-0.6c0.2-0.4,0.7-0.6,1.3-0.6c0.1,0,0.7,0,1.9,0.1
		c1.2,0.1,2.8,0.2,4.9,0.3c2.1,0.1,4.5,0.2,7.3,0.3c2.8,0.1,5.7,0.1,8.8,0.1c4.7,0,9.6,0,14.6-0.1c5,0,9.5-0.1,13.6-0.1h2.8
		c1.7,0,3.2,0,4.6,0.1c1.4,0.1,2,0.3,2,0.6c0,0.2,0,0.3-0.1,0.5c0,0.2-0.1,0.4-0.1,0.5c0,0.1,0.2,0.2,0.5,0.4
		c0.3,0.2,0.5,0.4,0.6,0.5c0,0.2-0.1,0.3-0.2,0.4c-0.1,0.1-0.2,0.2-0.2,0.4c0,0.2,0.1,0.4,0.4,0.6c0.3,0.2,0.4,0.3,0.4,0.5l-0.4,0.4
		c0,0.2,0,0.3,0.1,0.3c0.1,0,0.2,0.1,0.2,0.3c0.1,0.2,0.2,0.3,0.2,0.4c-0.2,0-0.4,0.1-0.4,0.2c0,0.2,0.1,0.4,0.2,0.6
		c0.2,0.2,0.2,0.3,0.2,0.5c0,0.2-0.1,0.4-0.2,0.4c-0.2,0-0.3,0-0.5,0c-0.2,0-0.3,0.1-0.5,0.2c-0.2,0.1-0.2,0.4-0.2,0.8
		c0,0.5,0.1,0.9,0.2,1.2c-0.3,0.1-0.8,0.2-1.4,0.3c-0.6,0.1-1,0.4-1,0.8c0,0.5,0.1,0.8,0.2,0.8c-0.4,0.2-1,0.4-1.7,0.5
		c-0.7,0.1-1.5,0.2-2.2,0.4c-0.8,0.1-1.5,0.2-2.2,0.3c-0.7,0.1-1.3,0.2-1.8,0.2c-0.3,0-0.8,0-1.6-0.1c-0.7,0-1.5-0.1-2.4-0.1
		c-1.8,0-3.1,0-3.8,0.1c-0.7,0.1-1.6,0.1-2.7,0.1c-0.2-0.2-1.6-0.2-4.4-0.2c-1.2,0-2.5,0-4,0.1c-1.5,0-2.9,0.1-4.3,0.1
		c-1.4,0-2.7,0-3.8,0.1c-1.2,0-2,0.1-2.6,0.1h-0.7c-1,0-2.1,0-3.4-0.1c-1.3,0-2.6-0.1-3.8-0.2c-1.2-0.1-2.2-0.2-3.1-0.3
		c-0.9-0.1-1.3-0.3-1.3-0.4H187.2z"/>
</g>
<g>
	<path fill="#FFFFFF" d="M105.8,20.1c-1.3,0-2.8-0.1-4.7-0.3c-1.8-0.2-3.1-0.5-3.7-0.9c-0.6-0.5-1.1-1-1.4-1.4
		c-0.3-0.5-0.7-0.8-1.1-0.8l0.1-4.8c0.5-1,0.7-1.9,0.7-2.8V8.3c0.2,0,0.4-0.2,0.6-0.6c0.2-0.4,0.7-0.6,1.3-0.6c0.1,0,0.7,0,1.9,0.1
		c1.2,0.1,2.8,0.2,4.9,0.3c2.1,0.1,4.5,0.2,7.3,0.3c2.8,0.1,5.7,0.1,8.8,0.1c4.7,0,9.6,0,14.6-0.1c5,0,9.5-0.1,13.6-0.1h2.8
		c1.7,0,3.2,0,4.6,0.1c1.4,0.1,2,0.3,2,0.6c0,0.2,0,0.3-0.1,0.5c0,0.2-0.1,0.4-0.1,0.5c0,0.1,0.2,0.2,0.5,0.4
		c0.3,0.2,0.5,0.4,0.6,0.5c0,0.2-0.1,0.3-0.2,0.4c-0.1,0.1-0.2,0.2-0.2,0.4c0,0.2,0.1,0.4,0.4,0.6c0.3,0.2,0.4,0.3,0.4,0.5l-0.4,0.4
		c0,0.2,0,0.3,0.1,0.3c0.1,0,0.2,0.1,0.2,0.3c0.1,0.2,0.2,0.3,0.2,0.4c-0.2,0-0.4,0.1-0.4,0.2c0,0.2,0.1,0.4,0.2,0.6
		c0.2,0.2,0.2,0.3,0.2,0.5c0,0.2-0.1,0.4-0.2,0.4c-0.2,0-0.3,0-0.5,0c-0.2,0-0.3,0.1-0.5,0.2c-0.2,0.1-0.2,0.4-0.2,0.8
		c0,0.5,0.1,0.9,0.2,1.2c-0.3,0.1-0.8,0.2-1.4,0.3c-0.6,0.1-1,0.4-1,0.8c0,0.5,0.1,0.8,0.2,0.8c-0.4,0.2-1,0.4-1.7,0.5
		c-0.7,0.1-1.5,0.2-2.2,0.4c-0.8,0.1-1.5,0.2-2.2,0.3c-0.7,0.1-1.3,0.2-1.8,0.2c-0.3,0-0.8,0-1.6-0.1c-0.7,0-1.5-0.1-2.4-0.1
		c-1.8,0-3.1,0-3.8,0.1c-0.7,0.1-1.6,0.1-2.7,0.1c-0.2-0.2-1.6-0.2-4.4-0.2c-1.2,0-2.5,0-4,0.1c-1.5,0-2.9,0.1-4.3,0.1
		c-1.4,0-2.7,0-3.8,0.1c-1.2,0-2,0.1-2.6,0.1h-0.7c-1,0-2.1,0-3.4-0.1c-1.3,0-2.6-0.1-3.8-0.2c-1.2-0.1-2.2-0.2-3.1-0.3
		c-0.9-0.1-1.3-0.3-1.3-0.4H105.8z"/>
</g>
<g>
	<path fill="#FFFFFF" d="M92.1,142c-0.2-0.2-0.5-0.4-1-0.6c-0.5-0.2-1-0.4-1.4-0.6h-0.5l-0.1-0.5c-0.2-0.4-0.4-0.7-0.7-0.9
		c-0.3-0.2-0.5-0.5-0.5-0.9l-1.1-3.7c0-0.4-0.1-0.6-0.2-0.6c-0.4-2.2-0.7-4.5-0.8-6.7c-0.2-2.2-0.4-4.4-0.7-6.6c0-0.2,0-0.5-0.1-1
		c0-0.5-0.1-1-0.2-1.6c-0.1-0.6-0.1-1.1-0.2-1.5c0-0.4-0.1-0.7-0.1-0.9v-0.7c-0.2,0-0.3,0-0.4-0.1c-0.1,0-0.3-0.1-0.4-0.1l-0.5,0.2
		c-0.2,0-0.6,0-1.4-0.1c-0.8,0-1.3-0.1-1.6-0.1h-0.5c-0.6,0-1.1,0.2-1.3,0.5c-0.2,0.4-0.6,0.6-1.3,0.7c-0.5,0.1-0.9,0.1-1.4,0.1
		c-0.4,0-0.9,0-1.4,0h-2.8c-1.9,0-3.7,0.1-5.4,0.4c-0.6,1.6-1.3,3.1-1.9,4.5c-0.6,1.4-1.3,2.9-1.9,4.4c-0.4,2.4-1,4.3-1.9,5.7
		c-0.9,1.4-1.9,2.5-3.1,3.2c-1.2,0.7-2.4,1.2-3.6,1.4c-1.2,0.2-2.4,0.4-3.5,0.4c-0.4,0-0.8,0-1.1-0.1c-0.3,0-0.6-0.1-0.8-0.1H47
		c-1,0-1.5,0.2-1.6,0.5c0-0.2-0.2-0.4-0.6-0.5c0-0.3-0.2-0.5-0.5-0.5c-0.3,0-0.5,0.2-0.6,0.5c-0.2-0.2-0.4-0.4-0.8-0.5
		s-0.7-0.2-1-0.3l-0.1-0.4c0-0.4-0.1-0.9-0.4-1.6l-0.5,0.5c0-1.7,0.2-3.4,0.5-5.1c0.4-1.7,0.9-3.4,1.5-5l13.8-35.2l0.1-0.4l1.7-4.7
		c0.3-0.4,0.5-0.8,0.6-1.3c0.1-0.5,0.2-0.9,0.4-1.3l2.9-7c0.4-0.4,0.6-0.8,0.7-1.3c0.1-0.5,0.3-1,0.6-1.4c0.2-0.3,0.5-0.7,0.8-1.1
		c0.3-0.4,0.8-0.9,1.5-1.6c0.7-0.6,1.6-1.4,2.6-2.4s2.5-2.2,4.4-3.7c0.3-0.4,0.9-0.7,1.6-0.9c0.8-0.2,1.6-0.3,2.5-0.3
		c0.3,0,0.8,0,1.4,0.1c0.6,0,1.3,0.1,1.9,0.2c0.6,0.1,1.2,0.3,1.7,0.5c0.5,0.2,0.8,0.5,0.9,0.9c0.2,0,0.4,0,0.4,0.1
		c0,0.2,0.2,0.2,0.7,0.2c2.1,0.6,3.7,1.7,4.9,3.5c0.3,0.1,0.7,0.8,1.1,2c0.4,1.3,0.9,2.7,1.3,4.3c0.4,1.6,0.9,3,1.3,4.3
		c0.4,1.3,0.7,2.1,1,2.2v0.6c0,0.2,0,0.4,0.1,0.7c0,0.3,0.1,0.5,0.2,0.5c0.1,1,0.3,2.1,0.7,3.1c0.4,1,0.8,2.1,1.3,3.1
		c0.4,1,0.8,2.1,1.2,3.1c0.4,1,0.5,2,0.5,3.1c0,0.2,0,0.3,0.1,0.5c0.1,0.2,0.2,0.3,0.2,0.5c0.1,0.4,0.2,0.9,0.4,1.5
		c0.2,0.6,0.4,1.3,0.5,2c0.2,0.7,0.3,1.4,0.5,2.1c0.2,0.7,0.2,1.2,0.2,1.6l1.9,10.6v0.6c0,1.1,0.1,2.3,0.4,3.5
		c0.2,1.2,0.4,2.4,0.6,3.5l0.2,6.6c0,0.2-0.1,0.9-0.2,2.2c-0.1,1.3-0.5,2.8-1.3,4.4c-0.7,1.7-1.8,3.3-3.3,5
		C96.8,140.1,94.7,141.3,92.1,142z M77.1,85.8c-0.3,1.1-0.6,2.2-1,3.2c-0.3,1-0.6,2-1,3.1c-0.4,1.4-0.8,2.9-1.2,4.4
		c-0.4,1.5-0.8,2.9-1.3,4.4c-0.3,0.8-0.7,1.6-1.1,2.4c-0.4,0.8-0.6,1.6-0.6,2.5c1.4,0,2.7-0.1,4.1-0.3c1.4-0.2,2.7-0.3,4.1-0.3h0.6
		c0.2,0.1,0.5,0.1,1.1,0.2c0.6,0,1,0.1,1.1,0.1c0.2,0,0.3,0,0.5-0.1c0.2,0,0.3-0.1,0.3-0.3c-0.4-1.4-0.7-2.5-1-3.4
		c-0.2-0.9-0.5-1.8-0.8-2.8c-0.3-1-0.5-1.8-0.7-2.4L79.7,95c-0.4-1.4-0.8-2.7-1.1-4.1c-0.3-1.4-0.6-2.8-1-4.3c0-0.1,0-0.2-0.1-0.4
		C77.5,85.9,77.3,85.8,77.1,85.8z"/>
	<path fill="#FFFFFF" d="M116.2,159.2c-0.2-0.2-0.4-0.4-0.4-0.7c0-0.3-0.1-0.5-0.1-0.8v-0.5c-0.2-1.3-0.4-2.3-0.5-3.1
		c-0.1-0.8-0.2-1.5-0.4-2.2s-0.2-1.1-0.2-1.4c0-0.2,0-0.4-0.1-0.8c-0.1-0.4-0.2-0.8-0.2-1.2c-0.1-0.4-0.1-0.8-0.2-1.1
		c0-0.4-0.1-0.6-0.1-0.7c-0.1-0.4-0.2-1.1-0.4-2c-0.2-0.9-0.4-1.9-0.6-2.9c-0.2-1-0.4-2-0.6-3c-0.2-1-0.3-1.7-0.3-2.2
		c-0.1-0.7-0.1-1.4-0.1-2c0-0.6,0-1.2-0.2-1.9c-0.1-0.7-0.2-1.4-0.4-1.9c-0.2-0.6-0.3-1.3-0.3-2.2v-0.6c0-0.6,0-1.2-0.1-1.8
		c-0.1-0.6-0.2-1.1-0.2-1.7c-0.1-0.5-0.2-1.4-0.2-2.9c-0.1-1.4-0.2-2.9-0.3-4.5c-0.1-1.6-0.2-3-0.4-4.2c-0.1-1.2-0.2-1.9-0.3-2
		c-0.4-5.5-1-11-1.8-16.6c-0.3-2.2-0.7-4.5-1.1-6.7c-0.4-2.2-0.6-4.5-0.6-6.8v-1.3c0.2-0.1,0.3-0.3,0.3-0.7c0-0.4,0.1-0.7,0.3-0.8
		V75c0-0.6,0-1.1-0.1-1.6c0-0.5-0.1-1-0.3-1.4c-0.2-0.3-0.3-0.7-0.5-1.1c-0.2-0.4-0.3-0.7-0.3-1c0.2-0.6,0.5-1.2,0.7-1.6
		c0.2-0.4,0.4-0.8,0.5-1.1c0.1-0.4,0.2-0.6,0.2-0.8c0.1-0.2,0.2-0.6,0.2-1.3c0.1-0.7,0.2-1.2,0.2-1.3c0.1-0.4,0.3-0.7,0.7-1
		c0.4-0.3,0.6-0.7,0.6-1.1l1.2-1.6c0.2,0,0.3,0,0.4-0.1c0.2-0.2,0.3-0.2,0.4-0.2c0.4-0.2,0.7-0.7,0.8-1.3c0.1-0.6,0.5-0.9,1.1-0.9
		c0.2,0,0.6,0.2,1,0.6c1.1-0.9,2.4-1.6,3.8-2.3c1.4-0.6,2.9-1.2,4.4-1.6c2.2-0.6,4.3-0.8,6.5-0.8c3.6,0,7,0.7,10.1,2
		c3.1,1.4,5.9,3.3,8.4,5.8c0.6,0.6,1.1,1.2,1.4,1.7c0.3,0.5,0.7,1.1,1.4,1.8c0.3,0.4,0.7,0.8,1.3,1.1c0.5,0.3,0.9,0.7,1,1.2
		c2,1.8,3.6,4,4.9,6.4c1.2,2.4,1.9,5,1.9,7.7c0,2.2-0.3,4.3-1,6.4c-0.6,2.1-1.5,4.1-2.5,5.9l-1.3,2.5l-2.5,3.8
		c-0.4,0.3-0.7,0.7-0.9,1c-0.2,0.4-0.5,0.7-0.8,1.1L145,107c-0.2,1.2-1.2,2.3-2.8,3.2c-1.6,0.9-3.3,1.8-5.2,2.5
		c-1.9,0.8-3.6,1.4-5.2,2c-1.6,0.6-2.4,1.2-2.5,1.7c0,0.1,0,0.2,0.1,0.4c0.1,0.2,0.1,0.3,0.1,0.4c0,0.2,0,0.5-0.1,0.7
		c-0.1,0.2-0.1,0.4-0.1,0.7c0,1.4,0.1,2.9,0.3,4.4c0.2,1.5,0.4,2.9,0.5,4.3l1.1,17c0.1,0.6,0.2,1.1,0.5,1.7c0.2,0.6,0.4,1.2,0.4,1.8
		c0,0.4,0,0.9-0.1,1.6c0,0.7-0.2,1.2-0.5,1.6v2.5c-0.2,0.2-0.3,0.4-0.3,0.8c0,0.4-0.1,0.7-0.3,1c0-0.1,0-0.2-0.1-0.2
		c-0.1-0.1-0.2-0.2-0.2-0.4c-0.1-0.2-0.2-0.3-0.2-0.4c-0.3,0-0.5,0.1-0.4,0.3c0,0.2-0.1,0.3-0.4,0.3c-0.2,0-0.5,0-0.7-0.1
		c-0.2-0.1-0.4-0.1-0.7-0.1c-0.4,0-0.8,0.1-1.3,0.4c-0.4,0.3-0.9,0.6-1.4,1c-0.5,0.4-0.9,0.7-1.4,1c-0.4,0.3-0.9,0.4-1.4,0.4
		c-0.3,0-0.6,0-0.7-0.1c-0.1,0.2-0.4,0.4-1,0.8c-0.6,0.4-0.9,0.6-1,0.6c-0.4,0.5-0.9,1.1-1.4,2c-0.5,0.8-1,1.5-1.5,1.9
		c-0.3-0.1-0.5-0.3-0.5-0.7c0-0.4-0.1-0.7-0.1-1.1c-0.1-0.2-0.2-0.4-0.2-0.8C116.2,159.6,116.2,159.3,116.2,159.2z M124.1,75.3
		c0,0.2,0.1,0.6,0.4,1.3c0.3,0.7,0.5,1.2,0.5,1.3c0.3,1.1,0.5,2.2,0.5,3.2c0,1,0.1,2.1,0.2,3.2c0.1,0.8,0.3,1.6,0.5,2.5
		c0.3,0.8,0.5,1.7,0.7,2.5c0,0.1,0,0.3,0,0.7c0,0.4,0,0.7,0.1,1.1c0,0.4,0.1,0.8,0.1,1.1c0,0.3,0,0.5,0,0.6c0,0.2,0.1,0.8,0.2,1.7
		c0.2,0.9,0.3,1.8,0.5,2.7c0.2,0.9,0.3,1.8,0.5,2.5c0.2,0.8,0.3,1.1,0.4,1.1c0.2,0,0.7-0.2,1.3-0.5c0.6-0.4,1.3-0.8,2-1.3
		c0.7-0.5,1.3-0.9,1.9-1.4c0.6-0.4,0.9-0.7,1.1-0.9c0.2-0.3,0.5-0.7,0.7-1c0.2-0.4,0.4-0.7,0.7-0.9c0.4-0.4,0.9-0.9,1.6-1.4
		c0.7-0.5,1.1-1.1,1.3-1.7c0.4-1.1,0.7-2.1,0.8-2.8c0.1-0.8,0.2-1.8,0.2-3.2c0-2-0.5-3.9-1.4-5.7c-1-1.8-2.2-3.4-3.7-4.7
		c-1.5-1.3-3.2-2.4-5.1-3.2c-1.9-0.8-3.8-1.2-5.8-1.2V75.3z"/>
	<path fill="#FFFFFF" d="M176.3,159.2c-0.2-0.2-0.4-0.4-0.4-0.7c0-0.3-0.1-0.5-0.1-0.8v-0.5c-0.2-1.3-0.4-2.3-0.5-3.1
		c-0.1-0.8-0.2-1.5-0.4-2.2s-0.2-1.1-0.2-1.4c0-0.2,0-0.4-0.1-0.8c-0.1-0.4-0.2-0.8-0.2-1.2c-0.1-0.4-0.1-0.8-0.2-1.1
		c0-0.4-0.1-0.6-0.1-0.7c-0.1-0.4-0.2-1.1-0.4-2c-0.2-0.9-0.4-1.9-0.6-2.9c-0.2-1-0.4-2-0.6-3c-0.2-1-0.3-1.7-0.3-2.2
		c-0.1-0.7-0.1-1.4-0.1-2c0-0.6,0-1.2-0.2-1.9c-0.1-0.7-0.2-1.4-0.4-1.9c-0.2-0.6-0.3-1.3-0.3-2.2v-0.6c0-0.6,0-1.2-0.1-1.8
		c-0.1-0.6-0.2-1.1-0.2-1.7c-0.1-0.5-0.2-1.4-0.2-2.9c-0.1-1.4-0.2-2.9-0.3-4.5c-0.1-1.6-0.2-3-0.4-4.2c-0.1-1.2-0.2-1.9-0.3-2
		c-0.4-5.5-1-11-1.8-16.6c-0.3-2.2-0.7-4.5-1.1-6.7c-0.4-2.2-0.6-4.5-0.6-6.8v-1.3c0.2-0.1,0.3-0.3,0.3-0.7c0-0.4,0.1-0.7,0.3-0.8
		V75c0-0.6,0-1.1-0.1-1.6c0-0.5-0.1-1-0.3-1.4c-0.2-0.3-0.3-0.7-0.5-1.1c-0.2-0.4-0.3-0.7-0.3-1c0.2-0.6,0.5-1.2,0.7-1.6
		c0.2-0.4,0.4-0.8,0.5-1.1c0.1-0.4,0.2-0.6,0.2-0.8c0.1-0.2,0.2-0.6,0.2-1.3c0.1-0.7,0.2-1.2,0.2-1.3c0.1-0.4,0.3-0.7,0.7-1
		c0.4-0.3,0.6-0.7,0.6-1.1l1.2-1.6c0.2,0,0.3,0,0.4-0.1c0.2-0.2,0.3-0.2,0.4-0.2c0.4-0.2,0.7-0.7,0.8-1.3c0.1-0.6,0.5-0.9,1.1-0.9
		c0.2,0,0.6,0.2,1,0.6c1.1-0.9,2.4-1.6,3.8-2.3c1.4-0.6,2.9-1.2,4.4-1.6c2.2-0.6,4.3-0.8,6.5-0.8c3.6,0,7,0.7,10.1,2
		c3.1,1.4,5.9,3.3,8.4,5.8c0.6,0.6,1.1,1.2,1.4,1.7c0.3,0.5,0.7,1.1,1.4,1.8c0.3,0.4,0.7,0.8,1.3,1.1c0.5,0.3,0.9,0.7,1,1.2
		c2,1.8,3.6,4,4.9,6.4c1.2,2.4,1.9,5,1.9,7.7c0,2.2-0.3,4.3-1,6.4c-0.6,2.1-1.5,4.1-2.5,5.9l-1.3,2.5l-2.5,3.8
		c-0.4,0.3-0.7,0.7-0.9,1c-0.2,0.4-0.5,0.7-0.8,1.1l-4.4,4.8c-0.2,1.2-1.2,2.3-2.8,3.2c-1.6,0.9-3.3,1.8-5.2,2.5
		c-1.9,0.8-3.6,1.4-5.2,2c-1.6,0.6-2.4,1.2-2.5,1.7c0,0.1,0,0.2,0.1,0.4c0.1,0.2,0.1,0.3,0.1,0.4c0,0.2,0,0.5-0.1,0.7
		c-0.1,0.2-0.1,0.4-0.1,0.7c0,1.4,0.1,2.9,0.3,4.4c0.2,1.5,0.4,2.9,0.5,4.3l1.1,17c0.1,0.6,0.2,1.1,0.5,1.7c0.2,0.6,0.4,1.2,0.4,1.8
		c0,0.4,0,0.9-0.1,1.6c0,0.7-0.2,1.2-0.5,1.6v2.5c-0.2,0.2-0.3,0.4-0.3,0.8c0,0.4-0.1,0.7-0.3,1c0-0.1,0-0.2-0.1-0.2
		c-0.1-0.1-0.2-0.2-0.2-0.4c-0.1-0.2-0.2-0.3-0.2-0.4c-0.3,0-0.5,0.1-0.4,0.3c0,0.2-0.1,0.3-0.4,0.3c-0.2,0-0.5,0-0.7-0.1
		c-0.2-0.1-0.4-0.1-0.7-0.1c-0.4,0-0.8,0.1-1.3,0.4c-0.4,0.3-0.9,0.6-1.4,1c-0.5,0.4-0.9,0.7-1.4,1c-0.4,0.3-0.9,0.4-1.4,0.4
		c-0.3,0-0.6,0-0.7-0.1c-0.1,0.2-0.4,0.4-1,0.8c-0.6,0.4-0.9,0.6-1,0.6c-0.4,0.5-0.9,1.1-1.4,2c-0.5,0.8-1,1.5-1.5,1.9
		c-0.3-0.1-0.5-0.3-0.5-0.7c0-0.4-0.1-0.7-0.1-1.1c-0.1-0.2-0.2-0.4-0.2-0.8C176.4,159.6,176.3,159.3,176.3,159.2z M184.2,75.3
		c0,0.2,0.1,0.6,0.4,1.3c0.3,0.7,0.5,1.2,0.5,1.3c0.3,1.1,0.5,2.2,0.5,3.2c0,1,0.1,2.1,0.2,3.2c0.1,0.8,0.3,1.6,0.5,2.5
		c0.3,0.8,0.5,1.7,0.7,2.5c0,0.1,0,0.3,0,0.7c0,0.4,0,0.7,0.1,1.1c0,0.4,0.1,0.8,0.1,1.1c0,0.3,0,0.5,0,0.6c0,0.2,0.1,0.8,0.2,1.7
		c0.2,0.9,0.3,1.8,0.5,2.7c0.2,0.9,0.3,1.8,0.5,2.5c0.2,0.8,0.3,1.1,0.4,1.1c0.2,0,0.7-0.2,1.3-0.5c0.6-0.4,1.3-0.8,2-1.3
		c0.7-0.5,1.3-0.9,1.9-1.4c0.6-0.4,0.9-0.7,1.1-0.9c0.2-0.3,0.5-0.7,0.7-1c0.2-0.4,0.4-0.7,0.7-0.9c0.4-0.4,0.9-0.9,1.6-1.4
		c0.7-0.5,1.1-1.1,1.3-1.7c0.4-1.1,0.7-2.1,0.8-2.8c0.1-0.8,0.2-1.8,0.2-3.2c0-2-0.5-3.9-1.4-5.7c-1-1.8-2.2-3.4-3.7-4.7
		c-1.5-1.3-3.2-2.4-5.1-3.2c-1.9-0.8-3.8-1.2-5.8-1.2V75.3z"/>
	<path fill="#FFFFFF" d="M227.9,151.7c-0.2,0-0.2-0.1-0.2-0.4c0,0.2-0.1,0.2-0.4,0.2c-1.1,0-2-0.3-2.8-1c-0.7-0.7-1.2-1.5-1.6-2.6
		v-2.3c0-1.7,0-3.4,0.1-5.2c0.1-1.8,0.2-3.7,0.2-5.8c0-0.1,0-0.3,0.1-0.8c0-0.4,0.1-0.9,0.1-1.4c0-0.5,0-1,0.1-1.4
		c0-0.4,0.1-0.7,0.1-0.8l0.1-1.2v-5.9c0.1-0.6,0.2-1.3,0.2-2c0.1-0.7,0.1-1.3,0.1-1.9c-0.1,0-0.1,0-0.1-0.1v-0.2v-2.8
		c0-1.3,0.1-2.6,0.2-3.9c0.2-1.3,0.6-2.4,1.2-3.3v0.1c0,0.1,0,0.2,0.1,0.2c-0.2,1.3-0.3,2.7-0.4,4.4c-0.1,1.6-0.2,3.4-0.3,5.2
		c-0.1,1.8-0.2,3.6-0.2,5.4c0,1.8-0.1,3.5-0.1,5.2c0,2.2,0.1,4.2,0.2,5.8c0.1,1.6,0.4,2.8,0.8,3.4c-0.2-1-0.4-2-0.4-3.1
		c0-1.4,0.1-2.9,0.3-4.5c0.2-1.6,0.3-3.1,0.4-4.5c0.2,0,0.2-0.1,0.2-0.4c0-6.9,0.5-14.1,1.4-21.7c-0.3-0.3-0.5-0.8-0.5-1.4
		c0-0.6,0.1-1.2,0.2-1.9c0.1-0.7,0.2-1.3,0.3-1.7c0-1.4-0.2-2.9-0.6-4.4c-0.4-1.5-0.7-2.3-1-2.3c-0.2,0-0.2,0.5-0.2,1.4
		c0,0.4,0,0.8,0,1.3c0,0.4,0,1,0.1,1.6c0,0.6,0,1.4,0.1,2.3c0,0.9,0.1,1.9,0.1,2.9c0,1.4-0.1,2.6-0.2,3.8c-0.2,1.2-0.5,2.1-1,2.8
		c-0.1,0-0.1,0-0.1-0.1v-0.2c0.4-0.6,0.7-1.6,0.8-3c0.1-1.4,0.2-2.8,0.2-4.3c0-1.4,0-2.8-0.1-4.1c-0.1-1.3-0.2-2.3-0.4-2.9
		c-0.1-0.6-0.1-1.3-0.1-2s0-1.4,0-2.2c0-3.8,0.2-7.7,0.7-11.7c0.4-4,0.9-7.9,1.5-11.9c0.1-0.1,0.2-0.3,0.5-0.7
		c0.2,0,0.2,0.1,0.2,0.2v1.1v2.2c0,0.4,0,0.8,0.1,1.3l0.4,0.4l0.4-0.4c0.1-0.3,0.1-0.6,0.1-1c0-0.2,0-0.5,0-0.8c0-0.3,0-0.5,0.1-0.8
		v-1c0-0.7,0-1.4-0.1-2.1c-0.1-0.7-0.1-1.4-0.1-2.1v-0.7l-0.4-0.7v-2.4l0.8-0.7l3.2-3.2c0.9-0.8,1.7-1.5,2.4-2.2
		c0.7-0.7,1.2-1.1,1.3-1.1c0.5,0,0.9,0.2,1.3,0.7c0.4,0.5,0.7,1,1,1.7c0.3,0.6,0.5,1.3,0.7,2c0.2,0.7,0.4,1.2,0.5,1.5
		c0.1,0.4,0.3,0.7,0.5,1c0.3,0.3,0.5,0.6,0.7,0.9c0.8,3.8,1.3,7.7,1.6,11.5c0.3,3.8,0.4,7.7,0.4,11.6c0,7.6-0.3,15.2-1,22.8
		c-0.6,7.6-1,15.2-1,22.9c0,0.9,0,1.7,0.1,2.5c0,0.8,0.1,1.6,0.1,2.5c0,0.5,0,0.9-0.1,1.4c-0.1,0.4-0.1,0.9-0.1,1.3
		c0,0.5,0.3,0.7,0.9,0.7c0.6,0,1.1,0,1.4,0.2c0.2,0,0.7,0,1.4,0.1c0.7,0,1.2,0.1,1.3,0.1h1.7c2,0,4-0.1,6-0.3c2-0.2,4.2-0.6,6.6-1.1
		h3.1c0.4,0.6,0.8,1.1,1.1,1.6c0.2,0.4,0.5,0.8,0.7,1.1c0.2,0.4,0.3,0.6,0.4,0.8v0.6l0.4,0.1c0.1,0.2,0.3,0.6,0.6,1.1
		c0.3,0.5,0.7,1,1,1.5c0.4,0.5,0.7,1.1,1,1.6c0.3,0.6,0.5,1.1,0.5,1.6c0,0.6-0.4,1.1-1.1,1.4c-0.2,0-0.4,0-0.5,0.1
		c-3.8,1.8-8.1,3.1-13,3.8c-4.9,0.7-10.2,1.3-16,1.9l-2.2,0.2C233.4,152.8,230.6,152.4,227.9,151.7z"/>
	<path fill="#FFFFFF" d="M278.2,149.1c0-0.2,0-0.6,0.1-1c0-0.4,0.1-0.7,0.1-0.8c0-0.1,0-0.3,0-0.7s0-0.7,0.1-1.1
		c0-0.4,0.1-0.8,0.1-1.1c0-0.4,0.1-0.6,0.1-0.7v-1.3c0-4.6,0.2-9.1,0.7-13.5c0.5-4.4,0.8-8.9,1.1-13.5c0.1-0.6,0.2-1,0.2-1.4
		c0.1-0.4,0.1-0.9,0.1-1.4v-1.6c0-0.2,0-0.5,0-0.8c0-0.3,0.1-0.5,0.2-0.8c0-0.1,0.1-0.2,0.2-0.5c0.1-0.2,0.2-0.4,0.2-0.5v-2.3
		c-0.3-0.5-0.7-0.8-1.1-0.9c-0.4-0.1-0.6-0.5-0.7-1.3c-0.5-0.7-0.9-1.4-1.4-2.2c-0.4-0.7-1-1.5-1.6-2.3c-1-2-2-4-3-5.9
		c-1-2-2.2-3.9-3.5-5.7c0.1-0.2-0.1-0.5-0.5-1.1c-0.4-0.6-0.6-1-0.7-1.1c-0.3-0.3-0.6-0.9-1-1.7c-0.3-0.8-0.7-1.2-1.1-1.3
		c-1.2-1.8-2.3-3.7-3.4-5.6s-2.2-3.8-3.3-5.6c-0.6-0.9-1.3-1.7-2-2.6c-0.7-0.8-1.3-1.7-2-2.7c0-0.3,0.1-0.6,0.3-0.9
		c0.2-0.3,0.3-0.6,0.3-0.9c0-0.4-0.2-0.8-0.6-1.1l1.3-1.3c0.2-0.2,0.3-0.5,0.4-0.8c0.1-0.3,0.3-0.8,0.7-1.4c0.4-0.6,0.9-1.3,1.7-2.2
		c0.8-0.9,1.9-2,3.4-3.4c0.3,0,0.7,0.1,1.1,0.2c0.4,0.1,0.8,0.3,1.2,0.4c0.4,0.2,0.8,0.4,1.3,0.6c0-0.4-0.2-0.6-0.5-0.5
		c-0.4,0.1-0.6-0.1-0.7-0.5c0-0.2,0.1-0.3,0.4-0.5c0.2-0.2,0.4-0.2,0.5-0.2c0.6,0.2,1.2,0.5,1.9,1.1c0.7,0.6,1.2,1,1.6,1.3
		c0.8,0.6,1.7,1.4,2.6,2.3c0.9,0.9,1.7,1.8,2.2,2.8c0.4,0.7,0.8,1.5,1.1,2.2c0.3,0.8,0.7,1.5,1.2,2.1c0.1,0,0.2,0.1,0.4,0.3
		c0.2,0.2,0.3,0.3,0.3,0.4c0.6,0.7,1.1,1.5,1.5,2.3c0.4,0.8,0.9,1.7,1.5,2.5c1.1,1.4,2.2,2.9,3.1,4.5s1.9,3.1,2.8,4.7l2.4,3.7
		c0.8,0,1.5-0.4,2.1-1.3c0.6-0.8,1.1-1.5,1.6-2c0-0.1,0.1-0.4,0.4-0.9c0.3-0.5,0.6-1.1,1-1.8c0.4-0.7,0.8-1.3,1.1-1.9
		c0.4-0.6,0.6-0.9,0.8-1.1c0-0.1,0.1-0.2,0.2-0.2c0.2-0.1,0.3-0.1,0.4-0.1c0.6-0.5,1-1.1,1.4-1.9c0.4-0.8,0.8-1.5,1.2-2.2
		c1.2-1.8,2.4-3.6,3.6-5.4c1.2-1.8,2.5-3.6,3.8-5.2c0.9-1,1.7-2,2.6-3c0.8-1,1.7-2,2.6-2.9h0.2c0.1,0,0.1,0,0.1-0.1l1.1-1.3h0.5
		c0.7,1.4,1.5,2.1,2.3,2.3c0.8,0.2,1.6,0.4,2.4,0.6c0.8,0.2,1.5,0.6,2.1,1.3c0.6,0.6,1.1,2.1,1.4,4.3c0,0.3,0,0.7-0.1,1.1
		c-0.1,0.4-0.1,0.8-0.1,1c0,0.2-0.2,0.6-0.6,1.1c-0.4,0.5-0.9,1-1.4,1.5c-0.5,0.5-1,1-1.6,1.4c-0.5,0.4-0.9,0.8-1.1,1l-1.2,1.6
		c-1.3,1.1-2.4,2.5-3.5,4.1c-1,1.6-2,3.1-2.9,4.5c-0.1,0-0.2,0.2-0.5,0.5c-0.2,0.3-0.4,0.5-0.5,0.6c-1.4,1.8-2.6,3.7-3.6,5.7
		c-1,2-2.2,3.9-3.4,5.8c-0.4,0.6-0.8,1.1-1.1,1.7c-0.3,0.6-0.7,1.2-1.1,1.9c0,0.1,0,0.1-0.1,0.2c0,0-0.1,0.1-0.1,0.3v0.4
		c-0.2,0.6-0.6,1.1-1.2,1.7c-0.6,0.6-0.8,1.2-0.8,1.9c0,0.8,0,1.6,0.1,2.3c0.1,0.8,0.1,1.6,0.1,2.5c0,5.4-0.2,10.7-0.7,15.8
		c0,0.2-0.1,0.7-0.2,1.7c-0.1,1-0.2,1.7-0.3,2.2c-0.4,2.6-0.6,5.3-0.7,8c0,2.7-0.3,5.3-0.7,7.9v9c-0.3,0.1-0.5,0.3-0.7,0.7
		c-0.1,0.4-0.2,0.7-0.2,0.9s0.1,0.5,0.2,0.8c0.1,0.3,0.2,0.5,0.2,0.8c0,0.2-0.1,0.4-0.3,0.7c-0.2,0.3-0.4,0.4-0.7,0.4l-0.5-0.1
		c-0.2,0-0.6,0.1-1.4,0.3c-0.8,0.2-1.2,0.3-1.3,0.4c-0.2,0.2-0.3,0.5-0.5,0.9c-0.2,0.4-0.3,0.7-0.4,0.9c-0.2,0.2-0.3,0.4-0.5,0.4
		c-0.3,0-0.6-0.2-0.7-0.6c-1,0.4-1.8,0.6-2.5,0.7c-0.7,0.1-1.5,0.4-2.4,1.1c-0.2,0-0.5-0.1-0.7-0.2c-0.2-0.1-0.5-0.2-0.8-0.2
		c-0.5,0-1,0.2-1.6,0.5c-0.6,0.3-0.9,0.5-1,0.5c-0.2,0-0.3-0.2-0.4-0.5c-0.1-0.4-0.2-0.8-0.4-1.3c-0.1-0.5-0.2-0.9-0.3-1.4
		c-0.1-0.4-0.1-0.7-0.1-0.8c0-0.2,0-0.6-0.1-1.3c0-0.7-0.1-1.1-0.1-1.3c0-0.1,0-0.4-0.1-0.8C278.2,149.6,278.2,149.2,278.2,149.1z"
		/>
	<path fill="#FFFFFF" d="M425.7,126.8c-0.6,0-1.2,0.1-1.6,0.4c-0.4,0.2-1,0.4-1.7,0.5l-3.8-0.8c-0.5,0-1,0.1-1.4,0.2
		c-0.5,0.2-1,0.2-1.4,0.2c-1,0-1.8-0.5-2.6-1.6c-0.8-1.1-1.4-1.9-1.9-2.3l-0.7-0.5c-0.4-0.4-0.8-0.9-1.2-1.4c-0.4-0.5-0.9-1-1.4-1.5
		c-1.4-1.9-2.4-3.4-3.1-4.5s-1.3-1.9-1.7-2.3c-0.4-0.6-0.6-0.9-0.7-1.1c-0.1-0.2-0.2-0.4-0.5-0.8c-0.2-0.4-0.5-0.7-0.7-0.8l-4.8-7
		l-0.1-0.1c-0.1,0-0.2,0-0.2-0.1l-1.8-2.8l-1.1-1.3c0-0.1-0.1-0.3-0.4-0.6c-0.2-0.3-0.5-0.6-0.8-1c-0.3-0.3-0.6-0.6-0.8-0.9
		c-0.3-0.3-0.5-0.5-0.5-0.5c-0.1-0.1-0.2-0.2-0.3-0.5c-0.1-0.2-0.3-0.4-0.4-0.4c-0.1,0-0.2,0.1-0.2,0.4c-0.1,0.3-0.1,0.5-0.1,0.5
		c-0.3,1-0.6,2-0.8,3c-0.2,1-0.5,2.4-0.8,4c-0.3,1.6-0.7,3.7-1.3,6.1c-0.5,2.4-1.3,5.4-2.2,9c-0.3,0.1-0.7,0.4-1.3,1
		c-0.5,0.6-1,0.9-1.5,1c-0.2-0.1-0.4-0.3-0.8-0.5c-0.4-0.3-0.6-0.4-0.7-0.4h-1.6c-0.7,0-1.5-0.1-2.3-0.4l-1.7,0.6
		c-0.9,0.3-1.8,0.6-2.9,1c-1,0.3-1.6,0.9-1.7,1.7l-0.1,0.5c-0.1-0.1-0.4-0.1-0.9-0.2c-0.5,0-1-0.1-1.5-0.1H367l0.1-0.4
		c-0.3,0-0.6,0-1,0.1c-0.2,0-0.4,0-0.4-0.1l-0.2-1v-1.6l9.1-43.3c0.4-1,0.9-2.1,1.6-3.1c0.6-1,1.3-2,1.9-2.9c0.2-0.6,0.8-1,1.8-1.3
		c1-0.3,1.5-0.8,1.7-1.3c0-0.1,0-0.2,0.1-0.2c0.1-0.1,0.1-0.1,0.2-0.1c0,0,0.1,0,0.2-0.1l1,0.6h0.8c0.7,0.2,1.3,0.6,1.7,1.3
		c0.4,0.7,1,1.1,1.6,1.2h0.8c0.6,0,1.2,0.2,1.9,0.6c0.7,0.4,1.2,0.8,1.4,1.2l15,16.9l8.2,10.8c0.4,0.4,0.8,0.8,1.1,1.3
		c0.3,0.5,0.6,1,1,1.4l0.5-0.1v-0.5c0.1-0.3,0.2-0.6,0.2-1c0.1-0.3,0.1-0.7,0.1-1.1v-0.1l0.1-0.2c0-0.1,0-0.2-0.1-0.2
		c0-0.1-0.1-0.2-0.1-0.2l4-20.2c-0.1-0.1-0.1-0.3-0.1-0.7c0-0.2,0-0.4,0.1-0.6c0.1-0.6,0.1-1.1,0.2-1.6c0-0.5,0.1-1,0.3-1.6
		l-0.2-0.7c0.1-0.4,0.3-0.8,0.7-1.3s0.6-1,0.7-1.6c0-0.2,0-0.6-0.1-1c0-0.2,0.2-0.2,0.6-0.2c0.4,0,0.7,0,0.8,0l0.4-1.7v-1.6l0.4-1.3
		c0,0.1,0.3,0.2,1,0.2c0.6,0.1,1,0.1,1.1,0.1c0.3,0,0.8-0.4,1.4-1.1c0.6-0.7,0.9-1.3,1-1.8c0-0.2,0.1-0.3,0.2-0.5
		c0.2-0.2,0.3-0.2,0.4-0.2c0.5,0,1.1,0.2,2,0.5c0.8,0.3,1.7,0.7,2.5,1s1.9,0.9,3.1,1.5c0.1,0,0.3,0.1,0.7,0.4c0.4,0.3,0.8,0.6,1.2,1
		c0.4,0.4,0.9,0.7,1.3,1.1c0.4,0.4,0.6,0.6,0.6,0.8c0.1,0.2,0.1,0.3,0.1,0.5l-0.1,0.8l0.4,0.6l-6.7,36.8v0.5
		c-0.1,0.5-0.1,0.9-0.1,1.4c0,0.4,0,0.9,0,1.4l-0.6,11.5c0,1.1-0.3,1.8-0.8,2l0.2,2.4l-0.1,0.4c-0.4,0.1-0.8,0.2-1.2,0.2
		c-0.4,0.1-0.8,0.1-1.2,0.2c-0.4,0-0.8,0.1-1.1,0.1h-0.8c-0.2,0-0.3,0.1-0.4,0.2c-0.1,0.2-0.4,0.2-0.8,0.2c-0.4,0-0.8-0.1-1.2-0.2
		C426.5,126.8,426.1,126.8,425.7,126.8z"/>
	<path fill="#FFFFFF" d="M458.3,140.7c-0.6,0-1.3-0.3-1.9-0.8c-0.6-0.6-1.1-1-1.5-1.4c-1.1-1-2.2-2-3.3-3.2c-1.1-1.2-2-2.4-2.8-3.7
		c-1.8-3.1-3.4-6.3-4.6-9.4c-1.2-3.2-1.9-6.7-1.9-10.5c0-3.7,0.6-7.2,1.7-10.4c1.1-3.3,2.6-6.5,4.4-9.6c0.9-1.6,1.8-3.3,2.6-5
		c0.9-1.7,2-3.3,3.2-4.6c0.1-0.2,0.3-0.4,0.7-0.8c0.4-0.4,0.8-0.7,1.2-1.1c0.4-0.4,0.8-0.8,1.2-1.1c0.4-0.4,0.6-0.6,0.8-0.8l2.6-2
		c0.2-0.2,0.5-0.4,0.8-0.4c0.9-0.4,1.8-0.9,2.7-1.5c0.9-0.6,1.8-1.2,2.6-1.9l1.9-1.6c0.1-0.1,0.2-0.2,0.3-0.3
		c0.1-0.1,0.2-0.2,0.3-0.2l0.5,0.2c0.4,0,0.7-0.1,0.8-0.3c0.1-0.2,0.3-0.4,0.5-0.5c1-0.6,2-1,3.1-1.4s2.1-0.8,3.1-1.4
		c0.2-0.1,0.6-0.2,1.1-0.4c0.5-0.2,1.1-0.4,1.7-0.6c0.6-0.2,1.2-0.4,1.7-0.5c0.5-0.2,0.9-0.3,1.1-0.4c0.9,0,1.8-0.1,2.7-0.3
		c0.9-0.2,1.9-0.4,2.8-0.5c0.2,0,0.5,0,1.1,0.1c0.6,0,1.2,0.1,1.8,0.1c0.6,0,1.2,0.1,1.8,0.1c0.6,0,0.9,0,1.1,0h0.6
		c0.3,0,0.6-0.1,0.7-0.2c0.2-0.1,0.4-0.2,0.7-0.2c0.7,0,1.6,0.2,2.6,0.7c1,0.5,1.8,0.8,2.4,1.1c1.8,0.9,3.7,2.1,5.7,3.7
		c2,1.6,3.5,3.3,4.5,5c0.7,1.3,1.4,2.7,2.2,4.4c0.7,1.6,1.4,3.3,2,5.1c0.6,1.8,1.2,3.5,1.7,5.3c0.5,1.8,0.9,3.4,1.3,4.8
		c0.1,0.1,0.1,0.3,0.2,0.8c0,0.4,0.1,0.7,0.1,0.9c0.1,0.4,0.2,0.9,0.3,1.4c0.1,0.6,0.2,1.1,0.2,1.6c0,1.8-0.1,3.4-0.4,5
		c-0.2,1.6-0.5,3.2-0.7,4.9c-0.2,1.1-0.3,2.2-0.3,3.2c0,1-0.2,2.1-0.5,3.2c-0.2,1-0.8,2.3-1.6,3.9c-0.8,1.6-1.9,3.1-3.2,4.5
		c-0.1,0.1-0.3,0.3-0.5,0.6c-0.3,0.3-0.6,0.7-0.9,1.1c-0.3,0.4-0.6,0.8-0.9,1.2c-0.3,0.4-0.5,0.6-0.5,0.7c-0.8,1-1.6,1.5-2.5,1.6
		c-0.9,0.1-1.8,0.4-2.6,1.1c-1.1,0.9-2.2,1.8-3.4,2.8c-1.1,1-2.3,1.9-3.5,2.8c-0.7,0.5-1.5,0.9-2.3,1.3c-0.8,0.4-1.6,0.8-2.3,1.3
		c-0.6,0.5-1.2,1-1.8,1.6c-0.6,0.6-1.2,1-2,1.3c-0.3,0.2-0.5,0.3-0.6,0.5c-0.1,0.2-0.2,0.3-0.4,0.5c-0.7,0.5-1.5,0.8-2.3,1.1
		c-0.8,0.2-1.7,0.5-2.5,0.8c-1.8,0.9-3.8,1.6-5.9,2.1c-2.1,0.5-4.2,0.8-6.3,0.8c-2.1,0-4.1-0.3-6.1-1c-2-0.7-3.8-1.9-5.4-3.5
		c-0.2-0.2-0.6-0.3-1-0.5C458.5,141.4,458.3,141.1,458.3,140.7z M459.9,106.8c0.1,0.2,0.4,1.3,1,3.5c0.6,2.2,1.7,4.6,3.4,7.2
		c1.7,2.6,4.1,5.1,7.3,7.4c3.2,2.3,7.5,3.7,12.9,4.1c0,0.2,0.1,0.3,0.2,0.3c0.2,0,0.3,0.1,0.5,0.2l4-1.2c0.1-0.1,0.3-0.1,0.5-0.2
		c0.3,0,0.5-0.1,0.7-0.1c1.1-1.1,2.1-2.3,2.9-3.5c0.8-1.2,1.6-2.5,2.4-3.8c0.4-0.6,0.8-1.3,1.2-1.9c0.4-0.6,0.8-1.3,1.1-1.9
		c1.1-2.6,2-5.2,2.6-8c0.6-2.8,0.9-5.6,0.9-8.4c0-1-0.1-2.1-0.3-3.3c-0.2-1.2-0.4-3.3-0.5-6.2v-0.4c0-0.6-0.3-1.6-0.8-2.9
		c-0.6-1.3-1.5-2.6-2.7-4c-1.2-1.3-2.8-2.5-4.7-3.5c-1.9-1-4.1-1.5-6.8-1.5c-1.5,0-3,0.1-4.5,0.2c-1.5,0.1-3,0.3-4.6,0.7l-5.9,2.3
		c-0.9,0.3-1.6,0.8-2.2,1.4c-0.6,0.6-1,1.3-1.4,2c-0.2,0.4-0.4,0.8-0.5,1.3c-0.1,0.5-0.3,0.9-0.5,1.3c-1.7,3-3.1,6.1-4.2,9.1
		C460.4,100,459.9,103.3,459.9,106.8z"/>
	<path fill="#FFFFFF" d="M564.1,141.6c-0.2-0.2-0.3-0.4-0.3-0.8l0.1-0.2c0-0.1,0-0.1,0.1-0.1c0-0.6-0.1-1.1-0.2-1.6
		c-0.2-0.5-0.3-1-0.4-1.4c-0.4-4.2-0.7-8.4-0.8-12.7c-0.2-4.3-0.7-8.8-1.6-13.3c0-0.1,0-0.4-0.1-0.8c-0.1-0.5-0.2-0.7-0.5-0.7
		c-0.4,0-0.7,0.3-1,1c-0.2,0.7-0.4,1.2-0.6,1.5c-0.1,0.2-0.2,0.6-0.5,1.1c-0.2,0.5-0.5,1-0.7,1.6c-0.2,0.6-0.5,1.1-0.7,1.5
		c-0.2,0.4-0.4,0.7-0.5,0.9c-0.6,1.5-1.2,3-1.7,4.6c-0.5,1.5-1.2,3.1-2,4.7c-0.2,0.3-0.3,0.7-0.3,1.1c0,0.4-0.1,0.8-0.1,1.1
		c-0.1,0-0.1,0.1-0.2,0.2c0,0.2-0.1,0.3-0.1,0.4c-1.1,2.8-2.1,5.4-3.1,7.9c-0.9,2.5-2.6,4.7-5.1,6.7c-0.6,0.4-1.3,0.7-2.1,1
		c-0.8,0.2-1.7,0.4-2.7,0.5s-1.9,0.2-2.9,0.2c-1,0-1.8,0.1-2.5,0.1c-0.6,0-1.1-0.1-1.4-0.2c-1.2-1-2.1-2-2.6-3.2
		c-0.6-1.2-0.9-2.4-1.1-3.7c-0.2-1.3-0.3-2.6-0.3-4c0-1.4,0-2.8-0.1-4.1c0-0.2,0-0.7-0.1-1.6c-0.1-0.9-0.1-1.5-0.1-1.6v-3.1
		c0-5.2,0.1-10.4,0.2-15.5c0.2-5.1,0.2-10.3,0.2-15.6l-0.2-1.7v-1.3c0-1.8-0.1-3.5-0.2-5.2c-0.1-1.7-0.3-3.4-0.4-5.3l-1-8.6v-0.7
		c0-0.2,0.1-0.6,0.4-1.3c0.3-0.7,0.5-1.1,0.8-1.3c0.1-0.6,0.2-1.3,0.4-2.3c0.2-1,0.5-1.7,0.9-2.3l1.6-1.8c0.2-0.2,0.4-0.5,0.8-1.1
		c0.4-0.6,0.6-1,0.7-1.3h0.7c0.6,0,1.2,0.2,1.6,0.6c0.4,0.4,0.9,0.6,1.4,0.6c0.6,0,0.8-0.2,0.8-0.6v-1.4c0.1,0,0.2,0,0.4,0.1
		c0.2,0.1,0.4,0.2,0.8,0.4l2.5,2.6c0,0.1,0.1,0.3,0.3,0.7c0.2,0.4,0.4,0.7,0.7,1.1c0.2,0.4,0.6,0.8,1.1,1.4c0.3,0.6,0.6,1.2,0.7,1.6
		c0.2,0.4,0.3,0.7,0.4,0.8l0.1,0.4c0,0.2,0.1,0.5,0.3,0.9c0.2,0.4,0.4,0.9,0.7,1.4c0.3,0.5,0.6,0.9,0.8,1.3c0.3,0.4,0.5,0.7,0.5,0.8
		c0.4,0.7,0.7,1.3,0.8,1.7c0.2,0.4,0.3,0.7,0.5,0.9l0.2,0.4c0,0.2,0,0.2,0.1,0.2c0,0,0.1,0.1,0.2,0.2c0.2,0.6,0.3,1.4,0.5,2.4
		c0.2,1,0.2,1.8,0.2,2.4c0,0.1,0,0.3-0.1,0.6c0,0.3-0.1,0.5-0.1,0.6c0,0.1,0,0.4-0.1,1c0,0.6-0.1,1.1-0.1,1.5c0,0.2,0,0.6,0.1,1.2
		c0,0.6,0.1,1,0.1,1.2c0.1,0.1,0.1,0.4,0.1,0.8c0,1.9,0,3.8-0.1,5.8c0,1.9-0.1,3.9-0.1,5.9c0.6,0,1,0,1.2-0.1c0.2-0.1,0.6-0.4,1-0.8
		c0.6-0.6,1.1-1.4,1.5-2.3c0.4-0.9,0.9-1.7,1.3-2.5c0.6-1,1.1-1.8,1.7-2.6c0.6-0.8,1.2-1.6,1.9-2.6c1.3-2,2.8-3.9,4.6-5.6
		c0.6-0.7,1.2-1.4,1.7-1.9c0.5-0.6,1.2-0.9,2.3-1c0.2,0,0.6,0,1.3,0.1c0.7,0,1.1,0.1,1.3,0.1c0-0.1,0-0.2-0.1-0.4
		c-0.1-0.2-0.1-0.3-0.1-0.4c0.2-0.2,0.5-0.4,1-0.5c0.5-0.1,0.9-0.2,1.1-0.2c0.6,0,1,0.3,1.4,0.9c0.4,0.6,0.7,1.1,0.9,1.5
		c0.1,0.2,0.3,0.6,0.7,1.2c0.4,0.6,0.7,1.1,1.1,1.7c0.4,0.6,0.7,1.2,1.1,1.7c0.4,0.6,0.6,1,0.8,1.2c0.2,0.6,0.3,1.2,0.5,1.7
		c0.2,0.5,0.3,1.1,0.5,1.6l3.4,17.5c0.1,1,0.2,1.9,0.3,2.9s0.2,1.9,0.3,2.9v0.8c0,0.4,0,0.8,0.1,1.1c0.1,0.3,0.3,0.5,0.7,0.5
		c0.4,0,0.8-0.4,1.1-1.1c0.8-1.4,1.5-2.8,2-4.2c0.5-1.4,1.1-2.9,1.9-4.3c0.5-1,0.9-2,1.4-3c0.4-1,0.9-2.1,1.4-3.1
		c0.2-0.5,0.5-0.9,0.8-1.4c0.3-0.4,0.5-0.9,0.7-1.4l3.1-6.6c0.2-0.8,0.6-1.7,1.2-2.8c0.6-1.1,1.2-2,1.6-2.7c0.5-0.8,0.9-1.6,1.3-2.5
		c0.4-0.9,0.7-1.7,1.1-2.4c0.8-1.6,1.6-3.2,2.5-4.7s1.7-3,2.7-4.4c0-0.1,0.3-0.8,1-2.2c0.7-1.4,1.5-2.8,2.4-4.4
		c0.9-1.6,1.8-3.1,2.6-4.4c0.8-1.4,1.4-2,1.7-2h0.7c0.2-0.2,0.5-0.4,0.8-0.4c0.6,0,1.1,0.3,1.7,0.9c0.6,0.6,1.1,1.2,1.7,1.7
		c0.3,0.4,0.8,0.9,1.4,1.5c0.6,0.6,1.2,1.2,1.7,1.9c0.6,0.6,1.1,1.3,1.5,2c0.4,0.7,0.7,1.3,0.7,1.7c0,0.4-0.1,0.7-0.4,1
		c-0.2,0.3-0.4,0.6-0.6,1c0,0.1,0,0.3-0.1,0.7c0,0.4-0.1,0.5-0.2,0.5c0,0.2-0.2,0.4-0.5,0.7c-0.4,0.3-0.5,0.5-0.5,0.5L619,73
		l-0.6,0.6c-0.2,0.2-0.3,0.3-0.4,0.5c-0.2,0.6-0.5,1.2-0.8,1.6c-0.3,0.4-0.6,0.9-1,1.4c-0.1,0.1-0.2,0.3-0.2,0.5
		c-0.1,0.3-0.2,0.4-0.2,0.4c-0.2,0.6-0.5,1.3-0.8,2.1c-0.3,0.8-0.7,1.4-1.1,2c-0.1,0-0.2,0.1-0.4,0.3c-0.2,0.2-0.3,0.3-0.4,0.4
		c-0.6,1-1.2,2.2-1.6,3.4c-0.4,1.2-0.8,2.3-1.3,3.4c-0.1,0.1-0.2,0.3-0.5,0.5c-0.2,0.3-0.4,0.5-0.4,0.5c-0.5,0.8-0.9,1.6-1.3,2.5
		c-0.4,0.9-0.7,1.8-1.1,2.6c-1.1,2.2-2.2,4.5-3.2,6.8c-1,2.3-2.1,4.5-3.3,6.7c-0.5,0.9-0.8,1.8-1.1,2.7c-0.2,0.9-0.6,1.8-1,2.7
		l-0.2,0.2c-0.1,0.1-0.1,0.2-0.1,0.2v0.1c-1.8,2.6-3.3,5.3-4.3,8.2c-1,2.9-1.9,5.9-2.8,9c-0.9,3.1-1.9,6.1-3,9.1
		c-1.1,3-2.7,5.8-4.7,8.5H583h-0.2c-0.1,0-0.1,0-0.1-0.1c-0.4,0.1-0.6,0.3-0.5,0.6c0,0.3-0.1,0.6-0.4,0.7c0,0.1-0.1,0.2-0.4,0.2
		c-0.2,0.1-0.4,0.2-0.4,0.2c-0.1,0.1-0.1,0.3-0.2,0.6c0,0.3-0.1,0.5-0.1,0.6c-0.4,0.7-0.8,1.1-1.2,1.1c-0.4,0-0.9,0.1-1.6,0.2
		c-0.6,0.2-1.4,0.6-2.2,1.1c-0.8,0.5-1.5,0.8-2.2,0.8c-0.1,0-0.2,0-0.2-0.1c-0.1,0-0.2-0.1-0.2-0.1c-0.5,0.4-0.8,0.7-0.9,0.9
		c-0.1,0.2-0.5,0.3-1.3,0.3c-0.9,0-1.6-0.4-2.3-1.2c-0.6-0.8-1.1-1.6-1.4-2.4l-1.2-3.4c-0.2-0.3-0.3-0.8-0.5-1.4
		c-0.2-0.6-0.3-1.2-0.4-1.8c-0.1-0.6-0.2-1.1-0.4-1.6c-0.1-0.4-0.2-0.7-0.2-0.8v-2.6C564.5,142,564.3,141.8,564.1,141.6z"/>
</g>
<g>
	<path fill="#FFFFFF" d="M515.2,20.2c-1.3,0-2.8-0.1-4.7-0.3c-1.8-0.2-3.1-0.5-3.7-0.9c-0.6-0.5-1.1-1-1.4-1.4
		c-0.3-0.5-0.7-0.8-1.1-0.8l0.1-4.8c0.5-1,0.7-1.9,0.7-2.8V8.5c0.2,0,0.4-0.2,0.6-0.6c0.2-0.4,0.7-0.6,1.3-0.6c0.1,0,0.7,0,1.9,0.1
		c1.2,0.1,2.8,0.2,4.9,0.3c2.1,0.1,4.5,0.2,7.3,0.3c2.8,0.1,5.7,0.1,8.8,0.1c4.7,0,9.6,0,14.6-0.1c5,0,9.5-0.1,13.6-0.1h2.8
		c1.7,0,3.2,0,4.6,0.1c1.4,0.1,2,0.3,2,0.6c0,0.2,0,0.3-0.1,0.5c0,0.2-0.1,0.4-0.1,0.5c0,0.1,0.2,0.2,0.5,0.4
		c0.3,0.2,0.5,0.4,0.6,0.5c0,0.2-0.1,0.3-0.2,0.4c-0.1,0.1-0.2,0.2-0.2,0.4c0,0.2,0.1,0.4,0.4,0.6c0.3,0.2,0.4,0.3,0.4,0.5l-0.4,0.4
		c0,0.2,0,0.3,0.1,0.3c0.1,0,0.2,0.1,0.2,0.3c0.1,0.2,0.2,0.3,0.2,0.4c-0.2,0-0.4,0.1-0.4,0.2c0,0.2,0.1,0.4,0.2,0.6
		c0.2,0.2,0.2,0.3,0.2,0.5c0,0.2-0.1,0.4-0.2,0.4c-0.2,0-0.3,0-0.5,0c-0.2,0-0.3,0.1-0.5,0.2c-0.2,0.1-0.2,0.4-0.2,0.8
		c0,0.5,0.1,0.9,0.2,1.2c-0.3,0.1-0.8,0.2-1.4,0.3c-0.6,0.1-1,0.4-1,0.8c0,0.5,0.1,0.8,0.2,0.8c-0.4,0.2-1,0.4-1.7,0.5
		c-0.7,0.1-1.5,0.2-2.2,0.4c-0.8,0.1-1.5,0.2-2.2,0.3c-0.7,0.1-1.3,0.2-1.8,0.2c-0.3,0-0.8,0-1.6-0.1c-0.7,0-1.5-0.1-2.4-0.1
		c-1.8,0-3.1,0-3.8,0.1c-0.7,0.1-1.6,0.1-2.7,0.1c-0.2-0.2-1.6-0.2-4.4-0.2c-1.2,0-2.5,0-4,0.1c-1.5,0-2.9,0.1-4.3,0.1
		c-1.4,0-2.7,0-3.8,0.1c-1.2,0-2,0.1-2.6,0.1h-0.7c-1,0-2.1,0-3.4-0.1c-1.3,0-2.6-0.1-3.8-0.2c-1.2-0.1-2.2-0.2-3.1-0.3
		c-0.9-0.1-1.3-0.3-1.3-0.4H515.2z"/>
</g>
<g>
	<path fill="#FFFFFF" d="M596.2,20.2c-1.3,0-2.8-0.1-4.7-0.3c-1.8-0.2-3.1-0.5-3.7-0.9c-0.6-0.5-1.1-1-1.4-1.4
		c-0.3-0.5-0.7-0.8-1.1-0.8l0.1-4.8c0.5-1,0.7-1.9,0.7-2.8V8.5c0.2,0,0.4-0.2,0.6-0.6c0.2-0.4,0.7-0.6,1.3-0.6c0.1,0,0.7,0,1.9,0.1
		c1.2,0.1,2.8,0.2,4.9,0.3c2.1,0.1,4.5,0.2,7.3,0.3c2.8,0.1,5.7,0.1,8.8,0.1c4.7,0,9.6,0,14.6-0.1c5,0,9.5-0.1,13.6-0.1h2.8
		c1.7,0,3.2,0,4.6,0.1c1.4,0.1,2,0.3,2,0.6c0,0.2,0,0.3-0.1,0.5c0,0.2-0.1,0.4-0.1,0.5c0,0.1,0.2,0.2,0.5,0.4
		c0.3,0.2,0.5,0.4,0.6,0.5c0,0.2-0.1,0.3-0.2,0.4c-0.1,0.1-0.2,0.2-0.2,0.4c0,0.2,0.1,0.4,0.4,0.6c0.3,0.2,0.4,0.3,0.4,0.5l-0.4,0.4
		c0,0.2,0,0.3,0.1,0.3c0.1,0,0.2,0.1,0.2,0.3c0.1,0.2,0.2,0.3,0.2,0.4c-0.2,0-0.4,0.1-0.4,0.2c0,0.2,0.1,0.4,0.2,0.6
		c0.2,0.2,0.2,0.3,0.2,0.5c0,0.2-0.1,0.4-0.2,0.4c-0.2,0-0.3,0-0.5,0c-0.2,0-0.3,0.1-0.5,0.2c-0.2,0.1-0.2,0.4-0.2,0.8
		c0,0.5,0.1,0.9,0.2,1.2c-0.3,0.1-0.8,0.2-1.4,0.3c-0.6,0.1-1,0.4-1,0.8c0,0.5,0.1,0.8,0.2,0.8c-0.4,0.2-1,0.4-1.7,0.5
		c-0.7,0.1-1.5,0.2-2.2,0.4c-0.8,0.1-1.5,0.2-2.2,0.3c-0.7,0.1-1.3,0.2-1.8,0.2c-0.3,0-0.8,0-1.6-0.1c-0.7,0-1.5-0.1-2.4-0.1
		c-1.8,0-3.1,0-3.8,0.1c-0.7,0.1-1.6,0.1-2.7,0.1c-0.2-0.2-1.6-0.2-4.4-0.2c-1.2,0-2.5,0-4,0.1c-1.5,0-2.9,0.1-4.3,0.1
		c-1.4,0-2.7,0-3.8,0.1c-1.2,0-2,0.1-2.6,0.1h-0.7c-1,0-2.1,0-3.4-0.1c-1.3,0-2.6-0.1-3.8-0.2c-1.2-0.1-2.2-0.2-3.1-0.3
		c-0.9-0.1-1.3-0.3-1.3-0.4H596.2z"/>
</g>
<g>
	<path fill="#FFFFFF" d="M644.1,42.3c0-1.3,0-2.8,0.2-4.7c0.2-1.8,0.4-3.1,0.8-3.7c0.5-0.7,0.9-1.1,1.4-1.5c0.5-0.3,0.7-0.7,0.8-1.1
		l4.8,0c1,0.5,1.9,0.7,2.8,0.7l0.7,0c0,0.2,0.2,0.4,0.6,0.6c0.4,0.2,0.6,0.7,0.6,1.3c0,0.1,0,0.7-0.1,1.9c-0.1,1.2-0.1,2.8-0.2,4.9
		c-0.1,2.1-0.1,4.5-0.2,7.3c0,2.8,0,5.7,0,8.8c0.1,4.7,0.2,9.6,0.3,14.6c0.1,5,0.2,9.5,0.3,13.6l0.1,2.8c0,1.7,0,3.2,0,4.6
		c-0.1,1.4-0.2,2-0.6,2.1c-0.2,0-0.3,0-0.5,0c-0.2,0-0.4-0.1-0.5,0c-0.1,0-0.2,0.2-0.4,0.5c-0.2,0.3-0.4,0.5-0.5,0.6
		c-0.2,0-0.3-0.1-0.4-0.2c-0.1-0.1-0.2-0.2-0.4-0.2c-0.2,0-0.4,0.1-0.6,0.4c-0.2,0.3-0.3,0.4-0.5,0.4l-0.4-0.4c-0.2,0-0.3,0-0.3,0.1
		c0,0.1-0.1,0.2-0.3,0.2c-0.2,0.1-0.3,0.2-0.4,0.2c0-0.2-0.1-0.4-0.2-0.4c-0.2,0-0.4,0.1-0.6,0.3c-0.2,0.2-0.3,0.2-0.5,0.2
		c-0.2,0-0.4-0.1-0.4-0.2c0-0.2,0-0.3,0-0.5c0-0.2-0.1-0.3-0.2-0.5c-0.1-0.2-0.4-0.2-0.8-0.2c-0.5,0-0.9,0.1-1.2,0.3
		c-0.1-0.3-0.2-0.8-0.3-1.4c-0.1-0.6-0.4-1-0.8-0.9c-0.5,0-0.8,0.1-0.8,0.3c-0.2-0.4-0.4-1-0.6-1.7c-0.1-0.7-0.3-1.5-0.4-2.2
		c-0.1-0.8-0.2-1.5-0.3-2.2c-0.1-0.7-0.2-1.3-0.3-1.8c0-0.3,0-0.8,0-1.6c0-0.7,0-1.5,0-2.4c0-1.8-0.1-3.1-0.2-3.8
		c-0.1-0.7-0.2-1.6-0.2-2.7c0.2-0.2,0.2-1.6,0.2-4.4c0-1.2-0.1-2.5-0.1-4c-0.1-1.5-0.1-2.9-0.1-4.3c0-1.4-0.1-2.7-0.1-3.8
		c-0.1-1.2-0.1-2-0.1-2.6l0-0.7c0-1,0-2.1,0-3.4c0-1.3,0.1-2.6,0.1-3.8c0.1-1.2,0.1-2.2,0.2-3.1c0.1-0.9,0.2-1.3,0.4-1.3L644.1,42.3
		z"/>
</g>
<g>
	<path fill="#FFFFFF" d="M644.1,122.4c0-1.3,0-2.8,0.2-4.7c0.2-1.8,0.4-3.1,0.8-3.7c0.5-0.7,0.9-1.1,1.4-1.5
		c0.5-0.3,0.7-0.7,0.8-1.1l4.8,0c1,0.5,1.9,0.7,2.8,0.7l0.7,0c0,0.2,0.2,0.4,0.6,0.6c0.4,0.2,0.6,0.7,0.6,1.3c0,0.1,0,0.7-0.1,1.9
		c-0.1,1.2-0.1,2.8-0.2,4.9c-0.1,2.1-0.1,4.5-0.2,7.3c0,2.8,0,5.7,0,8.8c0.1,4.7,0.2,9.6,0.3,14.6c0.1,5,0.2,9.5,0.3,13.6l0.1,2.8
		c0,1.7,0,3.2,0,4.6c-0.1,1.4-0.2,2-0.6,2.1c-0.2,0-0.3,0-0.5,0c-0.2,0-0.4-0.1-0.5,0c-0.1,0-0.2,0.2-0.4,0.5
		c-0.2,0.3-0.4,0.5-0.5,0.6c-0.2,0-0.3-0.1-0.4-0.2c-0.1-0.1-0.2-0.2-0.4-0.2c-0.2,0-0.4,0.1-0.6,0.4c-0.2,0.3-0.3,0.4-0.5,0.4
		l-0.4-0.4c-0.2,0-0.3,0-0.3,0.1c0,0.1-0.1,0.2-0.3,0.2c-0.2,0.1-0.3,0.2-0.4,0.2c0-0.2-0.1-0.4-0.2-0.4c-0.2,0-0.4,0.1-0.6,0.3
		c-0.2,0.2-0.3,0.2-0.5,0.2c-0.2,0-0.4-0.1-0.4-0.2c0-0.2,0-0.3,0-0.5c0-0.2-0.1-0.3-0.2-0.5c-0.1-0.2-0.4-0.2-0.8-0.2
		c-0.5,0-0.9,0.1-1.2,0.3c-0.1-0.3-0.2-0.8-0.3-1.4c-0.1-0.6-0.4-1-0.8-0.9c-0.5,0-0.8,0.1-0.8,0.3c-0.2-0.4-0.4-1-0.6-1.7
		c-0.1-0.7-0.3-1.5-0.4-2.2c-0.1-0.8-0.2-1.5-0.3-2.2c-0.1-0.7-0.2-1.3-0.3-1.8c0-0.3,0-0.8,0-1.6c0-0.7,0-1.5,0-2.4
		c0-1.8-0.1-3.1-0.2-3.8c-0.1-0.7-0.2-1.6-0.2-2.7c0.2-0.2,0.2-1.6,0.2-4.4c0-1.2-0.1-2.5-0.1-4c-0.1-1.5-0.1-2.9-0.1-4.3
		c0-1.4-0.1-2.7-0.1-3.8c-0.1-1.2-0.1-2-0.1-2.6l0-0.7c0-1,0-2.1,0-3.4c0-1.3,0.1-2.6,0.1-3.8c0.1-1.2,0.1-2.2,0.2-3.1
		c0.1-0.9,0.2-1.3,0.4-1.3L644.1,122.4z"/>
</g>
<g>
	<path fill="#FFFFFF" d="M9.8,44.7c0-1.3,0-2.8,0.2-4.7c0.2-1.8,0.4-3.1,0.8-3.7c0.5-0.7,0.9-1.1,1.4-1.5c0.5-0.3,0.7-0.7,0.8-1.1
		l4.8,0c1,0.5,1.9,0.7,2.8,0.7l0.7,0c0,0.2,0.2,0.4,0.6,0.6c0.4,0.2,0.6,0.7,0.6,1.3c0,0.1,0,0.7-0.1,1.9c-0.1,1.2-0.1,2.8-0.2,4.9
		c-0.1,2.1-0.1,4.5-0.2,7.3c0,2.8,0,5.7,0,8.8c0.1,4.7,0.2,9.6,0.3,14.6c0.1,5,0.2,9.5,0.3,13.6l0.1,2.8c0,1.7,0,3.2,0,4.6
		c-0.1,1.4-0.2,2-0.6,2.1c-0.2,0-0.3,0-0.5,0c-0.2,0-0.4-0.1-0.5,0c-0.1,0-0.2,0.2-0.4,0.5c-0.2,0.3-0.4,0.5-0.5,0.6
		c-0.2,0-0.3-0.1-0.4-0.2c-0.1-0.1-0.2-0.2-0.4-0.2c-0.2,0-0.4,0.1-0.6,0.4c-0.2,0.3-0.3,0.4-0.5,0.4L18.2,98c-0.2,0-0.3,0-0.3,0.1
		c0,0.1-0.1,0.2-0.3,0.2c-0.2,0.1-0.3,0.2-0.4,0.2c0-0.2-0.1-0.4-0.2-0.4c-0.2,0-0.4,0.1-0.6,0.3c-0.2,0.2-0.3,0.2-0.5,0.2
		c-0.2,0-0.4-0.1-0.4-0.2c0-0.2,0-0.3,0-0.5c0-0.2-0.1-0.3-0.2-0.5c-0.1-0.2-0.4-0.2-0.8-0.2c-0.5,0-0.9,0.1-1.2,0.3
		c-0.1-0.3-0.2-0.8-0.3-1.4c-0.1-0.6-0.4-1-0.8-0.9c-0.5,0-0.8,0.1-0.8,0.3c-0.2-0.4-0.4-1-0.6-1.7c-0.1-0.7-0.3-1.5-0.4-2.2
		c-0.1-0.8-0.2-1.5-0.3-2.2C10,88.6,9.9,88,9.8,87.6c0-0.3,0-0.8,0-1.6c0-0.7,0-1.5,0-2.4c0-1.8-0.1-3.1-0.2-3.8
		c-0.1-0.7-0.2-1.6-0.2-2.7c0.2-0.2,0.2-1.6,0.2-4.4c0-1.2-0.1-2.5-0.1-4c-0.1-1.5-0.1-2.9-0.1-4.3c0-1.4-0.1-2.7-0.1-3.8
		c-0.1-1.2-0.1-2-0.1-2.6l0-0.7c0-1,0-2.1,0-3.4c0-1.3,0.1-2.6,0.1-3.8c0.1-1.2,0.1-2.2,0.2-3.1c0.1-0.9,0.2-1.3,0.4-1.3L9.8,44.7z"
		/>
</g>
<g>
	<path fill="#FFFFFF" d="M8.2,122.4c0-1.3,0-2.8,0.2-4.7c0.2-1.8,0.4-3.1,0.8-3.7c0.5-0.7,0.9-1.1,1.4-1.5c0.5-0.3,0.7-0.7,0.8-1.1
		l4.8,0c1,0.5,1.9,0.7,2.8,0.7l0.7,0c0,0.2,0.2,0.4,0.6,0.6c0.4,0.2,0.6,0.7,0.6,1.3c0,0.1,0,0.7-0.1,1.9c-0.1,1.2-0.1,2.8-0.2,4.9
		c-0.1,2.1-0.1,4.5-0.2,7.3c0,2.8,0,5.7,0,8.8c0.1,4.7,0.2,9.6,0.3,14.6c0.1,5,0.2,9.5,0.3,13.6l0.1,2.8c0,1.7,0,3.2,0,4.6
		c-0.1,1.4-0.2,2-0.6,2.1c-0.2,0-0.3,0-0.5,0c-0.2,0-0.4-0.1-0.5,0c-0.1,0-0.2,0.2-0.4,0.5c-0.2,0.3-0.4,0.5-0.5,0.6
		c-0.2,0-0.3-0.1-0.4-0.2c-0.1-0.1-0.2-0.2-0.4-0.2c-0.2,0-0.4,0.1-0.6,0.4c-0.2,0.3-0.3,0.4-0.5,0.4l-0.4-0.4c-0.2,0-0.3,0-0.3,0.1
		c0,0.1-0.1,0.2-0.3,0.2c-0.2,0.1-0.3,0.2-0.4,0.2c0-0.2-0.1-0.4-0.2-0.4c-0.2,0-0.4,0.1-0.6,0.3c-0.2,0.2-0.3,0.2-0.5,0.2
		c-0.2,0-0.4-0.1-0.4-0.2c0-0.2,0-0.3,0-0.5c0-0.2-0.1-0.3-0.2-0.5c-0.1-0.2-0.4-0.2-0.8-0.2c-0.5,0-0.9,0.1-1.2,0.3
		c-0.1-0.3-0.2-0.8-0.3-1.4c-0.1-0.6-0.4-1-0.8-0.9c-0.5,0-0.8,0.1-0.8,0.3c-0.2-0.4-0.4-1-0.6-1.7c-0.1-0.7-0.3-1.5-0.4-2.2
		c-0.1-0.8-0.2-1.5-0.3-2.2c-0.1-0.7-0.2-1.3-0.3-1.8c0-0.3,0-0.8,0-1.6c0-0.7,0-1.5,0-2.4c0-1.8-0.1-3.1-0.2-3.8
		c-0.1-0.7-0.2-1.6-0.2-2.7c0.2-0.2,0.2-1.6,0.2-4.4c0-1.2-0.1-2.5-0.1-4c-0.1-1.5-0.1-2.9-0.1-4.3c0-1.4-0.1-2.7-0.1-3.8
		c-0.1-1.2-0.1-2-0.1-2.6l0-0.7c0-1,0-2.1,0-3.4c0-1.3,0.1-2.6,0.1-3.8c0.1-1.2,0.1-2.2,0.2-3.1c0.1-0.9,0.2-1.3,0.4-1.3L8.2,122.4z
		"/>
</g>
<g>
	<path fill="#FFFFFF" d="M25.5,199.8c-1.3,0-2.8-0.1-4.7-0.3c-1.8-0.2-3.1-0.5-3.7-0.9c-0.6-0.5-1.1-1-1.4-1.4
		c-0.3-0.5-0.7-0.8-1.1-0.8l0.1-4.8c0.5-1,0.7-1.9,0.7-2.8v-0.7c0.2,0,0.4-0.2,0.6-0.6c0.2-0.4,0.7-0.6,1.3-0.6c0.1,0,0.7,0,1.9,0.1
		c1.2,0.1,2.8,0.2,4.9,0.3c2.1,0.1,4.5,0.2,7.3,0.3c2.8,0.1,5.7,0.1,8.8,0.1c4.7,0,9.6,0,14.6-0.1c5,0,9.5-0.1,13.6-0.1h2.8
		c1.7,0,3.2,0,4.6,0.1c1.4,0.1,2,0.3,2,0.6c0,0.2,0,0.3-0.1,0.5c0,0.2-0.1,0.4-0.1,0.5c0,0.1,0.2,0.2,0.5,0.4
		c0.3,0.2,0.5,0.4,0.6,0.5c0,0.2-0.1,0.3-0.2,0.4c-0.1,0.1-0.2,0.2-0.2,0.4c0,0.2,0.1,0.4,0.4,0.6c0.3,0.2,0.4,0.3,0.4,0.5l-0.4,0.4
		c0,0.2,0,0.3,0.1,0.3c0.1,0,0.2,0.1,0.2,0.3c0.1,0.2,0.2,0.3,0.2,0.4c-0.2,0-0.4,0.1-0.4,0.2c0,0.2,0.1,0.4,0.2,0.6
		c0.2,0.2,0.2,0.3,0.2,0.5c0,0.2-0.1,0.4-0.2,0.4c-0.2,0-0.3,0-0.5,0c-0.2,0-0.3,0.1-0.5,0.2c-0.2,0.1-0.2,0.4-0.2,0.8
		c0,0.5,0.1,0.9,0.2,1.2c-0.3,0.1-0.8,0.2-1.4,0.3c-0.6,0.1-1,0.4-1,0.8c0,0.5,0.1,0.8,0.2,0.8c-0.4,0.2-1,0.4-1.7,0.5
		c-0.7,0.1-1.5,0.2-2.2,0.4c-0.8,0.1-1.5,0.2-2.2,0.3c-0.7,0.1-1.3,0.2-1.8,0.2c-0.3,0-0.8,0-1.6-0.1c-0.7,0-1.5-0.1-2.4-0.1
		c-1.8,0-3.1,0-3.8,0.1c-0.7,0.1-1.6,0.1-2.7,0.1c-0.2-0.2-1.6-0.2-4.4-0.2c-1.2,0-2.5,0-4,0.1c-1.5,0-2.9,0.1-4.3,0.1
		c-1.4,0-2.7,0-3.8,0.1c-1.2,0-2,0.1-2.6,0.1H38c-1,0-2.1,0-3.4-0.1c-1.3,0-2.6-0.1-3.8-0.2c-1.2-0.1-2.2-0.2-3.1-0.3
		c-0.9-0.1-1.3-0.3-1.3-0.4H25.5z"/>
</g>
<g>
	<path fill="#FFFFFF" d="M349.6,199.8c-1.3,0-2.8-0.1-4.7-0.3c-1.8-0.2-3.1-0.5-3.7-0.9c-0.6-0.5-1.1-1-1.4-1.4
		c-0.3-0.5-0.7-0.8-1.1-0.8l0.1-4.8c0.5-1,0.7-1.9,0.7-2.8v-0.7c0.2,0,0.4-0.2,0.6-0.6c0.2-0.4,0.7-0.6,1.3-0.6c0.1,0,0.7,0,1.9,0.1
		c1.2,0.1,2.8,0.2,4.9,0.3c2.1,0.1,4.5,0.2,7.3,0.3c2.8,0.1,5.7,0.1,8.8,0.1c4.7,0,9.6,0,14.6-0.1c5,0,9.5-0.1,13.6-0.1h2.8
		c1.7,0,3.2,0,4.6,0.1c1.4,0.1,2,0.3,2,0.6c0,0.2,0,0.3-0.1,0.5c0,0.2-0.1,0.4-0.1,0.5c0,0.1,0.2,0.2,0.5,0.4
		c0.3,0.2,0.5,0.4,0.6,0.5c0,0.2-0.1,0.3-0.2,0.4c-0.1,0.1-0.2,0.2-0.2,0.4c0,0.2,0.1,0.4,0.4,0.6c0.3,0.2,0.4,0.3,0.4,0.5l-0.4,0.4
		c0,0.2,0,0.3,0.1,0.3c0.1,0,0.2,0.1,0.2,0.3c0.1,0.2,0.2,0.3,0.2,0.4c-0.2,0-0.4,0.1-0.4,0.2c0,0.2,0.1,0.4,0.2,0.6
		c0.2,0.2,0.2,0.3,0.2,0.5c0,0.2-0.1,0.4-0.2,0.4c-0.2,0-0.3,0-0.5,0c-0.2,0-0.3,0.1-0.5,0.2c-0.2,0.1-0.2,0.4-0.2,0.8
		c0,0.5,0.1,0.9,0.2,1.2c-0.3,0.1-0.8,0.2-1.4,0.3c-0.6,0.1-1,0.4-1,0.8c0,0.5,0.1,0.8,0.2,0.8c-0.4,0.2-1,0.4-1.7,0.5
		c-0.7,0.1-1.5,0.2-2.2,0.4c-0.8,0.1-1.5,0.2-2.2,0.3c-0.7,0.1-1.3,0.2-1.8,0.2c-0.3,0-0.8,0-1.6-0.1c-0.7,0-1.5-0.1-2.4-0.1
		c-1.8,0-3.1,0-3.8,0.1c-0.7,0.1-1.6,0.1-2.7,0.1c-0.2-0.2-1.6-0.2-4.4-0.2c-1.2,0-2.5,0-4,0.1c-1.5,0-2.9,0.1-4.3,0.1
		c-1.4,0-2.7,0-3.8,0.1c-1.2,0-2,0.1-2.6,0.1h-0.7c-1,0-2.1,0-3.4-0.1c-1.3,0-2.6-0.1-3.8-0.2c-1.2-0.1-2.2-0.2-3.1-0.3
		c-0.9-0.1-1.3-0.3-1.3-0.4H349.6z"/>
</g>
<g>
	<path fill="#FFFFFF" d="M431.5,199.8c-1.3,0-2.8-0.1-4.7-0.3c-1.8-0.2-3.1-0.5-3.7-0.9c-0.6-0.5-1.1-1-1.4-1.4
		c-0.3-0.5-0.7-0.8-1.1-0.8l0.1-4.8c0.5-1,0.7-1.9,0.7-2.8v-0.7c0.2,0,0.4-0.2,0.6-0.6c0.2-0.4,0.7-0.6,1.3-0.6c0.1,0,0.7,0,1.9,0.1
		c1.2,0.1,2.8,0.2,4.9,0.3c2.1,0.1,4.5,0.2,7.3,0.3c2.8,0.1,5.7,0.1,8.8,0.1c4.7,0,9.6,0,14.6-0.1c5,0,9.5-0.1,13.6-0.1h2.8
		c1.7,0,3.2,0,4.6,0.1c1.4,0.1,2,0.3,2,0.6c0,0.2,0,0.3-0.1,0.5c0,0.2-0.1,0.4-0.1,0.5c0,0.1,0.2,0.2,0.5,0.4
		c0.3,0.2,0.5,0.4,0.6,0.5c0,0.2-0.1,0.3-0.2,0.4c-0.1,0.1-0.2,0.2-0.2,0.4c0,0.2,0.1,0.4,0.4,0.6c0.3,0.2,0.4,0.3,0.4,0.5l-0.4,0.4
		c0,0.2,0,0.3,0.1,0.3c0.1,0,0.2,0.1,0.2,0.3c0.1,0.2,0.2,0.3,0.2,0.4c-0.2,0-0.4,0.1-0.4,0.2c0,0.2,0.1,0.4,0.2,0.6
		c0.2,0.2,0.2,0.3,0.2,0.5c0,0.2-0.1,0.4-0.2,0.4c-0.2,0-0.3,0-0.5,0c-0.2,0-0.3,0.1-0.5,0.2c-0.2,0.1-0.2,0.4-0.2,0.8
		c0,0.5,0.1,0.9,0.2,1.2c-0.3,0.1-0.8,0.2-1.4,0.3c-0.6,0.1-1,0.4-1,0.8c0,0.5,0.1,0.8,0.2,0.8c-0.4,0.2-1,0.4-1.7,0.5
		c-0.7,0.1-1.5,0.2-2.2,0.4c-0.8,0.1-1.5,0.2-2.2,0.3c-0.7,0.1-1.3,0.2-1.8,0.2c-0.3,0-0.8,0-1.6-0.1c-0.7,0-1.5-0.1-2.4-0.1
		c-1.8,0-3.1,0-3.8,0.1c-0.7,0.1-1.6,0.1-2.7,0.1c-0.2-0.2-1.6-0.2-4.4-0.2c-1.2,0-2.5,0-4,0.1c-1.5,0-2.9,0.1-4.3,0.1
		c-1.4,0-2.7,0-3.8,0.1c-1.2,0-2,0.1-2.6,0.1H444c-1,0-2.1,0-3.4-0.1c-1.3,0-2.6-0.1-3.8-0.2c-1.2-0.1-2.2-0.2-3.1-0.3
		c-0.9-0.1-1.3-0.3-1.3-0.4H431.5z"/>
</g>
<g>
	<path fill="#FFFFFF" d="M269.5,199.8c-1.3,0-2.8-0.1-4.7-0.3c-1.8-0.2-3.1-0.5-3.7-0.9c-0.6-0.5-1.1-1-1.4-1.4
		c-0.3-0.5-0.7-0.8-1.1-0.8l0.1-4.8c0.5-1,0.7-1.9,0.7-2.8v-0.7c0.2,0,0.4-0.2,0.6-0.6c0.2-0.4,0.7-0.6,1.3-0.6c0.1,0,0.7,0,1.9,0.1
		c1.2,0.1,2.8,0.2,4.9,0.3c2.1,0.1,4.5,0.2,7.3,0.3c2.8,0.1,5.7,0.1,8.8,0.1c4.7,0,9.6,0,14.6-0.1c5,0,9.5-0.1,13.6-0.1h2.8
		c1.7,0,3.2,0,4.6,0.1c1.4,0.1,2,0.3,2,0.6c0,0.2,0,0.3-0.1,0.5c0,0.2-0.1,0.4-0.1,0.5c0,0.1,0.2,0.2,0.5,0.4
		c0.3,0.2,0.5,0.4,0.6,0.5c0,0.2-0.1,0.3-0.2,0.4c-0.1,0.1-0.2,0.2-0.2,0.4c0,0.2,0.1,0.4,0.4,0.6c0.3,0.2,0.4,0.3,0.4,0.5l-0.4,0.4
		c0,0.2,0,0.3,0.1,0.3c0.1,0,0.2,0.1,0.2,0.3c0.1,0.2,0.2,0.3,0.2,0.4c-0.2,0-0.4,0.1-0.4,0.2c0,0.2,0.1,0.4,0.2,0.6
		c0.2,0.2,0.2,0.3,0.2,0.5c0,0.2-0.1,0.4-0.2,0.4c-0.2,0-0.3,0-0.5,0c-0.2,0-0.3,0.1-0.5,0.2c-0.2,0.1-0.2,0.4-0.2,0.8
		c0,0.5,0.1,0.9,0.2,1.2c-0.3,0.1-0.8,0.2-1.4,0.3c-0.6,0.1-1,0.4-1,0.8c0,0.5,0.1,0.8,0.2,0.8c-0.4,0.2-1,0.4-1.7,0.5
		c-0.7,0.1-1.5,0.2-2.2,0.4c-0.8,0.1-1.5,0.2-2.2,0.3c-0.7,0.1-1.3,0.2-1.8,0.2c-0.3,0-0.8,0-1.6-0.1c-0.7,0-1.5-0.1-2.4-0.1
		c-1.8,0-3.1,0-3.8,0.1c-0.7,0.1-1.6,0.1-2.7,0.1c-0.2-0.2-1.6-0.2-4.4-0.2c-1.2,0-2.5,0-4,0.1c-1.5,0-2.9,0.1-4.3,0.1
		c-1.4,0-2.7,0-3.8,0.1c-1.2,0-2,0.1-2.6,0.1H282c-1,0-2.1,0-3.4-0.1c-1.3,0-2.6-0.1-3.8-0.2c-1.2-0.1-2.2-0.2-3.1-0.3
		c-0.9-0.1-1.3-0.3-1.3-0.4H269.5z"/>
</g>
<g>
	<path fill="#FFFFFF" d="M187.4,199.8c-1.3,0-2.8-0.1-4.7-0.3c-1.8-0.2-3.1-0.5-3.7-0.9c-0.6-0.5-1.1-1-1.4-1.4
		c-0.3-0.5-0.7-0.8-1.1-0.8l0.1-4.8c0.5-1,0.7-1.9,0.7-2.8v-0.7c0.2,0,0.4-0.2,0.6-0.6c0.2-0.4,0.7-0.6,1.3-0.6c0.1,0,0.7,0,1.9,0.1
		c1.2,0.1,2.8,0.2,4.9,0.3c2.1,0.1,4.5,0.2,7.3,0.3c2.8,0.1,5.7,0.1,8.8,0.1c4.7,0,9.6,0,14.6-0.1c5,0,9.5-0.1,13.6-0.1h2.8
		c1.7,0,3.2,0,4.6,0.1c1.4,0.1,2,0.3,2,0.6c0,0.2,0,0.3-0.1,0.5c0,0.2-0.1,0.4-0.1,0.5c0,0.1,0.2,0.2,0.5,0.4
		c0.3,0.2,0.5,0.4,0.6,0.5c0,0.2-0.1,0.3-0.2,0.4c-0.1,0.1-0.2,0.2-0.2,0.4c0,0.2,0.1,0.4,0.4,0.6c0.3,0.2,0.4,0.3,0.4,0.5l-0.4,0.4
		c0,0.2,0,0.3,0.1,0.3c0.1,0,0.2,0.1,0.2,0.3c0.1,0.2,0.2,0.3,0.2,0.4c-0.2,0-0.4,0.1-0.4,0.2c0,0.2,0.1,0.4,0.2,0.6
		c0.2,0.2,0.2,0.3,0.2,0.5c0,0.2-0.1,0.4-0.2,0.4c-0.2,0-0.3,0-0.5,0c-0.2,0-0.3,0.1-0.5,0.2c-0.2,0.1-0.2,0.4-0.2,0.8
		c0,0.5,0.1,0.9,0.2,1.2c-0.3,0.1-0.8,0.2-1.4,0.3c-0.6,0.1-1,0.4-1,0.8c0,0.5,0.1,0.8,0.2,0.8c-0.4,0.2-1,0.4-1.7,0.5
		c-0.7,0.1-1.5,0.2-2.2,0.4c-0.8,0.1-1.5,0.2-2.2,0.3c-0.7,0.1-1.3,0.2-1.8,0.2c-0.3,0-0.8,0-1.6-0.1c-0.7,0-1.5-0.1-2.4-0.1
		c-1.8,0-3.1,0-3.8,0.1c-0.7,0.1-1.6,0.1-2.7,0.1c-0.2-0.2-1.6-0.2-4.4-0.2c-1.2,0-2.5,0-4,0.1c-1.5,0-2.9,0.1-4.3,0.1
		c-1.4,0-2.7,0-3.8,0.1c-1.2,0-2,0.1-2.6,0.1h-0.7c-1,0-2.1,0-3.4-0.1c-1.3,0-2.6-0.1-3.8-0.2c-1.2-0.1-2.2-0.2-3.1-0.3
		c-0.9-0.1-1.3-0.3-1.3-0.4H187.4z"/>
</g>
<g>
	<path fill="#FFFFFF" d="M106,199.7c-1.3,0-2.8-0.1-4.7-0.3c-1.8-0.2-3.1-0.5-3.7-0.9c-0.6-0.5-1.1-1-1.4-1.4
		c-0.3-0.5-0.7-0.8-1.1-0.8l0.1-4.8c0.5-1,0.7-1.9,0.7-2.8V188c0.2,0,0.4-0.2,0.6-0.6c0.2-0.4,0.7-0.6,1.3-0.6c0.1,0,0.7,0,1.9,0.1
		c1.2,0.1,2.8,0.2,4.9,0.3c2.1,0.1,4.5,0.2,7.3,0.3c2.8,0.1,5.7,0.1,8.8,0.1c4.7,0,9.6,0,14.6-0.1c5,0,9.5-0.1,13.6-0.1h2.8
		c1.7,0,3.2,0,4.6,0.1c1.4,0.1,2,0.3,2,0.6c0,0.2,0,0.3-0.1,0.5c0,0.2-0.1,0.4-0.1,0.5c0,0.1,0.2,0.2,0.5,0.4
		c0.3,0.2,0.5,0.4,0.6,0.5c0,0.2-0.1,0.3-0.2,0.4c-0.1,0.1-0.2,0.2-0.2,0.4c0,0.2,0.1,0.4,0.4,0.6c0.3,0.2,0.4,0.3,0.4,0.5l-0.4,0.4
		c0,0.2,0,0.3,0.1,0.3c0.1,0,0.2,0.1,0.2,0.3c0.1,0.2,0.2,0.3,0.2,0.4c-0.2,0-0.4,0.1-0.4,0.2c0,0.2,0.1,0.4,0.2,0.6
		c0.2,0.2,0.2,0.3,0.2,0.5c0,0.2-0.1,0.4-0.2,0.4c-0.2,0-0.3,0-0.5,0c-0.2,0-0.3,0.1-0.5,0.2c-0.2,0.1-0.2,0.4-0.2,0.8
		c0,0.5,0.1,0.9,0.2,1.2c-0.3,0.1-0.8,0.2-1.4,0.3c-0.6,0.1-1,0.4-1,0.8c0,0.5,0.1,0.8,0.2,0.8c-0.4,0.2-1,0.4-1.7,0.5
		c-0.7,0.1-1.5,0.2-2.2,0.4c-0.8,0.1-1.5,0.2-2.2,0.3c-0.7,0.1-1.3,0.2-1.8,0.2c-0.3,0-0.8,0-1.6-0.1c-0.7,0-1.5-0.1-2.4-0.1
		c-1.8,0-3.1,0-3.8,0.1c-0.7,0.1-1.6,0.1-2.7,0.1c-0.2-0.2-1.6-0.2-4.4-0.2c-1.2,0-2.5,0-4,0.1c-1.5,0-2.9,0.1-4.3,0.1
		c-1.4,0-2.7,0-3.8,0.1c-1.2,0-2,0.1-2.6,0.1h-0.7c-1,0-2.1,0-3.4-0.1c-1.3,0-2.6-0.1-3.8-0.2c-1.2-0.1-2.2-0.2-3.1-0.3
		c-0.9-0.1-1.3-0.3-1.3-0.4H106z"/>
</g>
<g>
	<path fill="#FFFFFF" d="M515.4,199.8c-1.3,0-2.8-0.1-4.7-0.3c-1.8-0.2-3.1-0.5-3.7-0.9c-0.6-0.5-1.1-1-1.4-1.4
		c-0.3-0.5-0.7-0.8-1.1-0.8l0.1-4.8c0.5-1,0.7-1.9,0.7-2.8v-0.7c0.2,0,0.4-0.2,0.6-0.6c0.2-0.4,0.7-0.6,1.3-0.6c0.1,0,0.7,0,1.9,0.1
		c1.2,0.1,2.8,0.2,4.9,0.3c2.1,0.1,4.5,0.2,7.3,0.3c2.8,0.1,5.7,0.1,8.8,0.1c4.7,0,9.6,0,14.6-0.1c5,0,9.5-0.1,13.6-0.1h2.8
		c1.7,0,3.2,0,4.6,0.1c1.4,0.1,2,0.3,2,0.6c0,0.2,0,0.3-0.1,0.5c0,0.2-0.1,0.4-0.1,0.5c0,0.1,0.2,0.2,0.5,0.4
		c0.3,0.2,0.5,0.4,0.6,0.5c0,0.2-0.1,0.3-0.2,0.4c-0.1,0.1-0.2,0.2-0.2,0.4c0,0.2,0.1,0.4,0.4,0.6c0.3,0.2,0.4,0.3,0.4,0.5l-0.4,0.4
		c0,0.2,0,0.3,0.1,0.3c0.1,0,0.2,0.1,0.2,0.3c0.1,0.2,0.2,0.3,0.2,0.4c-0.2,0-0.4,0.1-0.4,0.2c0,0.2,0.1,0.4,0.2,0.6
		c0.2,0.2,0.2,0.3,0.2,0.5c0,0.2-0.1,0.4-0.2,0.4c-0.2,0-0.3,0-0.5,0c-0.2,0-0.3,0.1-0.5,0.2c-0.2,0.1-0.2,0.4-0.2,0.8
		c0,0.5,0.1,0.9,0.2,1.2c-0.3,0.1-0.8,0.2-1.4,0.3c-0.6,0.1-1,0.4-1,0.8c0,0.5,0.1,0.8,0.2,0.8c-0.4,0.2-1,0.4-1.7,0.5
		c-0.7,0.1-1.5,0.2-2.2,0.4c-0.8,0.1-1.5,0.2-2.2,0.3c-0.7,0.1-1.3,0.2-1.8,0.2c-0.3,0-0.8,0-1.6-0.1c-0.7,0-1.5-0.1-2.4-0.1
		c-1.8,0-3.1,0-3.8,0.1c-0.7,0.1-1.6,0.1-2.7,0.1c-0.2-0.2-1.6-0.2-4.4-0.2c-1.2,0-2.5,0-4,0.1c-1.5,0-2.9,0.1-4.3,0.1
		c-1.4,0-2.7,0-3.8,0.1c-1.2,0-2,0.1-2.6,0.1h-0.7c-1,0-2.1,0-3.4-0.1c-1.3,0-2.6-0.1-3.8-0.2c-1.2-0.1-2.2-0.2-3.1-0.3
		c-0.9-0.1-1.3-0.3-1.3-0.4H515.4z"/>
</g>
<g>
	<path fill="#FFFFFF" d="M596.4,199.8c-1.3,0-2.8-0.1-4.7-0.3c-1.8-0.2-3.1-0.5-3.7-0.9c-0.6-0.5-1.1-1-1.4-1.4
		c-0.3-0.5-0.7-0.8-1.1-0.8l0.1-4.8c0.5-1,0.7-1.9,0.7-2.8v-0.7c0.2,0,0.4-0.2,0.6-0.6c0.2-0.4,0.7-0.6,1.3-0.6c0.1,0,0.7,0,1.9,0.1
		c1.2,0.1,2.8,0.2,4.9,0.3c2.1,0.1,4.5,0.2,7.3,0.3c2.8,0.1,5.7,0.1,8.8,0.1c4.7,0,9.6,0,14.6-0.1c5,0,9.5-0.1,13.6-0.1h2.8
		c1.7,0,3.2,0,4.6,0.1c1.4,0.1,2,0.3,2,0.6c0,0.2,0,0.3-0.1,0.5c0,0.2-0.1,0.4-0.1,0.5c0,0.1,0.2,0.2,0.5,0.4
		c0.3,0.2,0.5,0.4,0.6,0.5c0,0.2-0.1,0.3-0.2,0.4c-0.1,0.1-0.2,0.2-0.2,0.4c0,0.2,0.1,0.4,0.4,0.6c0.3,0.2,0.4,0.3,0.4,0.5l-0.4,0.4
		c0,0.2,0,0.3,0.1,0.3c0.1,0,0.2,0.1,0.2,0.3c0.1,0.2,0.2,0.3,0.2,0.4c-0.2,0-0.4,0.1-0.4,0.2c0,0.2,0.1,0.4,0.2,0.6
		c0.2,0.2,0.2,0.3,0.2,0.5c0,0.2-0.1,0.4-0.2,0.4c-0.2,0-0.3,0-0.5,0c-0.2,0-0.3,0.1-0.5,0.2c-0.2,0.1-0.2,0.4-0.2,0.8
		c0,0.5,0.1,0.9,0.2,1.2c-0.3,0.1-0.8,0.2-1.4,0.3c-0.6,0.1-1,0.4-1,0.8c0,0.5,0.1,0.8,0.2,0.8c-0.4,0.2-1,0.4-1.7,0.5
		c-0.7,0.1-1.5,0.2-2.2,0.4c-0.8,0.1-1.5,0.2-2.2,0.3c-0.7,0.1-1.3,0.2-1.8,0.2c-0.3,0-0.8,0-1.6-0.1c-0.7,0-1.5-0.1-2.4-0.1
		c-1.8,0-3.1,0-3.8,0.1c-0.7,0.1-1.6,0.1-2.7,0.1c-0.2-0.2-1.6-0.2-4.4-0.2c-1.2,0-2.5,0-4,0.1c-1.5,0-2.9,0.1-4.3,0.1
		c-1.4,0-2.7,0-3.8,0.1c-1.2,0-2,0.1-2.6,0.1h-0.7c-1,0-2.1,0-3.4-0.1c-1.3,0-2.6-0.1-3.8-0.2c-1.2-0.1-2.2-0.2-3.1-0.3
		c-0.9-0.1-1.3-0.3-1.3-0.4H596.4z"/>
</g>
</svg>
