<?xml version="1.0" encoding="utf-8"?>
<!-- Generator: Adobe Illustrator 18.1.1, SVG Export Plug-In . SVG Version: 6.00 Build 0)  -->
<svg version="1.1" id="Layer_1" xmlns="http://www.w3.org/2000/svg" xmlns:xlink="http://www.w3.org/1999/xlink" x="0px" y="0px"
	 viewBox="0 0 1431.5 110.3" enable-background="new 0 0 1431.5 110.3" xml:space="preserve">
<g>
	<path d="M58.3,35.9c-1.3-1.6-3-2.8-5.2-3.5c-2.2-0.8-4.2-1.2-6.1-1.2c-1.1,0-2.3,0.1-3.5,0.4c-1.2,0.3-2.3,0.7-3.4,1.3
		c-1.1,0.6-1.9,1.3-2.6,2.2c-0.7,0.9-1,2.1-1,3.4c0,2.1,0.8,3.8,2.4,4.9c1.6,1.1,3.6,2.1,6.1,2.9c2.4,0.8,5,1.6,7.9,2.4
		c2.8,0.8,5.4,1.9,7.8,3.4c2.4,1.5,4.5,3.4,6.1,5.9c1.6,2.5,2.4,5.8,2.4,9.9c0,3.9-0.7,7.4-2.2,10.3c-1.5,2.9-3.4,5.4-5.9,7.3
		c-2.5,1.9-5.4,3.4-8.7,4.3c-3.3,0.9-6.8,1.4-10.4,1.4c-4.6,0-8.9-0.7-12.8-2.1c-3.9-1.4-7.6-3.7-11-6.8l11.1-12.2
		c1.6,2.1,3.6,3.8,6,4.9c2.4,1.2,5,1.8,7.6,1.8c1.3,0,2.5-0.1,3.9-0.4c1.3-0.3,2.5-0.8,3.5-1.4c1-0.6,1.9-1.4,2.5-2.3
		c0.6-0.9,0.9-2,0.9-3.3c0-2.1-0.8-3.8-2.4-5c-1.6-1.2-3.7-2.3-6.2-3.2c-2.5-0.9-5.1-1.7-8-2.6c-2.9-0.9-5.5-2-8-3.5
		c-2.5-1.5-4.5-3.4-6.1-5.8c-1.6-2.4-2.4-5.6-2.4-9.5c0-3.8,0.8-7.1,2.2-10c1.5-2.9,3.5-5.3,6-7.2c2.5-1.9,5.4-3.4,8.6-4.4
		c3.3-1,6.6-1.5,10.1-1.5c4,0,7.9,0.6,11.6,1.7c3.7,1.1,7.1,3,10.1,5.7L58.3,35.9z"/>
	<path d="M97.3,18.6h15.6V45h30.3V18.6h15.6v70.8h-15.6V58.8h-30.3v30.6H97.3V18.6z"/>
	<path d="M186,54c0-5.7,1-10.8,2.9-15.4c1.9-4.6,4.5-8.5,8-11.8c3.4-3.2,7.4-5.7,12.1-7.5c4.7-1.7,9.8-2.6,15.3-2.6
		c5.5,0,10.6,0.9,15.3,2.6c4.7,1.7,8.7,4.2,12.1,7.5c3.4,3.2,6,7.1,8,11.8c1.9,4.6,2.8,9.7,2.8,15.4c0,5.7-0.9,10.8-2.8,15.4
		c-1.9,4.6-4.6,8.5-8,11.8c-3.4,3.2-7.4,5.7-12.1,7.5c-4.7,1.7-9.8,2.6-15.3,2.6c-5.5,0-10.6-0.9-15.3-2.6
		c-4.7-1.7-8.7-4.2-12.1-7.5c-3.4-3.2-6.1-7.1-8-11.8S186,59.7,186,54z M202.2,54c0,3.3,0.5,6.4,1.5,9.1c1,2.8,2.5,5.2,4.5,7.2
		c1.9,2,4.2,3.6,6.9,4.8c2.7,1.1,5.7,1.7,9.1,1.7c3.3,0,6.4-0.6,9-1.7c2.7-1.1,5-2.7,7-4.8c1.9-2,3.4-4.4,4.4-7.2
		c1-2.8,1.6-5.8,1.6-9.1c0-3.3-0.5-6.3-1.6-9.1c-1-2.8-2.5-5.2-4.4-7.2c-1.9-2-4.2-3.6-7-4.8c-2.7-1.1-5.7-1.7-9-1.7
		c-3.3,0-6.4,0.6-9.1,1.7c-2.7,1.1-5,2.7-6.9,4.8c-1.9,2-3.4,4.5-4.5,7.2C202.7,47.7,202.2,50.7,202.2,54z"/>
	<path d="M282.2,18.6h17L310.5,64h0.2l14.8-45.4H340l14.7,46.6h0.2l11.9-46.6h15.8l-20.7,70.8H348l-15.6-49h-0.2l-15.6,49h-13.4
		L282.2,18.6z"/>
	<path d="M448.6,54c0-5.7,1-10.8,2.9-15.4c1.9-4.6,4.5-8.5,8-11.8c3.4-3.2,7.4-5.7,12.1-7.5c4.7-1.7,9.8-2.6,15.3-2.6
		c5.5,0,10.6,0.9,15.3,2.6c4.7,1.7,8.7,4.2,12.1,7.5c3.4,3.2,6,7.1,8,11.8c1.9,4.6,2.8,9.7,2.8,15.4c0,5.7-0.9,10.8-2.8,15.4
		c-1.9,4.6-4.6,8.5-8,11.8c-3.4,3.2-7.4,5.7-12.1,7.5c-4.7,1.7-9.8,2.6-15.3,2.6c-5.5,0-10.6-0.9-15.3-2.6
		c-4.7-1.7-8.7-4.2-12.1-7.5c-3.4-3.2-6.1-7.1-8-11.8S448.6,59.7,448.6,54z M464.8,54c0,3.3,0.5,6.4,1.5,9.1c1,2.8,2.5,5.2,4.5,7.2
		c1.9,2,4.2,3.6,6.9,4.8c2.7,1.1,5.7,1.7,9.1,1.7c3.3,0,6.4-0.6,9-1.7c2.7-1.1,5-2.7,7-4.8c1.9-2,3.4-4.4,4.4-7.2
		c1-2.8,1.6-5.8,1.6-9.1c0-3.3-0.5-6.3-1.6-9.1c-1-2.8-2.5-5.2-4.4-7.2c-1.9-2-4.2-3.6-7-4.8c-2.7-1.1-5.7-1.7-9-1.7
		c-3.3,0-6.4,0.6-9.1,1.7c-2.7,1.1-5,2.7-6.9,4.8c-1.9,2-3.4,4.5-4.5,7.2C465.3,47.7,464.8,50.7,464.8,54z"/>
	<path d="M552.8,18.6h47.5V33h-31.9v14.4h29.5v14.4h-29.5v27.6h-15.6V18.6z"/>
	<path d="M688,32.4h-20.2V18.6h56v13.8h-20.2v57H688V32.4z"/>
	<path d="M748.3,18.6h15.6V45h30.3V18.6h15.6v70.8h-15.6V58.8h-30.3v30.6h-15.6V18.6z"/>
	<path d="M841.4,18.6h48.1V33H857v13.2h30.7v14.4H857V75h34.3v14.4h-49.9V18.6z"/>
	<path d="M966.6,18.6h23.6l16.3,46.2h0.2l16.4-46.2h23.5v70.8H1031V35.1h-0.2l-18.6,54.3h-11.9l-17.9-54.3h-0.2v54.3h-15.6V18.6z"/>
	<path d="M1073.8,54c0-5.7,0.9-10.8,2.8-15.4c1.9-4.6,4.5-8.5,8-11.8c3.4-3.2,7.4-5.7,12.1-7.5c4.7-1.7,9.8-2.6,15.3-2.6
		c5.5,0,10.6,0.9,15.3,2.6c4.7,1.7,8.7,4.2,12.1,7.5c3.4,3.2,6,7.1,8,11.8c1.9,4.6,2.8,9.7,2.8,15.4c0,5.7-1,10.8-2.8,15.4
		c-1.9,4.6-4.5,8.5-8,11.8c-3.4,3.2-7.4,5.7-12.1,7.5c-4.7,1.7-9.8,2.6-15.3,2.6c-5.5,0-10.6-0.9-15.3-2.6
		c-4.7-1.7-8.7-4.2-12.1-7.5c-3.4-3.2-6-7.1-8-11.8S1073.8,59.7,1073.8,54z M1090,54c0,3.3,0.5,6.4,1.6,9.1c1,2.8,2.5,5.2,4.4,7.2
		c1.9,2,4.2,3.6,7,4.8c2.7,1.1,5.7,1.7,9,1.7c3.3,0,6.4-0.6,9.1-1.7c2.7-1.1,5-2.7,6.9-4.8c1.9-2,3.4-4.4,4.5-7.2
		c1-2.8,1.5-5.8,1.5-9.1c0-3.3-0.5-6.3-1.5-9.1c-1-2.8-2.5-5.2-4.5-7.2c-1.9-2-4.2-3.6-6.9-4.8c-2.7-1.1-5.7-1.7-9.1-1.7
		c-3.3,0-6.3,0.6-9,1.7c-2.7,1.1-5,2.7-7,4.8c-1.9,2-3.4,4.5-4.4,7.2C1090.5,47.7,1090,50.7,1090,54z"/>
	<path d="M1177.4,18.6h21.2l30.1,49.2h0.2V18.6h15.6v70.8h-20.4L1193.2,39h-0.2v50.4h-15.6V18.6z"/>
	<path d="M1289.2,32.4H1269V18.6h56v13.8h-20.2v57h-15.6V32.4z"/>
	<path d="M1349.5,18.6h15.6V45h30.3V18.6h15.6v70.8h-15.6V58.8h-30.3v30.6h-15.6V18.6z"/>
</g>
</svg>
