<svg width="2559" height="1342" xmlns="http://www.w3.org/2000/svg"><g><path d="M-146,-28L-149,1221L-124,961Z" fill="#cfaba2" stroke="#cfaba2" fill-opacity="1" stroke-opacity="1"></path><path d="M-146,-28L-124,961L-59,391Z" fill="#f7bda6" stroke="#f7bda6" fill-opacity="1" stroke-opacity="1"></path><path d="M-146,-28L-59,391L-40,187Z" fill="#f7a581" stroke="#f7a581" fill-opacity="1" stroke-opacity="1"></path><path d="M-146,-28L-40,187L-25,90Z" fill="#f79b73" stroke="#f79b73" fill-opacity="1" stroke-opacity="1"></path><path d="M-146,-28L-25,90L6,-140Z" fill="#f79163" stroke="#f79163" fill-opacity="1" stroke-opacity="1"></path><path d="M6,-140L-25,90L91,108Z" fill="#f79b71" stroke="#f79b71" fill-opacity="1" stroke-opacity="1"></path><path d="M6,-140L91,108L211,16Z" fill="#f89d74" stroke="#f89d74" fill-opacity="1" stroke-opacity="1"></path><path d="M6,-140L211,16L284,-71Z" fill="#f89b70" stroke="#f89b70" fill-opacity="1" stroke-opacity="1"></path><path d="M6,-140L284,-71L891,-110Z" fill="#f9a57e" stroke="#f9a57e" fill-opacity="1" stroke-opacity="1"></path><path d="M6,-140L891,-110L1065,-132Z" fill="#fab491" stroke="#fab491" fill-opacity="1" stroke-opacity="1"></path><path d="M6,-140L1065,-132L1938,-139Z" fill="#efb99e" stroke="#efb99e" fill-opacity="1" stroke-opacity="1"></path><path d="M284,-71L211,16L306,-43Z" fill="#f9a57e" stroke="#f9a57e" fill-opacity="1" stroke-opacity="1"></path><path d="M284,-71L306,-43L543,-32Z" fill="#f9aa85" stroke="#f9aa85" fill-opacity="1" stroke-opacity="1"></path><path d="M284,-71L543,-32L891,-110Z" fill="#fab593" stroke="#fab593" fill-opacity="1" stroke-opacity="1"></path><path d="M306,-43L211,16L317,104Z" fill="#f9ac88" stroke="#f9ac88" fill-opacity="1" stroke-opacity="1"></path><path d="M306,-43L317,104L498,123Z" fill="#f9b596" stroke="#f9b596" fill-opacity="1" stroke-opacity="1"></path><path d="M306,-43L498,123L543,-32Z" fill="#f9b595" stroke="#f9b595" fill-opacity="1" stroke-opacity="1"></path><path d="M543,-32L498,123L643,125Z" fill="#fac3a8" stroke="#fac3a8" fill-opacity="1" stroke-opacity="1"></path><path d="M543,-32L643,125L645,-24Z" fill="#fac1a5" stroke="#fac1a5" fill-opacity="1" stroke-opacity="1"></path><path d="M543,-32L645,-24L891,-110Z" fill="#fabea0" stroke="#fabea0" fill-opacity="1" stroke-opacity="1"></path><path d="M645,-24L643,125L797,136Z" fill="#fbccb4" stroke="#fbccb4" fill-opacity="1" stroke-opacity="1"></path><path d="M645,-24L797,136L891,-110Z" fill="#fbc9b0" stroke="#fbc9b0" fill-opacity="1" stroke-opacity="1"></path><path d="M891,-110L797,136L998,4Z" fill="#f8cdb7" stroke="#f8cdb7" fill-opacity="1" stroke-opacity="1"></path><path d="M891,-110L998,4L1024,-125Z" fill="#f1c0a7" stroke="#f1c0a7" fill-opacity="1" stroke-opacity="1"></path><path d="M891,-110L1024,-125L1065,-132Z" fill="#efbba0" stroke="#efbba0" fill-opacity="1" stroke-opacity="1"></path><path d="M1024,-125L998,4L1065,-132Z" fill="#ecbda5" stroke="#ecbda5" fill-opacity="1" stroke-opacity="1"></path><path d="M1065,-132L998,4L1137,15Z" fill="#e9c0ab" stroke="#e9c0ab" fill-opacity="1" stroke-opacity="1"></path><path d="M1065,-132L1137,15L1220,-45Z" fill="#e3bba7" stroke="#e3bba7" fill-opacity="1" stroke-opacity="1"></path><path d="M1065,-132L1220,-45L1462,-89Z" fill="#dab39f" stroke="#dab39f" fill-opacity="1" stroke-opacity="1"></path><path d="M1065,-132L1462,-89L1574,-108Z" fill="#d0ab99" stroke="#d0ab99" fill-opacity="1" stroke-opacity="1"></path><path d="M1065,-132L1574,-108L1685,-132Z" fill="#caa695" stroke="#caa695" fill-opacity="1" stroke-opacity="1"></path><path d="M1065,-132L1685,-132L1938,-139Z" fill="#bfa091" stroke="#bfa091" fill-opacity="1" stroke-opacity="1"></path><path d="M1220,-45L1137,15L1317,3Z" fill="#dcbcac" stroke="#dcbcac" fill-opacity="1" stroke-opacity="1"></path><path d="M1220,-45L1317,3L1462,-89Z" fill="#d3b3a4" stroke="#d3b3a4" fill-opacity="1" stroke-opacity="1"></path><path d="M1462,-89L1317,3L1469,64Z" fill="#ccb4a8" stroke="#ccb4a8" fill-opacity="1" stroke-opacity="1"></path><path d="M1462,-89L1469,64L1574,-108Z" fill="#c4aca0" stroke="#c4aca0" fill-opacity="1" stroke-opacity="1"></path><path d="M1574,-108L1469,64L1576,86Z" fill="#c1b0a8" stroke="#c1b0a8" fill-opacity="1" stroke-opacity="1"></path><path d="M1574,-108L1576,86L1685,-132Z" fill="#bba69c" stroke="#bba69c" fill-opacity="1" stroke-opacity="1"></path><path d="M1685,-132L1576,86L1761,102Z" fill="#b6aaa6" stroke="#b6aaa6" fill-opacity="1" stroke-opacity="1"></path><path d="M1685,-132L1761,102L1901,27Z" fill="#ada3a0" stroke="#ada3a0" fill-opacity="1" stroke-opacity="1"></path><path d="M1685,-132L1901,27L1938,-139Z" fill="#a89893" stroke="#a89893" fill-opacity="1" stroke-opacity="1"></path><path d="M1938,-139L1901,27L2081,-138Z" fill="#9d928f" stroke="#9d928f" fill-opacity="1" stroke-opacity="1"></path><path d="M2081,-138L1901,27L2091,100Z" fill="#98989a" stroke="#98989a" fill-opacity="1" stroke-opacity="1"></path><path d="M2081,-138L2091,100L2146,-101Z" fill="#919092" stroke="#919092" fill-opacity="1" stroke-opacity="1"></path><path d="M2081,-138L2146,-101L2302,-67Z" fill="#8c8788" stroke="#8c8788" fill-opacity="1" stroke-opacity="1"></path><path d="M2081,-138L2302,-67L2554,-108Z" fill="#808184" stroke="#808184" fill-opacity="1" stroke-opacity="1"></path><path d="M2146,-101L2091,100L2209,52Z" fill="#8e949a" stroke="#8e949a" fill-opacity="1" stroke-opacity="1"></path><path d="M2146,-101L2209,52L2302,-67Z" fill="#888b90" stroke="#888b90" fill-opacity="1" stroke-opacity="1"></path><path d="M2302,-67L2209,52L2335,71Z" fill="#838e98" stroke="#838e98" fill-opacity="1" stroke-opacity="1"></path><path d="M2302,-67L2335,71L2463,53Z" fill="#808b96" stroke="#808b96" fill-opacity="1" stroke-opacity="1"></path><path d="M2302,-67L2463,53L2489,-2Z" fill="#808691" stroke="#808691" fill-opacity="1" stroke-opacity="1"></path><path d="M2302,-67L2489,-2L2554,-108Z" fill="#807f88" stroke="#807f88" fill-opacity="1" stroke-opacity="1"></path><path d="M2489,-2L2463,53L2659,130Z" fill="#808798" stroke="#808798" fill-opacity="1" stroke-opacity="1"></path><path d="M2489,-2L2659,130L2554,-108Z" fill="#80808f" stroke="#80808f" fill-opacity="1" stroke-opacity="1"></path><path d="M2554,-108L2659,130L2762,28Z" fill="#807d8e" stroke="#807d8e" fill-opacity="1" stroke-opacity="1"></path><path d="M2554,-108L2762,28L2819,-17Z" fill="#807586" stroke="#807586" fill-opacity="1" stroke-opacity="1"></path><path d="M2819,-17L2762,28L2780,205Z" fill="#807d94" stroke="#807d94" fill-opacity="1" stroke-opacity="1"></path><path d="M2819,-17L2780,205L2841,586Z" fill="#808eb0" stroke="#808eb0" fill-opacity="1" stroke-opacity="1"></path><path d="M-25,90L-40,187L91,108Z" fill="#f7a581" stroke="#f7a581" fill-opacity="1" stroke-opacity="1"></path><path d="M91,108L-40,187L111,257Z" fill="#f8ad8d" stroke="#f8ad8d" fill-opacity="1" stroke-opacity="1"></path><path d="M91,108L111,257L209,229Z" fill="#f8b496" stroke="#f8b496" fill-opacity="1" stroke-opacity="1"></path><path d="M91,108L209,229L211,16Z" fill="#f8ae8d" stroke="#f8ae8d" fill-opacity="1" stroke-opacity="1"></path><path d="M211,16L209,229L317,104Z" fill="#f8b393" stroke="#f8b393" fill-opacity="1" stroke-opacity="1"></path><path d="M317,104L209,229L416,239Z" fill="#f9bfa5" stroke="#f9bfa5" fill-opacity="1" stroke-opacity="1"></path><path d="M317,104L416,239L498,123Z" fill="#f9c1a8" stroke="#f9c1a8" fill-opacity="1" stroke-opacity="1"></path><path d="M498,123L416,239L481,273Z" fill="#f9cab5" stroke="#f9cab5" fill-opacity="1" stroke-opacity="1"></path><path d="M498,123L481,273L643,125Z" fill="#facbb6" stroke="#facbb6" fill-opacity="1" stroke-opacity="1"></path><path d="M643,125L481,273L660,322Z" fill="#fad6c5" stroke="#fad6c5" fill-opacity="1" stroke-opacity="1"></path><path d="M643,125L660,322L741,229Z" fill="#fadaca" stroke="#fadaca" fill-opacity="1" stroke-opacity="1"></path><path d="M643,125L741,229L797,136Z" fill="#fbd6c4" stroke="#fbd6c4" fill-opacity="1" stroke-opacity="1"></path><path d="M797,136L741,229L850,204Z" fill="#fbdecf" stroke="#fbdecf" fill-opacity="1" stroke-opacity="1"></path><path d="M797,136L850,204L998,4Z" fill="#f9d8c7" stroke="#f9d8c7" fill-opacity="1" stroke-opacity="1"></path><path d="M998,4L850,204L943,244Z" fill="#f5dacb" stroke="#f5dacb" fill-opacity="1" stroke-opacity="1"></path><path d="M998,4L943,244L1138,244Z" fill="#edd6cc" stroke="#edd6cc" fill-opacity="1" stroke-opacity="1"></path><path d="M998,4L1138,244L1137,15Z" fill="#e7ccbe" stroke="#e7ccbe" fill-opacity="1" stroke-opacity="1"></path><path d="M1137,15L1138,244L1249,176Z" fill="#e0cec5" stroke="#e0cec5" fill-opacity="1" stroke-opacity="1"></path><path d="M1137,15L1249,176L1317,3Z" fill="#dbc3b7" stroke="#dbc3b7" fill-opacity="1" stroke-opacity="1"></path><path d="M1317,3L1249,176L1469,64Z" fill="#d2bfb7" stroke="#d2bfb7" fill-opacity="1" stroke-opacity="1"></path><path d="M1469,64L1249,176L1478,151Z" fill="#cdc2bd" stroke="#cdc2bd" fill-opacity="1" stroke-opacity="1"></path><path d="M1469,64L1478,151L1576,86Z" fill="#c4bab6" stroke="#c4bab6" fill-opacity="1" stroke-opacity="1"></path><path d="M1576,86L1478,151L1569,270Z" fill="#c1bfc0" stroke="#c1bfc0" fill-opacity="1" stroke-opacity="1"></path><path d="M1576,86L1569,270L1711,158Z" fill="#bbbcbf" stroke="#bbbcbf" fill-opacity="1" stroke-opacity="1"></path><path d="M1576,86L1711,158L1761,102Z" fill="#b5b3b5" stroke="#b5b3b5" fill-opacity="1" stroke-opacity="1"></path><path d="M1761,102L1711,158L1887,293Z" fill="#acb6bd" stroke="#acb6bd" fill-opacity="1" stroke-opacity="1"></path><path d="M1761,102L1887,293L1901,27Z" fill="#a7afb4" stroke="#a7afb4" fill-opacity="1" stroke-opacity="1"></path><path d="M1901,27L1887,293L2007,295Z" fill="#a0b1bc" stroke="#a0b1bc" fill-opacity="1" stroke-opacity="1"></path><path d="M1901,27L2007,295L2091,100Z" fill="#9aa8b1" stroke="#9aa8b1" fill-opacity="1" stroke-opacity="1"></path><path d="M2091,100L2007,295L2195,231Z" fill="#92aab9" stroke="#92aab9" fill-opacity="1" stroke-opacity="1"></path><path d="M2091,100L2195,231L2209,52Z" fill="#8d9fab" stroke="#8d9fab" fill-opacity="1" stroke-opacity="1"></path><path d="M2209,52L2195,231L2345,152Z" fill="#859cac" stroke="#859cac" fill-opacity="1" stroke-opacity="1"></path><path d="M2209,52L2345,152L2335,71Z" fill="#8195a2" stroke="#8195a2" fill-opacity="1" stroke-opacity="1"></path><path d="M2335,71L2345,152L2463,53Z" fill="#8091a0" stroke="#8091a0" fill-opacity="1" stroke-opacity="1"></path><path d="M2463,53L2345,152L2490,226Z" fill="#8094a7" stroke="#8094a7" fill-opacity="1" stroke-opacity="1"></path><path d="M2463,53L2490,226L2642,168Z" fill="#8090a6" stroke="#8090a6" fill-opacity="1" stroke-opacity="1"></path><path d="M2463,53L2642,168L2659,130Z" fill="#808aa0" stroke="#808aa0" fill-opacity="1" stroke-opacity="1"></path><path d="M2659,130L2642,168L2780,205Z" fill="#808ba5" stroke="#808ba5" fill-opacity="1" stroke-opacity="1"></path><path d="M2659,130L2780,205L2762,28Z" fill="#80849d" stroke="#80849d" fill-opacity="1" stroke-opacity="1"></path><path d="M-40,187L-59,391L3,407Z" fill="#f7b79b" stroke="#f7b79b" fill-opacity="1" stroke-opacity="1"></path><path d="M-40,187L3,407L111,257Z" fill="#f7b69a" stroke="#f7b69a" fill-opacity="1" stroke-opacity="1"></path><path d="M111,257L3,407L247,301Z" fill="#f8bfa8" stroke="#f8bfa8" fill-opacity="1" stroke-opacity="1"></path><path d="M111,257L247,301L209,229Z" fill="#f8bea5" stroke="#f8bea5" fill-opacity="1" stroke-opacity="1"></path><path d="M209,229L247,301L416,239Z" fill="#f9c4ad" stroke="#f9c4ad" fill-opacity="1" stroke-opacity="1"></path><path d="M416,239L247,301L387,382Z" fill="#f9cdba" stroke="#f9cdba" fill-opacity="1" stroke-opacity="1"></path><path d="M416,239L387,382L481,273Z" fill="#f9d1bf" stroke="#f9d1bf" fill-opacity="1" stroke-opacity="1"></path><path d="M481,273L387,382L464,421Z" fill="#f9d8ca" stroke="#f9d8ca" fill-opacity="1" stroke-opacity="1"></path><path d="M481,273L464,421L660,322Z" fill="#fadcce" stroke="#fadcce" fill-opacity="1" stroke-opacity="1"></path><path d="M741,229L660,322L858,374Z" fill="#fbe7dd" stroke="#fbe7dd" fill-opacity="1" stroke-opacity="1"></path><path d="M741,229L858,374L850,204Z" fill="#fbe7dd" stroke="#fbe7dd" fill-opacity="1" stroke-opacity="1"></path><path d="M850,204L858,374L943,244Z" fill="#f9e8e0" stroke="#f9e8e0" fill-opacity="1" stroke-opacity="1"></path><path d="M943,244L858,374L992,363Z" fill="#f5ece7" stroke="#f5ece7" fill-opacity="1" stroke-opacity="1"></path><path d="M943,244L992,363L1138,244Z" fill="#ede3de" stroke="#ede3de" fill-opacity="1" stroke-opacity="1"></path><path d="M1138,244L992,363L1139,360Z" fill="#e7e4e2" stroke="#e7e4e2" fill-opacity="1" stroke-opacity="1"></path><path d="M1138,244L1139,360L1249,176Z" fill="#e0dad7" stroke="#e0dad7" fill-opacity="1" stroke-opacity="1"></path><path d="M1249,176L1139,360L1319,441Z" fill="#dbdddf" stroke="#dbdddf" fill-opacity="1" stroke-opacity="1"></path><path d="M1249,176L1319,441L1522,306Z" fill="#d0d6da" stroke="#d0d6da" fill-opacity="1" stroke-opacity="1"></path><path d="M1249,176L1522,306L1478,151Z" fill="#ccc9ca" stroke="#ccc9ca" fill-opacity="1" stroke-opacity="1"></path><path d="M1478,151L1522,306L1569,270Z" fill="#c3c8cc" stroke="#c3c8cc" fill-opacity="1" stroke-opacity="1"></path><path d="M1569,270L1522,306L1568,529Z" fill="#c0d3df" stroke="#c0d3df" fill-opacity="1" stroke-opacity="1"></path><path d="M1569,270L1568,529L1726,511Z" fill="#bad7e8" stroke="#bad7e8" fill-opacity="1" stroke-opacity="1"></path><path d="M1569,270L1726,511L1789,332Z" fill="#b4cddc" stroke="#b4cddc" fill-opacity="1" stroke-opacity="1"></path><path d="M1569,270L1789,332L1711,158Z" fill="#b5c1ca" stroke="#b5c1ca" fill-opacity="1" stroke-opacity="1"></path><path d="M1711,158L1789,332L1887,293Z" fill="#acbdc9" stroke="#acbdc9" fill-opacity="1" stroke-opacity="1"></path><path d="M1887,293L1789,332L1911,421Z" fill="#a6c3d5" stroke="#a6c3d5" fill-opacity="1" stroke-opacity="1"></path><path d="M1887,293L1911,421L2007,295Z" fill="#a0bed1" stroke="#a0bed1" fill-opacity="1" stroke-opacity="1"></path><path d="M2007,295L1911,421L2031,315Z" fill="#9cbdd1" stroke="#9cbdd1" fill-opacity="1" stroke-opacity="1"></path><path d="M2007,295L2031,315L2195,231Z" fill="#94b2c5" stroke="#94b2c5" fill-opacity="1" stroke-opacity="1"></path><path d="M2195,231L2031,315L2201,389Z" fill="#8eb2c8" stroke="#8eb2c8" fill-opacity="1" stroke-opacity="1"></path><path d="M2195,231L2201,389L2319,404Z" fill="#86b1ca" stroke="#86b1ca" fill-opacity="1" stroke-opacity="1"></path><path d="M2195,231L2319,404L2345,152Z" fill="#82a7bd" stroke="#82a7bd" fill-opacity="1" stroke-opacity="1"></path><path d="M2345,152L2319,404L2490,226Z" fill="#80a2ba" stroke="#80a2ba" fill-opacity="1" stroke-opacity="1"></path><path d="M2490,226L2319,404L2511,380Z" fill="#80a7c5" stroke="#80a7c5" fill-opacity="1" stroke-opacity="1"></path><path d="M2490,226L2511,380L2642,168Z" fill="#809ab7" stroke="#809ab7" fill-opacity="1" stroke-opacity="1"></path><path d="M2642,168L2511,380L2675,397Z" fill="#809dbe" stroke="#809dbe" fill-opacity="1" stroke-opacity="1"></path><path d="M2642,168L2675,397L2728,324Z" fill="#8098b9" stroke="#8098b9" fill-opacity="1" stroke-opacity="1"></path><path d="M2642,168L2728,324L2780,205Z" fill="#8090af" stroke="#8090af" fill-opacity="1" stroke-opacity="1"></path><path d="M2780,205L2728,324L2841,586Z" fill="#809cc2" stroke="#809cc2" fill-opacity="1" stroke-opacity="1"></path><path d="M-59,391L-124,961L-47,529Z" fill="#dcb5a9" stroke="#dcb5a9" fill-opacity="1" stroke-opacity="1"></path><path d="M-59,391L-47,529L3,407Z" fill="#f7c2ad" stroke="#f7c2ad" fill-opacity="1" stroke-opacity="1"></path><path d="M3,407L-47,529L114,584Z" fill="#eec3b2" stroke="#eec3b2" fill-opacity="1" stroke-opacity="1"></path><path d="M3,407L114,584L255,548Z" fill="#eec9bb" stroke="#eec9bb" fill-opacity="1" stroke-opacity="1"></path><path d="M3,407L255,548L247,301Z" fill="#f8cdbb" stroke="#f8cdbb" fill-opacity="1" stroke-opacity="1"></path><path d="M247,301L255,548L386,467Z" fill="#f9d7c9" stroke="#f9d7c9" fill-opacity="1" stroke-opacity="1"></path><path d="M247,301L386,467L387,382Z" fill="#f9d4c4" stroke="#f9d4c4" fill-opacity="1" stroke-opacity="1"></path><path d="M387,382L386,467L464,421Z" fill="#f9ddd1" stroke="#f9ddd1" fill-opacity="1" stroke-opacity="1"></path><path d="M464,421L386,467L557,501Z" fill="#f7e2da" stroke="#f7e2da" fill-opacity="1" stroke-opacity="1"></path><path d="M464,421L557,501L660,322Z" fill="#fae5dd" stroke="#fae5dd" fill-opacity="1" stroke-opacity="1"></path><path d="M660,322L557,501L717,481Z" fill="#faece7" stroke="#faece7" fill-opacity="1" stroke-opacity="1"></path><path d="M660,322L717,481L792,476Z" fill="#fbf1ed" stroke="#fbf1ed" fill-opacity="1" stroke-opacity="1"></path><path d="M660,322L792,476L858,374Z" fill="#fbf0ec" stroke="#fbf0ec" fill-opacity="1" stroke-opacity="1"></path><path d="M858,374L792,476L920,597Z" fill="#f6f9fb" stroke="#f6f9fb" fill-opacity="1" stroke-opacity="1"></path><path d="M858,374L920,597L992,363Z" fill="#f5f8f9" stroke="#f5f8f9" fill-opacity="1" stroke-opacity="1"></path><path d="M992,363L920,597L1059,558Z" fill="#e7f1f8" stroke="#e7f1f8" fill-opacity="1" stroke-opacity="1"></path><path d="M992,363L1059,558L1139,360Z" fill="#e9f0f3" stroke="#e9f0f3" fill-opacity="1" stroke-opacity="1"></path><path d="M1139,360L1059,558L1136,604Z" fill="#dcecf5" stroke="#dcecf5" fill-opacity="1" stroke-opacity="1"></path><path d="M1139,360L1136,604L1319,441Z" fill="#dbeaf3" stroke="#dbeaf3" fill-opacity="1" stroke-opacity="1"></path><path d="M1319,441L1136,604L1347,472Z" fill="#d0e5f1" stroke="#d0e5f1" fill-opacity="1" stroke-opacity="1"></path><path d="M1319,441L1347,472L1474,429Z" fill="#cfe3ef" stroke="#cfe3ef" fill-opacity="1" stroke-opacity="1"></path><path d="M1319,441L1474,429L1522,306Z" fill="#cadbe5" stroke="#cadbe5" fill-opacity="1" stroke-opacity="1"></path><path d="M1474,429L1347,472L1446,586Z" fill="#c4deed" stroke="#c4deed" fill-opacity="1" stroke-opacity="1"></path><path d="M1474,429L1446,586L1568,529Z" fill="#bbdaec" stroke="#bbdaec" fill-opacity="1" stroke-opacity="1"></path><path d="M1474,429L1568,529L1522,306Z" fill="#c3dae8" stroke="#c3dae8" fill-opacity="1" stroke-opacity="1"></path><path d="M1789,332L1726,511L1911,421Z" fill="#abcde1" stroke="#abcde1" fill-opacity="1" stroke-opacity="1"></path><path d="M1911,421L1726,511L1881,582Z" fill="#9fcbe4" stroke="#9fcbe4" fill-opacity="1" stroke-opacity="1"></path><path d="M1911,421L1881,582L2010,456Z" fill="#9ac7e1" stroke="#9ac7e1" fill-opacity="1" stroke-opacity="1"></path><path d="M1911,421L2010,456L2031,315Z" fill="#9cc3d9" stroke="#9cc3d9" fill-opacity="1" stroke-opacity="1"></path><path d="M2031,315L2010,456L2201,389Z" fill="#94bdd5" stroke="#94bdd5" fill-opacity="1" stroke-opacity="1"></path><path d="M2201,389L2010,456L2220,584Z" fill="#8abedc" stroke="#8abedc" fill-opacity="1" stroke-opacity="1"></path><path d="M2201,389L2220,584L2319,404Z" fill="#84bbdb" stroke="#84bbdb" fill-opacity="1" stroke-opacity="1"></path><path d="M2319,404L2220,584L2388,463Z" fill="#7bb7d9" stroke="#7bb7d9" fill-opacity="1" stroke-opacity="1"></path><path d="M2319,404L2388,463L2511,380Z" fill="#80b1d2" stroke="#80b1d2" fill-opacity="1" stroke-opacity="1"></path><path d="M2511,380L2388,463L2470,567Z" fill="#7cb0d6" stroke="#7cb0d6" fill-opacity="1" stroke-opacity="1"></path><path d="M2511,380L2470,567L2639,474Z" fill="#7cadd4" stroke="#7cadd4" fill-opacity="1" stroke-opacity="1"></path><path d="M2511,380L2639,474L2675,397Z" fill="#80a8ce" stroke="#80a8ce" fill-opacity="1" stroke-opacity="1"></path><path d="M2675,397L2639,474L2841,586Z" fill="#7aa3cf" stroke="#7aa3cf" fill-opacity="1" stroke-opacity="1"></path><path d="M2675,397L2841,586L2728,324Z" fill="#80a4cd" stroke="#80a4cd" fill-opacity="1" stroke-opacity="1"></path><path d="M-47,529L-124,961L-35,650Z" fill="#d0b0a8" stroke="#d0b0a8" fill-opacity="1" stroke-opacity="1"></path><path d="M-47,529L-35,650L114,584Z" fill="#e3bdb0" stroke="#e3bdb0" fill-opacity="1" stroke-opacity="1"></path><path d="M114,584L-35,650L117,674Z" fill="#dcbdb5" stroke="#dcbdb5" fill-opacity="1" stroke-opacity="1"></path><path d="M114,584L117,674L226,715Z" fill="#d9c2bc" stroke="#d9c2bc" fill-opacity="1" stroke-opacity="1"></path><path d="M114,584L226,715L255,548Z" fill="#dfc7c1" stroke="#dfc7c1" fill-opacity="1" stroke-opacity="1"></path><path d="M255,548L226,715L366,737Z" fill="#d8cac7" stroke="#d8cac7" fill-opacity="1" stroke-opacity="1"></path><path d="M255,548L366,737L386,467Z" fill="#e5d2cd" stroke="#e5d2cd" fill-opacity="1" stroke-opacity="1"></path><path d="M386,467L366,737L564,642Z" fill="#e0d7d6" stroke="#e0d7d6" fill-opacity="1" stroke-opacity="1"></path><path d="M386,467L564,642L557,501Z" fill="#eddfdc" stroke="#eddfdc" fill-opacity="1" stroke-opacity="1"></path><path d="M557,501L564,642L637,600Z" fill="#e6e2e3" stroke="#e6e2e3" fill-opacity="1" stroke-opacity="1"></path><path d="M557,501L637,600L717,481Z" fill="#eee8e8" stroke="#eee8e8" fill-opacity="1" stroke-opacity="1"></path><path d="M717,481L637,600L771,605Z" fill="#eaebee" stroke="#eaebee" fill-opacity="1" stroke-opacity="1"></path><path d="M717,481L771,605L792,476Z" fill="#f0f1f3" stroke="#f0f1f3" fill-opacity="1" stroke-opacity="1"></path><path d="M792,476L771,605L920,597Z" fill="#ebf3f8" stroke="#ebf3f8" fill-opacity="1" stroke-opacity="1"></path><path d="M920,597L771,605L930,669Z" fill="#e0f0f9" stroke="#e0f0f9" fill-opacity="1" stroke-opacity="1"></path><path d="M920,597L930,669L1059,558Z" fill="#daecf7" stroke="#daecf7" fill-opacity="1" stroke-opacity="1"></path><path d="M1059,558L930,669L1136,604Z" fill="#d3e9f5" stroke="#d3e9f5" fill-opacity="1" stroke-opacity="1"></path><path d="M1347,472L1136,604L1258,683Z" fill="#c5e1f1" stroke="#c5e1f1" fill-opacity="1" stroke-opacity="1"></path><path d="M1347,472L1258,683L1397,634Z" fill="#bddcee" stroke="#bddcee" fill-opacity="1" stroke-opacity="1"></path><path d="M1347,472L1397,634L1446,586Z" fill="#bcdbee" stroke="#bcdbee" fill-opacity="1" stroke-opacity="1"></path><path d="M1446,586L1397,634L1615,604Z" fill="#aed5eb" stroke="#aed5eb" fill-opacity="1" stroke-opacity="1"></path><path d="M1446,586L1615,604L1568,529Z" fill="#afd4ea" stroke="#afd4ea" fill-opacity="1" stroke-opacity="1"></path><path d="M1568,529L1615,604L1726,511Z" fill="#aad1e8" stroke="#aad1e8" fill-opacity="1" stroke-opacity="1"></path><path d="M1726,511L1615,604L1766,670Z" fill="#9ecbe6" stroke="#9ecbe6" fill-opacity="1" stroke-opacity="1"></path><path d="M1726,511L1766,670L1881,582Z" fill="#98c8e4" stroke="#98c8e4" fill-opacity="1" stroke-opacity="1"></path><path d="M1881,582L1766,670L1937,705Z" fill="#88c1e2" stroke="#88c1e2" fill-opacity="1" stroke-opacity="1"></path><path d="M1881,582L1937,705L2022,631Z" fill="#82bee0" stroke="#82bee0" fill-opacity="1" stroke-opacity="1"></path><path d="M1881,582L2022,631L2010,456Z" fill="#8dc2e0" stroke="#8dc2e0" fill-opacity="1" stroke-opacity="1"></path><path d="M2010,456L2022,631L2220,584Z" fill="#83bcdd" stroke="#83bcdd" fill-opacity="1" stroke-opacity="1"></path><path d="M2220,584L2022,631L2227,616Z" fill="#75b6db" stroke="#75b6db" fill-opacity="1" stroke-opacity="1"></path><path d="M2220,584L2227,616L2388,463Z" fill="#73b4d9" stroke="#73b4d9" fill-opacity="1" stroke-opacity="1"></path><path d="M2388,463L2227,616L2470,567Z" fill="#71b0d7" stroke="#71b0d7" fill-opacity="1" stroke-opacity="1"></path><path d="M2470,567L2227,616L2373,740Z" fill="#63abd6" stroke="#63abd6" fill-opacity="1" stroke-opacity="1"></path><path d="M2470,567L2373,740L2486,603Z" fill="#64a7d4" stroke="#64a7d4" fill-opacity="1" stroke-opacity="1"></path><path d="M2470,567L2486,603L2639,474Z" fill="#71a8d3" stroke="#71a8d3" fill-opacity="1" stroke-opacity="1"></path><path d="M2639,474L2486,603L2692,600Z" fill="#6fa5d1" stroke="#6fa5d1" fill-opacity="1" stroke-opacity="1"></path><path d="M2639,474L2692,600L2841,586Z" fill="#709fce" stroke="#709fce" fill-opacity="1" stroke-opacity="1"></path><path d="M2841,586L2692,600L2767,683Z" fill="#6699cd" stroke="#6699cd" fill-opacity="1" stroke-opacity="1"></path><path d="M2841,586L2767,683L2748,754Z" fill="#5e95cc" stroke="#5e95cc" fill-opacity="1" stroke-opacity="1"></path><path d="M2841,586L2748,754L2742,1049Z" fill="#4c8ecb" stroke="#4c8ecb" fill-opacity="1" stroke-opacity="1"></path><path d="M2841,586L2742,1049L2769,1187Z" fill="#3785c9" stroke="#3785c9" fill-opacity="1" stroke-opacity="1"></path><path d="M2841,586L2769,1187L2799,1401Z" fill="#267dc8" stroke="#267dc8" fill-opacity="1" stroke-opacity="1"></path><path d="M-35,650L-124,961L-19,850Z" fill="#c0aaa8" stroke="#c0aaa8" fill-opacity="1" stroke-opacity="1"></path><path d="M-35,650L-19,850L42,792Z" fill="#c9b1ad" stroke="#c9b1ad" fill-opacity="1" stroke-opacity="1"></path><path d="M-35,650L42,792L117,674Z" fill="#d1b8b2" stroke="#d1b8b2" fill-opacity="1" stroke-opacity="1"></path><path d="M117,674L42,792L168,809Z" fill="#cab9b7" stroke="#cab9b7" fill-opacity="1" stroke-opacity="1"></path><path d="M117,674L168,809L226,715Z" fill="#cebfbd" stroke="#cebfbd" fill-opacity="1" stroke-opacity="1"></path><path d="M226,715L168,809L386,838Z" fill="#c6c1c4" stroke="#c6c1c4" fill-opacity="1" stroke-opacity="1"></path><path d="M226,715L386,838L366,737Z" fill="#cac7ca" stroke="#cac7ca" fill-opacity="1" stroke-opacity="1"></path><path d="M366,737L386,838L532,806Z" fill="#c6cbd3" stroke="#c6cbd3" fill-opacity="1" stroke-opacity="1"></path><path d="M366,737L532,806L564,642Z" fill="#d0d3d9" stroke="#d0d3d9" fill-opacity="1" stroke-opacity="1"></path><path d="M564,642L532,806L659,751Z" fill="#d0d9e1" stroke="#d0d9e1" fill-opacity="1" stroke-opacity="1"></path><path d="M564,642L659,751L637,600Z" fill="#dadfe5" stroke="#dadfe5" fill-opacity="1" stroke-opacity="1"></path><path d="M637,600L659,751L771,605Z" fill="#dce4eb" stroke="#dce4eb" fill-opacity="1" stroke-opacity="1"></path><path d="M771,605L659,751L775,871Z" fill="#cfe2ee" stroke="#cfe2ee" fill-opacity="1" stroke-opacity="1"></path><path d="M771,605L775,871L930,669Z" fill="#d4e9f6" stroke="#d4e9f6" fill-opacity="1" stroke-opacity="1"></path><path d="M930,669L775,871L927,818Z" fill="#c7e6f8" stroke="#c7e6f8" fill-opacity="1" stroke-opacity="1"></path><path d="M930,669L927,818L1163,869Z" fill="#bce0f5" stroke="#bce0f5" fill-opacity="1" stroke-opacity="1"></path><path d="M930,669L1163,869L1136,604Z" fill="#c1e1f4" stroke="#c1e1f4" fill-opacity="1" stroke-opacity="1"></path><path d="M1136,604L1163,869L1258,683Z" fill="#b7dcf1" stroke="#b7dcf1" fill-opacity="1" stroke-opacity="1"></path><path d="M1258,683L1163,869L1346,845Z" fill="#a5d4ef" stroke="#a5d4ef" fill-opacity="1" stroke-opacity="1"></path><path d="M1258,683L1346,845L1397,634Z" fill="#aad5ed" stroke="#aad5ed" fill-opacity="1" stroke-opacity="1"></path><path d="M1397,634L1346,845L1398,842Z" fill="#9fd0ec" stroke="#9fd0ec" fill-opacity="1" stroke-opacity="1"></path><path d="M1397,634L1398,842L1612,859Z" fill="#96cbea" stroke="#96cbea" fill-opacity="1" stroke-opacity="1"></path><path d="M1397,634L1612,859L1615,604Z" fill="#9ccde9" stroke="#9ccde9" fill-opacity="1" stroke-opacity="1"></path><path d="M1615,604L1612,859L1766,670Z" fill="#90c6e6" stroke="#90c6e6" fill-opacity="1" stroke-opacity="1"></path><path d="M1766,670L1612,859L1722,899Z" fill="#7ebfe4" stroke="#7ebfe4" fill-opacity="1" stroke-opacity="1"></path><path d="M1766,670L1722,899L1827,852Z" fill="#79bce3" stroke="#79bce3" fill-opacity="1" stroke-opacity="1"></path><path d="M1766,670L1827,852L1937,705Z" fill="#7cbce2" stroke="#7cbce2" fill-opacity="1" stroke-opacity="1"></path><path d="M1937,705L1827,852L2074,772Z" fill="#6eb5df" stroke="#6eb5df" fill-opacity="1" stroke-opacity="1"></path><path d="M1937,705L2074,772L2022,631Z" fill="#74b7de" stroke="#74b7de" fill-opacity="1" stroke-opacity="1"></path><path d="M2022,631L2074,772L2227,616Z" fill="#70b4dc" stroke="#70b4dc" fill-opacity="1" stroke-opacity="1"></path><path d="M2227,616L2074,772L2219,822Z" fill="#61adda" stroke="#61adda" fill-opacity="1" stroke-opacity="1"></path><path d="M2227,616L2219,822L2373,740Z" fill="#5aa9d7" stroke="#5aa9d7" fill-opacity="1" stroke-opacity="1"></path><path d="M2373,740L2219,822L2307,850Z" fill="#4da4d6" stroke="#4da4d6" fill-opacity="1" stroke-opacity="1"></path><path d="M2373,740L2307,850L2441,789Z" fill="#4da1d5" stroke="#4da1d5" fill-opacity="1" stroke-opacity="1"></path><path d="M2373,740L2441,789L2486,603Z" fill="#59a3d4" stroke="#59a3d4" fill-opacity="1" stroke-opacity="1"></path><path d="M2486,603L2441,789L2637,782Z" fill="#579ed2" stroke="#579ed2" fill-opacity="1" stroke-opacity="1"></path><path d="M2486,603L2637,782L2692,600Z" fill="#609ed0" stroke="#609ed0" fill-opacity="1" stroke-opacity="1"></path><path d="M2692,600L2637,782L2767,683Z" fill="#5c98ce" stroke="#5c98ce" fill-opacity="1" stroke-opacity="1"></path><path d="M2767,683L2637,782L2748,754Z" fill="#5595cd" stroke="#5595cd" fill-opacity="1" stroke-opacity="1"></path><path d="M-19,850L-124,961L89,914Z" fill="#b3a8ab" stroke="#b3a8ab" fill-opacity="1" stroke-opacity="1"></path><path d="M-19,850L89,914L42,792Z" fill="#bcafb1" stroke="#bcafb1" fill-opacity="1" stroke-opacity="1"></path><path d="M42,792L89,914L168,809Z" fill="#beb4b6" stroke="#beb4b6" fill-opacity="1" stroke-opacity="1"></path><path d="M168,809L89,914L223,916Z" fill="#b8b5bb" stroke="#b8b5bb" fill-opacity="1" stroke-opacity="1"></path><path d="M168,809L223,916L386,838Z" fill="#bcbdc4" stroke="#bcbdc4" fill-opacity="1" stroke-opacity="1"></path><path d="M386,838L223,916L405,944Z" fill="#b6bfca" stroke="#b6bfca" fill-opacity="1" stroke-opacity="1"></path><path d="M386,838L405,944L532,806Z" fill="#bcc8d4" stroke="#bcc8d4" fill-opacity="1" stroke-opacity="1"></path><path d="M532,806L405,944L501,1029Z" fill="#b3c6d6" stroke="#b3c6d6" fill-opacity="1" stroke-opacity="1"></path><path d="M532,806L501,1029L545,1050Z" fill="#aec7da" stroke="#aec7da" fill-opacity="1" stroke-opacity="1"></path><path d="M532,806L545,1050L775,871Z" fill="#b6d0e3" stroke="#b6d0e3" fill-opacity="1" stroke-opacity="1"></path><path d="M532,806L775,871L659,751Z" fill="#c5d9e7" stroke="#c5d9e7" fill-opacity="1" stroke-opacity="1"></path><path d="M775,871L545,1050L747,1046Z" fill="#aad0e8" stroke="#aad0e8" fill-opacity="1" stroke-opacity="1"></path><path d="M775,871L747,1046L843,945Z" fill="#b0d9f1" stroke="#b0d9f1" fill-opacity="1" stroke-opacity="1"></path><path d="M775,871L843,945L927,818Z" fill="#bce1f7" stroke="#bce1f7" fill-opacity="1" stroke-opacity="1"></path><path d="M927,818L843,945L923,990Z" fill="#b2ddf6" stroke="#b2ddf6" fill-opacity="1" stroke-opacity="1"></path><path d="M927,818L923,990L1163,869Z" fill="#add9f4" stroke="#add9f4" fill-opacity="1" stroke-opacity="1"></path><path d="M1163,869L923,990L1095,1036Z" fill="#9dd3f2" stroke="#9dd3f2" fill-opacity="1" stroke-opacity="1"></path><path d="M1163,869L1095,1036L1311,1012Z" fill="#91ccef" stroke="#91ccef" fill-opacity="1" stroke-opacity="1"></path><path d="M1163,869L1311,1012L1346,845Z" fill="#94cced" stroke="#94cced" fill-opacity="1" stroke-opacity="1"></path><path d="M1346,845L1311,1012L1442,915Z" fill="#89c7eb" stroke="#89c7eb" fill-opacity="1" stroke-opacity="1"></path><path d="M1346,845L1442,915L1398,842Z" fill="#8fc9eb" stroke="#8fc9eb" fill-opacity="1" stroke-opacity="1"></path><path d="M1398,842L1442,915L1612,859Z" fill="#87c5e8" stroke="#87c5e8" fill-opacity="1" stroke-opacity="1"></path><path d="M1612,859L1442,915L1587,936Z" fill="#7dc0e7" stroke="#7dc0e7" fill-opacity="1" stroke-opacity="1"></path><path d="M1612,859L1587,936L1722,899Z" fill="#76bce5" stroke="#76bce5" fill-opacity="1" stroke-opacity="1"></path><path d="M1722,899L1587,936L1758,962Z" fill="#6db8e3" stroke="#6db8e3" fill-opacity="1" stroke-opacity="1"></path><path d="M1722,899L1758,962L1827,852Z" fill="#6ab6e2" stroke="#6ab6e2" fill-opacity="1" stroke-opacity="1"></path><path d="M1827,852L1758,962L1852,925Z" fill="#66b3e1" stroke="#66b3e1" fill-opacity="1" stroke-opacity="1"></path><path d="M1827,852L1852,925L2074,772Z" fill="#66b2df" stroke="#66b2df" fill-opacity="1" stroke-opacity="1"></path><path d="M2074,772L1852,925L2041,983Z" fill="#59acdd" stroke="#59acdd" fill-opacity="1" stroke-opacity="1"></path><path d="M2074,772L2041,983L2219,822Z" fill="#55a9da" stroke="#55a9da" fill-opacity="1" stroke-opacity="1"></path><path d="M2219,822L2041,983L2248,937Z" fill="#47a3d8" stroke="#47a3d8" fill-opacity="1" stroke-opacity="1"></path><path d="M2219,822L2248,937L2258,922Z" fill="#44a1d7" stroke="#44a1d7" fill-opacity="1" stroke-opacity="1"></path><path d="M2219,822L2258,922L2307,850Z" fill="#47a2d7" stroke="#47a2d7" fill-opacity="1" stroke-opacity="1"></path><path d="M2307,850L2258,922L2497,971Z" fill="#3b9bd4" stroke="#3b9bd4" fill-opacity="1" stroke-opacity="1"></path><path d="M2307,850L2497,971L2441,789Z" fill="#419ad3" stroke="#419ad3" fill-opacity="1" stroke-opacity="1"></path><path d="M2441,789L2497,971L2600,924Z" fill="#3e94d0" stroke="#3e94d0" fill-opacity="1" stroke-opacity="1"></path><path d="M2441,789L2600,924L2637,782Z" fill="#4796d0" stroke="#4796d0" fill-opacity="1" stroke-opacity="1"></path><path d="M2637,782L2600,924L2748,754Z" fill="#4992cd" stroke="#4992cd" fill-opacity="1" stroke-opacity="1"></path><path d="M2748,754L2600,924L2742,1049Z" fill="#3c8bcc" stroke="#3c8bcc" fill-opacity="1" stroke-opacity="1"></path><path d="M-124,961L-149,1221L-49,1121Z" fill="#9696a1" stroke="#9696a1" fill-opacity="1" stroke-opacity="1"></path><path d="M-124,961L-49,1121L89,914Z" fill="#a6a1a9" stroke="#a6a1a9" fill-opacity="1" stroke-opacity="1"></path><path d="M89,914L-49,1121L20,1183Z" fill="#9ba1ad" stroke="#9ba1ad" fill-opacity="1" stroke-opacity="1"></path><path d="M89,914L20,1183L248,1163Z" fill="#99a6b6" stroke="#99a6b6" fill-opacity="1" stroke-opacity="1"></path><path d="M89,914L248,1163L223,916Z" fill="#a7b0bc" stroke="#a7b0bc" fill-opacity="1" stroke-opacity="1"></path><path d="M223,916L248,1163L405,944Z" fill="#a6b5c5" stroke="#a6b5c5" fill-opacity="1" stroke-opacity="1"></path><path d="M405,944L248,1163L447,1074Z" fill="#9eb7cb" stroke="#9eb7cb" fill-opacity="1" stroke-opacity="1"></path><path d="M405,944L447,1074L501,1029Z" fill="#a5bfd3" stroke="#a5bfd3" fill-opacity="1" stroke-opacity="1"></path><path d="M501,1029L447,1074L545,1050Z" fill="#a1c0d7" stroke="#a1c0d7" fill-opacity="1" stroke-opacity="1"></path><path d="M747,1046L545,1050L654,1146Z" fill="#9dc8e4" stroke="#9dc8e4" fill-opacity="1" stroke-opacity="1"></path><path d="M747,1046L654,1146L852,1096Z" fill="#9bceec" stroke="#9bceec" fill-opacity="1" stroke-opacity="1"></path><path d="M747,1046L852,1096L843,945Z" fill="#a5d6f3" stroke="#a5d6f3" fill-opacity="1" stroke-opacity="1"></path><path d="M843,945L852,1096L923,990Z" fill="#a7d8f6" stroke="#a7d8f6" fill-opacity="1" stroke-opacity="1"></path><path d="M923,990L852,1096L957,1147Z" fill="#99d3f4" stroke="#99d3f4" fill-opacity="1" stroke-opacity="1"></path><path d="M923,990L957,1147L1095,1036Z" fill="#96d0f2" stroke="#96d0f2" fill-opacity="1" stroke-opacity="1"></path><path d="M1095,1036L957,1147L1108,1107Z" fill="#8acbf1" stroke="#8acbf1" fill-opacity="1" stroke-opacity="1"></path><path d="M1095,1036L1108,1107L1311,1012Z" fill="#87c8ee" stroke="#87c8ee" fill-opacity="1" stroke-opacity="1"></path><path d="M1311,1012L1108,1107L1280,1140Z" fill="#7dc3ed" stroke="#7dc3ed" fill-opacity="1" stroke-opacity="1"></path><path d="M1311,1012L1280,1140L1352,1191Z" fill="#72beea" stroke="#72beea" fill-opacity="1" stroke-opacity="1"></path><path d="M1311,1012L1352,1191L1503,1065Z" fill="#70bce9" stroke="#70bce9" fill-opacity="1" stroke-opacity="1"></path><path d="M1311,1012L1503,1065L1442,915Z" fill="#7bc0e9" stroke="#7bc0e9" fill-opacity="1" stroke-opacity="1"></path><path d="M1442,915L1503,1065L1587,936Z" fill="#76bee7" stroke="#76bee7" fill-opacity="1" stroke-opacity="1"></path><path d="M1587,936L1503,1065L1739,1147Z" fill="#62b4e4" stroke="#62b4e4" fill-opacity="1" stroke-opacity="1"></path><path d="M1587,936L1739,1147L1758,962Z" fill="#60b2e3" stroke="#60b2e3" fill-opacity="1" stroke-opacity="1"></path><path d="M1758,962L1739,1147L1856,1127Z" fill="#50abe0" stroke="#50abe0" fill-opacity="1" stroke-opacity="1"></path><path d="M1758,962L1856,1127L1852,925Z" fill="#57ade0" stroke="#57ade0" fill-opacity="1" stroke-opacity="1"></path><path d="M1852,925L1856,1127L2041,983Z" fill="#4ea9dd" stroke="#4ea9dd" fill-opacity="1" stroke-opacity="1"></path><path d="M2041,983L1856,1127L2043,1072Z" fill="#42a3db" stroke="#42a3db" fill-opacity="1" stroke-opacity="1"></path><path d="M2041,983L2043,1072L2248,937Z" fill="#40a1d9" stroke="#40a1d9" fill-opacity="1" stroke-opacity="1"></path><path d="M2248,937L2043,1072L2119,1162Z" fill="#359cd8" stroke="#359cd8" fill-opacity="1" stroke-opacity="1"></path><path d="M2248,937L2119,1162L2348,1200Z" fill="#2694d5" stroke="#2694d5" fill-opacity="1" stroke-opacity="1"></path><path d="M2248,937L2348,1200L2497,971Z" fill="#2993d2" stroke="#2993d2" fill-opacity="1" stroke-opacity="1"></path><path d="M2248,937L2497,971L2258,922Z" fill="#379ad4" stroke="#379ad4" fill-opacity="1" stroke-opacity="1"></path><path d="M2497,971L2348,1200L2529,1110Z" fill="#208bd0" stroke="#208bd0" fill-opacity="1" stroke-opacity="1"></path><path d="M2497,971L2529,1110L2600,924Z" fill="#2e8dcf" stroke="#2e8dcf" fill-opacity="1" stroke-opacity="1"></path><path d="M2600,924L2529,1110L2672,1114Z" fill="#2787cd" stroke="#2787cd" fill-opacity="1" stroke-opacity="1"></path><path d="M2600,924L2672,1114L2742,1049Z" fill="#2a85cc" stroke="#2a85cc" fill-opacity="1" stroke-opacity="1"></path><path d="M2742,1049L2672,1114L2769,1187Z" fill="#1d7dc9" stroke="#1d7dc9" fill-opacity="1" stroke-opacity="1"></path><path d="M-49,1121L-149,1221L20,1183Z" fill="#8b95a5" stroke="#8b95a5" fill-opacity="1" stroke-opacity="1"></path><path d="M20,1183L-149,1221L27,1309Z" fill="#8393a7" stroke="#8393a7" fill-opacity="1" stroke-opacity="1"></path><path d="M20,1183L27,1309L212,1306Z" fill="#7f99b1" stroke="#7f99b1" fill-opacity="1" stroke-opacity="1"></path><path d="M20,1183L212,1306L248,1163Z" fill="#87a0b8" stroke="#87a0b8" fill-opacity="1" stroke-opacity="1"></path><path d="M248,1163L212,1306L350,1320Z" fill="#80a5c1" stroke="#80a5c1" fill-opacity="1" stroke-opacity="1"></path><path d="M248,1163L350,1320L447,1074Z" fill="#8cafc9" stroke="#8cafc9" fill-opacity="1" stroke-opacity="1"></path><path d="M447,1074L350,1320L572,1286Z" fill="#86b3d2" stroke="#86b3d2" fill-opacity="1" stroke-opacity="1"></path><path d="M447,1074L572,1286L545,1050Z" fill="#94bdd8" stroke="#94bdd8" fill-opacity="1" stroke-opacity="1"></path><path d="M545,1050L572,1286L654,1146Z" fill="#91bfde" stroke="#91bfde" fill-opacity="1" stroke-opacity="1"></path><path d="M654,1146L572,1286L692,1287Z" fill="#85bee2" stroke="#85bee2" fill-opacity="1" stroke-opacity="1"></path><path d="M654,1146L692,1287L777,1302Z" fill="#85c2e8" stroke="#85c2e8" fill-opacity="1" stroke-opacity="1"></path><path d="M654,1146L777,1302L852,1096Z" fill="#8ec9ed" stroke="#8ec9ed" fill-opacity="1" stroke-opacity="1"></path><path d="M852,1096L777,1302L957,1147Z" fill="#8ecef5" stroke="#8ecef5" fill-opacity="1" stroke-opacity="1"></path><path d="M957,1147L777,1302L1046,1277Z" fill="#80c8f3" stroke="#80c8f3" fill-opacity="1" stroke-opacity="1"></path><path d="M957,1147L1046,1277L1108,1107Z" fill="#80c7f0" stroke="#80c7f0" fill-opacity="1" stroke-opacity="1"></path><path d="M1108,1107L1046,1277L1201,1296Z" fill="#72c0ee" stroke="#72c0ee" fill-opacity="1" stroke-opacity="1"></path><path d="M1108,1107L1201,1296L1280,1140Z" fill="#72bfed" stroke="#72bfed" fill-opacity="1" stroke-opacity="1"></path><path d="M1280,1140L1201,1296L1356,1259Z" fill="#64b8ea" stroke="#64b8ea" fill-opacity="1" stroke-opacity="1"></path><path d="M1280,1140L1356,1259L1352,1191Z" fill="#65b8ea" stroke="#65b8ea" fill-opacity="1" stroke-opacity="1"></path><path d="M1352,1191L1356,1259L1538,1299Z" fill="#55b1e7" stroke="#55b1e7" fill-opacity="1" stroke-opacity="1"></path><path d="M1352,1191L1538,1299L1503,1065Z" fill="#5bb3e6" stroke="#5bb3e6" fill-opacity="1" stroke-opacity="1"></path><path d="M1503,1065L1538,1299L1739,1147Z" fill="#52aee3" stroke="#52aee3" fill-opacity="1" stroke-opacity="1"></path><path d="M1739,1147L1538,1299L1756,1347Z" fill="#3da4e0" stroke="#3da4e0" fill-opacity="1" stroke-opacity="1"></path><path d="M1739,1147L1756,1347L1836,1311Z" fill="#34a0de" stroke="#34a0de" fill-opacity="1" stroke-opacity="1"></path><path d="M1739,1147L1836,1311L1856,1127Z" fill="#3ca2de" stroke="#3ca2de" fill-opacity="1" stroke-opacity="1"></path><path d="M1856,1127L1836,1311L1972,1266Z" fill="#309cdc" stroke="#309cdc" fill-opacity="1" stroke-opacity="1"></path><path d="M1856,1127L1972,1266L2043,1072Z" fill="#369edb" stroke="#369edb" fill-opacity="1" stroke-opacity="1"></path><path d="M2043,1072L1972,1266L2119,1162Z" fill="#2d99d9" stroke="#2d99d9" fill-opacity="1" stroke-opacity="1"></path><path d="M2119,1162L1972,1266L2114,1230Z" fill="#2395d8" stroke="#2395d8" fill-opacity="1" stroke-opacity="1"></path><path d="M2119,1162L2114,1230L2348,1200Z" fill="#1c90d5" stroke="#1c90d5" fill-opacity="1" stroke-opacity="1"></path><path d="M2348,1200L2114,1230L2209,1407Z" fill="#0d8bd4" stroke="#0d8bd4" fill-opacity="1" stroke-opacity="1"></path><path d="M2348,1200L2209,1407L2372,1323Z" fill="#0185d2" stroke="#0185d2" fill-opacity="1" stroke-opacity="1"></path><path d="M2348,1200L2372,1323L2414,1211Z" fill="#0a86d0" stroke="#0a86d0" fill-opacity="1" stroke-opacity="1"></path><path d="M2348,1200L2414,1211L2529,1110Z" fill="#1587d0" stroke="#1587d0" fill-opacity="1" stroke-opacity="1"></path><path d="M2529,1110L2414,1211L2684,1236Z" fill="#1382cd" stroke="#1382cd" fill-opacity="1" stroke-opacity="1"></path><path d="M2529,1110L2684,1236L2672,1114Z" fill="#1880cb" stroke="#1880cb" fill-opacity="1" stroke-opacity="1"></path><path d="M2672,1114L2684,1236L2769,1187Z" fill="#147ac9" stroke="#147ac9" fill-opacity="1" stroke-opacity="1"></path><path d="M2769,1187L2684,1236L2744,1347Z" fill="#0874c8" stroke="#0874c8" fill-opacity="1" stroke-opacity="1"></path><path d="M2769,1187L2744,1347L2799,1401Z" fill="#0070c7" stroke="#0070c7" fill-opacity="1" stroke-opacity="1"></path><path d="M-149,1221L-29,1498L27,1309Z" fill="#788ca4" stroke="#788ca4" fill-opacity="1" stroke-opacity="1"></path><path d="M27,1309L-29,1498L62,1409Z" fill="#788caa" stroke="#788caa" fill-opacity="1" stroke-opacity="1"></path><path d="M27,1309L62,1409L212,1306Z" fill="#7895b2" stroke="#7895b2" fill-opacity="1" stroke-opacity="1"></path><path d="M212,1306L62,1409L278,1456Z" fill="#7998b8" stroke="#7998b8" fill-opacity="1" stroke-opacity="1"></path><path d="M212,1306L278,1456L339,1358Z" fill="#799ec0" stroke="#799ec0" fill-opacity="1" stroke-opacity="1"></path><path d="M212,1306L339,1358L350,1320Z" fill="#79a3c3" stroke="#79a3c3" fill-opacity="1" stroke-opacity="1"></path><path d="M350,1320L339,1358L480,1437Z" fill="#7aa6ca" stroke="#7aa6ca" fill-opacity="1" stroke-opacity="1"></path><path d="M350,1320L480,1437L572,1286Z" fill="#7aacd2" stroke="#7aacd2" fill-opacity="1" stroke-opacity="1"></path><path d="M572,1286L480,1437L686,1439Z" fill="#7ab1db" stroke="#7ab1db" fill-opacity="1" stroke-opacity="1"></path><path d="M572,1286L686,1439L692,1287Z" fill="#7bb9e2" stroke="#7bb9e2" fill-opacity="1" stroke-opacity="1"></path><path d="M692,1287L686,1439L777,1302Z" fill="#7bbde7" stroke="#7bbde7" fill-opacity="1" stroke-opacity="1"></path><path d="M777,1302L686,1439L834,1465Z" fill="#7bbceb" stroke="#7bbceb" fill-opacity="1" stroke-opacity="1"></path><path d="M777,1302L834,1465L1044,1402Z" fill="#79c1f2" stroke="#79c1f2" fill-opacity="1" stroke-opacity="1"></path><path d="M777,1302L1044,1402L1046,1277Z" fill="#73c2f1" stroke="#73c2f1" fill-opacity="1" stroke-opacity="1"></path><path d="M1046,1277L1044,1402L1115,1346Z" fill="#6abbee" stroke="#6abbee" fill-opacity="1" stroke-opacity="1"></path><path d="M1046,1277L1115,1346L1201,1296Z" fill="#66bbed" stroke="#66bbed" fill-opacity="1" stroke-opacity="1"></path><path d="M1115,1346L1044,1402L1114,1475Z" fill="#68b6ed" stroke="#68b6ed" fill-opacity="1" stroke-opacity="1"></path><path d="M1115,1346L1114,1475L1201,1296Z" fill="#63b6ec" stroke="#63b6ec" fill-opacity="1" stroke-opacity="1"></path><path d="M1201,1296L1114,1475L1335,1455Z" fill="#5db1ea" stroke="#5db1ea" fill-opacity="1" stroke-opacity="1"></path><path d="M1201,1296L1335,1455L1390,1404Z" fill="#55aee8" stroke="#55aee8" fill-opacity="1" stroke-opacity="1"></path><path d="M1201,1296L1390,1404L1356,1259Z" fill="#55b2e8" stroke="#55b2e8" fill-opacity="1" stroke-opacity="1"></path><path d="M1356,1259L1390,1404L1538,1299Z" fill="#4bace6" stroke="#4bace6" fill-opacity="1" stroke-opacity="1"></path><path d="M1538,1299L1390,1404L1547,1447Z" fill="#46a6e4" stroke="#46a6e4" fill-opacity="1" stroke-opacity="1"></path><path d="M1538,1299L1547,1447L1756,1347Z" fill="#3ca1e1" stroke="#3ca1e1" fill-opacity="1" stroke-opacity="1"></path><path d="M1756,1347L1547,1447L1773,1460Z" fill="#359adf" stroke="#359adf" fill-opacity="1" stroke-opacity="1"></path><path d="M1756,1347L1773,1460L1836,1311Z" fill="#2d98dd" stroke="#2d98dd" fill-opacity="1" stroke-opacity="1"></path><path d="M1836,1311L1773,1460L1910,1478Z" fill="#2894dc" stroke="#2894dc" fill-opacity="1" stroke-opacity="1"></path><path d="M1836,1311L1910,1478L1972,1266Z" fill="#2395db" stroke="#2395db" fill-opacity="1" stroke-opacity="1"></path><path d="M1972,1266L1910,1478L2089,1495Z" fill="#1c8dd8" stroke="#1c8dd8" fill-opacity="1" stroke-opacity="1"></path><path d="M1972,1266L2089,1495L2114,1230Z" fill="#168fd7" stroke="#168fd7" fill-opacity="1" stroke-opacity="1"></path><path d="M2114,1230L2089,1495L2209,1407Z" fill="#0f89d5" stroke="#0f89d5" fill-opacity="1" stroke-opacity="1"></path><path d="M2372,1323L2209,1407L2344,1440Z" fill="#0180d1" stroke="#0180d1" fill-opacity="1" stroke-opacity="1"></path><path d="M2372,1323L2344,1440L2545,1468Z" fill="#007ace" stroke="#007ace" fill-opacity="1" stroke-opacity="1"></path><path d="M2372,1323L2545,1468L2613,1386Z" fill="#0076cc" stroke="#0076cc" fill-opacity="1" stroke-opacity="1"></path><path d="M2372,1323L2613,1386L2414,1211Z" fill="#017dce" stroke="#017dce" fill-opacity="1" stroke-opacity="1"></path><path d="M2414,1211L2613,1386L2684,1236Z" fill="#057bcb" stroke="#057bcb" fill-opacity="1" stroke-opacity="1"></path><path d="M2684,1236L2613,1386L2744,1347Z" fill="#0073c8" stroke="#0073c8" fill-opacity="1" stroke-opacity="1"></path><path d="M2744,1347L2613,1386L2799,1401Z" fill="#006ec7" stroke="#006ec7" fill-opacity="1" stroke-opacity="1"></path><path d="M-29,1498L2089,1495L1114,1475Z" fill="#6ab3ed" stroke="#6ab3ed" fill-opacity="1" stroke-opacity="1"></path><path d="M-29,1498L1114,1475L834,1465Z" fill="#7bafe0" stroke="#7bafe0" fill-opacity="1" stroke-opacity="1"></path><path d="M-29,1498L834,1465L278,1456Z" fill="#799ec7" stroke="#799ec7" fill-opacity="1" stroke-opacity="1"></path><path d="M-29,1498L278,1456L62,1409Z" fill="#788eb1" stroke="#788eb1" fill-opacity="1" stroke-opacity="1"></path><path d="M278,1456L834,1465L480,1437Z" fill="#7aaad6" stroke="#7aaad6" fill-opacity="1" stroke-opacity="1"></path><path d="M278,1456L480,1437L339,1358Z" fill="#79a2c8" stroke="#79a2c8" fill-opacity="1" stroke-opacity="1"></path><path d="M480,1437L834,1465L686,1439Z" fill="#7bb3e2" stroke="#7bb3e2" fill-opacity="1" stroke-opacity="1"></path><path d="M834,1465L1114,1475L1044,1402Z" fill="#70b8ef" stroke="#70b8ef" fill-opacity="1" stroke-opacity="1"></path><path d="M1114,1475L2089,1495L1910,1478Z" fill="#3496de" stroke="#3496de" fill-opacity="1" stroke-opacity="1"></path><path d="M1114,1475L1910,1478L1335,1455Z" fill="#49a2e4" stroke="#49a2e4" fill-opacity="1" stroke-opacity="1"></path><path d="M1335,1455L1910,1478L1773,1460Z" fill="#3798df" stroke="#3798df" fill-opacity="1" stroke-opacity="1"></path><path d="M1335,1455L1773,1460L1547,1447Z" fill="#419ee2" stroke="#419ee2" fill-opacity="1" stroke-opacity="1"></path><path d="M1335,1455L1547,1447L1390,1404Z" fill="#4ca6e5" stroke="#4ca6e5" fill-opacity="1" stroke-opacity="1"></path><path d="M2089,1495L2545,1468L2344,1440Z" fill="#007ad0" stroke="#007ad0" fill-opacity="1" stroke-opacity="1"></path><path d="M2089,1495L2344,1440L2209,1407Z" fill="#0981d2" stroke="#0981d2" fill-opacity="1" stroke-opacity="1"></path><path d="M2545,1468L2799,1401L2613,1386Z" fill="#006ec9" stroke="#006ec9" fill-opacity="1" stroke-opacity="1"></path></g><filter id="noise"><feTurbulence type="fractalNoise" in="fillPaint" fill="#F00" baseFrequency="0.7" numOctaves="10" stitchTiles="stitch"></feTurbulence><feComponentTransfer><feFuncR type="linear" slope="2" intercept="-.5"></feFuncR><feFuncG type="linear" slope="2" intercept="-.5"></feFuncG><feFuncB type="linear" slope="2" intercept="-.5"></feFuncB></feComponentTransfer><feColorMatrix type="matrix" values="0.3333 0.3333 0.3333 0 0 
 0.3333 0.3333 0.3333 0 0 
 0.3333 0.3333 0.3333 0 0 
 0 0 0 1 0"></feColorMatrix></filter><rect opacity="0.8" width="100%" height="100%" filter="url(#noise)"></rect></svg>